<svg width="61" height="61" viewBox="0 0 61 61" fill="none" xmlns="http://www.w3.org/2000/svg">
<g clipPath="url(#clip0_1130_11605)">
<path d="M32.6094 43.7195C32.6094 43.307 32.6094 42.8945 32.6094 42.3445C32.6094 42.0695 32.6094 41.932 32.6094 41.657C32.6094 40.9695 32.6094 40.4195 32.6094 39.732C32.7469 39.182 32.3344 39.0445 31.9219 39.0445C29.1719 39.0445 26.2844 39.0445 23.5344 39.0445C23.1219 39.0445 22.7094 39.3195 22.8469 39.732C22.8469 44.132 22.8469 48.532 22.8469 53.0695C22.8469 54.7195 22.7094 54.857 21.0594 54.857C18.7219 54.857 16.2469 54.857 13.9094 54.857C12.3969 54.857 12.1219 54.582 12.1219 53.0695C12.1219 47.982 12.1219 42.8945 12.1219 37.807C12.1219 36.8445 12.1219 35.882 11.4344 35.057C11.1594 34.6445 10.7469 34.3695 10.3344 34.232C10.0594 34.0945 9.92188 33.8195 9.92188 33.5445C9.92188 33.2695 10.1969 33.2695 10.3344 33.132C11.7094 32.4445 12.2594 31.207 12.2594 29.6945C12.2594 24.7445 12.2594 19.932 12.2594 14.982C12.2594 13.7445 12.2594 12.3695 12.3969 11.132C12.3969 10.032 12.6719 8.93203 13.2219 7.96953C13.9094 6.45703 15.0094 5.08203 16.3844 4.11953C17.6219 3.15703 19.5469 2.33203 21.7469 2.33203C25.8719 2.33203 29.9969 2.33203 33.9844 2.33203C35.0844 2.33203 36.1844 2.74453 37.2844 3.15703C38.5219 3.70703 39.7594 4.39453 40.7219 5.35703C42.3719 7.28203 43.4719 9.34453 43.4719 11.957C43.4719 18.007 43.4719 23.9195 43.4719 29.9695C43.4719 31.0695 43.7469 32.1695 44.7094 32.857C44.8469 32.9945 44.9844 33.132 45.2594 33.132C45.6719 33.132 45.8094 33.407 45.8094 33.682C44.9844 34.0945 44.2969 34.3695 44.0219 35.332C43.7469 35.4695 43.7469 35.607 43.7469 35.882C43.6094 36.0195 43.6094 36.2945 43.6094 36.432C43.6094 38.7695 43.6094 41.2445 43.6094 43.582C43.6094 46.7445 43.6094 50.0445 43.6094 53.207C43.6094 54.307 43.3344 54.582 42.2344 54.582C39.4844 54.582 36.8719 54.582 34.1219 54.582C33.1594 54.582 32.7469 54.1695 32.7469 53.0695C32.7469 50.0445 32.7469 47.0195 32.7469 43.9945C32.6094 44.132 32.6094 43.9945 32.6094 43.7195ZM32.4719 14.2945C32.3344 13.607 31.7844 13.1945 30.8219 13.1945C28.7594 13.1945 26.5594 13.1945 24.4969 13.1945C23.3969 13.1945 22.8469 13.7445 22.7094 14.707C22.7094 18.832 22.7094 22.957 22.7094 26.9445C22.7094 28.3195 22.8469 28.457 24.2219 28.3195C24.7719 28.3195 25.4594 28.3195 26.0094 28.3195C27.7969 28.3195 29.7219 28.3195 31.5094 28.3195C32.1969 28.3195 32.6094 28.182 32.6094 27.357C32.6094 24.607 32.6094 21.857 32.6094 18.9695C32.6094 18.6945 32.6094 18.4195 32.6094 18.282C32.6094 17.8695 32.6094 17.457 32.6094 17.0445C32.6094 16.7695 32.6094 16.4945 32.6094 16.357C32.6094 15.807 32.6094 15.257 32.6094 14.707C32.6094 14.432 32.6094 14.432 32.4719 14.2945Z" fill="white"/>
<path d="M22.8452 58.1574C22.2952 58.1574 21.6077 58.0199 20.9202 57.6074C19.6827 56.9199 18.5827 56.9199 17.3452 57.4699C17.0702 57.6074 16.7952 57.8824 16.6577 57.4699C16.5202 57.0574 16.7952 57.0574 17.0702 56.9199C18.3077 56.2324 19.5452 56.0949 20.7827 56.7824C22.2952 57.6074 23.8077 57.7449 25.4577 56.7824C26.1452 56.3699 26.8327 56.2324 27.6577 56.3699C27.7952 56.3699 28.0702 56.3699 28.0702 56.6449C28.0702 56.9199 27.7952 56.9199 27.6577 56.9199C26.6952 56.7824 25.8702 57.3324 24.9077 57.6074C24.2202 58.0199 23.6702 58.1574 22.8452 58.1574Z" fill="white"/>
<path d="M47.5977 58.1568C46.6352 58.1568 45.8102 57.7443 44.9852 57.4693C44.0227 57.0568 43.1977 57.0568 42.2352 57.3318C40.9977 57.8818 39.8977 58.4318 38.5227 58.0193C38.2477 57.8818 37.8352 57.8818 37.5602 57.7443C37.4227 57.7443 37.2852 57.6068 37.2852 57.3318C37.4227 57.0568 37.5602 57.0568 37.6977 57.1943C39.2102 57.8818 40.4477 57.4693 41.8227 56.7818C42.9227 56.2318 44.0227 56.3693 45.1227 56.9193C46.0852 57.3318 46.9102 57.7443 48.0102 57.4693C48.2852 57.4693 48.4227 57.4693 48.4227 57.7443C48.4227 58.0193 48.2852 58.1568 48.0102 58.1568C48.1477 58.1568 47.8727 58.1568 47.5977 58.1568Z" fill="white"/>
<path d="M19.1335 58.569C19.9585 58.4315 20.7835 58.844 21.471 59.2565C22.4335 59.8065 23.396 59.8065 24.496 59.394C25.4585 58.9815 26.421 58.569 27.521 58.7065C27.6585 58.7065 27.9335 58.7065 27.9335 58.9815C27.9335 59.119 27.796 59.394 27.521 59.2565C26.5585 58.9815 25.871 59.5315 25.046 59.8065C23.5335 60.3565 22.1585 60.3565 20.7835 59.669C19.546 58.9815 18.446 59.119 17.346 59.669C17.071 59.8065 16.796 60.0815 16.6585 59.669C16.521 59.2565 16.9335 59.2565 17.071 59.119C17.7585 58.7065 18.446 58.4315 19.1335 58.569Z" fill="white"/>
<path d="M47.324 60.0815C46.4991 60.219 45.8116 59.8065 45.1241 59.5315C44.024 58.9815 42.924 58.9815 41.9615 59.5315C40.8615 60.0815 39.7615 60.0815 38.524 60.0815C38.3865 60.0815 38.249 60.0815 38.1115 59.944C37.8365 59.8065 37.2865 59.8065 37.424 59.2565C37.5615 58.844 37.974 59.2565 38.249 59.2565C39.074 59.5315 40.0365 59.669 40.8615 59.119C42.649 58.1565 44.2991 58.1565 46.0866 58.9815C46.7741 59.2565 47.4615 59.5315 48.1491 59.2565C48.4241 59.119 48.5616 59.2565 48.5616 59.5315C48.5616 59.8065 48.4241 59.8065 48.1491 59.8065C48.0115 60.0815 47.7366 60.0815 47.324 60.0815Z" fill="white"/>
<path d="M32.607 41.7953C32.607 42.0703 32.607 42.2078 32.607 42.4828C31.3695 42.7578 30.132 42.6203 28.8945 42.0703C27.7945 41.3828 26.557 41.3828 25.3195 42.0703C25.0445 42.2078 24.7695 42.3453 24.4945 42.3453C24.357 42.3453 24.082 42.4828 24.082 42.2078C24.082 42.0703 24.082 41.9328 24.2195 41.7953C25.8695 40.9703 27.5195 40.4203 29.307 41.5203C30.407 42.0703 31.507 42.0703 32.607 41.7953Z" fill="white"/>
<path d="M32.607 43.7202C32.607 43.9952 32.607 44.1327 32.607 44.4077C32.332 44.4077 32.057 44.4077 31.6445 44.4077C30.682 44.4077 29.7195 44.4077 28.8945 43.8577C27.932 43.3077 26.832 43.3077 25.732 43.8577C25.3195 43.9952 24.907 44.1327 24.4945 44.2702C24.357 44.2702 24.2195 44.2702 24.082 44.1327C24.082 43.9952 24.082 43.8577 24.2195 43.7202C26.007 43.0327 27.657 42.3452 29.4445 43.5827C30.407 44.1327 31.507 43.9952 32.607 43.7202Z" fill="white"/>
<path d="M22.709 39.8691C22.709 39.3191 22.984 39.1816 23.3965 39.1816C26.1465 39.1816 29.034 39.1816 31.784 39.1816C32.1965 39.1816 32.609 39.4566 32.4715 39.8691C32.1965 39.5941 31.9215 39.5941 31.6465 39.5941C29.034 39.5941 26.284 39.5941 23.6715 39.5941C23.259 39.4566 22.984 39.5941 22.709 39.8691Z" fill="white"/>
<path d="M47.5952 40.5575C46.7702 40.5575 46.0827 40.2825 45.2577 40.0075C44.9827 39.87 44.7077 39.7325 44.8452 39.32C44.9827 39.045 45.2577 39.32 45.3952 39.4575C46.9077 40.2825 48.2827 40.145 49.7952 39.32C50.0702 39.1825 50.6202 38.77 50.8952 39.1825C51.1702 39.7325 50.3452 39.595 50.0702 39.7325C49.3827 40.2825 48.5577 40.695 47.5952 40.5575Z" fill="white"/>
<path d="M47.7336 38.633C46.9086 38.633 46.0836 38.358 45.3961 38.083C45.1211 37.9455 45.1211 37.808 45.1211 37.6705C45.2586 37.3955 45.3961 37.533 45.6711 37.6705C46.7711 38.2205 47.8711 38.4955 49.1086 37.9455C49.2461 37.808 49.5211 37.808 49.5211 38.083C49.5211 38.358 49.5211 38.358 49.2461 38.4955C48.6961 38.4955 48.2836 38.633 47.7336 38.633Z" fill="white"/>
<path d="M44.0234 35.4703C44.2984 34.5078 44.9859 34.0953 45.8109 33.8203C46.6359 33.9578 47.4609 34.2328 48.2859 34.0953C48.4234 34.0953 48.5609 34.0953 48.6984 34.2328C48.6984 34.5078 48.5609 34.6453 48.2859 34.6453C47.7359 34.6453 47.0484 34.7828 46.6359 34.5078C45.6734 34.0953 44.9859 34.3703 44.2984 35.1953C44.2984 35.3328 44.1609 35.3328 44.0234 35.4703Z" fill="white"/>
<path d="M47.7362 23.0954C46.9112 23.0954 46.0862 22.8204 45.3987 22.5454C45.1237 22.4079 44.8487 22.1329 45.1237 21.8579C45.2612 21.5829 45.5362 21.8579 45.6737 21.9954C46.4987 22.4079 47.3237 22.5454 48.1487 22.5454C48.4237 22.5454 48.6987 22.2704 48.8362 22.8204C48.8362 23.2329 48.4237 23.0954 48.2862 23.2329C48.0112 23.0954 47.7362 23.0954 47.7362 23.0954Z" fill="white"/>
<path d="M47.4602 42.6193C46.6352 42.7568 45.9477 42.3443 45.2602 42.0693C44.9852 41.9318 44.8477 41.7943 44.8477 41.5193C44.9852 41.1068 45.2602 41.5193 45.3977 41.5193C46.3602 41.7943 47.1852 42.2068 48.2852 41.9318C48.4227 41.9318 48.5602 41.9318 48.5602 42.0693C48.6977 42.3443 48.5602 42.3443 48.2852 42.4818C48.1477 42.6193 47.8727 42.6193 47.4602 42.6193Z" fill="white"/>
<path d="M44.9832 54.8574C46.0832 55.2699 47.1832 55.9574 48.4207 55.5449C48.5582 55.5449 48.6957 55.5449 48.6957 55.8199C48.6957 56.0949 48.5582 56.0949 48.4207 56.2324C48.0082 56.3699 47.5957 56.3699 47.1832 56.3699C46.4957 56.2324 45.9457 56.0949 45.3957 55.8199C44.9832 55.5449 44.8457 55.2699 44.9832 54.8574Z" fill="white"/>
<path d="M47.5953 21.1703C46.6328 21.1703 45.9453 20.8953 45.2578 20.4828C45.1203 20.3453 44.8453 20.2078 44.9828 19.9328C45.1203 19.6578 45.3953 19.9328 45.5328 19.9328C46.4953 20.2078 47.3203 20.7578 48.4203 20.4828C48.5578 20.4828 48.6953 20.4828 48.6953 20.6203C48.6953 20.7578 48.6953 20.8953 48.4203 21.0328C48.1453 21.0328 47.8703 21.0328 47.5953 21.1703Z" fill="white"/>
<path d="M47.5981 54.307C46.7731 54.307 46.0856 54.032 45.2606 53.6195C44.9856 53.482 44.8481 53.3445 44.9856 53.0695C45.1231 52.7945 45.3981 53.0695 45.5356 53.0695C46.4981 53.3445 47.3231 53.8945 48.4231 53.482C48.5606 53.482 48.6981 53.482 48.6981 53.6195C48.6981 53.757 48.6981 53.8945 48.4231 54.032C48.1481 54.307 47.8731 54.307 47.5981 54.307Z" fill="white"/>
<path d="M27.109 50.7318C27.2465 50.8693 27.934 50.4568 27.934 51.0068C27.934 51.5568 27.384 51.2818 27.109 51.2818C26.284 51.2818 25.459 51.6943 24.7715 51.9693C24.634 51.9693 24.359 52.2443 24.2215 51.9693C24.084 51.6943 24.2215 51.4193 24.634 51.4193C25.3215 51.2818 26.1465 50.5943 27.109 50.7318Z" fill="white"/>
<path d="M44.9819 25.5703C45.3944 25.7078 45.9444 25.9828 46.3569 26.1203C46.9069 26.3953 47.5944 26.5328 48.1444 26.2578C48.2819 26.2578 48.5569 26.1203 48.6944 26.5328C48.6944 26.8078 48.5569 26.8078 48.2819 26.8078C47.3194 26.8078 46.3569 26.9453 45.3944 26.3953C45.1194 26.2578 44.8444 26.1203 44.9819 25.5703Z" fill="white"/>
<path d="M47.5977 32.8572C46.6352 32.8572 45.8102 32.4447 44.9852 32.0322C44.8477 32.0322 44.8477 31.7572 44.8477 31.6197C44.9852 31.3447 45.1227 31.4822 45.2602 31.6197C46.2227 31.8947 47.0477 32.3072 48.1477 32.0322C48.4227 32.0322 48.6977 31.8947 48.6977 32.3072C48.6977 32.5822 48.5602 32.5822 48.2852 32.7197C48.0102 32.7197 47.7352 32.8572 47.5977 32.8572Z" fill="white"/>
<path d="M47.7344 19.1078C46.7719 19.1078 46.0844 18.6953 45.2594 18.4203C45.1219 18.4203 44.9844 18.1453 44.9844 18.0078C45.1219 17.7328 45.2594 17.8703 45.3969 17.8703C45.6719 18.0078 46.0844 18.0078 46.3594 18.1453C46.9094 18.4203 47.4594 18.5578 48.0094 18.2828C48.1469 18.2828 48.5594 18.1453 48.5594 18.4203C48.6969 18.8328 48.2844 18.8328 48.1469 18.8328C48.0094 19.1078 47.7344 19.1078 47.7344 19.1078Z" fill="white"/>
<path d="M27.932 49.0815C27.932 49.219 27.7945 49.494 27.657 49.3565C26.557 49.219 25.5945 49.6315 24.4945 50.044C24.357 50.044 24.082 50.1815 24.082 49.9065C24.082 49.769 24.082 49.494 24.357 49.494C25.457 49.494 26.282 48.669 27.382 48.8065C27.657 48.8065 27.932 48.8065 27.932 49.0815Z" fill="white"/>
<path d="M24.2229 56.0938C24.0854 55.8187 24.0854 55.5438 24.4979 55.4062C25.5979 54.9937 26.5604 54.7188 27.7979 54.7188C27.9354 54.7188 28.0729 54.7188 28.0729 54.8563C28.0729 54.9938 27.9354 55.1313 27.7979 55.1313C26.4229 54.9938 25.3229 55.8187 24.2229 56.0938Z" fill="white"/>
<path d="M27.1113 45.3689C26.1488 45.2314 25.4613 46.0564 24.6363 46.0564C24.4988 46.0564 24.2238 46.3314 24.0863 45.9189C23.9488 45.6439 24.3613 45.6439 24.4988 45.5064C25.3238 45.2314 26.1488 44.6814 27.1113 44.8189C27.3863 44.8189 27.9363 44.6814 27.9363 45.0939C27.9363 45.6439 27.5238 45.3689 27.1113 45.3689Z" fill="white"/>
<path d="M27.9344 47.1578C27.9344 47.2953 27.7969 47.4328 27.6594 47.4328C26.5594 47.2953 25.5969 47.8453 24.6344 48.1203C24.4969 48.1203 24.2218 48.3953 24.0843 48.1203C23.9468 47.8453 24.2218 47.7078 24.3593 47.7078C25.3218 47.4328 26.2844 46.8828 27.3844 46.8828C27.6594 46.8828 27.9344 46.8828 27.9344 47.1578Z" fill="white"/>
<path d="M47.5953 50.3191C46.7703 50.3191 45.9453 50.0441 45.2578 49.7691C45.1203 49.6316 44.8453 49.4941 44.9828 49.3566C45.1203 49.0816 45.2578 49.3566 45.5328 49.3566C46.3578 49.6316 47.3203 49.9066 48.2828 49.7691C48.4203 49.7691 48.6953 49.4941 48.8328 49.9066C48.8328 50.1816 48.6953 50.3191 48.4203 50.3191C48.0078 50.3191 47.8703 50.3191 47.5953 50.3191Z" fill="white"/>
<path d="M47.732 17.1832C46.907 17.1832 46.082 16.9082 45.3945 16.4957C45.257 16.4957 44.982 16.3582 45.1195 16.0832C45.257 15.8082 45.3945 16.0832 45.532 16.0832C46.357 16.2207 47.182 16.4957 48.1445 16.3582C48.4195 16.3582 48.6945 16.2207 48.832 16.6332C48.832 17.0457 48.557 16.9082 48.282 17.0457C48.007 17.1832 47.732 17.1832 47.732 17.1832Z" fill="white"/>
<path d="M47.5969 52.2451C46.7719 52.2451 45.9469 51.9701 45.2594 51.5576C45.1219 51.5576 44.9844 51.2826 44.9844 51.1451C45.1219 51.0076 45.2594 51.1451 45.3969 51.1451C46.3594 51.2826 47.3219 51.9701 48.4219 51.5576C48.5594 51.5576 48.6969 51.5576 48.6969 51.6951C48.6969 51.8326 48.6969 51.9701 48.5594 52.1076C48.2844 52.2451 47.8719 52.2451 47.5969 52.2451Z" fill="white"/>
<path d="M27.1071 52.7949C27.2446 52.7949 27.3821 52.7949 27.5196 52.7949C27.6571 52.7949 27.7946 52.9324 27.7946 53.0699C27.7946 53.2074 27.6571 53.3449 27.5196 53.3449C26.4196 53.2074 25.4571 53.7574 24.4946 54.1699C24.3571 54.1699 24.0821 54.4449 23.9446 54.1699C23.8071 53.8949 23.9446 53.7574 24.2196 53.6199C25.3196 52.9324 26.2821 52.7949 27.1071 52.7949Z" fill="white"/>
<path d="M47.5981 24.8824C46.7731 25.0199 45.9481 24.6074 45.2606 24.3324C44.9856 24.1949 44.8481 24.0574 44.9856 23.7824C45.1231 23.5074 45.3981 23.7824 45.5356 23.7824C46.4981 24.0574 47.3231 24.6074 48.2856 24.1949C48.4231 24.1949 48.6981 24.1949 48.6981 24.4699C48.6981 24.7449 48.5606 24.8824 48.2856 24.8824C48.0106 24.8824 47.8731 24.8824 47.5981 24.8824Z" fill="white"/>
<path d="M47.4588 28.7314C46.7713 28.7314 46.0838 28.5939 45.3963 28.4564C45.1213 28.4564 44.9838 28.3189 44.8463 28.0439C44.8463 27.9064 44.7088 27.7689 44.8463 27.6314C44.9838 27.4939 45.1213 27.6314 45.1213 27.6314C46.0838 28.0439 47.0463 28.4564 48.1463 28.1814C48.2838 28.1814 48.4213 28.1814 48.5588 28.3189C48.5588 28.4564 48.4213 28.5939 48.2838 28.5939C48.0088 28.7314 47.7338 28.7314 47.4588 28.7314Z" fill="white"/>
<path d="M47.3202 44.4076C46.6327 44.5451 45.9452 44.2701 45.2577 43.9951C44.9827 43.8576 44.7077 43.7201 44.8452 43.4451C44.9827 43.0326 45.2577 43.4451 45.3952 43.4451C46.2202 43.7201 47.0452 44.1326 48.0077 43.9951C48.1452 43.9951 48.5577 43.8576 48.5577 44.2701C48.5577 44.5451 48.2827 44.5451 48.0077 44.5451C47.8702 44.4076 47.7327 44.4076 47.3202 44.4076Z" fill="white"/>
<path d="M47.3204 15.257C46.6329 15.257 45.9454 14.8445 45.1204 14.5695C44.8454 14.5695 44.8454 14.2945 44.9829 14.157C44.9829 14.0195 45.2579 14.0195 45.3954 14.0195C46.2204 14.2945 46.9079 14.5695 47.8704 14.5695C48.1454 14.5695 48.4204 14.432 48.4204 14.8445C48.4204 15.1195 48.1454 15.1195 47.8704 15.1195C47.7329 15.257 47.5954 15.257 47.3204 15.257Z" fill="white"/>
<path d="M47.4606 46.4703C46.6356 46.4703 45.9481 46.0578 45.2606 45.9203C44.9856 45.9203 44.8481 45.6453 44.9856 45.3703C45.1231 45.0953 45.3981 45.3703 45.5356 45.3703C46.4981 45.6453 47.3231 46.1953 48.4231 45.7828C48.5606 45.7828 48.6981 45.7828 48.8356 45.9203C48.8356 46.0578 48.6981 46.1953 48.5606 46.1953C48.1481 46.3328 47.8731 46.3328 47.4606 46.4703Z" fill="white"/>
<path d="M47.4606 48.3941C46.7731 48.5316 46.0856 47.9816 45.2606 47.8441C44.9856 47.8441 44.8481 47.5691 44.9856 47.2941C45.1231 47.0191 45.3981 47.2941 45.5356 47.2941C46.4981 47.5691 47.3231 48.1191 48.4231 47.7066C48.5606 47.7066 48.6981 47.7066 48.8356 47.8441C48.8356 47.9816 48.6981 48.1191 48.5606 48.1191C48.1481 48.3941 47.8731 48.3941 47.4606 48.3941Z" fill="white"/>
<path d="M47.5969 30.6569C46.7719 30.7944 46.0844 30.3819 45.3969 30.2444C45.1219 30.2444 44.9844 29.9694 44.9844 29.6944C45.1219 29.2819 45.3969 29.5569 45.5344 29.6944C46.3594 29.9694 47.3219 30.2444 48.1469 30.1069C48.2844 30.1069 48.5594 29.9694 48.6969 30.2444C48.6969 30.5194 48.4219 30.5194 48.1469 30.5194C48.0094 30.7944 47.7344 30.6569 47.5969 30.6569Z" fill="white"/>
<path d="M44.982 11.957C45.6695 12.3695 46.4945 12.6445 47.3195 12.9195C47.457 12.9195 47.457 13.057 47.457 13.1945L47.3195 13.332C46.4945 13.057 45.6695 13.1945 44.8445 12.6445C44.707 12.507 44.707 12.3695 44.707 12.232C44.707 11.957 44.8445 11.957 44.982 11.957Z" fill="white"/>
<path d="M47.5957 36.7063C47.3207 36.7063 46.9082 36.7063 46.6332 36.5688C46.4957 36.4313 46.2207 36.5688 46.2207 36.2938C46.2207 36.0188 46.4957 35.8813 46.6332 36.0188C47.3207 36.1563 47.8707 36.1563 48.5582 36.1563C48.6957 36.1563 48.8332 36.2938 48.8332 36.4313C48.8332 36.5688 48.6957 36.7063 48.5582 36.7063C48.1457 36.5688 47.8707 36.7063 47.5957 36.7063Z" fill="white"/>
<path d="M44.4359 9.75781C44.7109 10.0328 45.3984 9.75781 45.3984 10.3078C45.3984 10.4453 45.2609 10.5828 44.9859 10.5828C44.5734 10.4453 44.0234 10.5828 44.0234 9.89531C44.0234 9.62031 44.2984 9.89531 44.4359 9.75781Z" fill="white"/>
<path d="M43.7461 36.0187C43.7461 35.7437 43.7461 35.4688 44.0211 35.4688C44.0211 35.7437 43.8836 35.8812 43.7461 36.0187Z" fill="white"/>
<path d="M43.6094 36.7062C43.6094 36.4312 43.6094 36.2937 43.7469 36.1562C43.7469 36.2937 43.7469 36.4312 43.6094 36.7062Z" fill="white"/>
<path d="M32.4715 14.2941C31.9215 13.7441 31.3715 13.6066 30.5465 13.6066C28.6215 13.6066 26.6965 13.6066 24.7715 13.6066C23.9465 13.6066 23.259 13.8816 22.709 14.5691C22.8465 13.6066 23.3965 13.1941 24.4965 13.0566C26.559 13.0566 28.759 13.0566 30.8215 13.0566C31.784 13.1941 32.334 13.6066 32.4715 14.2941Z" fill="white"/>
<path d="M32.607 17.0448C31.3695 17.1823 30.132 17.0448 29.032 16.4948C27.7945 15.9448 26.4195 16.2198 25.182 16.6323C24.907 16.7698 24.7695 16.7698 24.4945 16.9073C24.357 16.9073 24.2195 16.9073 24.082 16.7698C24.082 16.6323 24.082 16.4948 24.2195 16.3573C25.732 15.9448 27.2445 15.1198 28.8945 15.9448C29.307 16.2198 29.7195 16.2198 30.132 16.3573C30.957 16.4948 31.782 16.4948 32.4695 16.2198C32.607 16.4948 32.607 16.7698 32.607 17.0448Z" fill="white"/>
<path d="M32.6093 18.9703C31.3718 19.2453 30.1343 18.9703 29.0343 18.4203C27.9343 17.8703 26.6968 17.8703 25.5968 18.4203C25.1843 18.6953 24.9093 18.8328 24.4968 18.8328C24.3593 18.8328 24.0843 18.9703 24.0843 18.8328C23.9468 18.5578 24.0843 18.4203 24.2218 18.2828C25.5968 17.8703 26.9718 17.0453 28.4843 17.7328C29.0343 18.0078 29.5843 18.1453 30.1343 18.2828C30.9593 18.5578 31.7843 18.5578 32.6093 18.1453C32.6093 18.5578 32.6093 18.6953 32.6093 18.9703Z" fill="white"/>
<path d="M24.2227 28.1813C25.0477 27.7688 25.8727 27.4938 26.6977 27.2188C26.9727 27.2188 27.2477 27.2188 27.5227 27.2188C27.6602 27.2188 27.9352 27.3563 27.9352 27.6313C27.9352 27.9063 27.6602 27.7687 27.5227 27.9062C27.1102 27.9062 26.6977 28.0438 26.2852 28.0438C26.1477 28.0438 26.0102 28.1813 26.0102 28.3188C25.4602 28.1813 24.7727 28.1813 24.2227 28.1813Z" fill="white"/>
<path d="M32.6082 14.5699C32.4707 14.4324 32.4707 14.4324 32.4707 14.2949C32.6082 14.4324 32.6082 14.4324 32.6082 14.5699Z" fill="white"/>
<path d="M27.5219 25.2949C27.6594 25.2949 27.9344 25.2949 27.9344 25.5699C27.9344 25.8449 27.6594 25.9824 27.3844 25.8449C26.5594 25.8449 25.7344 26.1199 25.0469 26.5324C24.7719 26.6699 24.3594 26.9449 24.0844 26.5324C23.9469 25.9824 24.4969 26.1199 24.6344 25.9824C25.5969 25.7074 26.4219 25.2949 27.5219 25.2949Z" fill="white"/>
<path d="M27.384 23.9195C26.4215 23.9195 25.734 24.332 24.909 24.607C24.634 24.7445 24.359 25.0195 24.084 24.607C23.9465 24.1945 24.359 24.057 24.634 24.057C25.0465 23.9195 25.5965 23.6445 26.009 23.507C26.4215 23.3695 26.9715 23.232 27.384 23.3695C27.5215 23.3695 27.934 23.3695 27.934 23.6445C27.934 24.057 27.659 23.9195 27.384 23.9195Z" fill="white"/>
<path d="M27.247 21.582C27.3845 21.582 27.9345 21.307 27.9345 21.7195C27.9345 22.2695 27.3845 21.9945 27.1095 21.9945C26.147 22.132 25.4595 22.682 24.497 22.8195C24.3595 22.8195 24.0845 22.957 24.0845 22.682C24.0845 22.5445 23.947 22.2695 24.3595 22.132C25.1845 21.9945 26.0095 21.307 27.247 21.582Z" fill="white"/>
<path d="M27.934 19.7938C27.7965 19.9313 27.659 20.0688 27.5215 20.0688C26.559 19.9313 25.5965 20.3438 24.7715 20.7563C24.4965 20.8938 24.2215 21.0313 24.084 20.7563C23.9465 20.3438 24.359 20.3438 24.634 20.2063C25.5965 19.7938 26.559 19.6562 27.5215 19.6562C27.7965 19.6562 27.934 19.6563 27.934 19.7938Z" fill="white"/>
</g>
<defs>
<clipPath id="clip0_1130_11605">
<rect width="60" height="60" fill="white" transform="translate(0.4375 0.195312)"/>
</clipPath>
</defs>
</svg>
