<svg width="61" height="61" viewBox="0 0 61 61" fill="none" xmlns="http://www.w3.org/2000/svg">
<g clipPath="url(#clip0_1130_11581)">
<path d="M26.2401 10.9821C24.9256 8.64256 26.037 6.74609 28.7176 6.74609H55.6829C59.5472 6.74609 61.1441 9.4784 59.2513 12.8476L43.2694 41.2922L26.2401 10.9821Z" fill="#DCDCDC"/>
<path d="M28.313 6.88281C25.4745 7.44635 25.7104 9.92666 26.6205 11.5467L46.846 47.5455C48.7392 50.9152 47.1407 53.6466 43.277 53.6466H4.50319C0.638973 53.6466 -0.961408 50.9136 0.928588 47.5439C0.928588 47.5439 21.6435 10.5855 22.1969 9.81774C22.7503 9.04997 23.8901 6.88281 28.313 6.88281Z" fill="white"/>
</g>
<defs>
<clipPath id="clip0_1130_11581">
<rect width="60" height="60" fill="white" transform="translate(0.4375 0.195312)"/>
</clipPath>
</defs>
</svg>
