<svg width="61" height="61" viewBox="0 0 61 61" fill="none" xmlns="http://www.w3.org/2000/svg">
<g clipPath="url(#clip0_1130_8788)">
<path d="M23.6024 21.5419C22.0963 22.3029 20.8913 24.7379 19.6864 25.3466L22.5481 27.6294C22.5029 25.9536 22.1452 24.3013 21.4938 22.7594L19.9876 25.651C21.0743 25.6533 22.1367 25.3264 23.0376 24.7125C23.5423 24.3769 23.9013 23.8593 24.0413 23.2654C24.1812 22.6715 24.0916 22.046 23.7907 21.5166C23.6401 21.3644 23.6401 21.2122 23.4895 21.06C22.3518 19.9285 20.8618 19.2295 19.2722 19.0816C18.0171 18.4728 18.0171 18.7772 19.2722 19.8425L21.0796 19.2338C22.4352 19.0816 23.9413 18.4728 25.4475 18.3206C28.4598 17.8641 36.7437 16.6466 39.4548 18.7772C43.5214 21.9731 41.2622 25.7778 40.2079 29.5825C39.4548 32.4741 38.4005 35.5178 37.798 38.4601C37.7935 39.2433 37.6401 40.0183 37.3462 40.7429L37.0449 42.417H33.8443C30.6814 42.417 27.5687 42.8736 24.3555 42.5692C23 42.417 21.1926 42.7214 20.1383 41.5039C19.3852 40.5908 18.6321 37.2426 18.3309 36.1773L15.0173 38.7138C18.4815 40.6922 22.2469 43.2794 26.3135 43.4316C26.9077 43.4156 27.4732 43.1699 27.8935 42.7452C28.3138 42.3206 28.5569 41.7492 28.5728 41.1488C28.5547 40.7603 28.4505 40.3809 28.2681 40.0385C28.0856 39.6961 27.8294 39.3994 27.5184 39.1703C24.502 37.6221 21.3119 36.4469 18.0171 35.67L16.7619 40.0835C20.0203 41.0198 23.1555 42.3483 26.1001 44.0404L27.3553 39.7791L19.2722 40.2357C18.673 40.2357 18.0984 40.4762 17.6747 40.9043C17.251 41.3324 17.013 41.913 17.013 42.5185C17.013 43.1239 17.251 43.7046 17.6747 44.1327C18.0984 44.5608 18.673 44.8013 19.2722 44.8013C27.4055 45.2579 33.4301 44.6491 39.9066 39.4747C42.0153 37.8007 39.3042 34.6047 37.1955 35.8222C35.0674 37.1185 33.052 38.595 31.1709 40.2357C28.9116 42.2141 32.2252 45.41 34.3338 43.4316C35.4603 42.3503 36.7271 41.4287 38.0992 40.6922C37.3462 38.866 36.2918 38.2572 35.2375 38.866C34.1832 39.0182 33.4301 40.3878 32.9783 41.1488L37.1955 42.417C37.1955 35.7208 43.0696 31.1551 46.5337 25.8286L42.6177 23.5457C41.5258 25.7778 40.6095 29.1513 38.664 30.8L42.2788 31.2566C41.1105 29.1772 40.5859 26.7918 40.7727 24.4081C40.8347 24.0983 40.833 23.7789 40.7678 23.4697C40.7026 23.1605 40.5752 22.8682 40.3936 22.6108C40.212 22.3534 39.98 22.1365 39.7119 21.9734C39.4439 21.8104 39.1456 21.7047 38.8355 21.6629C38.5254 21.6211 38.2101 21.6441 37.9092 21.7306C37.6083 21.817 37.3281 21.9649 37.0861 22.1652C36.8441 22.3655 36.6453 22.6139 36.5022 22.895C36.3591 23.1761 36.2747 23.484 36.2542 23.7994C35.6517 25.4735 34.9991 27.1475 34.2962 28.8723L38.3628 30.5464C39.3128 27.9934 40.4194 25.5029 41.6764 23.0892L37.6097 21.4151L37.0073 24.6111C36.5554 26.8939 40.0196 28.8723 41.0739 26.4373C41.6865 25.1201 42.3911 23.8486 43.1825 22.6326L39.1159 22.0239L39.4171 25.2198C39.4528 25.8422 39.7296 26.4254 40.1877 26.8432C40.6458 27.2609 41.2482 27.4796 41.8646 27.4519C42.3486 27.4431 42.8165 27.2748 43.1971 26.9726C43.5777 26.6704 43.8503 26.2509 43.9733 25.7778L44.7263 22.5819C45.3288 20.1469 41.714 18.4728 40.6597 20.7556C40.3585 21.3644 37.6474 26.2344 38.2499 26.2344L40.5091 28.5172L39.9066 20.1469C39.9036 19.8414 39.8368 19.5401 39.7105 19.2625C39.5842 18.985 39.4013 18.7376 39.1738 18.5364C38.9463 18.3353 38.6793 18.1849 38.3903 18.0953C38.1013 18.0057 37.7968 17.9787 37.4968 18.0163C37.1293 18.017 36.7685 18.1159 36.4511 18.303C36.1337 18.4901 35.8709 18.7587 35.6894 19.0816C33.7314 22.2775 31.4721 27.9592 28.4598 30.1913L31.924 32.1697C32.1251 30.3211 32.6343 28.5201 33.4301 26.8431L29.2129 25.5749L28.761 30.4449C28.6104 32.8799 31.924 33.3365 32.9783 31.7131L35.0869 28.2128L30.8697 26.9446L30.5684 32.7785C30.5843 33.3788 30.8274 33.9502 31.2477 34.3749C31.668 34.7996 32.2335 35.0453 32.8277 35.0613C33.2121 35.043 33.5876 34.9378 33.9265 34.7534C34.2653 34.569 34.5589 34.3102 34.7857 33.996C35.5415 32.4153 36.6815 31.0539 38.0992 30.0391L34.3338 28.9738C34.9363 32.4741 34.9363 31.7131 33.2795 34.0467C32.3935 35.0457 31.5877 36.1144 30.8697 37.2426L34.9363 37.8514C34.4844 35.8729 33.882 33.8945 33.2795 31.7639C33.2017 31.467 33.0637 31.1896 32.8743 30.9494C32.6849 30.7092 32.4483 30.5113 32.1793 30.3682C31.9103 30.2252 31.6149 30.1401 31.3116 30.1184C31.0084 30.0966 30.7041 30.1387 30.4178 30.242C30.084 30.3905 29.7782 30.5965 29.5141 30.8507L26.0499 34.3511L29.8153 35.4164C29.5141 33.8945 29.3635 32.5248 29.0623 31.0029C29.0294 30.5027 28.856 30.0223 28.5626 29.6179C28.2692 29.2136 27.8678 28.9022 27.4055 28.7201L26.803 28.5172C26.4082 28.3903 25.9857 28.3802 25.5854 28.4881C25.1851 28.5959 24.8236 28.8173 24.5438 29.126C23.7734 30.0965 22.8384 30.921 21.7825 31.561L25.1086 32.956C24.649 31.2633 24.3465 29.531 24.2049 27.7816C24.0543 26.1076 21.6946 24.4335 20.2889 26.1076L15.5068 32.7785L19.4228 34.3003C19.2067 32.5716 19.4673 30.816 20.1759 29.2274H15.7704L15.921 29.9884C16.1086 30.5681 16.5123 31.0513 17.0466 31.3354C17.5808 31.6195 18.2035 31.6822 18.7827 31.5102C19.1537 31.4335 19.4942 31.2484 19.762 30.9778C20.0297 30.7073 20.213 30.3632 20.2889 29.9884L21.042 28.6187L16.8247 27.3504C17.2765 30.242 17.5778 34.3511 20.1383 36.3295C23 38.6123 26.916 36.1773 30.0789 38.3079L30.6814 34.1989C27.2172 35.2642 22.8493 33.5901 22.5481 38.4601C22.5471 38.8702 22.6421 39.2747 22.8253 39.6406C23.0085 40.0065 23.2748 40.3234 23.6024 40.5654C27.5184 43.1019 30.3802 38.2826 29.3258 34.7823C27.9703 29.7093 21.795 26.7163 25.1086 20.6288C28.4221 14.5413 38.2122 19.5635 43.4838 20.3244L44.0862 15.7588L32.1876 16.5197L26.803 16.7988L24.6944 16.9509C22.2845 16.7988 21.8327 16.9509 23.1882 17.4075L23.6024 20.2737C24.5061 18.2953 34.5974 20.5781 36.2542 20.8825L34.8986 17.5343C33.6435 19.9693 31.1332 21.339 29.3258 23.3175C27.6546 25.1796 26.1899 27.2209 24.958 29.405L29.1752 30.6732C29.1752 27.4773 30.5308 24.5857 30.6814 21.3897C30.832 19.2591 28.1711 18.6504 26.7654 19.7157C23.6024 22.1507 19.5358 34.1735 26.916 33.2604C29.7777 32.8038 29.7777 28.1875 26.916 28.6948C28.4221 28.5426 28.4221 24.2813 29.9283 22.9116L26.1629 21.2376C25.8617 24.4335 24.6567 27.3251 24.6567 30.521C24.6726 31.1214 24.9157 31.6928 25.336 32.1175C25.7563 32.5422 26.3218 32.7878 26.916 32.8038C27.3047 32.7796 27.6828 32.6666 28.022 32.4733C28.3612 32.28 28.6525 32.0114 28.874 31.6878C31.5851 27.1222 36.5554 24.535 38.8147 19.8171C39.0898 19.2673 39.1495 18.6328 38.982 18.0404C38.8145 17.448 38.432 16.9412 37.911 16.6212C37.8517 16.5634 37.7803 16.5197 37.7021 16.4934C37.6239 16.467 37.5409 16.4587 37.4591 16.469C33.6937 15.7081 21.9457 12.8165 19.6864 17.8387C19.4699 18.2761 19.3832 18.7673 19.4366 19.2533C19.4901 19.7394 19.6814 20.1994 19.9876 20.5781C21.9457 22.5565 25.4098 21.4912 27.9703 21.339L43.785 20.5781C46.1949 20.4259 47.0985 16.469 44.3875 16.1646C36.2542 14.7949 26.3135 9.01182 20.8913 18.5996C20.0678 20.0963 19.5742 21.7551 19.4442 23.4625C19.3142 25.1699 19.551 26.8855 20.1383 28.4918C21.1923 30.689 22.4533 32.7785 23.9037 34.7315C25.1588 36.5578 26.0123 39.145 28.1209 39.6015C29.3044 39.6366 30.4828 39.4295 31.5851 38.9928C31.8748 38.9123 32.1452 38.7727 32.3794 38.5824C32.6136 38.3922 32.8066 38.1554 32.9466 37.8868C33.0866 37.6181 33.1706 37.3233 33.1933 37.0205C33.216 36.7178 33.177 36.4135 33.0787 36.1266C32.9279 35.6128 32.6094 35.1658 32.175 34.8584C27.8071 31.8146 22.2343 34.8584 21.3306 27.7055C21.3148 27.1052 21.0717 26.5338 20.6514 26.1091C20.2311 25.6844 19.6656 25.4387 19.0714 25.4227C18.687 25.441 18.3115 25.5462 17.9726 25.7306C17.6337 25.915 17.3401 26.1738 17.1134 26.488C16.6052 27.2491 16.1841 28.066 15.8582 28.923H20.2261L20.0755 28.1621C19.8879 27.5823 19.4842 27.0991 18.9499 26.815C18.4157 26.5309 17.793 26.4682 17.2138 26.6402C16.8428 26.7169 16.5023 26.9021 16.2345 27.1726C15.9668 27.4432 15.7835 27.7872 15.7076 28.1621C15.1023 30.1853 14.7977 32.2882 14.8039 34.4018C14.8039 36.228 17.3142 37.5977 18.72 36.0759L23.8409 29.3796L19.9876 27.8831C20.1059 29.9964 20.4596 32.0895 21.042 34.1228C21.1198 34.4197 21.2578 34.697 21.4472 34.9373C21.6365 35.1775 21.8732 35.3754 22.1422 35.5184C22.4112 35.6615 22.7066 35.7466 23.0098 35.7683C23.313 35.79 23.6174 35.7479 23.9037 35.6447C24.0543 35.6447 24.2049 35.4925 24.3555 35.4925C25.1086 35.0359 27.8197 33.8184 26.3135 33.2097L24.6567 30.9268C24.958 32.7531 25.1086 34.7315 25.5604 36.5578C25.6383 36.8547 25.7763 37.132 25.9656 37.3723C26.155 37.6125 26.3917 37.8104 26.6607 37.9534C26.9297 38.0965 27.2251 38.1816 27.5283 38.2033C27.8315 38.225 28.1359 38.1829 28.4221 38.0797C28.7234 37.9275 29.1752 37.7753 29.3258 37.4709L32.79 33.9706L29.0246 32.7024C29.6271 34.6808 30.2797 36.6592 30.6814 38.7899C30.7592 39.0868 30.8972 39.3641 31.0866 39.6043C31.276 39.8446 31.5126 40.0425 31.7816 40.1855C32.0506 40.3286 32.3461 40.4137 32.6493 40.4354C32.9525 40.4571 33.2568 40.415 33.5431 40.3118C34.0516 40.1594 34.494 39.8375 34.7982 39.3986C36.1538 37.1158 38.1118 36.6592 38.8649 34.3257C39.4163 32.1211 39.3643 29.8065 38.7142 27.6294C38.6364 27.3325 38.4984 27.0552 38.309 26.815C38.1197 26.5747 37.883 26.3768 37.614 26.2338C37.345 26.0907 37.0496 26.0057 36.7464 25.9839C36.4432 25.9622 36.1388 26.0043 35.8525 26.1076C35.5187 26.2561 35.2129 26.4621 34.9488 26.7163C33.3749 28.1918 31.9917 29.8621 30.832 31.6878L35.0493 32.956L35.1999 27.3251C35.184 26.7247 34.9409 26.1533 34.5206 25.7286C34.1003 25.3039 33.5348 25.0583 32.9406 25.0423C32.5562 25.0606 32.1807 25.1658 31.8418 25.3501C31.503 25.5345 31.2094 25.7933 30.9826 26.1076L28.874 29.4557L33.0912 30.7239L33.5431 25.8539C33.5218 25.2405 33.2811 24.6558 32.8657 24.208C32.4503 23.7603 31.8883 23.4799 31.2839 23.4189C30.8522 23.4201 30.4288 23.5384 30.0578 23.7615C29.6869 23.9846 29.3821 24.3043 29.1752 24.6871C28.1074 27.1056 27.3969 29.6694 27.0666 32.2965C27.0825 32.8969 27.3256 33.4683 27.7459 33.893C28.1662 34.3177 28.7317 34.5633 29.3258 34.5793C29.6973 34.5707 30.0603 34.4659 30.3802 34.275C34.2962 31.2312 36.6558 25.9046 39.2665 21.5927L35.3505 20.1469L35.8023 28.365C35.8182 28.9654 36.0613 29.5368 36.4816 29.9615C36.9019 30.3862 37.4674 30.6318 38.0616 30.6478C41.5258 30.6478 43.1825 25.4734 44.3373 22.8863L40.2706 21.06L39.5175 24.2559L43.8854 24.8647C43.8842 23.3818 43.7328 21.903 43.4336 20.4513C43.3551 20.1588 43.2183 19.8857 43.0315 19.6487C42.8446 19.4118 42.6117 19.216 42.3472 19.0734C42.0826 18.9308 41.7919 18.8445 41.4931 18.8197C41.1942 18.7949 40.8935 18.8323 40.6095 18.9294C40.101 19.0817 39.6586 19.4036 39.3544 19.8425C38.6013 21.1107 37.8482 22.379 37.0951 23.6472L41.1618 25.4735L41.8646 22.2775C42.3165 19.8425 39.0029 18.0163 37.798 20.4513C36.3902 23.2207 35.1332 26.0658 34.0326 28.9738C33.0787 31.4088 37.1579 33.0828 38.0992 30.8C39.0029 28.8216 39.756 26.8431 40.5091 24.7125L35.953 24.0784C35.9504 27.2637 36.7264 30.4003 38.2122 33.2097C38.5443 33.7197 39.0566 34.0824 39.6444 34.2238C40.2321 34.3652 40.8512 34.2746 41.3751 33.9706C41.5258 33.8184 41.6764 33.8184 41.827 33.6662C44.0862 31.5356 45.1405 28.1875 46.3455 25.4481C46.619 24.9222 46.6775 24.3089 46.5086 23.7398C46.3396 23.1707 45.9566 22.6913 45.4418 22.4043C44.9347 22.1359 44.3476 22.0651 43.7923 22.2054C43.2369 22.3457 42.7519 22.6873 42.4294 23.1653C38.3628 29.405 32.6394 34.1228 32.6394 42.0365C32.6607 42.6499 32.9014 43.2347 33.3168 43.6824C33.7322 44.1302 34.2942 44.4106 34.8986 44.4715C35.3303 44.4704 35.7537 44.352 36.1247 44.1289C36.4956 43.9058 36.8004 43.5862 37.0073 43.2033C38.5134 40.6669 43.4838 40.9205 41.3751 36.5071C41.1896 36.1568 40.9028 35.872 40.553 35.6908C40.2031 35.5095 39.8069 35.4403 39.4171 35.4925C36.2542 35.6447 33.5431 38.0289 31.2839 40.0581L34.4468 43.254C36.1036 41.8844 37.7603 40.7176 39.5677 39.4494L36.8441 35.8222C31.8236 39.7791 25.5479 40.0835 19.3726 39.7791V44.3701C22.09 44.3697 24.8052 44.2173 27.5059 43.9135C28.124 43.8904 28.7082 43.6216 29.1312 43.1656C29.5543 42.7096 29.7821 42.1033 29.7651 41.4785C29.7644 41.1072 29.6665 40.7427 29.4813 40.422C29.2962 40.1012 29.0303 39.8357 28.7108 39.6523C25.4138 37.8077 21.9295 36.328 18.3183 35.2388C15.4566 34.4779 14.4023 38.7391 17.0632 39.6523C19.9873 40.3586 22.8308 41.3701 25.5479 42.6707L26.803 38.4094C23.7907 38.2572 20.3265 35.8729 17.7661 34.3003C16.1093 33.3872 13.6994 34.9091 14.4525 36.8368C15.7076 40.1849 16.1093 45.7144 20.1759 46.5768C22.6862 47.0334 25.5981 46.5768 28.1586 46.5768C31.5052 46.7521 34.8597 46.7013 38.1996 46.4246C42.4169 45.6637 41.965 42.7721 42.7181 39.1196C43.9733 33.1843 47.3872 27.0968 47.7387 21.1615C48.4917 10.3561 28.761 12.4868 22.636 13.8565C20.1257 14.4652 13.599 15.5305 13.4484 19.3352C13.2978 23.1399 18.72 21.8717 20.678 23.9008L21.042 20.2737L18.7827 21.0346C18.2089 21.2242 17.7307 21.6321 17.4496 22.1719C17.1684 22.7117 17.1063 23.341 17.2765 23.9262C17.8758 25.048 18.1866 26.3039 18.1802 27.5787C18.2015 28.1921 18.4422 28.7769 18.8576 29.2246C19.2731 29.6724 19.8351 29.9527 20.4395 30.0137C20.6518 30.0365 20.8652 29.9826 21.042 29.8615C24.3555 28.5933 25.5604 25.4481 29.4765 25.1437C32.3382 24.6871 32.3382 20.0708 29.3258 20.2737C27.3543 20.3138 25.4097 20.7447 23.6024 21.5419Z" fill="#4068B2"/>
<path d="M57.7875 29.8863V40.8438C57.8573 42.0913 57.5849 43.3341 57.0002 44.4351C56.4155 45.5361 55.5413 46.4526 54.4739 47.0835C47.2444 51.4969 40.1654 55.7582 32.6346 59.4107C31.9663 59.7849 31.2147 59.9812 30.4507 59.9812C29.6866 59.9812 28.9351 59.7849 28.2667 59.4107C20.7359 55.606 13.5063 51.3447 6.27676 46.9313C5.22483 46.3205 4.35864 45.4302 3.77225 44.3569C3.18587 43.2837 2.90172 42.0687 2.95065 40.8438C3.10127 33.691 3.10127 26.386 2.95065 19.2839C2.86598 17.8514 3.19146 16.4246 3.88815 15.1741C4.58484 13.9236 5.62326 12.9024 6.87922 12.2325C13.8076 8.27563 20.6857 4.31875 27.9655 0.666249C28.7441 0.219334 29.6242 -0.015625 30.5197 -0.015625C31.4152 -0.015625 32.2953 0.219334 33.0739 0.666249C40.1528 4.16657 47.0812 8.12345 54.0095 12.0803C55.2551 12.7483 56.2855 13.7624 56.9794 15.0028C57.6733 16.2432 58.0016 17.6582 57.9256 19.081C57.6369 22.7335 57.7875 26.2338 57.7875 29.8863ZM54.7752 29.8863V19.3853C54.8447 18.3945 54.6249 17.4049 54.143 16.5392C53.6611 15.6735 52.9382 14.9697 52.0641 14.5153C45.1357 10.7106 38.358 6.60157 31.279 3.25344C31.028 3.10398 30.742 3.02516 30.4507 3.02516C30.1593 3.02516 29.8733 3.10398 29.6223 3.25344C25.2544 5.38407 20.8363 7.66688 16.6693 10.1019C13.8076 11.6238 10.9459 13.2978 8.23477 14.9719C7.51543 15.3635 6.92952 15.9649 6.5534 16.6979C6.17727 17.4308 6.02839 18.2613 6.12614 19.081V40.6409C6.08129 41.4123 6.25604 42.1806 6.62972 42.8549C7.0034 43.5291 7.56038 44.0811 8.23477 44.4456C15.1631 48.7068 22.2421 52.8159 29.4716 56.4684C29.8066 56.6926 30.1995 56.8121 30.6013 56.8121C31.003 56.8121 31.3959 56.6926 31.7309 56.4684C34.442 54.9465 37.1531 53.729 39.7136 52.2071C44.0814 49.7721 48.2987 47.3371 52.5159 44.7499C53.3166 44.3523 53.9771 43.7157 54.4082 42.9264C54.8392 42.137 55.0198 41.233 54.9258 40.3365C54.6245 36.8362 54.7752 33.3359 54.7752 29.8356V29.8863Z" fill="#4068B2"/>
<path d="M54.7697 29.8865C54.7697 33.3869 54.6191 36.8872 54.7697 40.3875C54.8133 41.2767 54.6109 42.1606 54.1852 42.9401C53.7596 43.7196 53.1275 44.3639 52.3599 44.8009C47.992 47.3374 43.7748 49.8739 39.5575 52.2581C36.8339 53.78 34.3236 55.1497 31.5749 56.5194C31.2399 56.7435 30.847 56.8631 30.4452 56.8631C30.0435 56.8631 29.6506 56.7435 29.3156 56.5194C22.086 52.8669 15.0071 48.6056 8.07873 44.4966C7.42177 44.1232 6.88672 43.5645 6.53898 42.8889C6.19124 42.2132 6.0459 41.4497 6.12072 40.6919V19.1319C6.07248 18.3185 6.24303 17.507 6.61427 16.7836C6.9855 16.0602 7.54359 15.4518 8.22935 15.0229C11.0911 13.2981 13.8021 11.624 16.6639 10.1275C20.8811 7.69251 25.249 5.40969 29.6168 3.27906C29.8678 3.1296 30.1539 3.05078 30.4452 3.05078C30.7366 3.05078 31.0226 3.1296 31.2736 3.27906C38.3526 6.62719 45.2809 10.7363 52.0587 14.541C52.946 14.9792 53.6805 15.6796 54.1646 16.5494C54.6488 17.4192 54.8599 18.4172 54.7697 19.411C54.6191 22.8859 54.7697 26.3862 54.7697 29.8865ZM17.5675 34.6044C17.7182 35.9741 17.8688 37.0394 17.8688 37.9525C18.0079 39.8326 18.8736 41.5819 20.2786 42.8225C21.2882 43.7132 22.4669 44.3864 23.7428 44.8009C26.7856 45.8882 30.0572 46.1506 33.2316 45.5619C35.5805 45.3356 37.8219 44.4578 39.7081 43.0254C40.3468 42.5385 40.792 41.8367 40.9633 41.047C42.2184 34.5029 43.3731 27.8066 44.578 21.2626C44.7235 20.6417 44.6817 19.991 44.458 19.3943C44.2343 18.7975 43.839 18.2822 43.3229 17.9144C42.2864 17.1 41.1128 16.4813 39.8587 16.0882C34.8931 14.4952 29.6122 14.1813 24.4959 15.1751C21.8978 15.4654 19.4127 16.407 17.2663 17.9144C16.8941 18.1771 16.581 18.5163 16.3474 18.9096C16.1138 19.303 15.965 19.7418 15.9108 20.1973C15.9108 20.806 15.9108 21.1104 16.8145 21.1104C21.0317 20.5016 25.0984 20.0451 29.3658 19.4363C29.6483 19.3718 29.9436 19.3955 30.2125 19.5042C30.4815 19.6129 30.7114 19.8015 30.872 20.0451C32.1271 21.7191 33.2818 23.3932 34.6374 25.118C34.8437 25.342 35.0034 25.6056 35.1069 25.8932C35.2104 26.1808 35.2556 26.4865 35.2398 26.7921V36.3799C35.2398 39.5758 35.2398 39.8802 31.7757 40.1846C29.4976 40.4813 27.1827 40.2669 24.996 39.5567C22.8092 38.8465 20.8043 37.6579 19.1239 36.0755C18.5765 35.6726 18.0718 35.2136 17.6178 34.7058L17.5675 34.6044ZM33.5329 31.6874V30.6221C33.5329 27.5784 33.5329 27.5784 30.5205 27.5784C26.5515 27.7536 22.6059 26.8793 19.0737 25.0419C18.3206 24.5853 18.4712 25.1941 18.4712 25.6507C18.6219 27.7813 19.0737 30.0641 19.0737 32.1947C19.0852 33.1063 19.3206 34.0007 19.7588 34.7976C20.1969 35.5945 20.8241 36.2689 21.584 36.7604C25.0482 39.0432 28.8136 39.0432 32.7296 38.7388C33.332 38.7388 33.4827 38.2822 33.4827 37.8257C33.3822 35.6697 33.6835 33.6912 33.5329 31.6874ZM33.2316 26.0565L30.2193 21.643C29.9341 21.3669 29.5595 21.2047 29.165 21.1865C27.5082 21.4909 25.8514 21.643 24.1445 21.7952L18.7223 22.7084V23.0127C23.0274 26.0819 27.9601 26.234 33.2316 26.0819V26.0565Z" fill="white"/>
<path d="M17.5798 34.6046C18.3329 35.3655 18.8349 35.9743 19.2366 36.4308C20.9083 38.0275 22.9115 39.2271 25.1002 39.9423C27.2889 40.6576 29.6079 40.8704 31.8883 40.5653C35.3525 40.2609 35.3525 40.1087 35.3525 36.7606V27.1474C35.3683 26.8418 35.323 26.5361 35.2195 26.2485C35.116 25.961 34.9564 25.6973 34.75 25.4733C33.4949 23.7993 32.2398 22.1252 30.9846 20.4004C30.8241 20.1568 30.5941 19.9682 30.3252 19.8595C30.0563 19.7508 29.761 19.7272 29.4785 19.7917C25.2612 20.4004 21.044 20.857 16.9271 21.4657C16.1741 21.6179 16.0234 21.3135 16.0234 20.5526C16.0466 20.0889 16.1823 19.6381 16.4188 19.24C16.6552 18.8418 16.9849 18.5086 17.379 18.2698C19.5254 16.7624 22.0105 15.8207 24.6086 15.5304C29.7477 14.6129 35.0287 14.9345 40.0216 16.4689C41.2494 16.9243 42.4138 17.5381 43.4858 18.2951C44.0019 18.6629 44.3972 19.1782 44.6209 19.775C44.8446 20.3717 44.8864 21.0224 44.7409 21.6433C43.4858 28.1873 42.3311 34.8836 41.1261 41.4277C40.9549 42.2174 40.5097 42.9192 39.871 43.4061C38.0333 44.9248 35.7651 45.8131 33.3945 45.9426C30.214 46.3727 26.9792 46.1133 23.9057 45.1816C22.6422 44.6926 21.4707 43.9892 20.4415 43.1017C19.708 42.5257 19.1103 41.7923 18.6914 40.9546C18.2725 40.1168 18.0428 39.1954 18.0191 38.2571C17.881 37.0396 17.7304 35.9743 17.5798 34.6046Z" fill="#4068B2"/>
</g>
<defs>
<clipPath id="clip0_1130_8788">
<rect width="60" height="60" fill="white" transform="translate(0.4375 0.195312)"/>
</clipPath>
</defs>
</svg>
