<svg width="61" height="61" viewBox="0 0 61 61" fill="none" xmlns="http://www.w3.org/2000/svg">
<g clipPath="url(#clip0_1130_11572)">
<path d="M52.0628 27.5177C51.9666 29.7143 51.7083 31.9008 51.2898 34.0591C53.7133 35.5983 55.4794 37.9872 56.2445 40.7609C57.0095 43.5347 56.7188 46.4949 55.4289 49.0654C54.139 51.636 51.9422 53.633 49.266 54.6678C46.5897 55.7026 43.6256 55.7013 40.9503 54.664C37.537 58.1342 32.9023 60.1206 28.044 60.1957C13.5336 60.1957 4.82734 42.2835 4.21484 27.5177H52.0628ZM50.2398 38.3762L50.1232 38.7274C48.8162 43.2343 46.728 47.4747 43.9544 51.2543C44.3405 51.3131 44.7305 51.3425 45.1211 51.3421C46.6209 51.346 48.0871 50.8966 49.3288 50.0524C50.5704 49.2082 51.5299 48.0083 52.0823 46.6091C52.6347 45.2098 52.7544 43.6761 52.4258 42.2076C52.0971 40.7392 51.3354 39.4041 50.2398 38.3762ZM44.8732 0.298166C45.0106 0.378028 45.1153 0.504212 45.1687 0.654272C45.2221 0.804331 45.2207 0.968537 45.1648 1.11768V1.23475L40.9503 8.14207C43.8304 9.97847 46.2816 12.417 48.1365 15.2911C49.9914 18.1653 51.2063 21.4073 51.6982 24.7957H4.46276C4.91506 21.6555 5.9894 18.6379 7.62243 15.9209C9.25547 13.204 11.4141 10.8426 13.9711 8.97622L9.28984 1.23475C9.2087 1.09785 9.17744 0.936923 9.20137 0.779456C9.22531 0.621989 9.30297 0.477741 9.42109 0.371337H9.52318C9.59943 0.323938 9.68438 0.292366 9.773 0.278487C9.86163 0.264608 9.95212 0.268705 10.0391 0.290536C10.1262 0.312366 10.2079 0.351486 10.2796 0.405582C10.3513 0.459679 10.4115 0.527653 10.4565 0.605483L15.0794 8.21524C18.7473 5.86271 22.9833 4.55466 27.3346 4.43093C31.6859 4.30721 35.9889 5.37246 39.7836 7.5128L43.9398 0.532312C43.9849 0.454482 44.045 0.386508 44.1167 0.332412C44.1884 0.278315 44.2702 0.239195 44.3572 0.217365C44.4442 0.195535 44.5347 0.191438 44.6233 0.205316C44.712 0.219195 44.7969 0.250767 44.8732 0.298166ZM18.5357 13.9079C18.1319 13.9079 17.7371 14.0281 17.4014 14.2532C17.0656 14.4783 16.804 14.7983 16.6494 15.1727C16.4949 15.547 16.4545 15.959 16.5332 16.3564C16.612 16.7538 16.8065 17.1189 17.092 17.4054C17.3775 17.6919 17.7413 17.8871 18.1374 17.9661C18.5334 18.0452 18.9439 18.0046 19.317 17.8495C19.6901 17.6945 20.0089 17.4319 20.2333 17.0949C20.4576 16.758 20.5773 16.3619 20.5773 15.9567C20.5793 15.6871 20.5278 15.4198 20.4259 15.1704C20.324 14.9209 20.1737 14.6943 19.9837 14.5037C19.7937 14.313 19.5679 14.1622 19.3193 14.0599C19.0707 13.9576 18.8043 13.906 18.5357 13.9079ZM37.6253 13.9079C37.2215 13.9079 36.8267 14.0281 36.491 14.2532C36.1552 14.4783 35.8935 14.7983 35.739 15.1727C35.5845 15.547 35.544 15.959 35.6228 16.3564C35.7016 16.7538 35.896 17.1189 36.1816 17.4054C36.4671 17.6919 36.8309 17.8871 37.2269 17.9661C37.623 18.0452 38.0335 18.0046 38.4066 17.8495C38.7796 17.6945 39.0985 17.4319 39.3228 17.0949C39.5472 16.758 39.6669 16.3619 39.6669 15.9567C39.6689 15.6871 39.6174 15.4198 39.5155 15.1704C39.4135 14.9209 39.2632 14.6943 39.0733 14.5037C38.8833 14.313 38.6574 14.1622 38.4089 14.0599C38.1603 13.9576 37.8939 13.906 37.6253 13.9079Z" fill="white"/>
</g>
<defs>
<clipPath id="clip0_1130_11572">
<rect width="60" height="60" fill="white" transform="translate(0.4375 0.195312)"/>
</clipPath>
</defs>
</svg>
