<svg width="61" height="61" viewBox="0 0 61 61" fill="none" xmlns="http://www.w3.org/2000/svg">
<g clipPath="url(#clip0_1098_8681)">
<path d="M37.2133 21.8863L31.2746 27.4625L25.7109 16.2101L28.5865 9.74629C29.3117 8.49603 30.4994 8.49603 31.2246 9.74629L37.2133 21.8863Z" fill="#315CAA"/>
<path d="M31.2098 27.4625L8.76758 48.3418L25.6461 16.2227L31.2098 27.4625Z" fill="#4068B2"/>
<path d="M43.7749 13.3363C44.8501 12.3111 45.9503 12.6612 46.2754 14.1115L52.1141 48.0686L32.7351 59.6835C31.9308 59.9765 31.0888 60.1533 30.2345 60.2086C29.4608 60.1241 28.7006 59.9435 27.9716 59.671L8.76758 48.3436L43.7749 13.3363Z" fill="white"/>
<path d="M25.6461 16.2235L8.76758 48.3427L16.2691 1.45792C16.5692 -0.0548971 17.3944 -0.204928 18.1445 1.08284L25.6461 16.2235Z" fill="#6992CC"/>
</g>
<defs>
<clipPath id="clip0_1098_8681">
<rect width="60" height="60" fill="white" transform="translate(0.4375 0.195312)"/>
</clipPath>
</defs>
</svg>
