<svg width="60" height="61" viewBox="0 0 60 61" fill="none" xmlns="http://www.w3.org/2000/svg">
<g clipPath="url(#clip0_1098_15042)">
<path d="M51.9655 55.1197L51.9409 55.335C51.1137 60.3182 34.9534 61.3661 24.3773 60.6761C17.3273 60.2154 15.9559 59.0604 15.9559 59.0604C22.6544 60.1854 33.9451 60.389 43.1016 58.635C50.8984 57.1393 51.8959 55.2718 51.9623 55.1282L51.9655 55.1197ZM11.023 56.6315C2.30479 55.1925 15.2187 50.1675 17.5823 51.8636C17.5823 51.8636 16.8344 51.81 15.5273 52.0982C14.2737 52.3725 10.288 53.6786 12.4137 54.6204C18.3259 57.2411 39.6076 56.6132 46.3384 54.5379C49.8784 53.445 48.193 52.0307 48.193 52.0307C54.3601 54.8636 34.7959 60.5582 11.023 56.6315ZM22.1851 47.1182L22.1659 47.129C21.9569 47.2618 20.1194 48.4907 23.8051 48.9225C28.5248 49.4711 30.9366 49.3918 36.1384 48.39C36.1384 48.39 37.5066 49.2632 39.4159 50.0186C27.7555 55.1079 13.0266 49.725 22.1851 47.1182ZM20.7601 40.4765C20.7601 40.4765 18.2069 42.4018 22.1059 42.8122C27.148 43.3415 31.1294 43.3854 38.0198 42.0343L38.0584 42.0729C38.2512 42.2593 39.1491 43.0811 40.4712 43.5557C26.3734 47.7547 10.6705 43.8879 20.7601 40.4765ZM42.4748 44.9486C42.4748 44.9486 42.6473 44.7911 42.6998 44.6507C53.8748 38.7365 48.7073 33.0536 45.1009 33.8186C44.2169 34.0061 43.8226 34.169 43.8226 34.169C43.8226 34.169 44.1516 33.645 44.7784 33.419C51.913 30.8636 57.3998 40.9532 42.4748 44.9486ZM23.2791 33.5957C23.2791 33.5957 12.4544 36.2143 19.4455 37.1657C22.3984 37.5675 28.2837 37.4765 33.7651 37.0093C38.2459 36.6236 42.7437 35.8061 42.7437 35.8061C42.7437 35.8061 41.1644 36.495 40.0223 37.29C29.0273 40.2343 7.79051 38.865 13.9041 35.8522C19.0748 33.3065 23.2791 33.5957 23.2791 33.5957Z" fill="white"/>
<path d="M33.0872 29.9675C35.8675 33.261 32.3564 36.2246 32.3564 36.2246C32.3564 36.2246 39.4161 32.4746 36.1739 27.7796C33.1461 23.4018 30.8243 21.2257 43.3943 13.7246C43.3943 13.7246 23.6629 18.7946 33.0872 29.9675Z" fill="white"/>
<path d="M36.4855 0.867188C36.4855 0.867188 42.5316 7.15969 30.7523 16.8368C21.3066 24.5993 28.5987 29.0243 30.748 34.0815C25.2344 28.9054 21.1887 24.3486 23.9037 20.1068C27.8873 13.8818 38.9251 10.8636 36.4855 0.867188Z" fill="white"/>
</g>
<defs>
<clipPath id="clip0_1098_15042">
<rect width="60" height="60" fill="white" transform="translate(0 0.373047)"/>
</clipPath>
</defs>
</svg>
