<svg width="61" height="61" viewBox="0 0 61 61" fill="none" xmlns="http://www.w3.org/2000/svg">
<g clipPath="url(#clip0_1130_11553)">
<path d="M7.74626 40.1914C10.071 40.377 12.3771 39.6403 14.2023 38.1289C14.9334 37.3851 15.5042 36.4876 15.8767 35.4962C16.2491 34.5048 16.4146 33.4421 16.3623 32.3789V19.7039H18.1863V18.9414H9.05426V19.7039H10.8783V32.6914C10.8783 37.0914 9.43826 39.2914 6.53426 39.2914C5.78002 39.3032 5.03442 39.123 4.36226 38.7664C3.71426 38.4039 3.39026 38.0289 3.39026 37.6289C3.36832 37.4674 3.4055 37.3031 3.49442 37.1688C3.58334 37.0345 3.7175 36.9399 3.87026 36.9039C4.0542 36.8322 4.24264 36.7737 4.43426 36.7289L5.03426 36.5664C5.58231 36.447 6.07302 36.1317 6.42145 35.6751C6.76989 35.2186 6.95412 34.6495 6.94226 34.0664C6.94077 33.354 6.66903 32.671 6.18626 32.1664C5.9359 31.9187 5.63975 31.7267 5.31585 31.602C4.99195 31.4774 4.64709 31.4227 4.30226 31.4414C3.90564 31.4426 3.51432 31.5364 3.15712 31.7159C2.79991 31.8955 2.48592 32.1562 2.23826 32.4789C1.67132 33.1763 1.36835 34.0653 1.38626 34.9789C1.34448 35.7353 1.48123 36.4908 1.78456 37.1794C2.08789 37.868 2.54855 38.4686 3.12626 38.9289C4.4912 39.8672 6.11491 40.3109 7.74626 40.1914ZM27.7863 41.4414C29.6345 41.4733 31.426 40.7768 32.8023 39.4914C33.526 38.8255 34.0977 37.9995 34.4755 37.0739C34.8534 36.1482 35.0279 35.1463 34.9863 34.1414C34.9863 32.5039 35.0943 29.4664 35.2863 25.0414C35.2868 24.6855 35.3779 24.3362 35.5503 24.0289C35.6703 23.8664 35.9583 23.7914 36.4023 23.7914H37.1703C37.3503 23.7914 37.4343 23.6039 37.4343 23.2414C37.4343 22.8789 37.3023 22.6914 37.1223 22.6914L34.0983 22.7664L30.9543 22.6914C30.7983 22.6914 30.7263 22.8789 30.7263 23.2539C30.7263 23.6289 30.7983 23.8289 30.9543 23.8289H32.4303C32.7743 23.8289 32.9783 24.6622 33.0423 26.3289C33.1023 27.9789 33.1263 30.2664 33.1263 33.1914C33.2458 34.8307 32.8223 36.4631 31.9263 37.8164C31.5155 38.3287 30.9958 38.7343 30.4085 39.0012C29.8211 39.268 29.1822 39.3888 28.5423 39.3539C27.9024 39.3809 27.2638 39.2743 26.664 39.0403C26.0643 38.8063 25.5156 38.4497 25.0503 37.9914C24.5718 37.4113 24.2088 36.738 23.9822 36.0106C23.7556 35.2832 23.67 34.5161 23.7303 33.7539V25.1039C23.7 24.7648 23.7713 24.4242 23.9343 24.1289C24.1817 23.9248 24.4965 23.8305 24.8103 23.8664H25.9503C26.1543 23.8664 26.2503 23.6664 26.2503 23.2789C26.2503 22.8914 26.1543 22.6914 25.9503 22.6914L22.0743 22.7664L18.4743 22.6914C18.2703 22.6914 18.1743 22.8914 18.1743 23.2789C18.1743 23.6664 18.2703 23.8664 18.4743 23.8664H19.7703C20.3103 23.8664 20.5743 24.7914 20.5743 26.6664V34.5289C20.5257 35.497 20.697 36.4635 21.0744 37.3496C21.4518 38.2358 22.0246 39.0167 22.7463 39.6289C24.1687 40.8329 25.9537 41.4748 27.7863 41.4414ZM41.8263 41.2539V40.4039L40.9863 40.1914C40.866 40.1723 40.7558 40.1104 40.6743 40.0164C40.5979 39.9177 40.5595 39.793 40.5663 39.6664V33.5539C40.9008 33.2829 41.2785 33.0756 41.6823 32.9414C42.0695 32.8088 42.4746 32.7413 42.8823 32.7414C43.1496 32.7073 43.4207 32.7539 43.6632 32.8758C43.9058 32.9977 44.1095 33.1897 44.2503 33.4289C44.5137 34.0801 44.6287 34.7861 44.5863 35.4914V39.7289C44.5913 39.7928 44.5833 39.8571 44.5626 39.9174C44.5419 39.9778 44.509 40.0328 44.4663 40.0789C44.3846 40.1638 44.2799 40.2205 44.1663 40.2414L43.3143 40.4039V41.2539H47.6463V40.4039L46.6863 40.2414C46.5681 40.2238 46.4587 40.1668 46.3743 40.0789C46.2979 39.9802 46.2595 39.8555 46.2663 39.7289V35.1914C46.3432 34.2507 46.1775 33.3056 45.7863 32.4539C45.5488 32.0932 45.2204 31.8077 44.8371 31.6291C44.4539 31.4504 44.0307 31.3855 43.6143 31.4414C43.0498 31.4415 42.4896 31.543 41.9583 31.7414C41.3937 31.9584 40.8903 32.3194 40.4943 32.7914L40.3743 31.7539L40.0983 31.4414C39.6443 31.4548 39.1914 31.4965 38.7423 31.5664C38.2816 31.6544 37.8282 31.7797 37.3863 31.9414V32.7664L38.4783 32.9289C38.596 32.9455 38.7032 33.008 38.7783 33.1039C38.8564 33.2065 38.8949 33.3358 38.8863 33.4664V39.7164C38.893 39.843 38.8546 39.9677 38.7783 40.0664C38.7383 40.1167 38.689 40.1581 38.6333 40.1882C38.5776 40.2182 38.5168 40.2363 38.4543 40.2414L37.4943 40.4039V41.2539H41.8263ZM51.1863 30.1039C51.442 30.0914 51.6858 29.9876 51.8769 29.81C52.0679 29.6324 52.1945 29.3918 52.2354 29.1285C52.2763 28.8652 52.2291 28.5953 52.1016 28.364C51.9742 28.1327 51.7743 27.9541 51.5354 27.8581C51.2965 27.7621 51.0332 27.7546 50.7896 27.8368C50.5461 27.9191 50.3371 28.0861 50.1977 28.3098C50.0583 28.5335 49.9969 28.8003 50.024 29.0655C50.0511 29.3308 50.1648 29.5782 50.3463 29.7664C50.4579 29.8813 50.5914 29.9707 50.7381 30.0288C50.8848 30.0869 51.0415 30.1125 51.1983 30.1039H51.1863ZM53.5863 41.2539V40.4039L52.6503 40.1914C52.5283 40.1779 52.4162 40.1151 52.3383 40.0164C52.2601 39.9138 52.2216 39.7845 52.2303 39.6539V31.7664L51.9783 31.5039C51.4886 31.5134 50.9999 31.551 50.5143 31.6164C50.0182 31.681 49.5284 31.7897 49.0503 31.9414V32.7664L50.1423 32.9289C50.2654 32.9446 50.3779 33.0094 50.4562 33.1096C50.5345 33.2098 50.5725 33.3376 50.5623 33.4664V39.7164C50.5633 39.848 50.5209 39.9759 50.4423 40.0789C50.3595 40.1692 50.2492 40.2266 50.1303 40.2414L49.1583 40.4039V41.2539H53.5863ZM58.6503 41.4414C59.2149 41.4474 59.7719 41.3055 60.2703 41.0289C60.758 40.7547 61.1396 40.313 61.3503 39.7789L60.8703 39.3039C60.6693 39.5425 60.419 39.7306 60.1383 39.8539C59.8527 39.9917 59.5409 40.0601 59.2263 40.0539C59.052 40.0625 58.8779 40.0336 58.7148 39.9691C58.5517 39.9046 58.4031 39.8058 58.2783 39.6789C57.9947 39.2521 57.8709 38.7318 57.9303 38.2164V32.8539H60.8583V31.7039H57.9663V28.8539H56.9943L56.4303 31.3539C56.411 31.4762 56.3566 31.5895 56.2743 31.6789C56.2326 31.7252 56.1825 31.7623 56.1268 31.7881C56.0712 31.8138 56.0111 31.8277 55.9503 31.8289L54.9543 31.9789V32.6914L56.3103 32.8789V38.9414C56.2956 39.3671 56.3608 39.7917 56.5023 40.1914C56.6163 40.4935 56.7972 40.7634 57.0303 40.9789C57.2521 41.1695 57.5095 41.3099 57.7863 41.3914C58.0834 41.4442 58.3854 41.461 58.6863 41.4414H58.6503Z" fill="white"/>
</g>
<defs>
<clipPath id="clip0_1130_11553">
<rect width="60" height="60" fill="white" transform="translate(0.4375 0.195312)"/>
</clipPath>
</defs>
</svg>
