<svg width="61" height="61" viewBox="0 0 61 61" fill="none" xmlns="http://www.w3.org/2000/svg">
<g clipPath="url(#clip0_1130_11562)">
<path d="M12.4405 36.7187C12.5544 36.7244 12.6682 36.7054 12.7741 36.663C12.8799 36.6207 12.9754 36.556 13.054 36.4733C13.1341 36.3933 13.1963 36.2973 13.2367 36.1916C13.277 36.0859 13.2946 35.9728 13.2882 35.8598V31.0522C13.305 30.3758 13.1676 29.7045 12.8867 29.089C12.6417 28.5805 12.2541 28.1542 11.7712 27.862C11.2569 27.575 10.6759 27.4287 10.0869 27.4382C9.41059 27.4265 8.74251 27.5877 8.14601 27.9066C7.80711 28.1017 7.50199 28.3503 7.2425 28.6428L7.14211 28.7544C6.94538 28.4609 6.69113 28.2105 6.39475 28.0182L6.21628 27.9066C5.70193 27.6196 5.12092 27.4734 4.53196 27.4828C3.91622 27.4748 3.31023 27.6369 2.7807 27.9513C2.63068 28.0388 2.48882 28.1396 2.35683 28.2524L2.18951 28.4197V28.2524C2.17035 28.1184 2.12485 27.9895 2.05566 27.8732L1.92181 27.7951C1.83953 27.7104 1.74048 27.6439 1.631 27.5997C1.52151 27.5555 1.404 27.5347 1.286 27.5385C1.17286 27.5354 1.06029 27.5555 0.955271 27.5977C0.850252 27.6399 0.755032 27.7033 0.675527 27.7838C0.596023 27.8644 0.533933 27.9604 0.493116 28.066C0.452298 28.1715 0.433626 28.2844 0.438258 28.3974V35.8375C0.43331 35.9513 0.452632 36.0649 0.494942 36.1706C0.537252 36.2764 0.601581 36.372 0.683657 36.451C0.758465 36.5368 0.851143 36.6053 0.955194 36.6515C1.05925 36.6978 1.17215 36.7207 1.286 36.7187C1.40158 36.7245 1.51707 36.7057 1.62478 36.6633C1.73249 36.621 1.82995 36.5562 1.91065 36.4733C1.98906 36.3921 2.05023 36.2959 2.09049 36.1905C2.13074 36.0851 2.14925 35.9726 2.14489 35.8598V30.9184C2.16655 30.4858 2.31816 30.0699 2.57992 29.7248L2.70262 29.5798C2.88603 29.3831 3.10919 29.2277 3.35728 29.1238C3.60536 29.02 3.8727 28.9701 4.14155 28.9775C4.64513 28.9621 5.13435 29.1465 5.5024 29.4906C5.68814 29.7033 5.82928 29.9511 5.91742 30.2193C6.00556 30.4876 6.03891 30.7708 6.0155 31.0522V35.8375C6.00937 35.952 6.02685 36.0665 6.06685 36.174C6.10684 36.2815 6.1685 36.3796 6.248 36.4622C6.3275 36.5448 6.42314 36.6102 6.52897 36.6544C6.63481 36.6985 6.74859 36.7204 6.86324 36.7187C6.97714 36.7244 7.09092 36.7054 7.19681 36.663C7.30269 36.6207 7.39818 36.556 7.47674 36.4733C7.55515 36.3921 7.61632 36.2959 7.65658 36.1905C7.69683 36.0851 7.71534 35.9726 7.71099 35.8598V30.896C7.74048 30.4927 7.88357 30.106 8.1237 29.7806L8.25756 29.6244C8.43882 29.428 8.66001 29.2727 8.90626 29.1688C9.15252 29.0649 9.41815 29.0149 9.68533 29.0221C9.93484 29.0132 10.1836 29.054 10.4172 29.1421C10.6508 29.2302 10.8646 29.3638 11.0462 29.5352C11.2319 29.7479 11.3731 29.9957 11.4612 30.2639C11.5493 30.5322 11.5827 30.8154 11.5593 31.0968V35.8821C11.557 35.9956 11.5776 36.1084 11.6198 36.2137C11.6619 36.3191 11.7248 36.415 11.8047 36.4956C11.889 36.5754 11.9892 36.6365 12.0988 36.675C12.2083 36.7134 12.3248 36.7283 12.4405 36.7187ZM18.9993 36.7187C19.8241 36.7422 20.6402 36.5458 21.3641 36.1498C22.0697 35.7677 22.6505 35.1908 23.0373 34.4878C23.4244 33.757 23.6165 32.9386 23.595 32.1119C23.6157 31.2669 23.4116 30.4316 23.0038 29.6914C22.6161 29.0062 22.0493 28.4393 21.3641 28.0517C20.6472 27.6561 19.8403 27.4524 19.0216 27.4605C18.1844 27.4453 17.3577 27.6491 16.6234 28.0517C15.946 28.4457 15.3843 29.0112 14.9949 29.6914C14.5924 30.4337 14.3887 31.2676 14.4037 32.1119C14.3924 32.9416 14.5961 33.7601 14.9949 34.4878C15.3763 35.1739 15.9399 35.7414 16.6234 36.1275C17.3558 36.535 18.1838 36.7392 19.0216 36.7187H18.9993ZM18.9993 35.2128C18.459 35.2233 17.9263 35.0843 17.46 34.8113C17.0121 34.5425 16.6458 34.1569 16.4003 33.6958C16.14 33.1971 16.0095 32.6409 16.0211 32.0784C16.0076 31.5122 16.1381 30.9519 16.4003 30.4499C16.6439 29.9874 17.0107 29.6014 17.46 29.3344C17.9302 29.0706 18.4602 28.932 18.9993 28.932C19.5384 28.932 20.0685 29.0706 20.5386 29.3344C20.9846 29.6021 21.3476 29.9882 21.5872 30.4499C21.8406 30.9547 21.967 31.5137 21.9553 32.0784C21.967 32.6396 21.8406 33.195 21.5872 33.6958C21.3457 34.1561 20.9832 34.5418 20.5386 34.8113C20.0811 35.0882 19.5565 35.2348 19.0216 35.2351L18.9993 35.2128ZM29.0384 36.7187C30.1495 36.7551 31.2307 36.3547 32.0501 35.6032C32.1221 35.5376 32.1778 35.456 32.2127 35.3649C32.2475 35.2739 32.2606 35.176 32.2509 35.079C32.2203 34.8667 32.1082 34.6747 31.9385 34.5436C31.7842 34.4312 31.5922 34.3832 31.4031 34.4097C31.198 34.4382 31.0049 34.5231 30.8454 34.6551C30.6039 34.853 30.3278 35.0043 30.0311 35.1013C29.6981 35.2002 29.3523 35.2491 29.0049 35.2463C28.4599 35.2543 27.9233 35.1115 27.4544 34.8336C27.0106 34.5633 26.6483 34.1778 26.4059 33.7181C26.1474 33.2228 26.017 32.6706 26.0267 32.1119C26.0126 31.5398 26.139 30.973 26.3948 30.461C26.6278 30.0019 26.9828 29.616 27.421 29.3456C27.8782 29.0813 28.3988 28.9463 28.9268 28.9552C29.3094 28.9465 29.6894 29.0197 30.0414 29.1697C30.3934 29.3198 30.7094 29.5433 30.9681 29.8252C31.1045 29.9733 31.284 30.0748 31.4812 30.1152C31.5746 30.1452 31.6738 30.1528 31.7707 30.1373C31.8676 30.1217 31.9595 30.0836 32.0389 30.026C32.2193 29.9098 32.3504 29.731 32.407 29.524C32.4275 29.4245 32.423 29.3214 32.3938 29.2241C32.3645 29.1267 32.3116 29.0381 32.2397 28.9663C31.8361 28.4916 31.3336 28.1109 30.7673 27.8509C30.2006 27.5918 29.5833 27.4622 28.9603 27.4716C28.1409 27.4579 27.3326 27.6619 26.6178 28.0628C25.9424 28.457 25.3872 29.0277 25.0116 29.7137C24.61 30.4524 24.4064 31.2824 24.4204 32.123C24.408 32.9493 24.6118 33.7645 25.0116 34.4878C25.401 35.1775 25.9669 35.7512 26.6513 36.1498C27.3809 36.5518 28.2059 36.7484 29.0384 36.7187ZM39.8694 36.7187C39.9774 36.7294 40.0864 36.7182 40.19 36.6856C40.2935 36.653 40.3893 36.5997 40.4717 36.5291C40.5589 36.4656 40.631 36.3837 40.6831 36.2893C40.7351 36.1948 40.7658 36.0901 40.7729 35.9825C40.7818 35.878 40.7697 35.7728 40.7371 35.6732C40.7045 35.5735 40.6522 35.4815 40.5833 35.4025L37.3485 31.4203L40.416 28.6763C40.5432 28.5695 40.6331 28.4249 40.6725 28.2636V28.2078C40.6779 28.1069 40.6618 28.006 40.6252 27.9118C40.5887 27.8175 40.5326 27.7322 40.4606 27.6612C40.3951 27.5816 40.3135 27.5166 40.2213 27.4705C40.1291 27.4244 40.0282 27.3982 39.9252 27.3935C39.8215 27.3872 39.7177 27.4039 39.6213 27.4425C39.5248 27.4811 39.4381 27.5405 39.3674 27.6166L35.3183 31.2418V24.4488C35.3212 24.2707 35.2707 24.0959 35.1733 23.9468L35.0841 23.8353C34.921 23.691 34.7107 23.6113 34.4929 23.6113C34.2751 23.6113 34.0649 23.691 33.9017 23.8353C33.815 23.9118 33.7461 24.0063 33.6999 24.1123C33.6536 24.2183 33.6311 24.3331 33.634 24.4488V35.8598C33.6205 35.9755 33.6316 36.0927 33.6667 36.2038C33.7017 36.3149 33.7598 36.4173 33.8373 36.5043C33.9147 36.5914 34.0097 36.661 34.116 36.7087C34.2222 36.7564 34.3374 36.781 34.4539 36.781C34.5704 36.781 34.6855 36.7564 34.7918 36.7087C34.8981 36.661 34.993 36.5914 35.0705 36.5043C35.1479 36.4173 35.2061 36.3149 35.2411 36.2038C35.2761 36.0927 35.2872 35.9755 35.2737 35.8598V33.3054L36.0992 32.5581L39.2893 36.4956C39.3902 36.6316 39.5367 36.7267 39.7021 36.7633H39.8248L39.8694 36.7187Z" fill="white" stroke="white" stroke-width="0.5"/>
<path d="M42.9501 26.0331C43.0865 26.0307 43.221 26.0008 43.3455 25.9452C43.4701 25.8896 43.5822 25.8095 43.6751 25.7096C43.7823 25.61 43.8674 25.4891 43.925 25.3546C43.9827 25.2201 44.0115 25.0751 44.0097 24.9288C44.0114 24.7842 43.9824 24.6408 43.9247 24.5082C43.867 24.3755 43.782 24.2566 43.6751 24.1591C43.4671 23.9581 43.1892 23.8457 42.8999 23.8457C42.6106 23.8457 42.3326 23.9581 42.1246 24.1591C42.0192 24.2572 41.9359 24.3765 41.8801 24.5092C41.8243 24.6419 41.7974 24.7849 41.8012 24.9288C41.7973 25.0744 41.824 25.2191 41.8798 25.3536C41.9355 25.4882 42.0189 25.6095 42.1246 25.7096C42.2288 25.8225 42.3572 25.9102 42.5002 25.9662C42.6431 26.0223 42.797 26.0451 42.9501 26.0331ZM42.9501 36.6856C43.0635 36.6879 43.1763 36.6673 43.2817 36.6252C43.3871 36.583 43.4829 36.5201 43.5636 36.4402C43.7198 36.2748 43.8041 36.0542 43.7978 35.8267V28.3867C43.7994 28.1667 43.7154 27.9547 43.5636 27.7955C43.4824 27.7171 43.3862 27.6559 43.2808 27.6157C43.1753 27.5754 43.0628 27.5569 42.9501 27.5613C42.8372 27.5562 42.7245 27.5744 42.619 27.6147C42.5135 27.655 42.4174 27.7166 42.3366 27.7955C42.2536 27.8762 42.1888 27.9737 42.1465 28.0814C42.1042 28.1891 42.0853 28.3046 42.0912 28.4201V35.8267C42.0881 35.9404 42.1082 36.0534 42.1503 36.159C42.1924 36.2646 42.2555 36.3605 42.3359 36.4409C42.4163 36.5213 42.5122 36.5844 42.6178 36.6265C42.7234 36.6686 42.8364 36.6887 42.9501 36.6856ZM49.3304 36.6856C49.5883 36.6924 49.8406 36.6097 50.0443 36.4514C50.1334 36.3787 50.2048 36.2867 50.2531 36.1823C50.3015 36.078 50.3254 35.964 50.3232 35.849C50.3296 35.7396 50.3142 35.63 50.2778 35.5265C50.2414 35.4231 50.1848 35.328 50.1112 35.2467C50.0501 35.1701 49.9718 35.1091 49.8826 35.0684C49.7935 35.0277 49.696 35.0085 49.5981 35.0125H49.0293C48.8533 35.0129 48.6796 34.9717 48.5226 34.8922C48.3656 34.8127 48.2296 34.6972 48.1258 34.5551C47.8758 34.2381 47.7455 33.8432 47.7577 33.4397V29.3014H49.1854C49.3535 29.3048 49.5193 29.2623 49.6651 29.1787L49.7543 29.1006C49.824 29.0374 49.8791 28.9597 49.9157 28.873C49.9523 28.7863 49.9695 28.6927 49.9662 28.5986C49.9715 28.4994 49.9552 28.4002 49.9186 28.3078C49.8821 28.2154 49.826 28.132 49.7543 28.0632C49.598 27.9249 49.3939 27.8529 49.1854 27.8624H47.7577V25.4531C47.7658 25.2744 47.7148 25.0979 47.6126 24.9511L47.5234 24.8507C47.4064 24.7292 47.2554 24.6459 47.0902 24.6117C46.925 24.5776 46.7533 24.5941 46.5977 24.6593C46.4421 24.7244 46.3098 24.8351 46.2183 24.9767C46.1267 25.1184 46.08 25.2844 46.0845 25.4531V27.8624H45.3148C45.1486 27.8575 44.9849 27.9042 44.8463 27.9963L44.7906 28.0632C44.7188 28.132 44.6628 28.2154 44.6262 28.3078C44.5896 28.4002 44.5734 28.4994 44.5786 28.5986C44.5753 28.6927 44.5926 28.7863 44.6292 28.873C44.6658 28.9597 44.7209 29.0374 44.7906 29.1006C44.9469 29.2389 45.1509 29.3109 45.3594 29.3014H46.1291V33.4397C46.125 33.9342 46.2238 34.4242 46.4191 34.8786L46.5195 35.0905C46.7641 35.5486 47.126 35.9335 47.568 36.206C47.9945 36.5161 48.5025 36.6944 49.0293 36.7191L49.3304 36.6856ZM55.2869 36.7526C56.1258 36.7696 56.9539 36.5616 57.6851 36.1502C58.3668 35.759 58.9237 35.1828 59.2914 34.4882C59.694 33.7539 59.8977 32.9272 59.8826 32.09C59.8937 31.2532 59.6901 30.4275 59.2914 29.6918C58.8989 29.0102 58.3332 28.4446 57.6517 28.0521C56.9178 27.6643 56.1003 27.4616 55.2702 27.4616C54.4401 27.4616 53.6226 27.6643 52.8887 28.0521C52.2113 28.4461 51.6496 29.0116 51.2602 29.6918C50.8577 30.4341 50.654 31.268 50.669 32.1123C50.6577 32.942 50.8614 33.7605 51.2602 34.4882C51.6456 35.1751 52.2129 35.7425 52.8999 36.1279C53.6281 36.5355 54.4526 36.7397 55.2869 36.7191V36.7526ZM55.2869 35.2467C54.7353 35.2634 54.1902 35.1243 53.7141 34.8451C53.2696 34.5757 52.9071 34.19 52.6656 33.7297C52.3996 33.2287 52.2652 32.6683 52.2752 32.1011C52.2652 31.534 52.3996 30.9736 52.6656 30.4726C52.9052 30.0109 53.2682 29.6248 53.7141 29.3571C54.1843 29.0933 54.7144 28.9547 55.2535 28.9547C55.7926 28.9547 56.3226 29.0933 56.7928 29.3571C57.2414 29.6215 57.6052 30.0085 57.8413 30.4726C58.1035 30.9746 58.234 31.5349 58.2206 32.1011C58.234 32.6673 58.1035 33.2277 57.8413 33.7297C57.6032 34.1924 57.2399 34.5789 56.7928 34.8451C56.3362 35.1123 55.8159 35.2511 55.2869 35.2467Z" fill="#315CAA" stroke="#315CAA" stroke-width="0.5"/>
</g>
<defs>
<clipPath id="clip0_1130_11562">
<rect width="60" height="60" fill="white" transform="translate(0.4375 0.195312)"/>
</clipPath>
</defs>
</svg>
