<svg width="61" height="61" viewBox="0 0 61 61" fill="none" xmlns="http://www.w3.org/2000/svg">
<g clipPath="url(#clip0_1130_11664)">
<path d="M32.3867 0.195312L59.9867 27.9453L59.3867 0.795312L32.3867 0.195312Z" fill="white"/>
<path d="M55.0383 28.8457L56.9883 30.9457L28.3383 59.8957L26.2383 57.4957L55.0383 28.8457Z" fill="white"/>
<path d="M52.7879 26.8945L38.8379 41.1445L40.7879 42.9445L55.0379 28.8445L52.7879 26.8945Z" fill="white"/>
<path d="M38.0867 12.4961L47.8367 22.2461L26.2367 43.6961L16.6367 33.9461L38.0867 12.4961Z" fill="white"/>
<path d="M33.5883 7.39492L19.4883 21.3449L17.2383 19.5449L31.4883 5.29492L33.5883 7.39492Z" fill="white"/>
<path d="M29.3875 3.19531L31.4875 5.29531L2.6875 33.6453L0.4375 32.1453L29.3875 3.19531Z" fill="white"/>
<path d="M2.68828 34.0949L0.738281 44.2949V32.2949L2.68828 34.0949Z" fill="white"/>
<path d="M26.2371 57.4961L28.3371 59.8961L16.0371 59.5961L26.2371 57.4961Z" fill="white"/>
<path d="M16.0371 36.0449L14.5371 45.9449L24.4371 44.2949L16.0371 36.0449Z" fill="white"/>
</g>
<defs>
<clipPath id="clip0_1130_11664">
<rect width="60" height="60" fill="white" transform="translate(0.4375 0.195312)"/>
</clipPath>
</defs>
</svg>
