<svg width="60" height="61" viewBox="0 0 60 61" fill="none" xmlns="http://www.w3.org/2000/svg">
<g clipPath="url(#clip0_1098_15072)">
<path d="M25.1048 17.6349C27.503 17.6349 31.9982 14.4109 36.7237 14.884C38.7024 14.9657 44.2551 15.6722 47.8196 20.8296C47.5362 21.0107 41.1923 24.6549 41.2688 32.2534C41.3487 41.3295 49.3199 44.3488 49.4118 44.3903C49.3407 44.6004 48.1355 48.6943 45.2088 52.9229C42.6777 56.579 40.058 60.2178 35.9231 60.2938C31.8568 60.3692 30.5508 57.9108 25.9053 57.9108C21.2596 57.9108 19.8066 60.2176 15.964 60.3692C11.9738 60.5155 8.93469 56.4217 6.38603 52.7767C1.17018 45.3302 -2.8108 31.7283 2.54064 22.5467C5.19277 17.9856 9.942 15.1001 15.0927 15.0244C19.0118 14.954 22.7126 17.6349 25.1048 17.6349ZM37.5082 30.3109H35.5644V36.5793C35.5644 37.2336 35.274 37.5477 34.8196 37.5477C34.4536 37.5477 34.2769 37.4692 34.037 37.2729L33.5448 38.7516C34.0118 39.0657 34.3021 39.1966 35.1478 39.1966C36.7761 39.1966 37.5082 38.1104 37.5082 36.5793V30.3109ZM22.1432 30.1539C20.0732 30.1539 18.8235 31.685 18.8235 33.4647C18.8235 35.2445 20.0732 36.7887 22.1432 36.7887C24.2386 36.7887 25.4756 35.2445 25.4756 33.4647C25.4756 31.685 24.2386 30.1539 22.1432 30.1539ZM29.2451 27.903H27.3012V36.6316H29.2451V35.8988C29.75 36.5008 30.3685 36.7887 31.0501 36.7887C32.5522 36.7887 33.7387 35.6109 33.7387 33.4647C33.7387 31.3971 32.5648 30.1539 31.0501 30.1539C30.3811 30.1539 29.7247 30.4287 29.2451 31.0568V27.903ZM22.1432 31.9336C23.0016 31.9336 23.4812 32.6272 23.4812 33.4647C23.4812 34.3153 23.0016 35.0089 22.1432 35.0089C21.2975 35.0089 20.8305 34.3153 20.8305 33.4647C20.8305 32.6272 21.2975 31.9336 22.1432 31.9336ZM30.4064 31.9336C31.1763 31.9336 31.757 32.5225 31.757 33.4647C31.757 34.42 31.1763 35.0089 30.4064 35.0089C29.9898 35.0089 29.4849 34.7864 29.2451 34.4462V32.5094C29.4849 32.1692 29.9898 31.9336 30.4064 31.9336ZM36.5363 27.4319C35.9178 27.4319 35.4255 27.9422 35.4255 28.5835C35.4255 29.2247 35.9178 29.7482 36.5363 29.7482C37.1548 29.7482 37.6471 29.2247 37.6471 28.5835C37.6471 27.9422 37.1548 27.4319 36.5363 27.4319ZM36.7854 0.373047C37.1754 3.88925 35.7459 7.4139 33.6281 9.9544C31.508 12.4892 28.0316 14.4631 24.6261 14.2003C24.1654 10.7544 25.8845 7.16558 27.8484 4.91699C30.0371 2.38222 33.7348 0.495859 36.7854 0.373047Z" fill="white"/>
<path d="M52.9006 39.4516C48.5594 39.4516 45.2559 36.4869 45.2559 32.1457C45.2559 27.7834 48.5594 24.8398 52.9006 24.8398C56.31 24.8398 58.1312 26.7669 59.0629 28.6304L55.9288 30.1128C55.4629 28.9904 54.2559 28.0587 52.9006 28.0587C50.5923 28.0587 48.9617 29.8375 48.9617 32.1457C48.9617 34.454 50.5923 36.2328 52.9006 36.2328C54.2559 36.2328 55.4629 35.301 55.9288 34.1787L59.0629 35.661C58.1523 37.4822 56.31 39.4516 52.9006 39.4516Z" fill="white"/>
</g>
<defs>
<clipPath id="clip0_1098_15072">
<rect width="60" height="60" fill="white" transform="translate(0 0.373047)"/>
</clipPath>
</defs>
</svg>
