<svg width="61" height="61" viewBox="0 0 61 61" fill="none" xmlns="http://www.w3.org/2000/svg">
<g clipPath="url(#clip0_1130_8768)">
<path d="M43.4484 3.08902C37.9579 0.470976 31.8047 -0.412483 25.8029 0.555518C19.8011 1.52352 14.2336 4.29736 9.83681 8.5101C4.10626 13.9947 53.5686 7.92609 43.4484 3.08902Z" fill="white"/>
<path d="M53.9872 11.5053C53.9872 11.5053 51.5457 14.8824 44.0947 15.8219C29.041 17.7262 3.22186 17.9675 3.25981 17.8405C4.84827 14.3398 7.08974 11.1767 9.86322 8.52183C13.1359 9.54843 16.6058 9.77479 19.9834 9.18201C25.4989 8.16635 30.4072 4.96703 35.8721 3.65937C38.3584 3.08246 40.9186 2.89404 43.4622 3.10076C47.5553 5.07289 51.1528 7.94561 53.9872 11.5053Z" fill="#F0EFEF"/>
<path d="M60.1384 25.5864C60.1384 25.7134 26.2105 28.9127 9.67664 27.9732C6.45447 27.8983 3.39135 26.5528 1.15039 24.228C1.60165 22.042 2.29321 19.913 3.21238 17.8801C8.06937 15.2014 13.5211 13.7954 19.0631 13.7921C25.8942 13.8682 32.5988 16.1535 39.4426 15.9884C44.5782 15.8004 49.5758 14.2686 53.9398 11.5449C57.1869 15.6051 59.3234 20.4448 60.1384 25.5864Z" fill="#DCDCDC"/>
<path d="M60.3996 30.1318V30.665C53.342 32.2476 46.1252 33.0017 38.8942 32.9121C26.0322 32.5588 13.1965 31.546 0.4375 29.8779C0.449988 27.9153 0.657638 25.959 1.05736 24.0378C5.16497 26.6081 10.003 27.7461 14.8208 27.2752C18.5883 26.714 22.2537 25.6019 25.7 23.9743C29.1414 22.3442 32.7182 21.0188 36.3894 20.0133C41.8734 18.7639 47.6056 19.2064 52.8347 21.2829C55.4259 22.3119 57.8514 23.7194 60.0327 25.4597C60.2748 27.0053 60.3974 28.5673 60.3996 30.1318Z" fill="white"/>
<path d="M26.3958 39.9069C17.4015 41.5828 1.96824 39.653 1.93029 39.5515C0.934941 36.5158 0.430971 33.3397 0.437564 30.1439V29.8773C1.83872 28.7828 3.35274 27.8422 4.95369 27.0716C8.83278 25.192 13.1521 24.419 17.4395 24.8371C21.6349 25.4279 25.7142 26.6655 29.5331 28.5062C32.7727 30.0229 36.0919 31.3622 39.4761 32.518C39.8304 32.6196 36.3009 38.0787 26.3958 39.9069Z" fill="#658FCA"/>
<path d="M59.3617 38.281C58.7292 39.3475 52.7582 42.9404 44.6621 43.5498C33.9347 44.3623 21.2718 41.1122 25.4717 39.4491C32.0625 36.8083 37.8183 32.1236 44.7127 30.1685C49.882 28.722 55.3682 28.8947 60.4369 30.6636C60.3989 33.238 60.0376 35.7973 59.3617 38.281Z" fill="#4E7BBE"/>
<path d="M56.5753 45.1489C51.3887 54.1755 13.8428 56.4354 8.35263 50.3668C5.53423 47.2385 3.39719 43.5544 2.07812 39.55C6.66746 36.8884 12.0009 35.8134 17.2584 36.4904C23.9757 37.4172 29.9972 41.1751 36.6259 42.6351C42.0019 43.8204 47.6023 43.4551 52.7802 41.5814C55.1395 40.7371 57.3836 39.5983 59.4595 38.1916C58.7904 40.6221 57.8215 42.9593 56.5753 45.1489Z" fill="#4068B2"/>
<path d="M56.452 45.0231C54.104 49.1515 50.8147 52.6628 46.8537 55.2694C42.8927 57.8759 38.3727 59.5035 33.6641 60.0188C28.9555 60.5341 24.1922 59.9224 19.7645 58.2339C15.3369 56.5454 11.3708 53.828 8.19141 50.3045C9.10222 50.66 10.1269 50.9647 11.0504 51.2313C16.3033 52.6709 21.8509 52.6225 27.0782 51.0917C30.4052 50.1141 33.5298 48.5525 36.7809 47.3591C43.0807 45.1111 49.8034 44.3127 56.452 45.0231Z" fill="#315CAA"/>
</g>
<defs>
<clipPath id="clip0_1130_8768">
<rect width="60" height="60" fill="white" transform="translate(0.4375 0.195312)"/>
</clipPath>
</defs>
</svg>
