<svg width="61" height="61" viewBox="0 0 61 61" fill="none" xmlns="http://www.w3.org/2000/svg">
<g clipPath="url(#clip0_1130_11525)">
<path fill-rule="evenodd" clip-rule="evenodd" d="M31.0852 5.75295L31.2416 5.83829C32.1985 6.43775 33.3046 6.75566 34.4336 6.75566C35.5625 6.75566 36.6687 6.43775 37.6255 5.83829L37.7677 5.75295C38.1687 5.49913 38.6158 5.32719 39.0835 5.24701C39.5512 5.16684 40.03 5.18002 40.4926 5.28579C40.9551 5.39157 41.3922 5.58785 41.7786 5.86333C42.165 6.13881 42.4931 6.48804 42.744 6.89093C43.308 7.80553 44.1259 8.53604 45.098 8.99325C46.0701 9.45047 47.1542 9.6146 48.2179 9.4656L48.8293 9.38026C49.2612 9.31831 49.7011 9.34306 50.1233 9.45308C50.5455 9.5631 50.9415 9.75617 51.2883 10.021C51.6351 10.2859 51.9257 10.6172 52.1431 10.9956C52.3605 11.3741 52.5003 11.7921 52.5544 12.2252C52.5602 12.2535 52.5649 12.2819 52.5687 12.3106C52.6442 13.3376 53.0361 14.3159 53.6905 15.1107C54.345 15.9056 55.2296 16.4778 56.2227 16.7487L56.8198 16.9051C57.604 17.1215 58.271 17.639 58.6758 18.345C59.0805 19.0509 59.1902 19.8882 58.981 20.6747C58.9374 20.8246 58.8852 20.9718 58.8246 21.1157C58.4065 22.0563 58.308 23.1081 58.5442 24.11C58.7805 25.112 59.3384 26.0088 60.1326 26.6633L60.2464 26.7629C60.8749 27.2843 61.2713 28.0337 61.3486 28.8469C61.4258 29.6602 61.1778 30.4709 60.6587 31.1014C60.5284 31.2459 60.3908 31.3836 60.2464 31.514L60.1326 31.5993C59.3384 32.2538 58.7805 33.1507 58.5442 34.1526C58.308 35.1546 58.4065 36.2064 58.8246 37.147C58.988 37.5159 59.0772 37.9134 59.087 38.3168C59.0968 38.7202 59.0271 39.1216 58.8819 39.4981C58.7367 39.8746 58.5187 40.2187 58.2406 40.5109C57.9624 40.8031 57.6294 41.0376 57.2606 41.201L56.8198 41.3575L56.2227 41.514C55.221 41.7881 54.3301 42.3688 53.6748 43.1749C53.0195 43.981 52.6328 44.972 52.5687 46.009C52.5032 46.8799 52.0953 47.6894 51.4343 48.26C50.7734 48.8306 49.9133 49.1158 49.0426 49.0531H48.8151L48.2037 48.9677C47.1406 48.813 46.0555 48.9714 45.0809 49.4236C44.1062 49.8758 43.2844 50.6021 42.7156 51.514C42.4647 51.9169 42.1365 52.2661 41.7501 52.5416C41.3637 52.817 40.9267 53.0133 40.4641 53.1191C40.0016 53.2249 39.5227 53.238 39.0551 53.1579C38.5874 53.0777 38.1402 52.9058 37.7393 52.6519L37.5971 52.5666C36.6403 51.9671 35.5341 51.6492 34.4052 51.6492C33.2762 51.6492 32.17 51.9671 31.2132 52.5666L31.0852 52.6519C30.6843 52.9058 30.2371 53.0777 29.7695 53.1579C29.3018 53.238 28.8229 53.2249 28.3604 53.1191C27.8978 53.0133 27.4608 52.817 27.0744 52.5416C26.688 52.2661 26.3599 51.9169 26.1089 51.514C25.5365 50.6023 24.7119 49.8764 23.7352 49.4244C22.7585 48.9724 21.6717 48.8138 20.6066 48.9677L19.9952 49.0531C19.5639 49.1111 19.1253 49.0836 18.7047 48.972C18.284 48.8604 17.8894 48.667 17.5435 48.4028C17.1975 48.1386 16.907 47.8088 16.6885 47.4322C16.47 47.0557 16.3278 46.6397 16.2701 46.2081C16.2701 46.137 16.2701 46.0517 16.2701 45.9805C16.1936 44.9517 15.7996 43.972 15.1424 43.177C14.4853 42.3819 13.5975 41.8108 12.6018 41.5424L12.0047 41.3859C11.2358 41.1608 10.586 40.6426 10.1951 39.9429C9.80422 39.2433 9.70351 38.418 9.91463 37.6448C9.94759 37.4917 10.0002 37.3435 10.071 37.2039C10.4844 36.2624 10.5803 35.212 10.3444 34.2112C10.1084 33.2104 9.55332 32.3136 8.76297 31.6562L8.64923 31.5566C8.33477 31.3007 8.07434 30.9847 7.88309 30.6271C7.69183 30.2696 7.57358 29.8775 7.53521 29.4737C7.49684 29.07 7.53912 28.6626 7.65958 28.2754C7.78005 27.8881 7.9763 27.5287 8.23691 27.2181C8.35631 27.0678 8.49494 26.9339 8.64923 26.8198L8.76297 26.7202C9.55332 26.0629 10.1084 25.1661 10.3444 24.1653C10.5803 23.1645 10.4844 22.114 10.071 21.1726C9.73256 20.4368 9.69966 19.5967 9.97954 18.8367C10.2594 18.0767 10.8292 17.4587 11.5639 17.1185L12.0047 16.9621L12.6018 16.8056C13.6062 16.534 14.5002 15.9543 15.1582 15.148C15.8162 14.3417 16.205 13.3494 16.2701 12.3106C16.3462 11.451 16.7571 10.656 17.4142 10.097C18.0713 9.53813 18.9218 9.26023 19.7819 9.32336H20.0094L20.6208 9.40871C21.683 9.56548 22.7679 9.41114 23.7443 8.96434C24.7208 8.51754 25.547 7.79739 26.1232 6.89093C26.3727 6.48853 26.6995 6.13959 27.0847 5.86428C27.4698 5.58897 27.9057 5.39274 28.3671 5.28693C28.8285 5.18112 29.3062 5.16782 29.7728 5.24781C30.2393 5.3278 30.6854 5.49948 31.0852 5.75295ZM34.9668 19.4229C32.0637 19.4227 29.1695 19.7423 26.3364 20.376C26.0473 20.4391 25.7851 20.5909 25.5863 20.8101C25.3875 21.0294 25.2621 21.3053 25.2274 21.5993V32.5666C25.2718 35.0963 26.2964 37.5099 28.0853 39.2982C29.8741 41.0866 32.2874 42.1099 34.8159 42.1524C37.3444 42.1948 39.7906 41.253 41.6384 39.5257C43.4862 37.7984 44.5912 35.4206 44.7203 32.8938V21.7842C44.7277 21.4534 44.6195 21.1304 44.4145 20.8708C44.2095 20.6112 43.9205 20.4312 43.5971 20.3618C40.7634 19.7337 37.8692 19.4188 34.9668 19.4229ZM20.0236 21.3575C19.9846 21.5684 19.9937 21.7855 20.0503 21.9924C20.1069 22.1993 20.2096 22.3908 20.3507 22.5524L24.1326 26.9478V20.7174L21.6587 20.2337C21.2935 20.171 20.9183 20.2533 20.6129 20.4632C20.3075 20.6731 20.0961 20.994 20.0236 21.3575ZM49.8815 21.3575C49.8091 21.0053 49.606 20.6936 49.3132 20.4851C49.0204 20.2766 48.6596 20.1868 48.3033 20.2337L45.8435 20.7174V26.9478L49.654 22.5524C49.795 22.3908 49.8977 22.1993 49.9543 21.9924C50.0109 21.7855 50.0201 21.5684 49.981 21.3575H49.8815Z" fill="white"/>
<path d="M9.50324 50.8734C11.5998 50.8734 13.2994 49.1729 13.2994 47.0754C13.2994 44.9778 11.5998 43.2773 9.50324 43.2773C7.40665 43.2773 5.70703 44.9778 5.70703 47.0754C5.70703 49.1729 7.40665 50.8734 9.50324 50.8734Z" fill="white"/>
<path d="M3.54693 55.1974C4.74106 55.1974 5.70909 54.2293 5.70909 53.0352C5.70909 51.8411 4.74106 50.873 3.54693 50.873C2.3528 50.873 1.38477 51.8411 1.38477 53.0352C1.38477 54.2293 2.3528 55.1974 3.54693 55.1974Z" fill="white"/>
<path d="M39.3053 27.3606C40.0909 27.3606 40.7278 26.7237 40.7278 25.9381C40.7278 25.1525 40.0909 24.5156 39.3053 24.5156C38.5197 24.5156 37.8828 25.1525 37.8828 25.9381C37.8828 26.7237 38.5197 27.3606 39.3053 27.3606Z" fill="white"/>
<path d="M29.5514 27.3606C30.337 27.3606 30.9739 26.7237 30.9739 25.9381C30.9739 25.1525 30.337 24.5156 29.5514 24.5156C28.7658 24.5156 28.1289 25.1525 28.1289 25.9381C28.1289 26.7237 28.7658 27.3606 29.5514 27.3606Z" fill="white"/>
<path d="M34.9673 39.4807C35.5735 39.4876 36.1725 39.3491 36.7142 39.0769C37.2559 38.8047 37.7246 38.4066 38.081 37.916H38.7209C38.3381 38.568 37.7917 39.1086 37.1358 39.4843C36.4799 39.8599 35.7373 40.0575 34.9815 40.0575C34.2258 40.0575 33.4831 39.8599 32.8272 39.4843C32.1713 39.1086 31.6249 38.568 31.2422 37.916H31.882C32.2348 38.4035 32.6988 38.7998 33.2354 39.072C33.772 39.3441 34.3657 39.4842 34.9673 39.4807Z" fill="white"/>
</g>
<defs>
<clipPath id="clip0_1130_11525">
<rect width="60" height="60" fill="white" transform="translate(0.4375 0.195312)"/>
</clipPath>
</defs>
</svg>
