<svg width="61" height="61" viewBox="0 0 61 61" fill="none" xmlns="http://www.w3.org/2000/svg">
<g clipPath="url(#clip0_1130_11539)">
<path d="M5.25814 37.3599C2.20814 21.9691 10.2581 7.10607 28.7331 5.10274C27.7553 4.15142 26.5471 3.44751 25.2165 3.05395C23.8858 2.66039 22.4743 2.58946 21.1081 2.8475C18.2831 3.69921 18.3706 5.43863 15.1581 7.64589C11.9706 9.42129 10.3706 8.08974 8.04564 9.90113C5.72064 11.7125 7.34564 15.7552 6.38314 16.5589C5.40814 18.1424 2.42064 19.5699 1.87064 21.5732C1.42064 24.1403 3.12064 25.9757 3.03314 28.183C3.22064 30.0184 1.10814 31.05 1.40814 32.5375C2.12351 34.3363 3.33296 35.9156 4.90814 37.108C5.09564 37.2399 5.29564 37.5518 5.25814 37.3599Z" fill="white"/>
<path d="M38.6811 16.1405C38.4968 16.1849 38.3043 16.1883 38.1184 16.1505C37.9325 16.1128 37.758 16.0348 37.6082 15.9227C37.4584 15.8105 37.3372 15.667 37.2539 15.5031C37.1705 15.3392 37.1272 15.1593 37.1272 14.9769C37.1272 14.7946 37.1705 14.6146 37.2539 14.4507C37.3372 14.2868 37.4584 14.1434 37.6082 14.0312C37.758 13.919 37.9325 13.8411 38.1184 13.8033C38.3043 13.7656 38.4968 13.769 38.6811 13.8133C38.8654 13.769 39.0578 13.7656 39.2437 13.8033C39.4296 13.8411 39.6041 13.919 39.7539 14.0312C39.9037 14.1434 40.0249 14.2868 40.1083 14.4507C40.1916 14.6146 40.235 14.7946 40.235 14.9769C40.235 15.1593 40.1916 15.3392 40.1083 15.5031C40.0249 15.667 39.9037 15.8105 39.7539 15.9227C39.6041 16.0348 39.4296 16.1128 39.2437 16.1505C39.0578 16.1883 38.8654 16.1849 38.6811 16.1405ZM6.18108 39.1128C3.26858 25.7493 12.4061 14.5691 30.1311 20.0752C40.5186 25.7973 53.5936 25.4254 54.1811 21.7187C55.6311 17.2921 47.5561 8.15122 35.4311 5.76402C11.5061 1.3735 -1.41892 25.7493 6.21858 39.1128H6.18108Z" fill="white"/>
<path d="M55.3582 38.0206C50.836 42.8194 44.5779 45.7837 37.8582 46.3098C41.1207 48.9489 44.2707 50.1365 47.2707 49.6207C38.8832 51.8159 31.8582 49.4047 23.3332 41.3315C22.8832 43.5027 25.2957 46.8856 27.7832 49.0449C13.3582 43.0469 12.0957 24.5491 29.6957 19.9906C11.4457 11.6534 1.13319 27.896 6.19569 41.0915C11.1957 51.3121 24.3707 59.1935 38.8582 57.454C43.6909 56.8561 48.2671 55.0216 52.107 52.1427C55.9468 49.2639 58.9091 45.4468 60.6832 41.0915C57.6582 43.6707 52.2582 45.8899 49.8457 46.0939C58.0082 42.2911 62.4207 35.6574 61.1832 26.6964C59.7915 30.15 57.4711 33.1881 54.4582 35.5014C60.3957 26.6964 59.3707 22.0899 54.9832 17.0996C58.1207 25.3168 54.0707 34.4338 45.2207 40.9116C47.0268 41.125 48.8593 40.9783 50.6037 40.4809C52.348 39.9834 53.9666 39.1459 55.3582 38.0206Z" fill="white"/>
</g>
<defs>
<clipPath id="clip0_1130_11539">
<rect width="60" height="60" fill="white" transform="translate(0.4375 0.195312)"/>
</clipPath>
</defs>
</svg>
