<svg width="61" height="61" viewBox="0 0 61 61" fill="none" xmlns="http://www.w3.org/2000/svg">
<path d="M24.2369 6.61772C30.5593 4.99617 37.5322 5.92807 43.0962 9.36205C50.1205 13.563 54.6896 21.4787 54.8057 29.6275C55.0624 37.8948 50.7718 46.0546 43.8789 50.5298C40.0092 53.1326 35.4317 54.4644 30.8376 54.5442C26.252 54.6238 21.6433 53.456 17.7296 51.0055C13.698 48.5988 10.5447 45.0003 8.53231 40.8509C6.51955 36.7007 5.64538 31.9933 6.24397 27.3795C6.73232 22.4521 8.85671 17.884 12.0311 14.2298C15.2221 10.5565 19.4798 7.79966 24.2369 6.61772Z" stroke="#0066FF" stroke-width="4"/>
<path d="M52.9536 27.1706C55.0494 39.7188 44.6347 52.4704 31.9211 52.8388C19.83 54.0455 8.1453 43.7956 7.80248 31.654C6.90072 21.8236 13.3782 12.0693 22.6496 8.81793C35.6553 3.61046 51.6075 13.225 52.9536 27.1706ZM28.8858 31.5015C25.7613 36.3025 22.5481 41.0524 19.4236 45.8535C25.3931 41.2429 31.0703 36.2769 36.938 31.5396C34.2582 31.5015 31.5783 31.5015 28.8858 31.5015ZM41.4468 14.5331C35.4902 19.1563 29.7875 24.0843 23.9578 28.8472C26.6251 28.8851 29.3048 28.8851 31.9847 28.8723C35.1091 24.0715 38.3224 19.3342 41.4468 14.5331Z" fill="white"/>
</svg>
