<svg width="61" height="61" viewBox="0 0 61 61" fill="none" xmlns="http://www.w3.org/2000/svg">
<g clipPath="url(#clip0_1130_8758)">
<path d="M45.8687 4.02828H8.24536C7.0302 4.03124 5.86565 4.51527 5.0064 5.37453C4.14715 6.23378 3.66312 7.39832 3.66016 8.61348L3.66016 50.0933C3.66312 51.3085 4.14715 52.473 5.0064 53.3323C5.86565 54.1915 7.0302 54.6755 8.24536 54.6785H33.0324C32.7521 42.3467 36.9785 18.4229 45.8687 4.00586" fill="white"/>
<path d="M54.6406 2.68329C52.0621 0.441135 48.9343 1.31557 45.8625 4.02858C45.4029 4.44338 44.9433 4.90302 44.4948 5.37387C39.2258 10.9793 34.3379 21.3156 32.8132 29.2304C33.386 30.4868 33.8438 31.7926 34.1809 33.1317C34.2482 33.4232 34.3155 33.7147 34.3939 33.9501C34.5285 34.5219 34.5957 34.8806 34.5957 34.8806C34.5221 34.6335 34.4361 34.3903 34.3379 34.1519C34.3379 34.0398 34.2706 33.9277 34.2258 33.7932C34.1809 33.6586 34.2258 33.6698 34.1361 33.5801C33.7998 32.7842 32.8356 31.1026 32.432 30.3627C32.0621 31.4165 31.7482 32.4142 31.4903 33.3111C32.3804 35.2232 33.0318 37.2376 33.4298 39.3088C33.4298 39.3088 33.3625 39.051 33.0711 38.1878C32.7796 37.3245 31.4455 35.0824 31.1316 34.5443C30.5823 36.551 30.3805 37.9075 30.5598 38.2326C31.0308 39.1752 31.3811 40.1733 31.6024 41.2035C32.3087 43.9837 32.802 47.347 32.802 47.347C32.802 47.347 32.802 47.5712 32.802 47.9187C32.711 50.2064 32.7559 52.4974 32.9365 54.7797C33.0412 57.04 33.4639 59.2742 34.1921 61.4165L34.5845 61.2035C33.688 57.9773 33.3394 54.6235 33.5531 51.2819C33.9777 44.2014 35.3967 37.2158 37.7684 30.5308C42.0733 19.1743 48.0486 10.0488 53.4634 5.69898C48.4971 10.1833 41.737 24.7573 39.7415 30.1384C37.6299 35.6857 36.0203 41.4112 34.932 47.2461C36.6249 42.134 42.006 39.9479 42.006 39.9479C42.006 39.9479 44.6518 36.6855 47.7235 32.0331C45.7307 32.4479 43.7621 32.9718 41.8267 33.6026C40.3132 34.2416 39.9096 34.4546 39.9096 34.4546C42.7514 32.7272 45.7553 31.2816 48.8782 30.1384C54.6294 21.1698 60.8737 8.29988 54.5845 2.68329" fill="#315CAA"/>
</g>
<defs>
<clipPath id="clip0_1130_8758">
<rect width="60" height="60" fill="white" transform="translate(0.4375 0.195312)"/>
</clipPath>
</defs>
</svg>
