<svg width="60" height="61" viewBox="0 0 60 61" fill="none" xmlns="http://www.w3.org/2000/svg">
<g clipPath="url(#clip0_1098_15061)">
<path d="M54.1802 41.2955C54.1802 41.2955 62.7338 21.5415 36.3568 3.56445C36.3568 3.56445 47.1566 17.187 41.5992 32.4066C41.5992 32.4066 22.2196 18.6347 12.4698 8.75764C12.4698 8.75764 24.6533 26.3249 29.0257 29.9096C29.0257 29.9096 21.7546 26.1372 4.90615 11.7717C4.90615 11.7717 24.2333 37.0445 33.3456 42.3219C33.3456 42.3219 19.5571 51.7662 -0.625 38.4385C-0.625 38.4385 9.99105 57.1815 32.3856 57.1815C42.4542 57.1815 45.4054 51.9998 50.3928 51.9998C55.5527 51.9998 58.6614 57.1815 58.6614 57.1815C61.6726 49.7632 54.1802 41.2955 54.1802 41.2955Z" fill="white"/>
</g>
<defs>
<clipPath id="clip0_1098_15061">
<rect width="60" height="60" fill="white" transform="translate(0 0.373047)"/>
</clipPath>
</defs>
</svg>
