<svg width="30" height="30" viewBox="0 0 30 30" fill="none" xmlns="http://www.w3.org/2000/svg">
<path d="M22 12.5499L24.3 9.02279C24.5 8.67895 24.35 8.25747 23.975 8.08C23.7989 7.99856 23.5949 7.97844 23.403 8.02359C23.211 8.06873 23.045 8.17588 22.9375 8.32402L20.5875 11.9177C18.8198 11.2535 16.9197 10.9112 15 10.9112C13.0803 10.9112 11.1802 11.2535 9.4125 11.9177L7.0625 8.32402C6.94887 8.16931 6.77203 8.05973 6.5692 8.01836C6.36637 7.97699 6.15337 8.00704 5.975 8.10219C5.625 8.30184 5.5125 8.70114 5.7 9.02279L8 12.5499C6.0917 13.5172 4.479 14.884 3.30247 16.5312C2.12595 18.1783 1.42132 20.0558 1.25 22H28.75C28.5787 20.0558 27.874 18.1783 26.6975 16.5312C25.521 14.884 23.9083 13.5172 22 12.5499ZM8.75 18.9498C8.3356 18.9498 7.93817 18.8037 7.64515 18.5437C7.35212 18.2837 7.1875 17.9311 7.1875 17.5633C7.1875 17.1956 7.35212 16.843 7.64515 16.583C7.93817 16.323 8.3356 16.1769 8.75 16.1769C9.1644 16.1769 9.56183 16.323 9.85485 16.583C10.1479 16.843 10.3125 17.1956 10.3125 17.5633C10.3125 17.9311 10.1479 18.2837 9.85485 18.5437C9.56183 18.8037 9.1644 18.9498 8.75 18.9498ZM21.25 18.9498C20.8356 18.9498 20.4382 18.8037 20.1451 18.5437C19.8521 18.2837 19.6875 17.9311 19.6875 17.5633C19.6875 17.1956 19.8521 16.843 20.1451 16.583C20.4382 16.323 20.8356 16.1769 21.25 16.1769C21.6644 16.1769 22.0618 16.323 22.3549 16.583C22.6479 16.843 22.8125 17.1956 22.8125 17.5633C22.8125 17.9311 22.6479 18.2837 22.3549 18.5437C22.0618 18.8037 21.6644 18.9498 21.25 18.9498Z" fill="#f132e"/>
</svg>
