<svg width="30" height="30" viewBox="0 0 30 30" fill="none" xmlns="http://www.w3.org/2000/svg">
<path d="M20.6643 24.1976C19.5658 25.253 18.3665 25.0864 17.212 24.5864C15.9903 24.0754 14.8695 24.0532 13.5805 24.5864C11.9665 25.2752 11.1146 25.0752 10.1507 24.1976C4.68095 18.6094 5.48796 10.0994 11.6975 9.78828C13.2106 9.86605 14.2642 10.6104 15.1497 10.6771C16.4723 10.4104 17.7388 9.64386 19.1511 9.74385C20.8436 9.87716 22.1214 10.5437 22.962 11.7436C19.4649 13.8211 20.2944 18.3872 23.5 19.6648C22.8611 21.3313 22.0317 22.9866 20.653 24.2087L20.6643 24.1976ZM15.0376 9.72163C14.8695 7.24416 16.8982 5.19997 19.2296 5C19.5546 7.8663 16.6068 9.99937 15.0376 9.72163Z" fill="#f132e"/>
</svg>
