<svg width="18" height="18" viewBox="0 0 18 18" fill="none" xmlns="http://www.w3.org/2000/svg">
<path d="M8.04504 1.96865L8.04689 1.9668L8.91393 1.09962C9.08684 0.926681 9.36238 0.929415 9.52887 1.09772L9.53085 1.09971L17.1232 8.68946C17.1232 8.68948 17.1232 8.68949 17.1233 8.68951C17.2962 8.86249 17.2934 9.1382 17.1251 9.30474L17.1232 9.30663L9.53076 16.9004C9.35785 17.0733 9.0823 17.0706 8.91582 16.9023L8.91393 16.9004L8.04689 16.0332C7.87515 15.8614 7.87736 15.5785 8.05458 15.4082C8.05472 15.408 8.05486 15.4079 8.055 15.4078L12.7601 10.9245L13.6647 10.0625H12.4152H1.19051C0.947294 10.0625 0.753174 9.86847 0.753174 9.625V8.375C0.753174 8.13153 0.947294 7.9375 1.19051 7.9375H12.4152H13.6647L12.7601 7.07552L8.05385 2.59114L8.05314 2.59047C7.87403 2.42046 7.87179 2.14012 8.04504 1.96865Z" fill="black" stroke="#f132e"/>
</svg>
