<svg width="61" height="61" viewBox="0 0 61 61" fill="none" xmlns="http://www.w3.org/2000/svg">
<g id="Icon Set - Travel" clipPath="url(#clip0_1249_9733)">
<g id="web-development-company">
<g id="Web-development-stack-icon">
<g id="Logo-javascript-Copy-7">
<g id="logo_aspnet">
<path id="Shape" d="M49.8194 23.2059H49.2944V24.9312H49.0876V23.2059H48.5615V23.0078H49.8194V23.2059ZM51.9601 24.9312H51.7533V23.6418C51.7533 23.5433 51.7533 23.4244 51.7726 23.2648C51.7533 23.344 51.7351 23.4233 51.7158 23.4437L51.0965 24.9312H50.984L50.3647 23.464C50.3454 23.4244 50.3272 23.3644 50.3079 23.2648C50.3079 23.344 50.3272 23.464 50.3272 23.6418V24.9323H50.1204V23.0078H50.4022L50.9647 24.3561C51.0022 24.4557 51.0397 24.535 51.0397 24.5939C51.0772 24.4954 51.1147 24.4161 51.134 24.3561L51.6976 23.0078H51.9601V24.9312ZM50.3079 32.0916C50.3079 31.9931 50.2887 31.9139 50.2329 31.8539C50.1762 31.795 50.0637 31.7746 49.9137 31.7746H49.7069V32.4086H49.9704C50.1954 32.4086 50.3079 32.2908 50.3079 32.0916ZM50.6454 33.4014H50.3454L50.1579 32.9644C50.0637 32.7471 49.9512 32.6282 49.8387 32.6282H49.6887V33.4014H49.4444V31.5765H49.9329C50.1579 31.5765 50.3079 31.6354 50.4204 31.735C50.5147 31.8142 50.5704 31.9331 50.5704 32.0723C50.5704 32.1912 50.5329 32.3101 50.4579 32.3893C50.3829 32.4686 50.2704 32.5478 50.1387 32.5682C50.2329 32.5874 50.3272 32.7074 50.4204 32.9055L50.6454 33.4014ZM51.1897 32.4889C51.1897 32.1312 51.0772 31.8142 50.834 31.5765C50.609 31.3388 50.3079 31.2188 49.9887 31.2188C49.6512 31.2188 49.3501 31.3388 49.1251 31.5765C48.9001 31.8142 48.7876 32.1312 48.7876 32.4889C48.7876 32.8455 48.9001 33.1637 49.1444 33.4014C49.3694 33.6391 49.6694 33.758 49.9887 33.758C50.3272 33.758 50.6079 33.6391 50.834 33.381C51.059 33.1637 51.1897 32.8659 51.1897 32.4889ZM51.3397 32.4889C51.3397 32.8852 51.209 33.2429 50.9465 33.4999C50.6829 33.7784 50.3647 33.9165 49.9704 33.9165C49.5762 33.9165 49.2569 33.7784 48.9933 33.5203C48.7308 33.2429 48.6001 32.9055 48.6001 32.5082C48.6001 32.112 48.7308 31.7746 48.9933 31.4972C49.2569 31.2188 49.5762 31.0806 49.9704 31.0806C50.3454 31.0806 50.6647 31.2188 50.9272 31.4769C51.209 31.735 51.3397 32.0723 51.3397 32.4889ZM14.2822 37.5867H13.4379V32.5082C13.4379 32.112 13.4562 31.6161 13.5129 31.041H13.4937C13.4187 31.3784 13.3437 31.6161 13.2879 31.7746L10.8472 37.5867H10.4337L7.99295 31.8142C7.91795 31.6557 7.84295 31.3976 7.78723 31.041H7.76795C7.78723 31.3388 7.80545 31.8335 7.80545 32.5082V37.5867H6.99866V30.0097H8.10652L10.3029 35.2852C10.4712 35.6814 10.5837 35.9803 10.6222 36.1976H10.6597C10.8097 35.781 10.9222 35.464 10.9972 35.2659L13.2504 30.0097H14.3004L14.2822 37.5867ZM16.8729 37.5867H16.0479V32.1912H16.8729V37.5867ZM17.0047 30.2474C17.0047 30.4059 16.9479 30.5452 16.8547 30.6437C16.7604 30.7637 16.6297 30.8022 16.4797 30.8022C16.3287 30.8022 16.1969 30.7433 16.1037 30.6437C15.9912 30.5452 15.9537 30.4059 15.9537 30.2271C15.9537 30.0686 16.0094 29.9305 16.1037 29.8308C16.2162 29.7312 16.3287 29.6723 16.4787 29.6723C16.6287 29.6723 16.7604 29.7312 16.8537 29.8308C16.9479 29.9701 17.0037 30.0889 17.0037 30.2474M21.9794 37.3489C21.5851 37.6059 21.1158 37.7259 20.5715 37.7259C19.8397 37.7259 19.2387 37.4678 18.7876 36.9516C18.3558 36.4557 18.1308 35.8014 18.1308 35.0271C18.1308 34.135 18.3751 33.4206 18.8626 32.8852C19.3512 32.3305 19.9897 32.0723 20.7965 32.0723C21.2465 32.0723 21.6419 32.172 21.9794 32.3497V33.2429C21.6044 32.9644 21.1908 32.8263 20.759 32.8263C20.234 32.8263 19.8204 33.0244 19.4829 33.4014C19.1444 33.7976 18.9762 34.3139 18.9762 34.9682C18.9762 35.6022 19.1262 36.0991 19.4454 36.4557C19.7637 36.8135 20.1772 37.0105 20.7033 37.0105C21.1533 37.0105 21.5669 36.852 21.9612 36.5554L21.9794 37.3489ZM25.8837 33.064C25.7337 32.9452 25.5279 32.8852 25.2644 32.8852C24.9269 32.8852 24.6451 33.0437 24.4201 33.3606C24.1576 33.7184 24.0451 34.2142 24.0451 34.8289V37.5867H23.2179V32.1912H24.044V33.3018H24.0633C24.1758 32.9055 24.3633 32.6078 24.6269 32.3893C24.8519 32.1912 25.1144 32.0916 25.4144 32.0916C25.6394 32.0916 25.7894 32.112 25.9029 32.1708L25.8837 33.064ZM30.4458 34.9082C30.4458 34.2142 30.2958 33.6788 29.9958 33.3222C29.714 32.9644 29.3004 32.8059 28.7937 32.8059C28.2869 32.8059 27.8744 32.9848 27.5733 33.3414C27.2551 33.7184 27.0858 34.2538 27.0858 34.9489C27.0858 35.6033 27.2358 36.0991 27.5551 36.4557C27.8551 36.8135 28.2869 37.0105 28.7937 37.0105C29.3379 37.0105 29.7515 36.8327 30.0333 36.4557C30.2958 36.0788 30.4458 35.5637 30.4458 34.9082ZM31.2719 34.8686C31.2719 35.7222 31.0469 36.4161 30.5776 36.9323C30.1083 37.4474 29.489 37.7055 28.7187 37.7055C27.9494 37.7055 27.3483 37.4474 26.8972 36.9323C26.4665 36.4365 26.2404 35.7618 26.2404 34.9489C26.2404 34.0161 26.4847 33.2825 26.9915 32.7663C27.4608 32.2908 28.0812 32.0531 28.8504 32.0531C29.6197 32.0531 30.2015 32.3101 30.6333 32.8059C31.0651 33.3018 31.2719 33.9969 31.2719 34.8686ZM35.3454 36.158C35.3454 36.595 35.1954 36.972 34.8762 37.2697C34.5387 37.5867 34.0694 37.7452 33.4683 37.7452C32.9808 37.7452 32.5683 37.6455 32.1922 37.4282V36.4954C32.5865 36.8327 33.0365 37.0116 33.5251 37.0116C34.1819 37.0116 34.5001 36.7535 34.5001 36.2576C34.5001 36.0391 34.4251 35.8806 34.2944 35.7414C34.1444 35.6033 33.8626 35.4448 33.4501 35.2455C33.0183 35.0474 32.7172 34.8493 32.5297 34.6308C32.3047 34.3727 32.2104 34.0557 32.2104 33.6595C32.2104 33.2033 32.3797 32.8455 32.7172 32.5478C33.0558 32.2512 33.4876 32.0916 34.0137 32.0916C34.4262 32.0916 34.7829 32.1708 35.1022 32.3497V33.2225C34.7637 32.9644 34.3694 32.8455 33.9376 32.8455C33.6751 32.8455 33.4501 32.9248 33.2808 33.064C33.1115 33.2033 33.0365 33.381 33.0365 33.5995C33.0365 33.8372 33.1115 34.0161 33.2433 34.1542C33.3558 34.2742 33.6183 34.4327 34.0126 34.6116C34.4444 34.8097 34.7637 35.0078 34.9512 35.2059C35.2147 35.4244 35.3454 35.7414 35.3454 36.158ZM40.3394 34.9082C40.3394 34.2142 40.1894 33.6788 39.8894 33.3222C39.6076 32.9644 39.194 32.8059 38.6872 32.8059C38.1804 32.8059 37.7679 32.9848 37.4669 33.3414C37.1476 33.7184 36.9794 34.2538 36.9794 34.9489C36.9794 35.6033 37.1294 36.0991 37.4487 36.4557C37.7679 36.8135 38.1804 37.0105 38.6872 37.0105C39.2315 37.0105 39.6451 36.8327 39.9269 36.4557C40.2076 36.0788 40.3394 35.5637 40.3394 34.9082ZM41.1847 34.8686C41.1847 35.7222 40.9597 36.4161 40.4894 36.9323C40.0394 37.4474 39.4201 37.7055 38.6315 37.7055C37.8612 37.7055 37.2419 37.4474 36.8101 36.9323C36.3783 36.4365 36.1533 35.7618 36.1533 34.9489C36.1533 34.0161 36.3976 33.2825 36.9033 32.7663C37.3737 32.2908 37.9929 32.0531 38.7622 32.0531C39.5326 32.0531 40.1144 32.3101 40.5462 32.8059C40.9779 33.3018 41.1847 33.9969 41.1847 34.8686ZM44.789 30.3459C44.6197 30.2474 44.4504 30.2078 44.2447 30.2078C43.6619 30.2078 43.3812 30.5848 43.3812 31.358V32.1912H44.5812V32.9248H43.3812V37.6059H42.5551V32.9248H41.6915V32.1912H42.5551V31.3195C42.5551 30.7229 42.7233 30.2474 43.0801 29.9305C43.3801 29.6327 43.7562 29.4935 44.1879 29.4935C44.4322 29.4935 44.6379 29.5331 44.7879 29.5931V30.3471L44.789 30.3459ZM48.0365 37.5459C47.849 37.6659 47.5865 37.7259 47.2662 37.7259C46.3662 37.7259 45.9333 37.1893 45.9333 36.1388V32.9452H45.0515V32.2116H45.9333V30.9006C46.1969 30.8214 46.4594 30.7218 46.7594 30.6233V32.2308H48.0558V32.9633H46.7594V36.0188C46.7594 36.3754 46.8162 36.6335 46.9287 36.792C47.0412 36.9505 47.2479 37.0297 47.5104 37.0297C47.7172 37.0297 47.8854 36.9708 48.0354 36.852L48.0365 37.5459ZM3.76938 58.692C3.76938 59.1086 3.61937 59.4844 3.33759 59.7822C3.0558 60.0991 2.69902 60.2384 2.28652 60.2384C1.89223 60.2384 1.53652 60.0799 1.27295 59.7822C0.991161 59.4652 0.859375 59.1086 0.859375 58.692C0.859375 58.255 0.991161 57.8984 1.27295 57.5814C1.55473 57.2837 1.89223 57.1252 2.28652 57.1252C2.69902 57.1252 3.03652 57.2837 3.33759 57.5814C3.61937 57.8984 3.76938 58.2765 3.76938 58.692ZM22.0919 59.9418H19.4262L9.73938 44.1323C9.51437 43.7554 9.32687 43.3399 9.15759 42.8825H9.08259C9.15759 43.2991 9.19509 44.2116 9.19509 45.5995V59.9418H6.99866V40.1044H9.85188L19.2569 55.6761C19.6319 56.2908 19.8954 56.7267 20.0079 57.004H20.0647C19.9704 56.4289 19.9329 55.4576 19.9329 54.0889V40.1044H22.1294L22.0919 59.9418ZM36.209 59.9418H26.2597V40.1056H35.7772V42.2078H28.4562V48.8135H35.2329V50.9157H28.4562V57.8588H36.209V59.9418ZM51.3033 42.1886H45.8958V59.9214H43.6994V42.1886H38.2747V40.0863H51.3033V42.1886Z" fill="white"/>
<path id="Path" opacity="0.8" d="M21.3359 5.80892C23.4574 12.6727 24.2652 24.9116 30.4784 24.9116C30.9477 24.9116 31.4363 24.8719 31.9056 24.7723C26.2549 23.3844 25.5981 11.2644 22.1438 4.99609C21.8802 5.25421 21.6188 5.53157 21.3359 5.80892Z" fill="white"/>
<path id="Path_2" opacity="0.5" d="M22.168 4.99642C25.604 11.2647 26.279 23.3847 31.9298 24.7726C32.3798 24.6934 32.8126 24.5542 33.2626 24.3957C28.1948 21.7772 26.7869 10.0149 22.8815 4.36133C22.6373 4.56057 22.393 4.77793 22.168 4.99642Z" fill="white"/>
<path id="Path_3" opacity="0.8" d="M27.1249 1.26758C26.6556 1.26758 26.1671 1.3072 25.6978 1.40682C24.4399 1.6638 23.1639 2.21965 21.8867 3.09248C22.2435 3.44909 22.5821 3.88494 22.8831 4.34229C24.1967 3.19211 25.4921 2.33852 26.7874 1.84267C27.2749 1.64456 27.7624 1.50531 28.251 1.40682C27.876 1.32758 27.5192 1.26758 27.1249 1.26758Z" fill="white"/>
<path id="Path_4" opacity="0.3" d="M37.2076 21.9747C37.7326 21.5388 38.2404 21.0622 38.7654 20.5267C36.6065 13.7037 35.8383 1.28711 29.5854 1.28711C29.1354 1.28711 28.6854 1.32673 28.2344 1.42522C33.9408 2.91277 34.6544 16.0041 37.2076 21.9747Z" fill="white"/>
<path id="Path_5" d="M28.225 1.40682C27.8683 1.3072 27.5115 1.26758 27.1172 1.26758H29.5761C29.1261 1.28796 28.6761 1.32758 28.225 1.40682Z" fill="white"/>
<path id="Shape_2" opacity="0.5" d="M37.0962 23.424C36.8519 23.1863 36.6269 22.9078 36.3826 22.61C35.3316 23.4036 34.2805 23.9991 33.2476 24.3761C33.6226 24.5742 33.9976 24.7123 34.4112 24.7927C34.7305 24.8515 35.0691 24.8912 35.4066 24.8912C36.5701 24.8912 37.4905 24.7519 38.278 24.3557C37.8655 24.1179 37.4712 23.801 37.0962 23.424ZM26.7901 1.8421C31.8955 4.6587 32.3273 17.433 36.4008 22.61C36.6826 22.4119 36.9462 22.1934 37.2087 21.9557C34.6555 15.9851 33.9237 2.8938 28.2355 1.40625C27.7469 1.50474 27.2594 1.64399 26.7891 1.8421" fill="white"/>
<path id="Path_6" d="M22.88 4.34142C26.7843 9.99387 28.1921 21.7573 33.26 24.3758C34.2928 23.9795 35.3439 23.3841 36.396 22.6097C32.3214 17.4327 31.8896 4.6584 26.7843 1.8418C25.4878 2.35802 24.1753 3.21161 22.88 4.34142Z" fill="white"/>
<path id="Path_7" opacity="0.8" d="M18.8451 5.64994C18.2258 7.11825 17.6065 9.04164 16.8555 11.5616C18.3565 9.32013 19.8587 7.3956 21.3608 5.82881C21.154 5.15409 20.929 4.53938 20.704 4.00391C20.0837 4.47938 19.4644 5.03523 18.8451 5.64994Z" fill="white"/>
<path id="Path_8" opacity="0.85" d="M21.2279 3.56836C21.0404 3.70647 20.8711 3.84572 20.6836 3.98383C20.9279 4.53968 21.1336 5.1544 21.3404 5.80874C21.604 5.53138 21.8847 5.25402 22.1482 4.99591C21.8665 4.48081 21.5665 3.98383 21.2279 3.56836Z" fill="white"/>
<path id="Path_9" opacity="0.9" d="M21.869 3.11133C21.6623 3.24944 21.4373 3.40793 21.2305 3.56755C21.569 4.0034 21.869 4.48001 22.169 5.01548C22.4133 4.79699 22.6383 4.55925 22.8826 4.36001C22.5633 3.88454 22.2258 3.46793 21.869 3.11133Z" fill="white"/>
<path id="Shape_3" opacity="0.3" d="M56.6722 0.75C53.7804 12.5123 47.7547 21.9549 42.7051 24.3357H42.6858L42.404 24.4545C42.3858 24.4545 42.3858 24.4545 42.3665 24.4738C42.3483 24.4942 42.3108 24.4942 42.2915 24.5134C42.2733 24.5134 42.2733 24.5338 42.254 24.5338C42.2165 24.553 42.179 24.553 42.1233 24.5734C42.104 24.5734 42.0858 24.5926 42.0665 24.5926C42.0483 24.5926 42.029 24.613 42.0097 24.613C41.9915 24.613 41.9722 24.6323 41.954 24.6323C41.9347 24.6323 41.9165 24.6526 41.8972 24.6526C41.8597 24.6719 41.8222 24.6719 41.7847 24.6923C41.7665 24.6923 41.7472 24.6923 41.7472 24.7115C41.729 24.7115 41.6915 24.7319 41.6722 24.7319C41.654 24.7319 41.6347 24.7511 41.6165 24.7511C41.5972 24.7511 41.5597 24.7715 41.5415 24.7715C41.5029 24.7715 41.4847 24.7919 41.4472 24.7919C41.6722 24.8711 41.9165 24.93 42.179 24.93C46.9662 24.93 51.8101 15.8655 59.7879 0.770377L56.6722 0.75ZM15.8026 1.74283C15.8401 1.72245 15.8776 1.70208 15.8969 1.68283H15.9344C15.9719 1.68283 15.9912 1.66245 16.0094 1.64321C16.0662 1.62283 16.1412 1.60358 16.1969 1.58321H16.2162C16.2344 1.58321 16.2719 1.56396 16.2912 1.56396C16.3104 1.56396 16.3104 1.56396 16.3287 1.54358C16.3479 1.54358 16.3854 1.52434 16.4037 1.52434H16.4412C16.5354 1.50396 16.6104 1.46434 16.7037 1.44509H16.7422C16.7604 1.44509 16.7979 1.42472 16.8172 1.42472C16.8354 1.42472 16.8354 1.42472 16.8547 1.40547C16.8729 1.40547 16.9104 1.40547 16.9297 1.38509H16.9479C17.0047 1.36585 17.0604 1.36585 17.1172 1.34547H17.1547C17.174 1.34547 17.2115 1.34547 17.2297 1.32623H17.2672C17.2865 1.32623 17.324 1.32623 17.3422 1.30585H17.3797C17.4365 1.30585 17.4922 1.2866 17.549 1.2866C17.3797 1.26623 17.2115 1.26623 17.0422 1.26623C11.6529 1.26623 4.22045 11.8387 0.859375 25.5447H1.49795C2.5683 23.5217 3.52509 21.6175 4.40795 19.813C6.79187 10.1134 11.5608 3.50774 15.8026 1.74283Z" fill="white"/>
<path id="Path_10" opacity="0.5" d="M18.8477 5.65029C19.4669 5.03557 20.068 4.48085 20.6873 3.98387C20.5555 3.66689 20.4055 3.36916 20.2555 3.0918C19.7487 3.72576 19.2977 4.5601 18.8477 5.65029Z" fill="white"/>
<path id="Shape_4" opacity="0.8" d="M19.2942 1.82367C19.651 2.14065 19.9703 2.55726 20.2521 3.07235C20.3464 2.95348 20.4396 2.85499 20.5339 2.73612C20.1396 2.3399 19.7078 2.02179 19.2375 1.76367C19.2375 1.80329 19.2567 1.82367 19.2942 1.82367ZM4.44531 19.8339C9.36317 9.81726 11.6914 3.46971 15.8025 1.76367C11.5596 3.50933 6.79174 10.115 4.44531 19.8339ZM20.5339 2.75537C20.4396 2.85499 20.3464 2.97386 20.2521 3.09273C20.4021 3.37009 20.5521 3.66782 20.6839 3.9848C20.8714 3.84669 21.0407 3.70745 21.2282 3.56933C21.0032 3.2716 20.7782 2.99311 20.5339 2.75537Z" fill="white"/>
<path id="Path_11" opacity="0.5" d="M6.68203 25.5063C6.64453 25.5063 6.62525 25.5063 6.58775 25.5267H6.47525C6.41953 25.5267 6.34453 25.5267 6.28775 25.5459H6.26953C11.2442 25.4078 13.5338 22.7689 14.661 18.9414C15.5245 16.0455 16.2188 13.6048 16.8381 11.5625C14.7542 14.6565 12.652 18.3663 10.5488 22.5119C9.55453 24.4953 7.9956 25.3285 6.68203 25.5063Z" fill="white"/>
<path id="Path_12" opacity="0.85" d="M6.67969 25.5056C8.01254 25.3278 9.55112 24.4946 10.5658 22.4909C12.6679 18.3452 14.7711 14.6558 16.855 11.5414C17.605 9.02256 18.2436 7.09803 18.8447 5.63086C14.6961 9.81614 10.5283 16.7784 6.67969 25.5056Z" fill="white"/>
<path id="Path_13" opacity="0.8" d="M4.44125 19.832C3.55839 21.6173 2.60161 23.5418 1.53125 25.5649H3.40946C3.65375 23.5418 4.00946 21.6366 4.44232 19.832" fill="white"/>
<path id="Path_14" d="M17.3927 1.32617H17.3552C17.3359 1.32617 17.3177 1.32617 17.2802 1.34542H17.2427C17.2234 1.34542 17.1859 1.34542 17.1677 1.36579H17.1291C17.0734 1.36579 17.0166 1.38504 16.9609 1.38504H16.9416C16.9234 1.38504 16.8859 1.40542 16.8666 1.40542C16.8484 1.40542 16.8484 1.40542 16.8291 1.42466C16.8109 1.42466 16.7734 1.44504 16.7541 1.44504H16.7166C16.6223 1.46429 16.5473 1.48466 16.4541 1.52429H16.4166C16.3973 1.52429 16.3598 1.54353 16.3416 1.54353C16.3223 1.54353 16.3223 1.54353 16.3041 1.56391C16.2848 1.56391 16.2473 1.58315 16.2291 1.58315H16.1905C16.1348 1.60353 16.078 1.62278 16.003 1.64315C15.9848 1.64315 15.9473 1.6624 15.928 1.68278C15.9098 1.68278 15.9098 1.68278 15.8905 1.70202C15.8723 1.70202 15.8337 1.7224 15.8155 1.74278C15.8155 1.74278 15.7962 1.74278 15.7962 1.76202C11.6852 3.4873 9.35696 9.81561 4.43911 19.8322C4.00732 21.6379 3.65054 23.542 3.40625 25.5447H6.29696C6.35375 25.5447 6.41054 25.5447 6.48554 25.5254H6.59804C6.61625 25.5254 6.65375 25.5254 6.69232 25.505C10.5398 16.7767 14.7077 9.83485 18.8562 5.64957C19.3073 4.55938 19.7573 3.72504 20.2652 3.09108C19.9834 2.57485 19.6641 2.139 19.3073 1.84127H19.288C19.2698 1.84127 19.2505 1.82202 19.2323 1.82202C19.213 1.80164 19.1948 1.80164 19.1755 1.7824C19.1573 1.7824 19.138 1.76202 19.1198 1.76202C19.1005 1.76202 19.0823 1.74278 19.0448 1.74278C19.0255 1.74278 19.0073 1.7224 18.988 1.7224C18.9505 1.70202 18.913 1.68278 18.8755 1.68278C18.8562 1.68278 18.838 1.6624 18.838 1.6624C18.8187 1.6624 18.7812 1.64315 18.763 1.62278C18.7437 1.62278 18.7255 1.62278 18.7255 1.60353C18.688 1.58315 18.6505 1.58315 18.613 1.56391H18.5937C18.5562 1.54353 18.5005 1.54353 18.463 1.52429H18.4245C18.387 1.50391 18.3495 1.50391 18.312 1.48466H18.2937L18.0109 1.42466H17.9734C17.9359 1.42466 17.8984 1.40542 17.8609 1.40542H17.8416C17.7859 1.40542 17.7484 1.38504 17.7109 1.38504H17.6916C17.6541 1.38504 17.6166 1.38504 17.5791 1.36579C17.5041 1.32617 17.4473 1.32617 17.3916 1.32617" fill="white"/>
<path id="Shape_5" opacity="0.5" d="M45.408 7.25717C44.4695 10.47 43.6991 13.1077 43.0241 15.27C45.6148 11.5013 48.1863 6.74094 50.6077 1.26623C47.7738 2.2183 46.2523 4.37943 45.408 7.25717ZM43.0991 24.1364C42.9673 24.2157 42.8355 24.2757 42.7048 24.3357C47.7545 21.9549 53.7802 12.5134 56.672 0.75H56.0902C49.4634 13.2674 47.3227 21.6368 43.0991 24.1364ZM39.813 23.0859C40.9209 21.6775 41.8037 19.2572 43.0241 15.2904C41.6162 17.3326 40.1891 19.0987 38.7812 20.5262V20.5466C39.0812 21.5179 39.4198 22.3919 39.813 23.0859Z" fill="white"/>
<path id="Path_15" opacity="0.3" d="M39.8083 23.0859C39.4333 23.5614 39.0391 23.9384 38.5891 24.2157C38.4948 24.2757 38.4005 24.3357 38.2891 24.3742C38.7573 24.6324 39.2641 24.8112 39.8276 24.8905C39.9026 24.8905 39.9969 24.9108 40.0719 24.9108H40.8037C40.8412 24.9108 40.8605 24.9108 40.898 24.8905H40.9355C40.973 24.8905 41.0105 24.8712 41.048 24.8712H41.0855C41.123 24.8712 41.1605 24.8508 41.198 24.8508H41.2173C41.2923 24.8316 41.3673 24.8112 41.4605 24.792C40.8037 24.5339 40.2594 23.9384 39.8083 23.0859Z" fill="white"/>
<path id="Shape_6" d="M30.4766 24.9105C30.9458 24.9105 31.4344 24.8708 31.9037 24.7712C32.3537 24.692 32.7855 24.5527 33.2366 24.3942C33.6116 24.5924 33.9866 24.7316 34.4001 24.8108C34.7194 24.8708 35.058 24.9105 35.3955 24.9105H30.4766ZM35.4137 24.9105C36.5783 24.9105 37.4976 24.7712 38.2862 24.375C38.7555 24.632 39.2623 24.8108 39.8258 24.8901C39.9008 24.8901 39.9951 24.9105 40.0701 24.9105H40.3519H35.4137ZM40.3712 24.9105H40.8212C40.8587 24.9105 40.8769 24.9105 40.9144 24.8901H40.9519C40.9894 24.8901 41.0269 24.8708 41.0644 24.8708H41.1019C41.1394 24.8708 41.1769 24.8505 41.2155 24.8505H41.2337C41.3087 24.8312 41.3837 24.8108 41.478 24.7916C41.703 24.8708 41.9473 24.9297 42.2098 24.9297L40.3712 24.9105Z" fill="white"/>
<path id="Path_16" opacity="0.6" d="M38.7631 20.5273C38.2381 21.0436 37.7313 21.519 37.2052 21.956C36.9427 22.1745 36.6609 22.3919 36.3984 22.6104C36.6234 22.9081 36.8677 23.1651 37.1109 23.4243C37.4859 23.8002 37.8813 24.1183 38.3131 24.3753C38.4063 24.3164 38.5188 24.2768 38.6131 24.2168C39.0631 23.9394 39.4584 23.5828 39.8334 23.087C39.4209 22.3919 39.0834 21.519 38.7631 20.5285" fill="white"/>
<path id="Path_17" d="M54.2307 0.75056H51.3025C51.1525 0.75056 50.9832 0.770937 50.8332 0.770937C50.7582 0.929428 50.6832 1.08792 50.6082 1.26679C48.1675 6.7415 45.6143 11.5019 43.0225 15.2706C41.8032 19.2385 40.9011 21.6577 39.8125 23.066C40.2818 23.9196 40.8271 24.5151 41.4839 24.7528C41.5021 24.7528 41.5214 24.7528 41.5396 24.7324H41.5964C41.6157 24.7324 41.6532 24.7121 41.6714 24.7121C41.6907 24.7121 41.7089 24.7121 41.7282 24.6928C41.7464 24.6928 41.7839 24.6724 41.8032 24.6724C41.8214 24.6724 41.8407 24.6532 41.8407 24.6532C41.8782 24.6328 41.9157 24.6328 41.9532 24.6136C41.9714 24.6136 41.9907 24.5932 42.0089 24.5932C42.0282 24.5932 42.0475 24.574 42.0657 24.574C42.085 24.574 42.1032 24.5536 42.1225 24.5536C42.1407 24.5536 42.16 24.5343 42.1782 24.5343C42.2157 24.514 42.2532 24.514 42.31 24.4947C42.3282 24.4947 42.3282 24.4743 42.3475 24.4743C42.3657 24.4551 42.4032 24.4551 42.4225 24.4347C42.4407 24.4347 42.4407 24.4347 42.46 24.4155L42.7418 24.2955H42.76C42.8918 24.2366 43.0236 24.1574 43.1543 24.0974C47.3789 21.5989 49.5186 13.2272 56.1454 0.710938L54.2307 0.75056Z" fill="white"/>
<path id="Path_18" opacity="0.5" d="M17.5703 1.30723H17.7021C17.7396 1.30723 17.7964 1.32647 17.8339 1.32647H17.8521C17.8896 1.32647 17.9271 1.34572 17.9646 1.34572H18.0021L18.2839 1.40572H18.3032C18.3407 1.40572 18.3782 1.42496 18.4157 1.44534H18.4532C18.4907 1.46458 18.5475 1.46458 18.585 1.48496H18.6032C18.6407 1.50421 18.6782 1.50421 18.7157 1.52458C18.735 1.52458 18.7532 1.54383 18.7532 1.54383C18.7725 1.56421 18.81 1.56421 18.8282 1.58345C18.8475 1.58345 18.8657 1.60383 18.8657 1.60383C18.9032 1.62307 18.9407 1.64345 18.9792 1.64345C18.9975 1.64345 19.0167 1.6627 19.035 1.6627C19.0542 1.68307 19.0725 1.68307 19.0917 1.68307C19.11 1.68307 19.1292 1.70232 19.1475 1.70232C19.1667 1.7227 19.185 1.7227 19.2042 1.74307C19.6735 1.98081 20.1042 2.31817 20.4996 2.7144C20.6496 2.5559 20.7996 2.39741 20.9689 2.27855C20.086 1.62307 19.0917 1.24609 17.9453 1.24609C17.851 1.28685 17.701 1.30723 17.5703 1.30723Z" fill="white"/>
<path id="Path_19" opacity="0.6" d="M20.5391 2.75392C20.7833 2.99166 21.0266 3.27015 21.2333 3.54751C21.4401 3.38902 21.6651 3.23053 21.8719 3.09128C21.5901 2.79355 21.2901 2.53656 20.9891 2.29883C20.8391 2.43694 20.6708 2.59543 20.5391 2.75392Z" fill="white"/>
<path id="Path_20" d="M17.5244 1.3423H17.9036C19.0404 1.3423 20.0829 1.74305 20.9358 2.34418C21.8829 1.54267 23.0208 1.3423 24.5369 1.3423H17.0508C17.2404 1.24267 17.4301 1.24267 17.5254 1.3423" fill="white"/>
<path id="Path_21" opacity="0.5" d="M24.5386 1.24219C23.0225 1.24219 21.8846 1.54219 20.9375 2.24294C21.2214 2.44332 21.5054 2.74445 21.7904 3.04445C23.1168 2.14332 24.3489 1.64294 25.5811 1.34181C26.0546 1.24219 26.5293 1.24219 27.0029 1.24219H24.5386Z" fill="white"/>
<path id="Path_22" opacity="0.3" d="M43.0215 15.2915C43.6965 13.1088 44.4476 10.4711 45.4055 7.25828C46.269 4.3613 47.7712 2.21941 50.6233 1.26733C50.6983 1.10884 50.7744 0.929975 50.8494 0.771484C46.2122 1.06922 44.0533 3.54847 42.9647 7.2379C41.0501 13.6839 39.9047 17.85 38.7969 20.5081C40.1865 19.0998 41.6137 17.3337 43.0215 15.2915Z" fill="white"/>
</g>
</g>
</g>
</g>
</g>
<defs>
<clipPath id="clip0_1249_9733">
<rect width="60" height="60" fill="white" transform="translate(0.320312 0.472656)"/>
</clipPath>
</defs>
</svg>
