<svg width="31" height="30" viewBox="0 0 31 30" fill="none" xmlns="http://www.w3.org/2000/svg">
<path d="M6.61111 5H24.3889C24.6836 5 24.9662 5.11706 25.1746 5.32544C25.3829 5.53381 25.5 5.81643 25.5 6.11111V13.8889H5.5V6.11111C5.5 5.81643 5.61706 5.53381 5.82544 5.32544C6.03381 5.11706 6.31643 5 6.61111 5ZM5.5 16.1111H25.5V23.8889C25.5 24.1836 25.3829 24.4662 25.1746 24.6746C24.9662 24.8829 24.6836 25 24.3889 25H6.61111C6.31643 25 6.03381 24.8829 5.82544 24.6746C5.61706 24.4662 5.5 24.1836 5.5 23.8889V16.1111ZM9.94444 19.4444V21.6667H13.2778V19.4444H9.94444ZM9.94444 8.33333V10.5556H13.2778V8.33333H9.94444Z" fill="#f132e"/>
</svg>
