<svg width="61" height="61" viewBox="0 0 61 61" fill="none" xmlns="http://www.w3.org/2000/svg">
<g id="Icon Set - Travel" clipPath="url(#clip0_1249_5267)">
<g id="Group">
<path id="Vector" d="M33.0936 1.28149C40.1986 5.38399 47.3123 9.46899 54.4186 13.5665C55.2811 14.0665 55.9223 14.6965 56.3511 15.449C56.7386 16.129 56.9511 16.909 56.9948 17.7815L57.0036 18.114V19.7027L57.0048 26.5552V42.8327C57.0048 43.8202 56.7986 44.6952 56.3823 45.4477C55.9536 46.2227 55.3023 46.8715 54.4211 47.3802C47.3136 51.479 40.1986 55.564 33.0948 59.6665C31.1786 60.7727 29.3211 60.7315 27.4198 59.6102C26.1448 58.8577 22.5711 56.799 18.6423 54.539L17.8248 54.069L16.8423 53.504C12.5748 51.0515 8.23734 48.5602 6.20484 47.3827C5.32609 46.874 4.67484 46.2252 4.24609 45.4502C3.82859 44.6965 3.62109 43.8227 3.62109 42.8352C3.62359 34.594 3.62109 26.3527 3.62359 18.1127C3.62359 16.1102 4.46984 14.5715 6.20859 13.5652C10.4286 11.1202 24.5911 3.00649 27.4198 1.33649C29.3211 0.215244 31.1786 0.173994 33.0936 1.28024V1.28149ZM30.3136 12.7452C20.5223 12.7452 12.5848 20.6827 12.5848 30.474C12.5848 33.6865 13.4398 36.699 14.9336 39.2965C17.9923 44.619 23.7336 48.2015 30.3136 48.2015C36.9048 48.2015 42.6561 44.604 45.7111 39.2665L38.0061 34.8027C36.4923 37.4877 33.6148 39.3027 30.3136 39.3027C27.0323 39.3027 24.1711 37.5102 22.6498 34.8527C21.9111 33.5627 21.4861 32.0677 21.4861 30.474C21.4861 25.599 25.4386 21.6465 30.3136 21.6465C33.5736 21.6465 36.4198 23.4152 37.9486 26.0452L45.6648 21.6015C42.5961 16.3077 36.8711 12.7452 30.3136 12.7452ZM47.7561 26.2827H46.0023V27.7065H44.5773V29.4602H46.0023V31.5977H44.5773V33.349H46.0023V34.774H47.7561V33.349H49.8936V34.774H51.6461V33.349H53.0711V31.599H51.6461V29.4615H53.0711V27.7077H51.6461V26.2827H49.8923V27.7077H47.7548L47.7561 26.2827ZM49.8936 29.4602V31.5977H47.7561V29.4602H49.8936Z" fill="white"/>
<path id="Vector_2" d="M30.3148 48.202C36.9061 48.202 42.6573 44.6045 45.7123 39.267L40.6748 36.3495L56.3836 45.4495C56.0023 46.137 55.4461 46.7258 54.7086 47.2058L54.4223 47.3808C47.3148 51.4795 40.1998 55.5645 33.0961 59.667C31.1798 60.7733 29.3223 60.732 27.4211 59.6108C24.5923 57.942 10.4273 49.8283 6.20734 47.3833C5.32609 46.8733 4.67484 46.2258 4.24609 45.4508L14.9336 39.297C17.9936 44.6195 23.7361 48.202 30.3148 48.202ZM30.3961 30.3945L38.0073 34.8033C36.4936 37.4883 33.6161 39.3033 30.3148 39.3033C27.0336 39.3033 24.1723 37.5108 22.6511 34.8533L30.3961 30.3945Z" fill="#F6F6F6"/>
<path id="Vector_3" d="M22.6562 34.8545C24.1775 37.5108 27.0388 39.302 30.32 39.302C33.6213 39.302 36.4988 37.4883 38.0125 34.802L30.4013 30.3945L22.6562 34.8545Z" fill="#F6F6F6"/>
<path id="Vector_4" d="M56.3547 15.4492C56.7909 16.2142 57.0059 17.1055 57.0072 18.1142V20.653L57.0084 28.3342V42.833C57.0084 43.8205 56.8022 44.6955 56.3859 45.448L30.3984 30.3942L56.3547 15.4492ZM47.7597 26.283H46.0059V27.7067H44.5809V29.4605H46.0059V31.598H44.5809V33.3492H46.0059V34.7742H47.7597V33.3492H49.8972V34.7742H51.6497V33.3492H53.0747V31.5992H51.6497V29.4617H53.0747V27.708H51.6497V26.283H49.8959V27.708H47.7584L47.7597 26.283ZM49.8972 29.4605V31.598H47.7597V29.4605H49.8972Z" fill="#DCDCDC"/>
</g>
</g>
<defs>
<clipPath id="clip0_1249_5267">
<rect width="60" height="60" fill="white" transform="translate(0.320312 0.472656)"/>
</clipPath>
</defs>
</svg>
