<svg width="60" height="61" viewBox="0 0 60 61" fill="none" xmlns="http://www.w3.org/2000/svg">
<g id="Icon Set - Travel" clipPath="url(#clip0_1249_21491)">
<g id="Group">
<path id="Vector" d="M59.5325 0.0520358L54.1535 54.0453L29.9681 60.0508L5.8528 54.054L0.476562 0.0507812H59.5325V0.0520358ZM40.3985 17.7136L39.7263 24.4956H12.7989L13.4613 31.1197H39.0821L38.2236 39.7083L30.0031 41.6968L29.9709 41.7043L21.7378 39.7121L21.2113 34.4304H13.789L14.8253 44.8306L29.9695 48.5955L30.0045 48.5867L30.0031 48.5855L45.1347 44.8294L45.2468 43.7103L46.9833 26.2746L47.1639 24.4956L48.4985 11.0908H11.4657L12.1379 17.7148H40.3957L40.3985 17.7136Z" fill="white"/>
<path id="Vector_2" d="M54.1483 4.4668L49.5507 50.6066L30.0092 55.4604V48.5855L45.1394 44.8294L45.2514 43.7103L46.988 26.2746L47.1686 24.4956L48.5032 11.0908H30.0078V4.4668H54.1483ZM30.0078 31.1172L39.0868 31.1184L38.2283 39.7083L30.0078 41.6942V31.1184V31.1172ZM30.0078 17.7123L40.4004 17.7136L39.7282 24.4956H30.0092V17.7111L30.0078 17.7123Z" fill="#E8E4E4"/>
</g>
</g>
<defs>
<clipPath id="clip0_1249_21491">
<rect width="60" height="60" fill="white" transform="translate(0 0.0507812)"/>
</clipPath>
</defs>
</svg>
