<svg width="61" height="61" viewBox="0 0 61 61" fill="none" xmlns="http://www.w3.org/2000/svg">
<g id="Icon Set - Travel" clipPath="url(#clip0_1249_4300)">
<g id="Group">
<path id="Vector" d="M42.5953 19.9727H9.82031C8.99531 19.9727 8.32031 19.2977 8.32031 18.4727V7.97266C8.32031 7.14766 8.99531 6.47266 9.82031 6.47266H52.5703C53.3953 6.47266 54.0703 7.14766 54.0703 7.97266V8.49766C53.9953 14.7977 48.8953 19.9727 42.5953 19.9727ZM8.47031 54.4727V40.9727H42.7453C49.0453 40.9727 54.1453 46.0727 54.1453 52.3727V54.4727H8.47031Z" fill="white"/>
<path id="Vector_2" d="M20.9977 51.6227C24.4477 48.8477 27.2227 45.1727 28.9477 40.9727H10.7227C12.9727 45.4727 16.5727 49.2227 20.9977 51.6227Z" fill="#0066FF"/>
<path id="Vector_3" d="M44.3969 37.2227H10.4219V23.7227H44.3969C48.1469 23.7227 51.1469 26.7227 51.1469 30.4727C51.1469 34.2227 48.0719 37.2227 44.3969 37.2227Z" fill="white"/>
<path id="Vector_4" d="M30.825 23.7223H8.625V37.2223H30.825C31.35 35.1973 31.65 32.9473 31.65 30.4723C31.65 27.9973 31.35 25.7473 30.825 23.7223ZM20.25 9.69727C16.2 12.0973 12.825 15.6973 10.725 19.9723H28.425C26.625 15.8473 23.775 12.3973 20.25 9.69727Z" fill="#0066FF"/>
</g>
</g>
<defs>
<clipPath id="clip0_1249_4300">
<rect width="60" height="60" fill="white" transform="translate(0.820312 0.472656)"/>
</clipPath>
</defs>
</svg>
