<svg width="61" height="61" viewBox="0 0 61 61" fill="none" xmlns="http://www.w3.org/2000/svg">
<g id="Icon Set - Travel" clipPath="url(#clip0_1249_9694)">
<path id="Vector" d="M0.710312 35.3332V28.6562H9.04831V28.2662H0.710312V22.1732H9.57531V21.7832H0.320312V35.7232H9.65331V35.3332H0.710312ZM17.1703 25.6882L13.7143 30.2382L10.3363 25.6882H9.82931L13.4793 30.5302L9.47731 35.7242H9.94631L13.7143 30.8232L17.5023 35.7232H17.9903L13.9683 30.5302L17.6383 25.6882H17.1703ZM19.1623 39.1602V32.9132H19.2013C19.4353 33.8242 19.8973 34.5572 20.5873 35.1102C21.2773 35.6632 22.1553 35.9402 23.2233 35.9402C23.9133 35.9402 24.5243 35.8002 25.0583 35.5202C25.5923 35.2402 26.0383 34.8602 26.3963 34.3782C26.7533 33.8962 27.0263 33.3362 27.2163 32.6982C27.4043 32.0612 27.4993 31.3902 27.4993 30.6882C27.4993 29.9332 27.4013 29.2362 27.2063 28.5982C27.0113 27.9602 26.7273 27.4082 26.3563 26.9382C25.9863 26.4702 25.5363 26.1062 25.0093 25.8452C24.4823 25.5852 23.8873 25.4552 23.2233 25.4552C22.7153 25.4552 22.2433 25.5302 21.8073 25.6792C21.3713 25.8292 20.9843 26.0402 20.6453 26.3142C20.3053 26.5892 20.0093 26.9152 19.7673 27.2802C19.5203 27.6512 19.3313 28.0582 19.2013 28.5002H19.1613V25.6892H18.7713V39.1612H19.1613L19.1623 39.1602ZM23.2223 35.5682C21.9993 35.5682 21.0163 35.1482 20.2743 34.3082C19.5333 33.4682 19.1623 32.2612 19.1623 30.6862C19.1623 30.0362 19.2523 29.4172 19.4353 28.8312C19.6173 28.2462 19.8813 27.7312 20.2253 27.2892C20.5713 26.8462 20.9973 26.4952 21.5053 26.2352C22.0123 25.9752 22.5853 25.8452 23.2233 25.8452C23.8733 25.8452 24.4433 25.9752 24.9313 26.2352C25.4193 26.4952 25.8233 26.8502 26.1413 27.2992C26.4613 27.7482 26.7013 28.2622 26.8643 28.8412C27.0273 29.4212 27.1083 30.0352 27.1083 30.6862C27.1083 31.2722 27.0333 31.8552 26.8843 32.4342C26.7343 33.0142 26.5033 33.5342 26.1903 33.9962C25.8783 34.4582 25.4783 34.8362 24.9903 35.1282C24.5023 35.4212 23.9123 35.5682 23.2223 35.5682ZM29.6463 35.7242V30.0422C29.6463 29.4952 29.7243 28.9622 29.8813 28.4412C30.0373 27.9212 30.2783 27.4612 30.6033 27.0652C30.9293 26.6672 31.3423 26.3552 31.8433 26.1272C32.3443 25.8992 32.9403 25.8052 33.6293 25.8442V25.4542C33.0313 25.4412 32.5073 25.5062 32.0583 25.6492C31.6083 25.7922 31.2213 25.9872 30.8963 26.2352C30.5713 26.4822 30.3103 26.7722 30.1153 27.1042C29.9203 27.4352 29.7753 27.7942 29.6853 28.1682H29.6463V25.6882H29.2563V35.7232H29.6463V35.7242ZM34.1183 30.7832H42.5133C42.5393 30.0932 42.4713 29.4292 42.3083 28.7912C42.1463 28.1542 41.8853 27.5872 41.5283 27.0932C41.1693 26.5982 40.7083 26.2012 40.1413 25.9022C39.5753 25.6022 38.9013 25.4522 38.1213 25.4522C37.5613 25.4522 37.0143 25.5702 36.4813 25.8042C35.9463 26.0382 35.4783 26.3802 35.0743 26.8292C34.6713 27.2792 34.3453 27.8292 34.0983 28.4792C33.8513 29.1292 33.7283 29.8722 33.7283 30.7052C33.7283 31.4472 33.8123 32.1402 33.9813 32.7852C34.1513 33.4292 34.4113 33.9882 34.7613 34.4632C35.1133 34.9392 35.5663 35.3062 36.1193 35.5672C36.6723 35.8272 37.3393 35.9512 38.1203 35.9372C39.2663 35.9372 40.2293 35.6152 41.0103 34.9712C41.7903 34.3272 42.2533 33.4192 42.3963 32.2472H42.0063C41.8363 33.3542 41.4043 34.1842 40.7073 34.7372C40.0113 35.2902 39.1363 35.5672 38.0813 35.5672C37.3653 35.5672 36.7603 35.4432 36.2653 35.1962C35.7713 34.9482 35.3673 34.6102 35.0553 34.1802C34.7423 33.7502 34.5113 33.2462 34.3623 32.6672C34.2123 32.0872 34.1313 31.4602 34.1183 30.7832ZM42.1233 30.3932H34.1183C34.1573 29.6902 34.2873 29.0582 34.5083 28.4992C34.7293 27.9392 35.0193 27.4602 35.3773 27.0642C35.7353 26.6662 36.1513 26.3642 36.6273 26.1562C37.1023 25.9472 37.6133 25.8432 38.1593 25.8432C38.8103 25.8432 39.3833 25.9632 39.8773 26.2042C40.3723 26.4452 40.7853 26.7742 41.1173 27.1902C41.4493 27.6072 41.7003 28.0922 41.8693 28.6452C42.0393 29.1982 42.1233 29.7822 42.1233 30.3932ZM50.6163 28.6552H51.0063C51.0063 27.5352 50.6813 26.7222 50.0303 26.2152C49.3803 25.7062 48.4943 25.4532 47.3753 25.4532C46.7503 25.4532 46.2233 25.5312 45.7933 25.6872C45.3633 25.8432 45.0133 26.0452 44.7393 26.2922C44.4663 26.5392 44.2713 26.8122 44.1533 27.1122C44.0363 27.4122 43.9783 27.6982 43.9783 27.9722C43.9783 28.5182 44.0753 28.9542 44.2713 29.2802C44.4663 29.6052 44.7713 29.8592 45.1883 30.0412C45.4753 30.1712 45.8003 30.2882 46.1643 30.3932C46.5293 30.4972 46.9523 30.6072 47.4343 30.7242C47.8643 30.8292 48.2863 30.9332 48.7033 31.0372C49.1193 31.1412 49.4873 31.2812 49.8063 31.4572C50.1253 31.6322 50.3863 31.8572 50.5863 32.1302C50.7893 32.4042 50.8893 32.7622 50.8893 33.2042C50.8893 33.6342 50.7893 33.9982 50.5873 34.2972C50.3873 34.5952 50.1233 34.8452 49.8163 35.0302C49.5033 35.2182 49.1553 35.3552 48.7713 35.4402C48.3873 35.5242 48.0133 35.5672 47.6483 35.5672C46.4643 35.5672 45.5563 35.3032 44.9253 34.7762C44.2933 34.2492 43.9783 33.4192 43.9783 32.2862H43.5883C43.5883 33.5492 43.9283 34.4732 44.6123 35.0592C45.2963 35.6452 46.3083 35.9382 47.6483 35.9382C48.0783 35.9382 48.5113 35.8882 48.9473 35.7912C49.3833 35.6932 49.7733 35.5342 50.1183 35.3132C50.4603 35.0942 50.7483 34.8012 50.9583 34.4532C51.1733 34.1032 51.2803 33.6732 51.2803 33.1652C51.2803 32.6832 51.1863 32.2932 50.9973 31.9932C50.8083 31.6942 50.5613 31.4472 50.2553 31.2522C49.9493 31.0562 49.6053 30.9032 49.2203 30.7922C48.8343 30.6822 48.4473 30.5742 48.0583 30.4712C47.5803 30.3452 47.1023 30.2212 46.6233 30.1002C46.2133 29.9952 45.8333 29.8722 45.4813 29.7292C45.1433 29.5852 44.8733 29.3802 44.6713 29.1142C44.4693 28.8472 44.3683 28.4662 44.3683 27.9712C44.3683 27.8812 44.3943 27.7182 44.4463 27.4832C44.4983 27.2492 44.6223 27.0112 44.8173 26.7712C45.0133 26.5302 45.3123 26.3152 45.7153 26.1262C46.1193 25.9382 46.6723 25.8432 47.3753 25.8432C47.8573 25.8432 48.2953 25.8952 48.6933 25.9992C49.0903 26.1042 49.4323 26.2692 49.7183 26.4972C50.0043 26.7252 50.2263 27.0152 50.3823 27.3672C50.5383 27.7172 50.6163 28.1472 50.6163 28.6552ZM59.6563 28.6552H60.0463C60.0463 27.5352 59.7213 26.7222 59.0703 26.2152C58.4203 25.7062 57.5343 25.4532 56.4153 25.4532C55.7903 25.4532 55.2633 25.5312 54.8343 25.6872C54.4043 25.8432 54.0523 26.0452 53.7793 26.2922C53.5063 26.5392 53.3113 26.8122 53.1933 27.1122C53.0763 27.4122 53.0183 27.6982 53.0183 27.9722C53.0183 28.5182 53.1153 28.9542 53.3113 29.2802C53.5063 29.6052 53.8113 29.8592 54.2283 30.0412C54.5153 30.1712 54.8403 30.2882 55.2043 30.3932C55.5693 30.4972 55.9923 30.6072 56.4743 30.7242C56.9043 30.8292 57.3263 30.9332 57.7433 31.0372C58.1593 31.1412 58.5273 31.2812 58.8463 31.4572C59.1653 31.6322 59.4263 31.8572 59.6263 32.1302C59.8293 32.4042 59.9303 32.7622 59.9303 33.2042C59.9303 33.6342 59.8293 33.9982 59.6273 34.2972C59.4273 34.5952 59.1643 34.8452 58.8563 35.0302C58.5433 35.2182 58.1953 35.3552 57.8113 35.4402C57.4273 35.5242 57.0533 35.5672 56.6883 35.5672C55.5043 35.5672 54.5963 35.3032 53.9653 34.7762C53.3333 34.2492 53.0183 33.4192 53.0183 32.2862H52.6283C52.6283 33.5492 52.9683 34.4732 53.6523 35.0592C54.3363 35.6452 55.3483 35.9382 56.6883 35.9382C57.1183 35.9382 57.5513 35.8882 57.9873 35.7912C58.4233 35.6932 58.8133 35.5342 59.1583 35.3132C59.5003 35.0942 59.7883 34.8012 59.9983 34.4532C60.2133 34.1032 60.3203 33.6732 60.3203 33.1652C60.3203 32.6832 60.2263 32.2932 60.0373 31.9932C59.8483 31.6942 59.6013 31.4472 59.2953 31.2522C58.9893 31.0562 58.6453 30.9032 58.2603 30.7922C57.8743 30.6822 57.4873 30.5742 57.0983 30.4712C56.6203 30.3452 56.1423 30.2212 55.6633 30.1002C55.2533 29.9952 54.8733 29.8722 54.5213 29.7292C54.1833 29.5852 53.9133 29.3802 53.7113 29.1142C53.5093 28.8472 53.4083 28.4662 53.4083 27.9712C53.4083 27.8812 53.4343 27.7182 53.4863 27.4832C53.5383 27.2492 53.6623 27.0112 53.8573 26.7712C54.0523 26.5302 54.3523 26.3152 54.7553 26.1262C55.1593 25.9382 55.7123 25.8432 56.4153 25.8432C56.8973 25.8432 57.3353 25.8952 57.7333 25.9992C58.1303 26.1042 58.4723 26.2692 58.7583 26.4972C59.0443 26.7252 59.2663 27.0152 59.4223 27.3672C59.5783 27.7172 59.6563 28.1472 59.6563 28.6552Z" fill="white" stroke="white"/>
</g>
<defs>
<clipPath id="clip0_1249_9694">
<rect width="60" height="60" fill="white" transform="translate(0.320312 0.472656)"/>
</clipPath>
</defs>
</svg>
