<svg width="31" height="30" viewBox="0 0 31 30" fill="none" xmlns="http://www.w3.org/2000/svg">
<path d="M17.8104 17.1337C17.7026 17.2309 17.5447 17.3734 17.5447 17.6178C17.5447 17.8716 17.7119 18.127 18.0136 18.3322C19.3845 19.2925 21.9543 19.1782 22.0653 19.175H22.0684C23.111 19.175 24.1318 18.893 25.029 18.362C25.9314 17.8329 26.6802 17.0766 27.2012 16.1681C27.7221 15.2597 27.9972 14.2305 27.999 13.1827C28.0271 11.1211 27.3112 9.70798 26.9579 9.00927L26.8954 8.88395C24.8149 4.82955 20.349 2.5 15.4938 2.5C12.9201 2.5 10.4091 3.2959 8.30337 4.77907C6.19767 6.26224 4.59988 8.36045 3.72803 10.7874C5.31462 8.84165 7.96415 7.61029 10.8044 7.61029C15.2281 7.61029 18.6358 10.5634 18.6358 15.1253H18.6295V15.1285C18.6295 15.658 18.3669 16.4319 17.8682 17.0773L17.8776 17.0679C17.8563 17.0904 17.8339 17.1135 17.8104 17.1337Z" fill="#f132e"/>
<path d="M3.00449 14.6459C2.95234 16.6128 3.35521 18.5652 4.18154 20.35C5.10675 22.3241 6.52998 24.0221 8.31056 25.2761C10.0911 26.53 12.1674 27.2966 14.3342 27.5C13.9094 27.3378 13.499 27.1402 13.1071 26.9094H13.0915L12.9039 26.7919C11.948 26.1968 11.1192 25.4178 10.4654 24.4999C9.71941 23.4767 9.20593 22.3023 8.961 21.059C8.71606 19.8158 8.74559 18.5339 9.04753 17.3033C9.34947 16.0727 9.9165 14.9232 10.7088 13.9356C11.5011 12.948 12.4995 12.1462 13.6339 11.5864L13.6495 11.5801L13.6886 11.5613C14.0137 11.4078 14.6577 11.1038 15.5128 11.1148C15.7144 11.1164 15.9145 11.1336 16.113 11.1665C15.6536 10.7257 15.1303 10.357 14.5608 10.073L14.5452 10.0652C12.9117 9.20823 11.1157 9.17847 10.8046 9.17847C6.99051 9.17847 3.26397 11.7383 3.00449 14.6459ZM19.0471 27.041C19.1846 26.9987 19.3237 26.9564 19.4613 26.9094C19.3018 26.9595 19.1424 27.0034 18.9814 27.0441L19.0471 27.041Z" fill="#f132e"/>
<path d="M18.9766 27.0442C19.1358 27.0041 19.2938 26.9592 19.4503 26.9095L19.5784 26.8703C22.2701 25.9378 24.5646 24.1144 26.0842 21.7005C26.1283 21.6272 26.1472 21.5414 26.138 21.4563C26.1288 21.3712 26.0921 21.2915 26.0334 21.2293C25.9747 21.1671 25.8974 21.1259 25.8131 21.112C25.7288 21.0981 25.6423 21.1122 25.5668 21.1522C25.2308 21.3276 24.8853 21.4812 24.5305 21.6128C23.4089 22.0312 22.2211 22.2435 21.0243 22.2394C16.4021 22.2394 12.377 19.0576 12.377 14.9641C12.3801 14.7526 12.4036 14.5442 12.4489 14.339C11.2478 15.5393 10.515 17.1308 10.3831 18.8256C10.2512 20.5203 10.7289 22.2065 11.7299 23.5789L11.7346 23.5867C12.227 24.2776 12.8397 24.8729 13.5447 25.3429H13.5494L13.7745 25.4839C15.1454 26.3455 16.4646 27.1727 18.9766 27.0442Z" fill="#f132e"/>
</svg>
