<svg width="60" height="61" viewBox="0 0 60 61" fill="none" xmlns="http://www.w3.org/2000/svg">
<g id="Icon Set - Travel" clipPath="url(#clip0_1249_21482)">
<g id="Group">
<path id="Vector" d="M59.42 0.161406L54.0604 53.9589L29.9628 59.9427L5.93487 53.9677L0.578125 0.160156H59.42V0.161406ZM39.0451 31.1152L38.1898 39.6739L29.9991 41.6552L29.967 41.6627L21.7637 39.6777L21.2391 34.4152H13.8437L14.8763 44.7777L29.9656 48.5289L30.0005 48.5202L29.9991 48.5189L45.0758 44.7764L45.1874 43.6614L46.9177 26.2889L47.0977 24.5164H20.2511L19.5786 17.7589H47.7674L47.9153 16.2764L48.2502 12.9302L48.4274 11.1602H11.5274L11.7032 12.9302L13.5144 31.1152H39.0437H39.0451Z" fill="white"/>
<path id="Vector_2" d="M54.053 4.55984L49.4721 50.5323L30.0014 55.3686V48.5186L45.0767 44.7761L45.1884 43.6611L46.9186 26.2886L47.0986 24.5161H30V17.7561L47.7684 17.7573L47.9163 16.2748L48.2512 12.9286L48.4284 11.1586H30V4.55859L54.053 4.55984ZM30 31.1136L39.046 31.1148L38.1907 39.6736L30 41.6523V31.1148V31.1136Z" fill="#E8E4E4"/>
</g>
</g>
<defs>
<clipPath id="clip0_1249_21482">
<rect width="60" height="60" fill="white" transform="translate(0 0.0507812)"/>
</clipPath>
</defs>
</svg>
