<svg width="70" height="70" viewBox="0 0 70 70" fill="none" xmlns="http://www.w3.org/2000/svg">
<g clipPath="url(#clip0_112_951)">
<path d="M64.12 47.681C64.2797 47.3485 64.2797 47.0313 64.4525 46.701C68.3703 31.3185 59.0516 13.3285 43.0216 3.8501C50.05 13.3285 52.8303 24.6204 50.3803 34.7617C50.1864 35.6574 49.9119 36.5338 49.56 37.3801C49.1104 37.1277 48.6731 36.854 48.2497 36.5598C48.2497 36.5598 32.3881 26.751 15.3781 9.56822C14.8881 9.07822 24.5394 23.3079 35.3281 34.5998C30.2597 31.651 15.8681 21.3501 6.86655 13.0113C7.84655 14.7985 9.32749 16.5988 10.7975 18.4013C18.3159 28.0504 28.1378 39.8301 39.9087 48.8185C31.5678 53.9001 19.9587 54.2195 8.17905 48.8185C5.23905 47.5213 2.77812 45.8785 -0.00219727 43.9207C4.90874 51.6098 12.5978 58.6382 21.7591 62.4007C32.7206 67.1498 43.8375 66.8195 51.8481 62.4007H52.0209C52.3381 62.241 52.6706 62.0682 53.0009 61.751C56.9209 59.7801 64.61 57.6626 68.8581 65.8395C70.0109 68.1298 72.1306 57.5007 64.12 47.681Z" fill="#f132e"/>
</g>
<defs>
<clipPath id="clip0_112_951">
<rect width="70" height="70" fill="white"/>
</clipPath>
</defs>
</svg>
