<svg width="54" height="70" viewBox="0 0 54 70" fill="none" xmlns="http://www.w3.org/2000/svg">
<g clipPath="url(#clip0_99_2659)">
<path d="M38.7222 42.7793C40.0621 41.8633 41.9214 41.0703 41.9214 41.0703C41.9214 41.0703 36.6304 42.0273 31.3668 42.4648C24.9273 42.998 18.0093 43.1074 14.5367 42.6426C6.31988 41.5488 19.0484 38.5273 19.0484 38.5273C19.0484 38.5273 14.1129 38.1992 8.02887 41.125C0.851132 44.5977 25.8023 46.1836 38.7222 42.7793ZM27.0464 38.3906C24.4488 32.5527 15.6851 27.4258 27.0464 18.457C41.2187 7.27344 33.9507 0 33.9507 0C36.8902 11.5527 23.6148 15.0527 18.816 22.2305C15.5484 27.1387 20.4156 32.4023 27.0464 38.3906ZM42.7144 14.3008C42.7281 14.3008 18.7613 20.2891 30.2046 33.4688C33.5816 37.3516 29.316 40.8516 29.316 40.8516C29.316 40.8516 37.8882 36.4219 33.9507 30.8848C30.273 25.7168 27.4566 23.1465 42.7144 14.3008ZM41.8804 51.2832C41.8057 51.4135 41.7137 51.533 41.607 51.6387C59.148 47.0312 52.6949 35.3828 44.314 38.3359C43.8614 38.5023 43.4703 38.8028 43.1929 39.1973C43.6823 39.0201 44.1853 38.883 44.6968 38.7871C48.9351 37.8984 55.0191 44.4609 41.8804 51.2832ZM48.3281 59.8008C48.3281 59.8008 50.3105 61.4277 46.1543 62.6992C38.2382 65.0918 13.2324 65.8164 6.28707 62.7949C3.78512 61.7148 8.47457 60.1973 9.95113 59.8828C11.4824 59.5547 12.3711 59.6094 12.3711 59.6094C9.59566 57.6543 -5.58012 63.4512 4.66012 65.1055C32.5836 69.6445 55.5742 63.0684 48.3281 59.8008ZM17.7632 54.1406C7.00348 57.1484 24.3121 63.3555 38.0113 57.4902C36.6752 56.9712 35.3855 56.34 34.1558 55.6035C28.0445 56.7656 25.2144 56.8477 19.6636 56.2188C15.0836 55.6992 17.7632 54.1406 17.7632 54.1406ZM42.3453 67.4297C31.5855 69.4531 18.3101 69.2207 10.4488 67.9219C10.4488 67.9082 12.0621 69.248 20.3472 69.7812C32.9527 70.5879 52.3121 69.3301 52.7632 63.3691C52.7632 63.3691 51.8882 65.625 42.3453 67.4297ZM36.3843 48.2617C28.2906 49.8203 23.6011 49.7793 17.6812 49.1641C13.1011 48.6855 16.0953 46.4707 16.0953 46.4707C4.22808 50.4082 22.6851 54.8652 39.2691 50.0117C38.1973 49.6333 37.2152 49.0375 36.3843 48.2617Z" fill="#f132e"/>
</g>
<defs>
<clipPath id="clip0_99_2659">
<rect width="52.5" height="70" fill="white" transform="translate(0.75)"/>
</clipPath>
</defs>
</svg>
