<svg width="60" height="61" viewBox="0 0 60 61" fill="none" xmlns="http://www.w3.org/2000/svg">
<g id="Icon Set - Travel" clipPath="url(#clip0_1249_21472)">
<g id="Group">
<path id="Vector" d="M8.62125 52.8341L3.75 -0.818359L56.255 -0.797109L51.4212 52.7929L29.96 58.8554L8.62125 52.8341ZM47.4688 49.9054L51.5438 3.95289H30.0425L30.205 54.6354L47.4688 49.9054ZM28.035 10.6904H22.8137L22.7513 38.1916L12.615 35.4279L12.6362 41.7154L28.0362 45.8716L28.035 10.6904Z" fill="white"/>
<path id="Vector_2" d="M51.5403 3.93359L47.4653 49.8861L30.0391 54.6161V3.93359H51.5403ZM48.9191 10.6911L32.1066 10.7736L32.3316 33.5861L42.4891 31.8448L42.3453 36.9236L32.1078 39.6473L32.2091 45.8723L46.3591 42.1861L47.7716 25.0048L37.3291 26.1723V16.9973L48.4691 16.9573L48.9191 10.6911Z" fill="#E8E4E4"/>
</g>
</g>
<defs>
<clipPath id="clip0_1249_21472">
<rect width="60" height="60" fill="white" transform="translate(0 0.0507812)"/>
</clipPath>
</defs>
</svg>
