<svg width="61" height="61" viewBox="0 0 61 61" fill="none" xmlns="http://www.w3.org/2000/svg">
<g id="Icon Set - Travel" clipPath="url(#clip0_1249_316)">
<g id="Group">
<path id="Vector" d="M59.7759 8.7432C59.7759 4.4157 56.2684 0.908203 51.9409 0.908203C47.9897 0.908203 44.7234 3.8332 44.1847 7.6357L44.1059 7.59445C37.6984 4.70445 32.3009 9.8232 32.3009 9.8232L18.0234 24.1695L23.6647 29.602L35.1559 18.312C40.5222 12.9457 43.4434 16.5782 43.4434 16.5782C47.4834 19.9907 43.5834 24.0307 43.5834 24.0307L49.3634 29.602C54.0847 24.5045 54.3584 20.0545 52.9234 16.5145C56.7859 16.0307 59.7759 12.737 59.7759 8.7432Z" fill="white"/>
<path id="Vector_2" d="M52.9987 44.7765L53.0412 44.6977C55.9312 38.2902 50.8125 32.8927 50.8125 32.8927L36.465 18.6152L31.0325 24.2565L42.3212 35.7477C47.6875 41.114 44.055 44.0352 44.055 44.0352C40.6425 48.0752 36.6025 44.1752 36.6025 44.1752L31.0312 49.9552C36.1287 54.6765 40.5787 54.9502 44.1187 53.5152C44.6025 57.3777 47.8962 60.3677 51.89 60.3677C56.2175 60.3677 59.725 56.8602 59.725 52.5327C59.725 48.5815 56.8012 45.3152 52.9987 44.7765Z" fill="white"/>
<path id="Vector_3" d="M36.5878 31.4141L25.0966 42.7028C19.7303 48.0691 16.8091 44.4378 16.8091 44.4378C12.7691 41.0253 16.6691 36.9853 16.6691 36.9853L10.8891 31.4141C6.16906 36.5116 5.89531 40.9616 7.32906 44.5016C3.46656 44.9853 0.476562 48.2778 0.476562 52.2728C0.476562 56.6003 3.98531 60.1078 8.31281 60.1078C12.2628 60.1078 15.5303 57.1828 16.0678 53.3803L16.1478 53.4216C22.5553 56.3128 27.9528 51.1928 27.9528 51.1928L42.2291 36.8453L36.5878 31.4141Z" fill="white"/>
<path id="Vector_4" d="M17.9284 25.2672C12.5622 19.9009 16.1934 16.9797 16.1934 16.9797C19.6059 12.9397 23.6459 16.8397 23.6459 16.8397L29.2172 11.0597C24.1197 6.33844 19.6697 6.06469 16.1297 7.49969C15.6484 3.63719 12.3547 0.648438 8.35969 0.648438C4.03219 0.647188 0.524688 4.15469 0.523438 8.48219C0.523438 12.4334 3.44844 15.6997 7.25094 16.2384L7.20969 16.3172C4.31844 22.7247 9.43844 28.1222 9.43844 28.1222L23.7859 42.3997L29.2184 36.7584L17.9284 25.2672Z" fill="white"/>
</g>
</g>
<defs>
<clipPath id="clip0_1249_316">
<rect width="60" height="60" fill="white" transform="translate(0.320312 0.472656)"/>
</clipPath>
</defs>
</svg>
