<svg width="70" height="70" viewBox="0 0 70 70" fill="none" xmlns="http://www.w3.org/2000/svg">
<path d="M35 5.39575C34.2125 5.39575 33.3958 5.59992 32.725 5.97909L11.025 18.5208C9.625 19.3374 8.75 20.8541 8.75 22.4874V47.5124C8.75 49.1458 9.625 50.6624 11.025 51.4791L16.7125 54.7458C19.4833 56.0874 20.4167 56.1166 21.7 56.1166C25.7833 56.1166 28.1458 53.6374 28.1458 49.3208V24.6166C28.1458 24.2666 27.8542 23.9749 27.5042 23.9749H24.7917C24.4125 23.9749 24.1208 24.2666 24.1208 24.6166V49.3208C24.1208 51.2458 22.1375 53.1416 18.9583 51.5374L12.9792 48.1249C12.881 48.0556 12.8007 47.9639 12.7449 47.8574C12.6891 47.7509 12.6594 47.6326 12.6583 47.5124V22.4874C12.6583 22.2249 12.775 21.9916 12.9792 21.8749L34.6792 9.36242C34.8542 9.24575 35.1458 9.24575 35.3208 9.36242L57.0208 21.8749C57.225 21.9916 57.3417 22.2249 57.3417 22.4874V47.5124C57.3417 47.7458 57.225 47.9791 57.0208 48.1249L35.3208 60.6374C35.1458 60.7541 34.8542 60.7541 34.65 60.6374L29.1667 57.3124C28.9333 57.2249 28.7 57.1958 28.5542 57.2832C27.0083 58.1582 26.7167 58.3333 25.2875 58.7708C24.9375 58.8874 24.3833 59.0916 25.4917 59.7041L32.725 63.9916C33.425 64.3999 34.1833 64.6041 35 64.6041C35.8167 64.6041 36.575 64.3999 37.275 63.9916L58.975 51.4791C60.375 50.6624 61.25 49.1458 61.25 47.5124V22.4874C61.25 20.8541 60.375 19.3374 58.975 18.5208L37.275 5.97909C36.6042 5.59992 35.8167 5.39575 35 5.39575ZM40.8333 23.3333C34.65 23.3333 30.9458 25.9291 30.9458 30.3041C30.9458 34.9999 34.6208 36.3708 40.5708 36.9541C47.6583 37.6541 48.2125 38.7041 48.2125 40.1041C48.2125 42.5249 46.2583 43.5458 41.7083 43.5458C35.9333 43.5458 34.7083 42.1166 34.2708 39.2583C34.2401 39.1105 34.1597 38.9778 34.0429 38.8822C33.9261 38.7867 33.7801 38.7341 33.6292 38.7332H30.8292C30.4792 38.7332 30.2167 38.9958 30.2167 39.3749C30.2167 42.9916 32.2 47.3666 41.7083 47.3666C48.5625 47.3666 52.5 44.6541 52.5 39.9291C52.5 35.2332 49.35 34.0083 42.6708 33.1041C35.9333 32.2291 35.2625 31.7624 35.2625 30.1874C35.2625 28.8749 35.8458 27.1249 40.8333 27.1249C45.2083 27.1249 46.9292 28.0874 47.6 31.0916C47.6583 31.3833 47.9208 31.5874 48.2125 31.5874H51.0417C51.1875 31.5874 51.3625 31.5291 51.4792 31.3833C51.5958 31.2666 51.6833 31.0916 51.625 30.9166C51.2167 25.7249 47.775 23.3333 40.8333 23.3333Z" fill="#f132e"/>
</svg>
