<svg width="61" height="61" viewBox="0 0 61 61" fill="none" xmlns="http://www.w3.org/2000/svg">
<g id="Icon Set - Travel" clipPath="url(#clip0_1249_9701)">
<g id="Group">
<path id="Vector" d="M37.9242 49.2225C38.393 49.9 38.6805 49.8475 39.0442 49.6913C39.4092 49.535 58.1592 43.2063 58.7317 42.9988C59.3042 42.79 59.123 42.6075 58.9405 42.3213C58.758 42.0338 52.508 33.5463 52.1955 33.0513C51.883 32.5563 51.7267 32.66 51.233 32.8163L31.3555 37.9888C31.3555 37.9888 37.4555 48.545 37.9242 49.2225ZM60.3205 40.5775V30.64L54.1392 32.2863C55.8242 34.54 58.4567 38.0675 60.3205 40.5775ZM54.1205 20.0475C53.8142 20.1175 47.0305 21.3438 46.613 21.3975C46.1955 21.455 46.3342 21.6913 46.5017 21.9275L52.4705 30.1175C52.4705 30.1175 59.7692 28.3075 60.2142 28.21L60.3205 28.185V27.1C58.9942 25.4175 55.3792 20.8375 55.068 20.41C54.6917 19.895 54.4267 19.9788 54.1205 20.0475Z" fill="white"/>
<path id="Vector_2" d="M11.4445 7.18391C12.9133 7.11641 13.047 7.45141 13.6933 8.40891L29.9045 35.5102L50.2895 30.6277C49.1595 29.0264 44.032 21.7577 43.537 21.0639C42.9795 20.2839 43.5495 19.9214 44.4558 19.7677C45.3608 19.6152 53.1608 18.3052 53.8295 18.2077C54.4983 18.1102 55.027 17.8739 56.1133 19.1827C56.6695 19.8527 58.5533 22.2002 60.322 24.3989V11.7227C60.322 8.62266 59.222 5.97391 57.022 3.77266C54.8195 1.57266 52.172 0.472656 49.072 0.472656H11.572C8.47203 0.472656 5.82328 1.57266 3.62203 3.77266C2.35953 5.03516 1.46328 6.44766 0.925781 8.00516C4.60078 7.70391 10.4183 7.23141 11.4458 7.18516L11.4445 7.18391Z" fill="white"/>
<path id="Vector_3" d="M39.7628 52.8706C38.0441 53.3919 37.2728 53.6506 36.1541 52.0881C35.3153 50.9169 30.7791 42.7506 28.5566 38.7231C24.3491 39.8244 16.6466 41.8356 14.4266 42.3681C12.2591 42.8894 11.3328 41.5894 10.9766 40.7894C10.7266 40.2269 4.37281 26.5269 0.320312 17.7344V49.2231C0.320312 52.3231 1.42031 54.9719 3.62031 57.1731C5.82281 59.3731 8.47031 60.4731 11.5703 60.4731H49.0703C52.1703 60.4731 54.8191 59.3731 57.0203 57.1731C59.2203 54.9706 60.3203 52.3231 60.3203 49.2231V45.5244C55.7178 47.2081 40.9203 52.5206 39.7628 52.8706Z" fill="white"/>
<path id="Vector_4" d="M14.4808 39.2119C15.0908 39.0732 26.507 36.3407 26.7508 36.2882C26.9945 36.2357 27.1508 36.0969 26.8908 35.6444L11.672 9.37315C11.5345 9.13565 11.572 9.05815 11.197 9.0769C10.8633 9.09565 2.39953 9.85065 0.440781 10.0144C0.382031 10.4282 0.347031 10.8457 0.332031 11.2644C2.32203 15.3357 13.7383 38.8807 13.802 39.0732C13.872 39.2819 13.872 39.3519 14.4808 39.2119Z" fill="white"/>
</g>
</g>
<defs>
<clipPath id="clip0_1249_9701">
<rect width="60" height="60" fill="white" transform="translate(0.320312 0.472656)"/>
</clipPath>
</defs>
</svg>
