<svg width="60" height="61" viewBox="0 0 60 61" fill="none" xmlns="http://www.w3.org/2000/svg">
<g id="Icon Set - Travel" clipPath="url(#clip0_1249_21500)">
<g id="Group">
<path id="Vector" d="M57.4414 26.4258C57.4414 24.4223 57.7376 23.2393 57.7376 21.0806C57.7376 17.7402 56.5551 16.6602 53.9451 16.6602H52.0239V19.0249H52.6151C53.9451 19.0249 54.2401 19.488 54.2401 21.1836C54.2401 22.7775 54.0926 24.3702 54.0926 26.221C54.0926 28.5858 54.8314 29.5106 56.3089 29.8706V30.0245C54.8314 30.3845 54.0926 31.3106 54.0926 33.6741C54.0926 35.5249 54.2401 37.0158 54.2401 38.7128C54.2401 40.4606 53.8951 40.9223 52.6151 40.9223V40.9745H52.0239V43.441H53.9451C56.5551 43.441 57.7376 42.361 57.7376 39.0193C57.7376 36.8097 57.4426 35.6802 57.4426 33.6741C57.4426 32.5954 58.0826 31.4645 60.0039 31.3615V28.6875C58.0826 28.6367 57.4414 27.5045 57.4414 26.4258ZM35.6214 29.5641C34.0939 28.9471 32.7151 28.5858 32.7151 27.5593C32.7151 26.7884 33.3051 26.3254 34.3901 26.3254C35.4726 26.3254 36.4589 26.7884 37.5426 27.6102L39.5126 24.8854C38.2814 23.9097 36.6064 22.8819 34.3401 22.8819C30.9901 22.8819 28.7239 24.8854 28.7239 27.7132C28.7239 30.2319 30.8426 31.5167 32.6164 32.2367C34.1426 32.8536 35.6214 33.3675 35.6214 34.3954C35.6214 35.1662 35.0301 35.6802 33.7001 35.6802C32.4676 35.6802 31.2376 35.1662 29.9064 34.0875L27.9851 37.068C29.4639 38.3541 31.7289 39.2267 33.6014 39.2267C37.5426 39.2267 39.6601 37.068 39.6601 34.2415C39.6601 31.4136 37.5426 30.2319 35.6214 29.5641ZM47.5426 29.5641C46.0639 28.9471 44.6851 28.5858 44.6851 27.5593C44.6851 26.7884 45.2764 26.3254 46.3601 26.3254C47.4439 26.3254 48.4289 26.7884 49.5126 27.6102L51.4826 24.8854C50.2514 23.9097 48.5764 22.8819 46.3101 22.8819C42.9601 22.8819 40.6951 24.8854 40.6951 27.7132C40.6951 30.2319 42.8126 31.5167 44.5864 32.2367C46.1139 32.8536 47.5914 33.3675 47.5914 34.3954C47.5914 35.1662 47.0001 35.6802 45.6701 35.6802C44.4389 35.6802 43.2076 35.1662 41.8776 34.0875L39.9064 37.068C41.3839 38.3541 43.6501 39.2267 45.5226 39.2267C49.4626 39.2267 51.5814 37.068 51.5814 34.2415C51.5814 31.4136 49.4639 30.2319 47.5426 29.5641ZM18.2801 29.3071C18.5764 27.2502 19.7589 26.2745 21.1376 26.2745C22.9126 26.2745 23.6001 27.5593 23.6001 29.3058H18.2814L18.2801 29.3071ZM27.3451 30.2319C27.3951 26.0684 25.2264 22.8297 21.0889 22.8297C17.4926 22.8297 14.0451 25.9654 14.1426 30.8997C14.1426 35.9893 17.3451 38.9697 21.5814 38.9697C23.3551 38.9697 25.3251 38.3019 26.8526 37.2219L25.3751 34.4984C24.2914 35.1662 23.2564 35.4754 22.1726 35.4754C20.2026 35.4754 18.6751 34.4971 18.2814 32.1336H27.1976C27.2476 31.7736 27.3451 31.0549 27.3451 30.2319Z" fill="white"/>
<g id="Group_2">
<path id="Vector_2" d="M13.8912 35.371C13.5475 35.371 13.1038 35.0619 13.1038 34.0862V16.6602H6.10875C3.44875 16.6602 2.26625 17.7402 2.26625 21.0819C2.26625 23.2915 2.56125 24.5254 2.56125 26.4271C2.56125 27.5058 1.92125 28.6367 0 28.7397V31.4136C1.92125 31.4645 2.5625 32.5954 2.5625 33.6741C2.5625 35.5771 2.26625 36.7067 2.26625 38.9175C2.26625 42.2593 3.44875 43.3393 6.05875 43.3393H7.98V40.9732H7.38875C6.1575 40.9732 5.76375 40.4593 5.76375 38.7636C5.76375 37.068 5.91125 35.628 5.91125 33.7262C5.91125 31.3615 5.1725 30.4367 3.695 30.0767V29.9228C5.1725 29.5628 5.91125 28.6367 5.91125 26.2732C5.91125 24.421 5.76375 22.9315 5.76375 21.2345C5.76375 19.5389 6.10875 19.0758 7.38875 19.0758H8.71875V33.828C8.71875 36.9636 9.75375 39.0193 12.7587 39.0193C13.695 39.0193 14.4337 38.8667 14.975 38.6606L14.4825 35.3188C14.1875 35.371 14.04 35.371 13.8912 35.371Z" fill="#F8F8FB"/>
</g>
</g>
</g>
<defs>
<clipPath id="clip0_1249_21500">
<rect width="60" height="60" fill="white" transform="translate(0 0.0507812)"/>
</clipPath>
</defs>
</svg>
