<svg width="61" height="61" viewBox="0 0 61 61" fill="none" xmlns="http://www.w3.org/2000/svg">
<g id="Icon Set - Travel" clipPath="url(#clip0_1249_4287)">
<g id="Group">
<path id="Vector" d="M31.6736 60.4221L30.0786 59.8771C30.0786 59.8771 30.2736 51.7484 27.3561 51.1646C25.4111 48.9084 27.6686 -44.5204 34.6686 50.8521C34.6686 50.8521 32.2561 52.0584 31.8298 54.1209C31.3623 56.1434 31.6736 60.4221 31.6736 60.4221Z" fill="white"/>
<path id="Vector_2" d="M31.6736 60.4221L30.0786 59.8771C30.0786 59.8771 30.2736 51.7484 27.3561 51.1646C25.4111 48.9084 27.6686 -44.5204 34.6686 50.8521C34.6686 50.8521 32.2561 52.0584 31.8298 54.1209C31.3623 56.1434 31.6736 60.4221 31.6736 60.4221Z" fill="#0066FF"/>
<path id="Vector_3" d="M32.5359 52.5665C32.5359 52.5665 46.4997 43.3852 43.2322 24.2877C40.0822 10.4015 32.6522 5.85023 31.8359 4.10023C30.9409 2.85648 30.0859 0.677734 30.0859 0.677734L30.6684 39.3015C30.6684 39.3402 29.4622 51.1265 32.5359 52.5665Z" fill="white"/>
<path id="Vector_4" d="M32.5359 52.5665C32.5359 52.5665 46.4997 43.3852 43.2322 24.2877C40.0822 10.4015 32.6522 5.85023 31.8359 4.10023C30.9409 2.85648 30.0859 0.677734 30.0859 0.677734L30.6684 39.3015C30.6684 39.3402 29.4622 51.1265 32.5359 52.5665Z" fill="#DCDCDC"/>
<path id="Vector_5" d="M29.2657 53.0702C29.2657 53.0702 16.157 44.124 16.9357 28.3715C17.6732 12.619 26.932 4.87898 28.7207 3.47898C29.8882 2.23398 29.927 1.76648 30.0045 0.521484C30.822 2.27148 30.667 26.699 30.782 29.5777C31.132 40.6627 30.1607 50.9715 29.2657 53.0702Z" fill="white"/>
<path id="Vector_6" d="M29.2657 53.0702C29.2657 53.0702 16.157 44.124 16.9357 28.3715C17.6732 12.619 26.932 4.87898 28.7207 3.47898C29.8882 2.23398 29.927 1.76648 30.0045 0.521484C30.822 2.27148 30.667 26.699 30.782 29.5777C31.132 40.6627 30.1607 50.9715 29.2657 53.0702Z" fill="white"/>
</g>
</g>
<defs>
<clipPath id="clip0_1249_4287">
<rect width="60" height="60" fill="white" transform="translate(0.320312 0.472656)"/>
</clipPath>
</defs>
</svg>
