<svg width="61" height="61" viewBox="0 0 61 61" fill="none" xmlns="http://www.w3.org/2000/svg">
<g id="Icon Set - Travel" clipPath="url(#clip0_1249_4269)">
<g id="Group">
<path id="Vector" d="M55.5525 45.9917C52.29 45.9105 49.7625 46.2367 47.6425 47.133C47.03 47.378 46.0513 47.378 45.97 48.153C46.295 48.478 46.3375 49.0092 46.6225 49.458C47.1125 50.273 47.9675 51.3742 48.7425 51.9455C49.5988 52.598 50.455 53.2492 51.3525 53.8205C52.9425 54.7992 54.7375 55.3705 56.2863 56.3492C57.1838 56.9192 58.08 57.6542 58.9775 58.2655C59.4263 58.5905 59.7113 59.1217 60.2825 59.3255V59.203C59.9975 58.8355 59.915 58.3067 59.63 57.898C59.2225 57.4905 58.815 57.123 58.4063 56.7155C57.2238 55.1255 55.7563 53.7392 54.1663 52.598C52.8613 51.7005 50.0063 50.4767 49.4763 48.968L49.395 48.8867C50.2925 48.8055 51.3525 48.4792 52.2088 48.2342C53.5963 47.8667 54.8588 47.9492 56.2863 47.5817C56.9388 47.4192 57.5913 47.2155 58.2438 47.0105V46.6442C57.51 45.9105 56.98 44.9317 56.205 44.238C54.125 42.4442 51.8425 40.6905 49.4763 39.223C48.2138 38.4067 46.5813 37.8767 45.2363 37.1842C44.7463 36.9392 43.9313 36.8167 43.6463 36.4092C42.9113 35.5117 42.5038 34.3292 41.9738 33.2692C40.7913 31.0267 39.6488 28.5392 38.63 26.1742C37.8963 24.5842 37.4475 22.993 36.55 21.5255C32.35 14.5942 27.7838 10.3942 20.77 6.27549C19.2613 5.41924 17.4675 5.05174 15.55 4.60299C14.5313 4.56299 13.5125 4.48049 12.4925 4.44049C11.84 4.15424 11.1875 3.38049 10.6175 3.01299C8.29126 1.54424 2.29751 -1.63576 0.585008 2.56424C-0.514992 5.21424 2.21626 7.82424 3.15376 9.17049C3.84751 10.108 4.74501 11.168 5.23376 12.228C5.52001 12.9217 5.60126 13.6555 5.88626 14.3905C6.53876 16.183 7.15001 18.1817 8.00751 19.853C8.45501 20.7105 8.94501 21.6067 9.51626 22.3817C9.84126 22.8305 10.4125 23.0342 10.535 23.7692C9.96501 24.5842 9.92251 25.8067 9.59751 26.8267C8.12876 31.4342 8.70001 37.143 10.78 40.5267C11.4313 41.5467 12.9813 43.7892 15.0613 42.933C16.8963 42.1992 16.4888 39.8755 17.0188 37.8367C17.1413 37.3467 17.06 37.0205 17.3038 36.6942V36.7767C17.875 37.918 18.445 39.0192 18.9763 40.1605C20.2388 42.158 22.4413 44.238 24.2763 45.6242C25.255 46.358 26.03 47.623 27.2538 48.0717V47.9492H27.1713C26.9275 47.5817 26.56 47.4192 26.2338 47.133C25.5 46.3992 24.6838 45.5017 24.1138 44.6867C22.4013 42.403 20.8925 39.8742 19.5463 37.2655C18.895 36.0017 18.3238 34.6155 17.7938 33.3505C17.5488 32.8605 17.5488 32.128 17.1413 31.883C16.5288 32.7805 15.6325 33.5542 15.1838 34.6555C14.4088 36.4092 14.3275 38.5705 14.0425 40.813C13.8788 40.8542 13.96 40.813 13.8788 40.8942C12.5725 40.568 12.125 39.223 11.635 38.0817C10.41 35.1855 10.2075 30.5367 11.2675 27.1942C11.5538 26.3367 12.7763 23.6467 12.2875 22.8305C12.0425 22.0555 11.2263 21.6067 10.7788 20.9955C10.2488 20.2205 9.67751 19.243 9.31001 18.3855C8.33126 16.1017 7.84251 13.573 6.78251 11.2905C6.29251 10.2305 5.43751 9.12924 4.74376 8.15049C3.96876 7.05049 3.11251 6.27549 2.50126 4.97049C2.29751 4.52174 2.01126 3.78799 2.33876 3.29799C2.41876 2.97299 2.58251 2.85049 2.90876 2.76799C3.43876 2.31924 4.94751 2.89049 5.47751 3.13549C6.98626 3.74674 8.25001 4.31799 9.51501 5.17299C10.085 5.58174 10.6963 6.35674 11.43 6.56049H12.2875C13.5925 6.84549 15.06 6.64174 16.2838 7.00924C18.445 7.70174 20.4013 8.72174 22.155 9.82174C27.4975 13.2067 31.9 18.0192 34.8775 23.768C35.3675 24.7055 35.57 25.563 36.0188 26.5405C36.8763 28.5392 37.9363 30.578 38.7913 32.5355C39.6488 34.4517 40.4638 36.4092 41.6875 37.9992C42.2988 38.8555 44.745 39.3042 45.8463 39.753C46.6613 40.1192 47.9263 40.4467 48.6588 40.8942C50.0463 41.7505 51.4338 42.7292 52.7375 43.6667C53.39 44.1567 55.43 45.1755 55.5525 45.9917Z" fill="white"/>
<path id="Vector_2" d="M13.9603 10.5566C13.2666 10.5566 12.7778 10.6379 12.2891 10.7604V10.8416H12.3703C12.6966 11.4941 13.2666 11.9429 13.6741 12.5141C14.0016 13.1654 14.2866 13.8191 14.6128 14.4716L14.6941 14.3891C15.2653 13.9816 15.5503 13.3291 15.5503 12.3516C15.3053 12.0641 15.2653 11.7804 15.0616 11.4941C14.8166 11.0866 14.2866 10.8816 13.9603 10.5566Z" fill="white"/>
</g>
</g>
<defs>
<clipPath id="clip0_1249_4269">
<rect width="60" height="60" fill="white" transform="translate(0.320312 0.472656)"/>
</clipPath>
</defs>
</svg>
