<svg width="70" height="70" viewBox="0 0 70 70" fill="none" xmlns="http://www.w3.org/2000/svg">
<g clipPath="url(#clip0_99_2648)">
<path d="M41.5625 43.0208H34.2709C33.0634 43.0208 32.0834 42.0408 32.0834 40.8333C32.0834 39.6258 33.0634 38.6458 34.2709 38.6458H41.5625C42.77 38.6458 43.75 39.6258 43.75 40.8333C43.75 42.0408 42.77 43.0208 41.5625 43.0208Z" fill="#f132e"/>
<path d="M41.5625 49.5833H37.1875C34.373 49.5833 32.0834 47.2937 32.0834 44.4791V37.1874C32.0834 34.3728 34.373 32.0833 37.1875 32.0833H41.5625C42.77 32.0833 43.75 33.0633 43.75 34.2708C43.75 35.4783 42.77 36.4583 41.5625 36.4583H37.1875C36.785 36.4583 36.4584 36.7849 36.4584 37.1874V44.4791C36.4584 44.8816 36.785 45.2083 37.1875 45.2083H41.5625C42.77 45.2083 43.75 46.1883 43.75 47.3958C43.75 48.6033 42.77 49.5833 41.5625 49.5833Z" fill="#f132e"/>
<path d="M26.9792 49.5834C26.1975 49.5834 25.4596 49.1634 25.0658 48.4575L21.875 42.7146V47.3959C21.875 48.6034 20.895 49.5834 19.6875 49.5834C18.48 49.5834 17.5 48.6034 17.5 47.3959V34.2709C17.5 33.2734 18.1737 32.4013 19.1392 32.1534C20.1017 31.8996 21.1167 32.3342 21.6008 33.2063L24.7917 38.9521V34.2709C24.7917 33.0634 25.7717 32.0834 26.9792 32.0834C28.1867 32.0834 29.1667 33.0634 29.1667 34.2709V47.3959C29.1667 48.3934 28.4929 49.2654 27.5275 49.5134C27.3437 49.56 27.16 49.5834 26.9792 49.5834Z" fill="#f132e"/>
<path d="M53.9584 49.5833C52.7509 49.5833 51.7709 48.6033 51.7709 47.3958V34.2708C51.7709 33.0633 52.7509 32.0833 53.9584 32.0833C55.1659 32.0833 56.1459 33.0633 56.1459 34.2708V47.3958C56.1459 48.6033 55.1659 49.5833 53.9584 49.5833Z" fill="#f132e"/>
<path d="M59.0625 36.4583H48.8541C47.6466 36.4583 46.6666 35.4783 46.6666 34.2708C46.6666 33.0633 47.6466 32.0833 48.8541 32.0833H59.0625C60.27 32.0833 61.25 33.0633 61.25 34.2708C61.25 35.4783 60.27 36.4583 59.0625 36.4583Z" fill="#f132e"/>
<path d="M61.9792 67.0834H8.02083C3.59625 67.0834 0 63.4872 0 59.0626V10.9376C0 6.513 3.59625 2.91675 8.02083 2.91675H61.9792C66.4038 2.91675 70 6.513 70 10.9376V59.0626C70 63.4872 66.4038 67.0834 61.9792 67.0834ZM8.02083 7.29175C6.01125 7.29175 4.375 8.928 4.375 10.9376V59.0626C4.375 61.0722 6.01125 62.7084 8.02083 62.7084H61.9792C63.9888 62.7084 65.625 61.0722 65.625 59.0626V10.9376C65.625 8.928 63.9888 7.29175 61.9792 7.29175H8.02083Z" fill="#f132e"/>
<path d="M67.8125 17.5H2.1875C0.98 17.5 0 16.52 0 15.3125C0 14.105 0.98 13.125 2.1875 13.125H67.8125C69.02 13.125 70 14.105 70 15.3125C70 16.52 69.02 17.5 67.8125 17.5Z" fill="#f132e"/>
<path d="M10.9375 49.5833C12.1456 49.5833 13.125 48.6039 13.125 47.3958C13.125 46.1876 12.1456 45.2083 10.9375 45.2083C9.72938 45.2083 8.75 46.1876 8.75 47.3958C8.75 48.6039 9.72938 49.5833 10.9375 49.5833Z" fill="#f132e"/>
</g>
<defs>
<clipPath id="clip0_99_2648">
<rect width="70" height="70" fill="white"/>
</clipPath>
</defs>
</svg>
