<svg width="61" height="61" viewBox="0 0 61 61" fill="none" xmlns="http://www.w3.org/2000/svg">
<g id="Icon Set - Travel" clipPath="url(#clip0_1249_299)">
<path id="Vector" d="M30.3203 0.472656C46.8891 0.472656 60.3203 13.9039 60.3203 30.4727C60.3203 47.0414 46.8891 60.4727 30.3203 60.4727C13.7516 60.4727 0.320312 47.0414 0.320312 30.4727C0.320312 13.9039 13.7516 0.472656 30.3203 0.472656ZM35.2028 39.4727C33.5716 39.4727 32.1953 40.8452 32.1953 42.4727C32.1953 44.1002 33.5716 45.4727 35.2028 45.4727C36.8341 45.4727 38.2116 44.1002 38.2116 42.4727C38.2116 40.8452 36.8341 39.4727 35.2028 39.4727ZM22.3128 39.4727C20.6816 39.4727 19.3041 40.8452 19.3041 42.4727C19.3041 44.1002 20.6816 45.4727 22.3128 45.4727C23.9441 45.4727 25.3203 44.1002 25.3203 42.4727C25.3203 40.8452 23.9441 39.4727 22.3128 39.4727ZM11.5703 15.4727C15.6078 23.1002 22.7428 24.3014 31.4228 24.4727C36.4916 24.5602 47.7516 24.1314 47.7516 26.8727C47.7516 28.9289 39.9291 35.6152 39.9291 36.9014C39.9291 36.9014 45.4291 32.2739 48.2653 29.7014C51.1891 27.1327 52.8203 25.6727 52.8203 24.1327C52.8203 21.0452 40.8766 21.5614 31.1653 21.5614C21.4528 21.5614 16.1253 19.7602 11.5703 15.4739V15.4727Z" fill="white"/>
</g>
<defs>
<clipPath id="clip0_1249_299">
<rect width="60" height="60" fill="white" transform="translate(0.320312 0.472656)"/>
</clipPath>
</defs>
</svg>
