<svg width="61" height="61" viewBox="0 0 61 61" fill="none" xmlns="http://www.w3.org/2000/svg">
<g id="Icon Set - Travel" clipPath="url(#clip0_1249_5259)">
<g id="Group">
<path id="Vector" d="M5.12813 21.7598H14.0056C16.6106 21.7823 18.4994 22.5336 19.6694 24.0136C20.8406 25.4923 21.2269 27.5136 20.8294 30.0748C20.6744 31.2461 20.3319 32.3936 19.8019 33.5198C19.2944 34.6461 18.5881 35.6623 17.6819 36.5673C16.5781 37.7161 15.3969 38.4448 14.1381 38.7536C12.8794 39.0623 11.5756 39.2173 10.2294 39.2173H6.25313L4.99438 45.5111H0.390625L5.12813 21.7598ZM9.00313 25.5361L7.01562 35.4736C7.14813 35.4961 7.28062 35.5073 7.41313 35.5073H7.87687C9.99687 35.5298 11.7644 35.3198 13.1769 34.8786C14.5894 34.4148 15.5394 32.8023 16.0256 30.0411C16.4231 27.7236 16.0256 26.3861 14.8331 26.0336C13.6619 25.6798 12.1944 25.5148 10.4281 25.5361C10.1631 25.5586 9.90938 25.5698 9.66562 25.5698H8.97062L9.00313 25.5361ZM26.0731 15.4336H30.6456L29.3531 21.7598H33.4606C35.7131 21.8048 37.3919 22.2686 38.4956 23.1523C39.6219 24.0348 39.9531 25.7136 39.4894 28.1873L37.2706 39.2173H32.6331L34.7531 28.6836C34.9731 27.5798 34.9069 26.7961 34.5531 26.3323C34.2006 25.8686 33.4381 25.6361 32.2681 25.6361L28.5906 25.6023L25.8744 39.2173H21.3044L26.0731 15.4336ZM44.3981 21.7598H53.2756C55.8806 21.7823 57.7694 22.5336 58.9394 24.0136C60.1106 25.4923 60.4969 27.5136 60.0994 30.0748C59.9444 31.2461 59.6031 32.3936 59.0731 33.5198C58.5644 34.6461 57.8581 35.6623 56.9531 36.5673C55.8481 37.7161 54.6669 38.4448 53.4081 38.7536C52.1494 39.0623 50.8456 39.2173 49.4994 39.2173H45.5244L44.2656 45.5111H39.6619L44.3981 21.7598ZM48.2731 25.5361L46.2856 35.4736C46.4181 35.4961 46.5506 35.5073 46.6831 35.5073H47.1469C49.2669 35.5298 51.0344 35.3198 52.4469 34.8786C53.8606 34.4148 54.8106 32.8023 55.2969 30.0411C55.6931 27.7236 55.2969 26.3861 54.1031 26.0336C52.9331 25.6798 51.4656 25.5148 49.6981 25.5361C49.4331 25.5586 49.1794 25.5698 48.9356 25.5698H48.2406L48.2731 25.5361Z" fill="white"/>
</g>
</g>
<defs>
<clipPath id="clip0_1249_5259">
<rect width="60" height="60" fill="white" transform="translate(0.320312 0.472656)"/>
</clipPath>
</defs>
</svg>
