<svg width="61" height="61" viewBox="0 0 61 61" fill="none" xmlns="http://www.w3.org/2000/svg">
<g id="Icon Set - Travel">
<g id="Group">
<path id="Vector" d="M25.7455 18.9807C25.1238 18.8957 24.5609 18.9744 24.2749 19.1857C24.1153 19.3044 24.0655 19.4419 24.0515 19.5357C24.0157 19.7882 24.1957 20.0657 24.3068 20.2082C24.6183 20.6144 25.0753 20.8932 25.5272 20.9544C25.5923 20.9632 25.6575 20.9669 25.7226 20.9669C26.4757 20.9669 27.16 20.3919 27.2213 19.9694C27.2966 19.4382 26.5089 19.0844 25.7455 18.9807ZM46.3536 18.9969C46.2936 18.5807 45.5366 18.4619 44.8204 18.5594C44.103 18.6582 43.4085 18.9744 43.4672 19.3919C43.5132 19.7169 44.1106 20.2694 44.8192 20.2694C44.8792 20.2694 44.9392 20.2657 45.0004 20.2569C45.4728 20.1944 45.8187 19.8994 45.9834 19.7307C46.2349 19.4719 46.3792 19.1844 46.3536 18.9969Z" fill="white"/>
<path id="Vector_2" d="M58.1818 36.82C57.9188 36.0413 57.0712 35.7901 55.6644 36.0751C51.4848 36.9201 49.9886 36.335 49.4971 35.98C52.7448 31.135 55.4167 25.2775 56.8593 19.8125C57.5422 17.225 57.9188 14.82 57.9495 12.86C57.9839 10.71 57.6099 9.13005 56.8388 8.1638C53.7278 4.27255 49.1614 2.1838 43.635 2.1263C39.8359 2.08505 36.6265 3.03755 36.0035 3.30505C34.6937 2.9863 33.2652 2.79005 31.709 2.76505C28.8571 2.72005 26.392 3.3888 24.3507 4.7513C23.4635 4.42755 21.172 3.65755 18.3699 3.2163C13.5252 2.45255 9.67628 3.0313 6.92905 4.9363C3.65075 7.2113 2.13671 11.275 2.43032 17.0188C2.52862 18.95 3.6533 24.8938 5.42777 30.5863C7.76394 38.0775 10.3018 42.3188 12.9725 43.1913C13.2852 43.2938 13.6465 43.3651 14.0448 43.3651C15.0176 43.3651 16.2125 42.9351 17.4559 41.4713C18.9712 39.6913 20.5401 37.9538 22.1588 36.2613C23.2082 36.8125 24.3622 37.1213 25.5418 37.1525L25.5495 37.2425C25.3465 37.48 25.1486 37.7201 24.9533 37.9638C24.1363 38.98 23.9665 39.1926 21.3342 39.7225C20.5861 39.8738 18.5984 40.2751 18.569 41.64C18.5371 43.1301 20.918 43.7563 21.1899 43.8225C22.1346 44.055 23.0473 44.1688 23.9154 44.1688C26.0282 44.1688 27.8882 43.4888 29.3742 42.1738C29.3282 47.4888 29.5542 52.7251 30.2065 54.3213C30.7401 55.6276 32.0448 58.8201 36.1631 58.8201C36.7669 58.8201 37.432 58.7513 38.1648 58.5975C42.4631 57.695 44.3307 55.8351 45.052 51.7326C45.4388 49.5413 46.1014 44.3076 46.4142 41.4988C47.0716 41.7001 47.9205 41.7926 48.8359 41.7926C50.7469 41.7926 52.9516 41.395 54.3342 40.7663C55.8865 40.06 58.6899 38.3263 58.1818 36.82ZM47.9435 17.8475C47.9307 18.6763 47.8133 19.4288 47.6908 20.215C47.5567 21.06 47.4201 21.9326 47.3844 22.9925C47.3512 24.0251 47.4827 25.0975 47.6103 26.135C47.8669 28.2301 48.1312 30.3876 47.1099 32.5163C46.9401 32.2225 46.7882 31.9175 46.6567 31.605C46.529 31.305 46.2546 30.82 45.8729 30.1501C44.3869 27.5413 40.9095 21.4338 42.689 18.9413C43.2201 18.2 44.5644 17.4375 47.9435 17.8475ZM43.8507 3.80505C48.8027 3.91255 52.7193 5.7263 55.4933 9.1963C57.6188 11.8588 55.2763 23.9688 48.4976 34.4163L48.2907 34.1625L48.2052 34.0575C49.9567 31.2238 49.6146 28.42 49.3095 25.935C49.1844 24.915 49.0669 23.9525 49.0963 23.0475C49.1269 22.0875 49.2571 21.265 49.3822 20.47C49.5354 19.49 49.6925 18.475 49.6503 17.28C49.6822 17.155 49.695 17.005 49.6784 16.83C49.5673 15.6838 48.2308 12.2513 45.5052 9.1463C44.0154 7.4463 41.8414 5.5463 38.8733 4.2638C40.1499 4.00505 41.8963 3.7638 43.8507 3.80505ZM16.141 40.4013C14.7712 42.0138 13.8252 41.7038 13.5137 41.6026C11.4878 40.9401 9.13628 36.7475 7.06437 30.0975C5.26947 24.3425 4.22139 18.5576 4.13841 16.935C3.87671 11.8025 5.14692 8.22755 7.91458 6.30505C12.4184 3.17755 19.8227 5.05005 22.7997 5.9988C22.7563 6.04005 22.7103 6.0788 22.6695 6.1213C17.7865 10.9488 17.9027 19.1988 17.9142 19.7025C17.9142 19.8975 17.9307 20.1725 17.9525 20.5525C18.038 21.94 18.195 24.5213 17.7763 27.445C17.3882 30.1625 18.2435 32.8225 20.1227 34.7425C20.3154 34.94 20.5184 35.1275 20.7303 35.305C19.8942 36.1813 18.075 38.1213 16.141 40.4013ZM21.3584 33.5838C19.8431 32.0363 19.155 29.8838 19.469 27.6775C19.9107 24.5888 19.7486 21.8975 19.6605 20.4525C19.6478 20.25 19.6376 20.0725 19.6312 19.9325C20.3448 19.3138 23.6499 17.58 26.0078 18.1075C27.0827 18.35 27.7388 19.0675 28.012 20.3C29.4214 26.6875 28.1971 29.35 27.2142 31.4888C27.0125 31.93 26.821 32.3463 26.6576 32.7763L26.5299 33.1101C26.2095 33.9526 25.9107 34.7351 25.7256 35.48C24.1159 35.4751 22.5495 34.8013 21.3584 33.5838ZM21.6048 42.1976C21.135 42.0826 20.7112 41.8825 20.4635 41.7175C20.6716 41.6226 21.0405 41.4925 21.6801 41.3625C24.7759 40.7388 25.2546 40.2988 26.2976 39C26.5363 38.7025 26.8082 38.3651 27.1835 37.955C27.7439 37.34 28.0005 37.445 28.4639 37.6338C28.8405 37.785 29.2069 38.2463 29.355 38.7551C29.4252 38.995 29.5044 39.4513 29.2465 39.805C27.0661 42.795 23.8873 42.7575 21.6048 42.1976ZM37.8061 56.9601C34.0184 57.7538 32.678 55.8626 31.7933 53.6988C31.2239 52.3026 30.9444 46.0063 31.1422 39.0526C31.1448 38.96 31.132 38.87 31.1052 38.7863C31.0822 38.62 31.0478 38.4563 31.0005 38.295C30.7044 37.2825 29.9831 36.4363 29.1188 36.0863C28.7754 35.9463 28.1448 35.6913 27.3878 35.8801C27.5486 35.2288 27.8295 34.4925 28.1333 33.695L28.261 33.36C28.4039 32.9825 28.5839 32.5913 28.7742 32.1763C29.8031 29.9388 31.2125 26.8725 29.6831 19.9463C29.1099 17.3525 27.1976 16.0863 24.2971 16.38C22.5584 16.5563 20.9678 17.2425 20.1737 17.6375C20.0039 17.7213 19.8482 17.8038 19.7014 17.8825C19.9235 15.27 20.761 10.385 23.8886 7.29505C25.8597 5.3488 28.4844 4.38755 31.681 4.44005C37.981 4.54005 42.0201 7.7063 44.3001 10.3438C46.2648 12.6175 47.3282 14.9063 47.752 16.1413C44.5605 15.8238 42.389 16.4413 41.2873 17.9813C38.8937 21.3338 42.5984 27.8388 44.378 30.965C44.7048 31.5388 44.9869 32.0338 45.075 32.2438C45.6559 33.62 46.4065 34.5388 46.9542 35.2088C47.1214 35.4151 47.2861 35.6138 47.4086 35.7875C46.4422 36.0613 44.7048 36.6913 44.8631 39.8438C44.7354 41.4263 43.829 48.8313 43.3669 51.4488C42.758 54.9051 41.4584 56.1926 37.8061 56.9601ZM53.6142 39.2476C52.6248 39.6963 50.9703 40.0338 49.3988 40.1063C47.6627 40.1851 46.778 39.9151 46.5699 39.7488C46.4729 37.785 47.2197 37.58 48.0099 37.3613C48.1337 37.3275 48.255 37.2951 48.3724 37.2551C48.4452 37.3125 48.5244 37.37 48.6112 37.4263C50.0065 38.3288 52.4959 38.4263 56.0103 37.715L56.0486 37.7076C55.575 38.1413 54.7631 38.7238 53.6142 39.2476Z" fill="white"/>
</g>
</g>
</svg>
