<svg width="70" height="70" viewBox="0 0 70 70" fill="none" xmlns="http://www.w3.org/2000/svg">
<path d="M27.9563 34.1017H40.5796C40.5796 34.1017 47.6729 34.2154 47.6729 27.2475V15.7237C47.6729 15.7237 48.7492 8.75 34.8134 8.75C21.4725 8.75 22.3038 14.5337 22.3038 14.5337L22.3213 20.5275H35.0467V22.3271H17.2667C17.2667 22.3271 8.72961 21.3588 8.72961 34.8163C8.72961 48.2738 16.1817 47.7954 16.1817 47.7954H20.6267V41.5508C20.6267 41.5508 20.3846 34.1017 27.9563 34.1017ZM27.7929 17.36C27.1857 17.36 26.6033 17.1188 26.174 16.6894C25.7446 16.26 25.5034 15.6777 25.5034 15.0704C25.5034 14.4632 25.7446 13.8808 26.174 13.4514C26.6033 13.0221 27.1857 12.7808 27.7929 12.7808C28.4002 12.7808 28.9825 13.0221 29.4119 13.4514C29.8413 13.8808 30.0825 14.4632 30.0825 15.0704C30.0825 15.6777 29.8413 16.26 29.4119 16.6894C28.9825 17.1188 28.4002 17.36 27.7929 17.36Z" fill="#f132e"/>
<path d="M53.8184 21.9684H49.3734V28.213C49.3734 28.213 49.6155 35.6621 42.0438 35.6621H29.4205C29.4205 35.6621 22.3271 35.5455 22.3271 42.5163V54.04C22.3271 54.04 21.2509 61.0138 35.1867 61.0138C48.5246 61.0138 47.6934 55.23 47.6934 55.23L47.6759 49.2392H34.9505V47.4396H52.7334C52.7334 47.4396 61.2705 48.408 61.2705 34.9505C61.2705 21.493 53.8184 21.9684 53.8184 21.9684ZM42.2071 52.4067C42.8144 52.4067 43.3967 52.6479 43.8261 53.0773C44.2555 53.5067 44.4967 54.0891 44.4967 54.6963C44.4967 55.3035 44.2555 55.8859 43.8261 56.3153C43.3967 56.7447 42.8144 56.9859 42.2071 56.9859C41.5999 56.9859 41.0175 56.7447 40.5881 56.3153C40.1588 55.8859 39.9175 55.3035 39.9175 54.6963C39.9175 54.0891 40.1588 53.5067 40.5881 53.0773C41.0175 52.6479 41.5999 52.4067 42.2071 52.4067Z" fill="#f132e"/>
</svg>
