<svg width="30" height="30" viewBox="0 0 30 30" fill="none" xmlns="http://www.w3.org/2000/svg">
<path d="M15 13.0346C16.054 13.0346 16.9135 13.9081 16.9135 14.9999C16.9135 16.0397 16.054 16.9235 15 16.9235C13.946 16.9235 13.0865 16.0397 13.0865 14.9999C13.0865 13.9081 13.946 13.0346 15 13.0346ZM10.2623 23.3185C10.907 23.7136 12.3191 23.1105 13.946 21.5508C13.414 20.9373 12.8921 20.2718 12.4009 19.5751C11.5763 19.4949 10.7566 19.3699 9.94512 19.2008C9.42326 21.426 9.61767 22.9545 10.2623 23.3185ZM10.9888 17.3499L10.6921 16.8196C10.5795 17.1211 10.467 17.4227 10.3953 17.7138C10.6716 17.7762 10.9786 17.8282 11.2958 17.8802L10.9888 17.3499ZM17.6809 16.5596L18.5098 14.9999L17.6809 13.4401C17.374 12.889 17.0465 12.4003 16.7498 11.9116C16.1972 11.8804 15.614 11.8804 15 11.8804C14.386 11.8804 13.8028 11.8804 13.2502 11.9116C12.9535 12.4003 12.626 12.889 12.3191 13.4401L11.4902 14.9999L12.3191 16.5596C12.626 17.1107 12.9535 17.5994 13.2502 18.0881C13.8028 18.1193 14.386 18.1193 15 18.1193C15.614 18.1193 16.1972 18.1193 16.7498 18.0881C17.0465 17.5994 17.374 17.1107 17.6809 16.5596ZM15 9.57201C14.8056 9.80077 14.6009 10.0399 14.3963 10.3207H15.6037C15.3991 10.0399 15.1944 9.80077 15 9.57201ZM15 20.4277C15.1944 20.199 15.3991 19.9598 15.6037 19.6791H14.3963C14.6009 19.9598 14.8056 20.199 15 20.4277ZM19.7274 6.6813C19.093 6.28617 17.6809 6.88927 16.054 8.449C16.586 9.0625 17.1079 9.72798 17.5991 10.4247C18.4381 10.5078 19.267 10.6326 20.0549 10.799C20.5767 8.57378 20.3823 7.04524 19.7274 6.6813ZM19.0112 12.6499L19.3079 13.1802C19.4205 12.8786 19.533 12.5771 19.6047 12.2859C19.3284 12.2236 19.0214 12.1716 18.7042 12.1196L19.0112 12.6499ZM20.4949 5.31914C21.9991 6.19259 22.1628 8.49059 21.5284 11.1733C24.1274 11.9532 26 13.2426 26 14.9999C26 16.7572 24.1274 18.0466 21.5284 18.8264C22.1628 21.5092 21.9991 23.8072 20.4949 24.6806C19.0009 25.5541 16.9647 24.5558 15 22.653C13.0353 24.5558 10.9991 25.5541 9.49488 24.6806C8.00093 23.8072 7.83721 21.5092 8.47163 18.8264C5.87256 18.0466 4 16.7572 4 14.9999C4 13.2426 5.87256 11.9532 8.47163 11.1733C7.83721 8.49059 8.00093 6.19259 9.49488 5.31914C10.9991 4.44569 13.0353 5.44392 15 7.34679C16.9647 5.44392 19.0009 4.44569 20.4949 5.31914ZM20.1981 14.9999C20.546 15.7797 20.853 16.5596 21.1088 17.3499C23.2577 16.6948 24.4651 15.7589 24.4651 14.9999C24.4651 14.2408 23.2577 13.305 21.1088 12.6499C20.853 13.4401 20.546 14.22 20.1981 14.9999ZM9.80186 14.9999C9.45395 14.22 9.14698 13.4401 8.89116 12.6499C6.74233 13.305 5.53488 14.2408 5.53488 14.9999C5.53488 15.7589 6.74233 16.6948 8.89116 17.3499C9.14698 16.5596 9.45395 15.7797 9.80186 14.9999ZM19.0112 17.3499L18.7042 17.8802C19.0214 17.8282 19.3284 17.7762 19.6047 17.7138C19.533 17.4227 19.4205 17.1211 19.3079 16.8196L19.0112 17.3499ZM16.054 21.5508C17.6809 23.1105 19.093 23.7136 19.7274 23.3185C20.3823 22.9545 20.5767 21.426 20.0549 19.2008C19.267 19.3671 18.4381 19.4919 17.5991 19.5751C17.1079 20.2718 16.586 20.9373 16.054 21.5508ZM10.9888 12.6499L11.2958 12.1196C10.9786 12.1716 10.6716 12.2236 10.3953 12.2859C10.467 12.5771 10.5795 12.8786 10.6921 13.1802L10.9888 12.6499ZM13.946 8.449C12.3191 6.88927 10.907 6.28617 10.2623 6.6813C9.61767 7.04524 9.42326 8.57378 9.94512 10.799C10.7566 10.6298 11.5763 10.5049 12.4009 10.4247C12.8921 9.72798 13.414 9.0625 13.946 8.449Z" fill="#f132e"/>
</svg>
