<svg width="70" height="70" viewBox="0 0 70 70" fill="none" xmlns="http://www.w3.org/2000/svg">
<path d="M35 38.0041C37.8753 38.0041 40.2062 35.6731 40.2062 32.7978C40.2062 29.9225 37.8753 27.5916 35 27.5916C32.1246 27.5916 29.7937 29.9225 29.7937 32.7978C29.7937 35.6731 32.1246 38.0041 35 38.0041Z" fill="#f132e"/>
<path d="M20.4225 43.1492L19.2704 42.8546C10.7129 40.6933 5.8042 37.0183 5.8042 32.7863C5.8042 28.5513 10.7159 24.8792 19.2704 22.7179L20.4225 22.4263L20.7463 23.5667C21.6112 26.5525 22.7193 29.4623 24.0596 32.2671L24.3075 32.7863L24.0596 33.3054C22.7179 36.1142 21.6067 39.025 20.7463 42.0117L20.4225 43.1492ZM18.7396 25.3721C12.2384 27.2038 8.24545 29.9979 8.24545 32.7863C8.24545 35.5688 12.2355 38.3658 18.7396 40.1946C19.5359 37.6629 20.4984 35.1867 21.6125 32.7863C20.4903 30.3818 19.5305 27.9049 18.7396 25.3721ZM49.5746 43.1492L49.2538 42.0058C48.3866 39.0195 47.2775 36.1087 45.9375 33.3025L45.6896 32.7863L45.9375 32.2642C47.2792 29.4613 48.3846 26.5475 49.2538 23.5608L49.5746 22.4233L50.7267 22.715C59.2871 24.8763 64.1929 28.5483 64.1929 32.7863C64.1929 37.0213 59.2842 40.6933 50.7267 42.8546L49.5746 43.1492ZM48.3788 32.7863C49.5454 35.3121 50.5167 37.7971 51.2575 40.1946C57.7617 38.3658 61.7546 35.5688 61.7546 32.7863C61.7546 29.9979 57.7646 27.2067 51.2575 25.3721C50.4621 27.9041 49.5004 30.3809 48.3788 32.7863Z" fill="#f132e"/>
<path d="M18.7229 25.3605L18.402 24.223C15.9929 15.7413 16.722 9.66591 20.4058 7.54841C24.0079 5.46299 29.8033 7.92758 35.8729 14.1547L36.7012 15.0063L35.8729 15.8551C33.7171 18.0971 31.7467 20.5103 29.9812 23.0709L29.6516 23.5434L29.0799 23.5901C25.9754 23.8339 22.8959 24.3304 19.872 25.0747L18.7229 25.3605ZM23.337 9.23424C22.6837 9.23424 22.1062 9.37716 21.6191 9.65716C19.2041 11.0484 18.7783 15.893 20.4408 22.4322C23.0395 21.8576 25.6616 21.4463 28.3041 21.2159C29.8339 19.0461 31.5029 16.9777 33.3004 15.0238C29.4999 11.3284 25.9124 9.23424 23.337 9.23424ZM46.6616 58.7709C43.1966 58.7709 38.7458 56.1576 34.1258 51.4151L33.3004 50.5663L34.1258 49.7205C36.2819 47.4749 38.2532 45.0588 40.0204 42.4959L40.347 42.0292L40.9129 41.9738C44.0185 41.7343 47.0992 41.2397 50.1237 40.4951L51.2758 40.2034L51.5995 41.3438C53.997 49.8197 53.2708 55.9038 49.5929 58.0213C48.6999 58.5275 47.688 58.7863 46.6616 58.7709ZM36.7012 50.5459C40.4987 54.2413 44.0891 56.3384 46.6616 56.3384C47.3179 56.3384 47.8954 56.1926 48.3795 55.9155C50.7974 54.5213 51.2262 49.668 49.5579 43.1288C46.962 43.7063 44.337 44.1205 41.6887 44.3509C40.1653 46.5242 38.4992 48.5937 36.7012 50.5459Z" fill="#f132e"/>
<path d="M51.2736 25.3604L50.1216 25.0716C47.0972 24.3251 44.0165 23.8285 40.9107 23.5871L40.3449 23.5375L40.0182 23.065C38.2535 20.5029 36.282 18.0896 34.1236 15.8491L33.2982 15.0004L34.1236 14.1546C40.1903 7.93039 45.9828 5.46581 49.5907 7.54831C53.2716 9.66872 54.0036 15.7441 51.5974 24.2229L51.2736 25.3604ZM41.6866 21.2158C44.4691 21.4637 47.1057 21.8808 49.5557 22.4321C51.2211 15.8929 50.7953 11.0483 48.3774 9.65414C45.9741 8.26289 41.4503 10.3921 36.6991 15.0237C38.4957 16.9779 40.1641 19.0429 41.6866 21.2158ZM23.3349 58.7708C22.3086 58.7855 21.2969 58.5267 20.4036 58.0212C16.7199 55.9037 15.9907 49.8225 18.397 41.3437L18.712 40.2033L19.8641 40.495C22.6757 41.2037 25.7732 41.7025 29.0749 41.9737L29.6407 42.0291L29.9703 42.4958C31.732 45.0566 33.7036 47.4746 35.862 49.7204L36.6903 50.5662L35.862 51.415C31.2449 56.1604 26.7941 58.7708 23.3349 58.7708ZM20.4386 43.1316C18.7761 49.6708 19.202 54.5241 21.617 55.9183C24.0232 57.2891 28.5324 55.1746 33.2982 50.5458C31.5014 48.5913 29.8325 46.523 28.302 44.3537C25.6568 44.1198 23.03 43.7116 20.4386 43.1316Z" fill="#f132e"/>
<path d="M35 44.663C32.9963 44.663 30.94 44.5784 28.875 44.4063L28.3034 44.3567L27.9738 43.8842C26.8093 42.2098 25.7137 40.4885 24.6896 38.7247C23.6731 36.9561 22.7283 35.1473 21.8575 33.3026L21.6125 32.7863L21.8575 32.2642C22.7296 30.4209 23.6717 28.6126 24.6896 26.8451C25.7017 25.1067 26.8071 23.3684 27.9738 21.6826L28.3034 21.2159L28.875 21.1634C32.9493 20.8222 37.045 20.8222 41.1192 21.1634L41.685 21.2188L42.0146 21.6855C44.3474 25.036 46.3962 28.5755 48.1396 32.2672L48.3817 32.7892L48.1396 33.3055C46.401 36.9996 44.352 40.5396 42.0146 43.8872L41.685 44.3597L41.1192 44.4092C39.06 44.5755 37.0009 44.663 35 44.663ZM29.6509 42.0263C33.253 42.2976 36.7471 42.2976 40.3463 42.0263C42.3556 39.084 44.1417 35.9954 45.6896 32.7863C44.1471 29.5744 42.3608 26.4853 40.3463 23.5463C36.7864 23.2722 33.2108 23.2722 29.6509 23.5463C27.6347 26.4843 25.8483 29.5734 24.3075 32.7863C25.8589 35.9936 27.6448 39.082 29.6509 42.0263Z" fill="#f132e"/>
</svg>
