<svg width="70" height="70" viewBox="0 0 70 70" fill="none" xmlns="http://www.w3.org/2000/svg">
<path d="M18.5413 26.25C10.85 28.2333 5.83337 31.6312 5.83337 35.5104C5.83337 41.6558 18.6813 46.6667 34.5625 46.6667C36.7209 46.6667 38.2375 46.5529 40.25 46.3837" stroke="#f132e" stroke-width="2" stroke-linecap="round" stroke-linejoin="round"/>
<path d="M28.6913 46.3749C27.4867 44.6366 26.3405 43.0703 25.2496 41.1249C17.2259 26.8333 15.0763 12.6291 20.4955 9.412C23.8496 7.37908 29.3825 10.1499 35.003 15.9862" stroke="#f132e" stroke-width="2" stroke-linecap="round" stroke-linejoin="round"/>
<path d="M18.7505 44.8787C16.703 52.7187 17.1171 58.6337 20.3838 60.6142C25.5842 63.7642 36.0959 54.9033 43.8425 40.7692C44.8925 38.815 45.8346 36.8929 46.6659 35" stroke="#f132e" stroke-width="2" stroke-linecap="round" stroke-linejoin="round"/>
<path d="M35 54.0167C40.6233 59.85 46.1329 62.6208 49.5192 60.5879C54.915 57.3737 52.7888 43.1696 44.7563 28.875C43.6363 26.9004 42.49 25.3633 41.3146 23.625" stroke="#f132e" stroke-width="2" stroke-linecap="round" stroke-linejoin="round"/>
<path d="M51.5083 43.7499C59.1267 41.7462 64.1667 38.3541 64.1667 34.4866C64.1667 28.3324 51.31 23.3333 35.4521 23.3333C33.2733 23.3333 31.7596 23.4178 29.75 23.587" stroke="#f132e" stroke-width="2" stroke-linecap="round" stroke-linejoin="round"/>
<path d="M23.3334 35C24.1646 33.075 25.1038 31.185 26.1567 29.2309C33.8771 15.1025 44.3946 6.21836 49.6242 9.39461C52.8617 11.375 53.305 17.2871 51.2575 25.1242M35.7584 35.0438H35.7292C35.7 35.4229 35.3792 35.7438 34.9709 35.7438C34.7756 35.7341 34.5913 35.6503 34.4558 35.5093C34.3203 35.3684 34.2437 35.181 34.2417 34.9854C34.2417 34.5771 34.5625 34.2563 34.9417 34.2563H34.9125C35.2917 34.2271 35.6417 34.5771 35.6417 34.9563" stroke="#f132e" stroke-width="2" stroke-linecap="round" stroke-linejoin="round"/>
</svg>
