<svg width="61" height="61" viewBox="0 0 61 61" fill="none" xmlns="http://www.w3.org/2000/svg">
<g id="Icon Set - Travel" clipPath="url(#clip0_1249_4312)">
<g id="Group">
<path id="Vector" d="M57.9703 44.318C54.7678 45.9867 38.1803 52.8067 34.6491 54.648C31.1178 56.4892 29.1553 56.4717 26.3666 55.138C23.5766 53.8042 5.92531 46.6742 2.74531 45.1542C1.15656 44.3942 0.320312 43.7542 0.320312 43.1467V37.0817C0.320312 37.0817 23.3003 32.0792 27.0103 30.748C30.7203 29.4167 32.0078 29.3692 35.1641 30.5255C38.3216 31.6817 57.2003 35.088 60.3203 36.2305L60.3191 42.2105C60.3191 42.8105 59.5991 43.4667 57.9691 44.3167" fill="white"/>
<path id="Vector_2" d="M57.9676 38.2888C54.7663 39.9563 38.1801 46.7763 34.6488 48.6176C31.1176 50.4588 29.1551 50.4413 26.3663 49.1076C23.5763 47.7751 5.92506 40.6438 2.74506 39.1251C-0.433689 37.6051 -0.499939 36.5588 2.62256 35.3363C5.74631 34.1113 23.3001 27.2251 27.0101 25.8938C30.7201 24.5638 32.0076 24.5151 35.1638 25.6726C38.3213 26.8288 54.8101 33.3913 57.9288 34.5338C61.0501 35.6776 61.1701 36.6201 57.9676 38.2888Z" fill="#0066FF"/>
<path id="Vector_3" d="M57.9703 34.5015C54.7678 36.1715 38.1803 42.9915 34.6491 44.8328C31.1178 46.6728 29.1553 46.6553 26.3666 45.3215C23.5766 43.989 5.92531 36.859 2.74531 35.3378C1.15656 34.579 0.320312 33.9378 0.320312 33.3328V27.2678C0.320312 27.2678 23.3003 22.2653 27.0103 20.934C30.7203 19.6028 32.0078 19.554 35.1641 20.7115C38.3228 21.8678 57.2003 25.274 60.3203 26.4165L60.3191 32.3953C60.3191 32.9953 59.6003 33.6528 57.9703 34.5015Z" fill="white"/>
<path id="Vector_4" d="M57.9676 28.4733C54.7663 30.1421 38.1801 36.9621 34.6488 38.8033C31.1176 40.6446 29.1551 40.6271 26.3663 39.2933C23.5763 37.9608 5.92506 30.8296 2.74506 29.3096C-0.433689 27.7908 -0.499939 26.7446 2.62256 25.5208C5.74631 24.2983 23.3001 17.4108 27.0101 16.0796C30.7201 14.7496 32.0076 14.7008 35.1638 15.8571C38.3213 17.0133 54.8101 23.5758 57.9288 24.7196C61.0501 25.8633 61.1701 26.8046 57.9676 28.4733Z" fill="#0066FF"/>
<path id="Vector_5" d="M57.9703 24.3257C54.7678 25.9945 38.1803 32.8145 34.6491 34.657C31.1178 36.497 29.1553 36.4795 26.3666 35.1445C23.5766 33.8132 5.92531 26.682 2.74531 25.162C1.15656 24.402 0.320312 23.762 0.320312 23.157V17.0907C0.320312 17.0907 23.3003 12.0882 27.0103 10.7582C30.7203 9.42699 32.0078 9.37824 35.1641 10.5357C38.3228 11.692 57.2003 15.0982 60.3203 16.2407L60.3191 22.2195C60.3191 22.8195 59.6003 23.4757 57.9703 24.3257Z" fill="white"/>
<path id="Vector_6" d="M57.9676 18.298C54.7663 19.9667 38.1801 26.7867 34.6488 28.628C31.1176 30.468 29.1551 30.4505 26.3663 29.118C23.5763 27.783 5.92506 20.653 2.74506 19.133C-0.433689 17.6142 -0.499939 16.568 2.62256 15.3455C5.74631 14.1205 23.3001 7.23548 27.0101 5.90423C30.7201 4.57298 32.0076 4.52548 35.1638 5.68173C38.3213 6.83798 54.8101 13.4005 57.9288 14.5442C61.0501 15.6867 61.1701 16.6292 57.9676 18.298Z" fill="#0066FF"/>
<path id="Vector_7" d="M37.655 12.3967L32.4963 12.9317L31.3412 15.7105L29.4762 12.6105L23.5187 12.0755L27.9638 10.4717L26.63 8.01172L30.7925 9.63922L34.715 8.35422L33.655 10.8992L37.655 12.3967ZM31.0337 25.878L21.4062 21.8842L35.2012 19.7667L31.0337 25.878ZM17.685 13.9405C21.7575 13.9405 25.06 15.2205 25.06 16.7992C25.06 18.378 21.7575 19.658 17.685 19.658C13.6138 19.658 10.3125 18.378 10.3125 16.7992C10.3125 15.2205 13.6125 13.9405 17.685 13.9405Z" fill="white"/>
<path id="Vector_8" d="M51.915 16.3857L43.7563 19.6082L43.75 13.1582L51.915 16.3857Z" fill="#DCDCDC"/>
<path id="Vector_9" d="M43.7512 13.1582L43.7575 19.607L42.8725 19.9545L34.7188 16.7307L43.7512 13.1582Z" fill="#F6F6F6"/>
</g>
</g>
<defs>
<clipPath id="clip0_1249_4312">
<rect width="60" height="60" fill="white" transform="translate(0.320312 0.472656)"/>
</clipPath>
</defs>
</svg>
