<svg width="12" height="11" viewBox="0 0 12 11" fill="none" xmlns="http://www.w3.org/2000/svg">
<path d="M5.21484 1.06787L5.73516 0.547559C5.95547 0.327246 6.31172 0.327246 6.52969 0.547559L11.0859 5.10147C11.3062 5.32178 11.3062 5.67803 11.0859 5.896L6.52969 10.4522C6.30937 10.6726 5.95312 10.6726 5.73516 10.4522L5.21484 9.93193C4.99219 9.70928 4.99687 9.346 5.22422 9.12803L8.04844 6.4374H1.3125C1.00078 6.4374 0.75 6.18662 0.75 5.8749V5.1249C0.75 4.81318 1.00078 4.5624 1.3125 4.5624H8.04844L5.22422 1.87178C4.99453 1.65381 4.98984 1.29053 5.21484 1.06787Z" fill="black"/>
</svg>
