<svg width="70" height="70" viewBox="0 0 70 70" fill="none" xmlns="http://www.w3.org/2000/svg">
<path d="M57.75 48.7083C57.75 48.7083 63 48.1249 63 41.7083C63 35.2916 56.875 34.4166 56.875 34.4166H45.7917V55.4166H51.3334V50.4583L56.2917 55.4166H64.1667L57.75 48.7083ZM55.4167 44.6249H51.0417V39.9583H55.4167C55.4167 39.9583 56.5834 40.5416 56.5834 42.2916C56.875 44.0416 55.4167 44.6249 55.4167 44.6249ZM62.125 23.9166V24.4999C38.5 17.7916 29.1667 38.4999 30.9167 54.5416H12.5417C14.5834 38.7916 34.4167 7.58325 62.125 23.9166ZM59.7917 20.1249C57.75 19.2499 55.7084 18.3749 53.6667 17.7916L53.9584 13.9999L60.0834 16.3333L59.7917 20.1249ZM53.9584 25.3749C56 25.3749 58.0417 25.6666 60.0834 26.2499L59.7917 29.7499L54.5417 29.1666L53.9584 25.3749ZM40.5417 16.9166L39.375 13.4166L45.5 12.8333L46.6667 16.6249C46.0834 16.6249 41.125 16.9166 40.5417 16.9166ZM44.3334 27.7083C45.5 27.1249 47.5417 26.2499 50.1667 25.6666L51.3334 29.1666L46.0834 31.2083L44.3334 27.7083ZM34.4167 18.9583C32.6667 19.8333 30.9167 20.7083 29.1667 21.8749L26.8334 18.0833L32.0834 15.1666L34.4167 18.9583ZM41.7084 29.4583L44.0417 32.9583L40.8334 36.7499L37.625 33.8333C38.5 32.0833 39.9584 30.6249 41.7084 29.4583ZM33.8334 43.7499C34.125 41.4166 34.7084 39.3749 35.5834 37.0416L39.0834 39.9583L38.2084 45.4999L33.8334 43.7499ZM23.0417 27.1249C21.5834 28.5833 20.125 30.3333 18.9584 31.7916L15.1667 28.5833L19.5417 23.9166L23.0417 27.1249ZM14 39.9583C12.8334 42.2916 11.9584 44.6249 11.0834 46.6666L5.83337 44.6249L8.45837 37.9166L14 39.9583ZM33.5417 47.5416L38.7917 49.2916L39.6667 55.1249L33.8334 53.6666C33.8334 53.0833 33.5417 51.0416 33.5417 47.5416Z" fill="#f132e"/>
</svg>
