<svg width="60" height="61" viewBox="0 0 60 61" fill="none" xmlns="http://www.w3.org/2000/svg">
<g id="Icon Set - Travel">
<path id="Vector" d="M51.6521 33.1367C49.5528 33.1492 47.7366 33.654 46.2135 34.4043C45.6498 33.2895 45.0887 32.3175 44.9948 31.5911C44.8895 30.7468 44.7605 30.2308 44.8895 29.2237C45.0173 28.2154 45.6035 26.7863 45.6035 26.6685C45.591 26.5633 45.4745 26.0473 44.2683 26.036C43.0608 26.0235 42.0174 26.2702 41.901 26.5871C41.7832 26.9028 41.549 27.6292 41.3962 28.3795C41.1857 29.4818 38.9825 33.3835 37.7287 35.4351C37.3179 34.6385 36.9659 33.9346 36.8958 33.3722C36.7905 32.528 36.6615 32.0132 36.7905 31.0049C36.9196 29.9966 37.5045 28.5674 37.5045 28.4497C37.4932 28.3444 37.3767 27.8284 36.1693 27.8171C34.9618 27.8046 33.9197 28.0513 33.802 28.3682C33.6855 28.6839 33.5565 29.4342 33.2984 30.1606C33.0517 30.8871 30.122 37.4041 29.3604 39.1039C28.9734 39.9706 28.6339 40.662 28.3872 41.1305C28.1417 41.5989 28.3747 41.1656 28.3521 41.2132L28.0239 41.8344V41.8469C27.8611 42.1388 27.6845 42.4194 27.6018 42.4194C27.543 42.4194 27.4265 41.6353 27.6256 40.5568C28.059 38.2947 29.1137 34.7675 29.1024 34.6385C29.1024 34.5796 29.3015 33.9584 28.4223 33.6415C27.5668 33.3258 27.2624 33.8532 27.1922 33.8532C27.1221 33.8532 27.0632 34.041 27.0632 34.041C27.0632 34.041 28.0127 30.068 25.247 30.068C23.5123 30.068 21.1211 31.9543 19.9362 33.6778C19.1872 34.0874 17.5939 34.9554 15.9055 35.881C15.2617 36.2318 14.5928 36.6075 13.9603 36.947L13.8313 36.8067C10.4795 33.2319 4.27933 30.7005 4.53736 25.8945C4.6313 24.1484 5.24129 19.544 16.4454 13.9639C25.6215 9.39335 32.9703 10.6472 34.2479 13.4378C36.0641 17.4209 30.3211 24.8285 20.7817 25.8945C17.1493 26.3053 15.2379 24.8987 14.7569 24.3714C14.2534 23.8202 14.1833 23.7977 13.9954 23.9029C13.691 24.0657 13.8789 24.5592 13.9954 24.8523C14.2772 25.5913 15.4483 26.9028 17.4411 27.5591C19.1872 28.134 23.4534 28.4497 28.6101 26.4569C34.3881 24.2185 38.8998 18.0071 37.5759 12.8166C36.2281 7.53081 27.4615 5.79603 19.1759 8.73701C14.2409 10.4956 8.89749 13.2374 5.05341 16.836C0.481598 21.1022 -0.244881 24.8285 0.0607412 26.3754C1.12791 31.8954 8.7334 35.494 11.7809 38.1544C11.628 38.2358 11.4878 38.3173 11.3587 38.3887C9.83565 39.1377 4.03383 42.1739 2.58087 45.3854C0.940032 49.0178 2.8389 51.6319 4.10398 51.9838C8.0182 53.0736 12.0264 51.1158 14.1945 47.893C16.3514 44.6702 16.0934 40.4867 15.0964 38.5753L15.0625 38.5051L16.2575 37.8025C17.0316 37.3453 17.7931 36.9232 18.4607 36.5599C18.0849 37.5795 17.8156 38.787 17.6754 40.5443C17.5125 42.6072 18.3555 45.2789 19.469 46.3348C19.9613 46.7908 20.5462 46.8033 20.9094 46.8033C22.1996 46.8033 22.7858 45.7361 23.4296 44.4585C24.2275 42.9003 24.9301 41.0954 24.9301 41.0954C24.9301 41.0954 24.0508 45.9829 26.4532 45.9829C27.3325 45.9829 28.2118 44.8456 28.6101 44.2594V44.2719C28.6101 44.2719 28.6339 44.2368 28.6803 44.1541C28.7304 44.0815 28.7767 44.0076 28.8206 43.9312V43.9086C29.1725 43.2986 29.9579 41.9046 31.1303 39.5949C32.6421 36.6188 34.0951 32.8912 34.0951 32.8912C34.0951 32.8912 34.2353 33.8056 34.6687 35.3061C34.9267 36.1967 35.4891 37.1699 35.9225 38.1194C35.5718 38.6116 35.3601 38.8922 35.3601 38.8922L35.3727 38.9047C35.0908 39.2792 34.7752 39.6775 34.4458 40.0758C33.2508 41.5062 31.8217 43.1346 31.6338 43.6043C31.4108 44.1554 31.4584 44.565 31.8918 44.8931C32.2075 45.1274 32.7711 45.1737 33.3686 45.1274C34.4458 45.0572 35.1973 44.7879 35.5718 44.6239C36.158 44.4122 36.8256 44.0965 37.4707 43.6268C38.6418 42.7601 39.357 41.53 39.2869 39.8892C39.2518 38.9874 38.9587 38.0956 38.5955 37.2513C38.7007 37.0998 38.8059 36.947 38.9124 36.7829C40.7636 34.0761 42.194 31.0988 42.194 31.0988C42.194 31.0988 42.3343 32.0132 42.7677 33.5137C42.9907 34.2753 43.4353 35.107 43.8336 35.9274C42.1001 37.3453 41.0091 38.9861 40.6346 40.0646C39.9432 42.0561 40.4818 42.9592 41.5014 43.1709C41.9586 43.2636 42.6162 43.0532 43.1072 42.8427C43.7172 42.6423 44.4549 42.3041 45.135 41.7993C46.3074 40.9313 47.4322 39.7251 47.3733 38.0956C47.3383 37.3453 47.1391 36.6075 46.8698 35.9036C48.3466 35.2949 50.2567 34.9429 52.6817 35.236C57.8973 35.846 58.9294 39.1039 58.7302 40.4629C58.5298 41.8231 57.4401 42.5722 57.0769 42.8077C56.7136 43.0294 56.5971 43.112 56.6322 43.2761C56.6785 43.5216 56.8426 43.5103 57.1595 43.464C57.5929 43.3926 59.9026 42.3492 59.9953 39.8416C60.1368 36.6188 57.0769 33.1029 51.6508 33.138L51.6521 33.1367ZM11.4276 46.6993C9.70538 48.5857 7.27919 49.3009 6.24709 48.6909C5.13357 48.0471 5.56821 45.2689 7.68878 43.2648C8.9789 42.0461 10.6536 40.9213 11.7558 40.2299C12.0013 40.0771 12.3771 39.8541 12.8217 39.5848C12.8931 39.5385 12.9395 39.5147 12.9395 39.5147C13.0221 39.4683 13.1148 39.4095 13.2088 39.3506C13.9941 42.2102 13.2438 44.7178 11.4276 46.6993ZM24.0258 38.1319C23.4283 39.5974 22.1633 43.3588 21.4017 43.1483C20.7454 42.973 20.3458 40.1247 21.2727 37.3115C21.7411 35.8936 22.7382 34.2051 23.3231 33.5488C24.2725 32.4941 25.3034 32.1434 25.5614 32.5768C25.867 33.1392 24.4016 37.2175 24.0258 38.1319ZM34.422 43.1007C34.1639 43.2298 33.9297 43.3237 33.8245 43.2536C33.7418 43.206 33.9297 43.0306 33.9297 43.0306C33.9297 43.0306 35.2299 41.6365 35.7459 40.9915C36.039 40.6157 36.391 40.1836 36.7655 39.6901V39.8316C36.7655 41.5188 35.1484 42.6436 34.422 43.1007ZM42.4383 41.272C42.2504 41.1317 42.2742 40.6984 42.9067 39.3393C43.1535 38.8007 43.7159 37.8976 44.6879 37.0422C44.8056 37.3929 44.8758 37.7336 44.8632 38.0492C44.852 40.1598 43.3527 40.9439 42.4383 41.272Z" fill="white"/>
</g>
</svg>
