<svg width="61" height="61" viewBox="0 0 61 61" fill="none" xmlns="http://www.w3.org/2000/svg">
<g id="Icon Set - Travel" clipPath="url(#clip0_1249_9726)">
<path id="Vector" d="M30.2041 0.666016C46.7078 0.666016 60.0866 14.046 60.0866 30.5498C60.0866 47.0535 46.7078 60.4335 30.2041 60.4335C13.6991 60.4335 0.320312 47.0535 0.320312 30.5485C0.320312 14.0435 13.6991 0.666016 30.2041 0.666016ZM43.2078 11.7085C40.1753 11.8148 37.5303 13.4848 35.5603 15.796C33.3791 18.331 31.9278 21.3373 30.8828 24.4048C29.0128 22.8723 27.5703 20.8885 24.5703 20.0223C22.2503 19.3573 19.8153 19.6323 17.5753 21.301C16.5128 22.0935 15.7828 23.291 15.4353 24.4173C14.5353 27.3448 16.3816 29.9498 17.2203 30.8848L19.0541 32.8498C19.4316 33.2348 20.3416 34.2398 19.8966 35.681C19.4153 37.2473 17.5266 38.261 15.5903 37.6635C14.7241 37.401 13.4816 36.756 13.7603 35.8473C13.8753 35.476 14.1403 35.1985 14.2828 34.8773C14.4141 34.6023 14.4766 34.3948 14.5166 34.2735C14.8703 33.1185 14.3866 31.6148 13.1491 31.2335C11.9941 30.8785 10.8116 31.1585 10.3541 32.646C9.83531 34.336 10.6428 37.401 14.9728 38.736C20.0453 40.2948 24.3366 37.5323 24.9453 33.9298C25.3291 31.6735 24.3103 29.9973 22.4441 27.8423L20.9228 26.1598C20.0016 25.2385 19.6853 23.671 20.6391 22.4648C21.4428 21.4473 22.5891 21.0148 24.4653 21.5248C27.2053 22.2685 28.4253 24.1685 30.4628 25.701C29.6216 28.461 29.0728 31.231 28.5753 33.7135L28.2716 35.566C26.8153 43.2048 25.7028 47.3998 22.8141 49.8073C22.2316 50.221 21.4003 50.841 20.1453 50.8848C19.4891 50.9048 19.2766 50.4523 19.2666 50.2548C19.2516 49.7935 19.6403 49.5823 19.8991 49.3748C20.2853 49.1635 20.8691 48.8148 20.8291 47.696C20.7866 46.3735 19.6916 45.2273 18.1078 45.2798C16.9228 45.3198 15.1141 46.436 15.1828 48.4798C15.2528 50.5898 17.2203 52.171 20.1853 52.071C21.7703 52.016 25.3103 51.371 28.7991 47.2235C32.8591 42.4698 33.9953 37.0198 34.8491 33.031L35.8028 27.766C36.3328 27.8285 36.8991 27.871 37.5153 27.886C42.5716 27.9923 45.1028 25.3735 45.1403 23.4685C45.1653 22.3148 44.3828 21.181 43.2878 21.206C42.5053 21.2285 41.5216 21.7498 41.2853 22.8323C41.0541 23.8948 42.8941 24.8548 41.4566 25.786C40.4341 26.4473 38.6028 26.9135 36.0241 26.5348L36.4928 23.9423C37.4503 19.0273 38.6303 12.9798 43.1091 12.8335C43.4353 12.8173 44.6303 12.8485 44.6578 13.6373C44.6653 13.901 44.6003 13.9685 44.2916 14.5723C43.9766 15.0435 43.8591 15.4448 43.8728 15.9048C43.9166 17.1598 44.8703 17.9848 46.2516 17.9348C48.0991 17.876 48.6303 16.076 48.6016 15.1523C48.5266 12.981 46.2378 11.6098 43.2078 11.7085Z" fill="white"/>
</g>
<defs>
<clipPath id="clip0_1249_9726">
<rect width="60" height="60" fill="white" transform="translate(0.320312 0.472656)"/>
</clipPath>
</defs>
</svg>
