<svg width="61" height="61" viewBox="0 0 61 61" fill="none" xmlns="http://www.w3.org/2000/svg">
<g id="Icon Set - Travel" clipPath="url(#clip0_1249_306)">
<g id="Group">
<path id="Vector" d="M4.56641 30.3557C4.56641 40.5044 10.4639 49.2732 19.0152 53.4282L6.78641 19.9232C5.31891 23.2057 4.56391 26.7607 4.56641 30.3557ZM47.5089 29.062C47.5089 25.8945 46.3714 23.6995 45.3952 21.992C44.0952 19.8795 42.8777 18.092 42.8777 15.9795C42.8777 13.6245 44.6652 11.4295 47.1827 11.4295C47.2952 11.4295 47.4039 11.4445 47.5152 11.4507C42.9527 7.27195 36.8777 4.7207 30.2027 4.7207C21.2464 4.7207 13.3677 9.3157 8.78391 16.2757C9.38391 16.2945 9.95266 16.307 10.4339 16.307C13.1139 16.307 17.2652 15.982 17.2652 15.982C18.6477 15.8995 18.8102 17.9295 17.4302 18.0932C17.4302 18.0932 16.0414 18.2557 14.4952 18.337L23.8314 46.1057L29.4414 29.2807L25.4477 18.337C24.0664 18.2557 22.7589 18.092 22.7589 18.092C21.3777 18.0107 21.5389 15.8995 22.9214 15.9795C22.9214 15.9795 27.1539 16.3057 29.6739 16.3057C32.3539 16.3057 36.5052 15.9807 36.5052 15.9807C37.8889 15.8995 38.0514 17.9282 36.6702 18.0932C36.6702 18.0932 35.2789 18.2557 33.7364 18.337L43.0002 45.8945L45.5564 37.3494C46.6652 33.8044 47.5089 31.257 47.5089 29.062Z" fill="white"/>
<path id="Vector_2" d="M30.66 32.5972L22.9688 54.9472C25.3187 55.6409 27.7587 55.9922 30.21 55.9922C33.195 55.9922 36.0587 55.4759 38.7225 54.5397C38.6512 54.4272 38.5913 54.3097 38.5413 54.1859L30.66 32.5972ZM52.705 18.0559C52.815 18.8722 52.8775 19.7497 52.8775 20.6922C52.8775 23.2922 52.3912 26.2172 50.9275 29.8747L43.0975 52.5147C50.7187 48.0697 55.845 39.8134 55.845 30.3547C55.8525 26.0559 54.7712 21.8247 52.705 18.0547V18.0559Z" fill="white"/>
<path id="Vector_3" d="M30.2041 0.472656C13.7266 0.472656 0.320312 13.8777 0.320312 30.3552C0.320312 46.8352 13.7266 60.2402 30.2041 60.2402C46.6816 60.2402 60.0891 46.8352 60.0891 30.3552C60.0891 13.8777 46.6828 0.472656 30.2041 0.472656ZM30.2041 58.8702C14.4828 58.8702 1.69156 46.0789 1.69156 30.3552C1.69156 14.6339 14.4816 1.84266 30.2041 1.84266C45.9253 1.84266 58.7166 14.6339 58.7166 30.3552C58.7166 46.0789 45.9253 58.8702 30.2041 58.8702Z" fill="white"/>
</g>
</g>
<defs>
<clipPath id="clip0_1249_306">
<rect width="60" height="60" fill="white" transform="translate(0.320312 0.472656)"/>
</clipPath>
</defs>
</svg>
