<svg width="61" height="61" viewBox="0 0 61 61" fill="none" xmlns="http://www.w3.org/2000/svg">
<g id="Icon Set - Travel" clipPath="url(#clip0_1249_9712)">
<g id="web-development-company">
<g id="Web-development-stack-icon">
<g id="logo_yii">
<g id="Path">
<path id="Vector" d="M52.1699 0.662109C56.4955 2.72853 60.2108 8.15121 60.0245 15.5095C59.4592 24.576 52.4473 32.3897 44.8182 39.5889C44.391 30.8093 42.3548 25.2141 39.1752 17.3461C36.1734 9.41727 44.9496 0.915888 52.1699 0.662109Z" fill="white"/>
<path id="Vector_2" d="M28.7772 39.2808C31.1 36.572 32.7463 34.1598 33.8951 31.9805C41.7649 35.838 39.9079 35.1176 43.7035 39.2276C43.7163 39.3555 43.7284 39.4831 43.7398 39.6102C44.0546 45.3089 39.6205 58.4832 22.16 60.2886C20.9514 51.4362 24.8807 43.8852 28.7772 39.2808Z" fill="#DCDCDC"/>
<path id="Vector_3" d="M0.676428 6.16623C13.1171 1.55089 26.5062 6.27873 34.236 16.1292C34.9839 17.082 35.6929 18.0718 36.3618 19.0904C37.5697 26.319 36.6485 30.3335 34.2976 32.4616C32.7518 31.7303 31.1025 31.0819 29.3418 30.4824C25.2488 29.0883 21.4708 28.1656 16.0757 26.668C3.26457 23.3903 0.105265 13.0917 0.676428 6.16623Z" fill="#DCDCDC"/>
<path id="Vector_4" d="M35.8891 18.3828C35.9707 18.5016 36.0514 18.6196 36.1309 18.7393L36.2291 18.8869C36.4286 19.1875 36.6244 19.4899 36.8174 19.796L36.85 19.8471L36.9019 19.9299L36.9491 20.0064L37.0872 20.2288L37.0967 20.2449L37.284 20.5528L37.2898 20.5617C37.4251 20.7859 37.5586 21.0109 37.69 21.2376L37.7063 21.2664L37.8523 21.5202L37.8563 21.5267L38.0165 21.809L38.0626 21.8919L38.1519 22.0532L38.2612 22.2519L38.367 22.4446C38.4744 22.6443 38.5809 22.8442 38.6856 23.0439L38.7126 23.0934C38.9012 23.4555 39.0851 23.8197 39.2644 24.1859L39.4009 24.4659L39.4142 24.4938L39.5016 24.6756L39.6035 24.8908L39.6609 25.0151L39.7533 25.2139L39.8193 25.3569L39.9586 25.6648L39.9681 25.6864L40.117 26.021L40.1351 26.0616C40.2937 26.4235 40.4472 26.7854 40.596 27.1495L40.6105 27.1831L40.7333 27.4883L40.7409 27.5051L40.8121 27.6852C40.8908 27.8849 40.9686 28.085 41.0453 28.2854L41.0751 28.3639C41.1595 28.5878 41.243 28.813 41.3237 29.037L41.3495 29.108C41.4253 29.3186 41.4984 29.5293 41.5714 29.7399L41.607 29.8434L41.6156 29.8676L41.7307 30.2088L41.7353 30.2241L41.8421 30.5498L41.9486 30.8856L41.9516 30.8928L42.04 31.1762L42.0679 31.2682L42.1214 31.4437C42.1819 31.646 42.2414 31.8477 42.2991 32.0503L42.3423 32.2013L42.4258 32.5L42.4295 32.5146C42.5314 32.8818 42.6272 33.2489 42.7186 33.6152L42.7272 33.6532L42.7367 33.6918C42.8558 34.1751 42.9653 34.6567 43.066 35.1364L43.0758 35.1841C43.2299 35.9217 43.363 36.6629 43.4751 37.4071L43.477 37.4169C43.5116 37.6436 43.5432 37.8695 43.573 38.0956L43.5853 38.1926L43.6258 38.5157L43.6602 38.8155L43.6719 38.9145L43.6967 39.1513L43.7065 39.2465L43.7102 39.2854L43.7409 39.6102C40.9926 36.2919 37.7093 34.0048 33.7695 32.2157C36.9491 26.3226 36.5026 22.1234 35.8891 18.3828Z" fill="white"/>
</g>
</g>
</g>
</g>
</g>
<defs>
<clipPath id="clip0_1249_9712">
<rect width="60" height="60" fill="white" transform="translate(0.320312 0.472656)"/>
</clipPath>
</defs>
</svg>
