<svg width="230" height="63" viewBox="0 0 230 63" fill="none" xmlns="http://www.w3.org/2000/svg">
<path d="M132.665 54.8193V55.2402H134.627V56.5585H132.719V62.2223H131.051V56.5534H129.875V55.2351H131.051V54.7864C131.051 53.3108 131.945 52.35 133.6 52.35C134.13 52.3266 134.656 52.4599 135.11 52.7328L134.643 53.97C134.372 53.7843 134.05 53.6835 133.72 53.681C133.027 53.681 132.665 54.0587 132.665 54.8193Z" fill="black"/>
<path d="M142.65 55.1819V62.2172H141.062V61.3223C140.778 61.6453 140.425 61.9017 140.027 62.0728C139.63 62.2438 139.199 62.3252 138.766 62.311C136.937 62.311 135.684 61.3223 135.684 59.2003V55.1819H137.353V58.9848C137.353 60.2524 137.967 60.8685 139.023 60.8685C140.184 60.8685 140.973 60.1586 140.973 58.7464V55.1971L142.65 55.1819Z" fill="black"/>
<path d="M149.127 61.8369C148.66 62.1621 148.098 62.3285 147.527 62.311C145.962 62.311 145.068 61.4947 145.068 59.938V56.5534H143.895V55.2351H145.068V53.6277H146.738V55.2351H148.647V56.5534H146.738V59.8899C146.738 60.5744 147.085 60.9445 147.727 60.9445C148.062 60.9535 148.391 60.8508 148.659 60.653L149.127 61.8369Z" fill="black"/>
<path d="M157.405 55.1819V62.2173H155.815V61.3223C155.531 61.6455 155.178 61.902 154.78 62.0731C154.383 62.2441 153.952 62.3254 153.519 62.3111C151.69 62.3111 150.449 61.3223 150.449 59.2003V55.1819H152.119V58.9848C152.119 60.2524 152.733 60.8685 153.786 60.8685C154.947 60.8685 155.736 60.1586 155.736 58.7465V55.1971L157.405 55.1819Z" fill="black"/>
<path d="M163.72 55.1033V56.6701C163.593 56.6462 163.464 56.6335 163.335 56.632C162.066 56.632 161.265 57.3698 161.265 58.8048V62.2172H159.598V55.1819H161.185V56.2112C161.665 55.4734 162.534 55.1033 163.72 55.1033Z" fill="black"/>
<path d="M171.744 59.2281H166.151C166.352 60.2549 167.217 60.9141 168.463 60.9141C168.822 60.9285 169.179 60.8683 169.513 60.7372C169.846 60.6062 170.147 60.4073 170.398 60.1535L171.294 61.1676C170.652 61.9282 169.65 62.3135 168.422 62.3135C166.033 62.3135 164.484 60.7924 164.484 58.7033C164.484 56.6143 166.046 55.1058 168.168 55.1058C170.29 55.1058 171.764 56.5407 171.764 58.7413C171.772 58.8757 171.756 59.0684 171.744 59.2281ZM166.136 58.1329H170.182C170.13 57.6477 169.892 57.2004 169.518 56.8824C169.143 56.5643 168.659 56.3995 168.165 56.4216C167.671 56.4035 167.188 56.5694 166.812 56.8864C166.436 57.2034 166.195 57.6484 166.136 58.1329Z" fill="black"/>
<path d="M178.901 54.8193V55.2402H180.863V56.5585H178.955V62.2223H177.288V56.5534H176.111V55.2351H177.288V54.7864C177.288 53.3108 178.182 52.35 179.836 52.35C180.367 52.3266 180.893 52.4599 181.346 52.7328L180.879 53.97C180.608 53.7843 180.287 53.6835 179.957 53.681C179.263 53.681 178.901 54.0587 178.901 54.8193Z" fill="black"/>
<path d="M181.293 58.7008C181.293 56.5915 182.896 55.1033 185.084 55.1033C187.273 55.1033 188.889 56.5915 188.889 58.7008C188.889 60.8102 187.301 62.311 185.084 62.311C182.868 62.311 181.293 60.8076 181.293 58.7008ZM187.201 58.7008C187.201 57.3571 186.294 56.5002 185.079 56.5002C183.864 56.5002 182.97 57.3571 182.97 58.7008C182.97 60.0445 183.877 60.9014 185.079 60.9014C186.281 60.9014 187.206 60.0445 187.206 58.7008H187.201Z" fill="black"/>
<path d="M194.616 55.1033V56.6701C194.489 56.6461 194.359 56.6334 194.229 56.632C192.962 56.632 192.174 57.3698 192.174 58.8048V62.2172H190.504V55.1819H192.094V56.2112C192.561 55.4734 193.425 55.1033 194.616 55.1033Z" fill="black"/>
<path d="M207.419 55.1819L204.791 62.2172H203.185L201.344 57.3698L199.474 62.2172H197.871L195.256 55.1819H196.83L198.713 60.3741L200.676 55.1819H202.078L204.002 60.3969L205.939 55.1793L207.419 55.1819Z" fill="black"/>
<path d="M214.312 58.0949V62.2172H212.737V61.3629C212.336 61.9688 211.561 62.3111 210.492 62.3111C208.863 62.3111 207.836 61.4288 207.836 60.2017C207.836 59.0304 208.637 58.1076 210.8 58.1076H212.642V58.0011C212.642 57.0402 212.054 56.4799 210.867 56.4799C210.088 56.4697 209.327 56.7149 208.704 57.1771L208.049 55.978C208.82 55.3974 209.919 55.1084 211.067 55.1084C213.122 55.1033 214.312 56.0642 214.312 58.0949ZM212.642 60.0192V59.2003H210.921C209.786 59.2003 209.477 59.6237 209.477 60.1358C209.477 60.729 209.991 61.1119 210.841 61.1119C211.663 61.1119 212.362 60.7417 212.642 60.0192Z" fill="black"/>
<path d="M220.573 55.1033V56.6701C220.445 56.6462 220.315 56.6335 220.185 56.632C218.916 56.632 218.114 57.3698 218.114 58.8048V62.2172H216.447V55.1819H218.035V56.2112C218.515 55.4734 219.383 55.1033 220.573 55.1033Z" fill="black"/>
<path d="M228.904 52.4412V62.2172H227.301V61.3096C227.011 61.6449 226.648 61.9105 226.238 62.0862C225.829 62.2619 225.384 62.3432 224.938 62.3237C222.883 62.3237 221.342 60.9014 221.342 58.7135C221.342 56.5255 222.883 55.1159 224.938 55.1159C225.368 55.0974 225.797 55.1728 226.194 55.3367C226.591 55.5006 226.946 55.749 227.234 56.0641V52.4412H228.904ZM227.263 58.7008C227.263 57.3571 226.341 56.5002 225.138 56.5002C223.936 56.5002 223.017 57.3571 223.017 58.7008C223.017 60.0445 223.939 60.9014 225.138 60.9014C226.338 60.9014 227.263 60.0445 227.263 58.7008Z" fill="black"/>
<path d="M223.89 0.311035H223.618C220.47 0.311035 217.918 2.82921 217.918 5.93553C217.918 9.04185 220.47 11.56 223.618 11.56H223.89C227.038 11.56 229.59 9.04185 229.59 5.93553C229.59 2.82921 227.038 0.311035 223.89 0.311035Z" fill="black"/>
<path d="M29.8613 7.15625H37.2618V43.976H11.2304C9.75924 43.9853 8.3007 43.7074 6.93875 43.1583C5.57679 42.6092 4.3383 41.7997 3.29454 40.7764C2.25079 39.753 1.42237 38.5361 0.856957 37.1955C0.291547 35.855 0.000308114 34.4173 0 32.9653L0 25.5369C0.00471459 24.0861 0.298957 22.6504 0.865923 21.3119C1.43289 19.9733 2.26147 18.7581 3.30435 17.7356C4.34722 16.7131 5.58396 15.9035 6.94393 15.3528C8.3039 14.8021 9.76046 14.5213 11.2304 14.5263H29.8613V7.15625ZM29.8613 21.909H11.2304C10.7444 21.9053 10.2623 21.9963 9.81193 22.1767C9.36154 22.3571 8.95163 22.6235 8.60566 22.9605C8.25969 23.2975 7.98446 23.6985 7.79573 24.1406C7.607 24.5827 7.50847 25.0572 7.50578 25.5369V32.9653C7.50713 33.941 7.89957 34.8766 8.59741 35.5677C9.29526 36.2589 10.2418 36.6494 11.2304 36.6541H29.8613V21.909Z" fill="black"/>
<path d="M71.3067 14.4071H78.7302V44.0393C78.7302 50.0682 73.729 55.3923 67.6206 55.3923H41.8692V48.0653H67.6206C69.6755 48.0653 71.3067 46.0675 71.3067 44.0393H52.8787C51.4319 44.0454 49.9981 43.7687 48.6601 43.2252C47.3221 42.6817 46.1064 41.8823 45.0829 40.8728C44.0595 39.8634 43.2486 38.6641 42.697 37.3439C42.1455 36.0237 41.8641 34.6088 41.8692 33.1808V14.4071H49.1875V33.1808C49.1988 34.143 49.5915 35.0627 50.2815 35.7427C50.9714 36.4227 51.9037 36.809 52.8787 36.8189H71.3067V14.4071Z" fill="black"/>
<path d="M94.607 14.4147H122.953C125.925 14.4181 128.775 15.5847 130.876 17.6588C132.978 19.7329 134.161 22.5451 134.165 25.4786V32.9425C134.168 34.3963 133.879 35.8362 133.316 37.1798C132.754 38.5234 131.928 39.7441 130.886 40.772C129.845 41.7998 128.608 42.6147 127.246 43.1697C125.885 43.7247 124.426 44.0091 122.953 44.0064H94.607C93.1339 44.0094 91.6747 43.7253 90.3132 43.1704C88.9516 42.6155 87.7145 41.8007 86.6727 40.7727C85.631 39.7448 84.8051 38.5239 84.2426 37.1802C83.68 35.8365 83.3918 34.3964 83.3946 32.9425V25.4786C83.3986 22.5451 84.5813 19.7329 86.6833 17.6588C88.7852 15.5847 91.6347 14.4181 94.607 14.4147ZM90.8695 25.4786V32.9425C90.8795 33.9192 91.2759 34.8533 91.9743 35.5454C92.6726 36.2375 93.6174 36.6327 94.607 36.6465H122.953C123.945 36.6412 124.895 36.2487 125.595 35.5548C126.295 34.8609 126.689 33.9218 126.69 32.9425V25.4786C126.689 24.9963 126.591 24.5189 126.402 24.0739C126.214 23.629 125.938 23.2252 125.59 22.8857C125.243 22.5463 124.831 22.2779 124.379 22.0959C123.926 21.9139 123.441 21.822 122.953 21.8253H94.607C93.6226 21.8273 92.6785 22.2117 91.979 22.8954C91.2796 23.5791 90.881 24.5071 90.8695 25.4786Z" fill="url(#paint0_linear_687_6383)"/>
<path d="M138.453 14.4147H166.804C169.775 14.4194 172.623 15.5867 174.724 17.6606C176.825 19.7346 178.007 22.546 178.011 25.4786V32.9425C178.013 34.3963 177.725 35.8362 177.162 37.1798C176.599 38.5234 175.774 39.7441 174.732 40.772C173.69 41.7998 172.453 42.6147 171.092 43.1697C169.73 43.7247 168.271 44.0091 166.798 44.0064H138.453C136.98 44.0091 135.521 43.7247 134.159 43.1697C132.798 42.6147 131.561 41.7998 130.519 40.772C129.477 39.7441 128.652 38.5234 128.089 37.1798C127.526 35.8362 127.238 34.3963 127.24 32.9425V25.4786C127.244 22.5451 128.427 19.7329 130.529 17.6588C132.631 15.5847 135.48 14.4181 138.453 14.4147ZM134.72 25.4786V32.9425C134.73 33.9183 135.126 34.8517 135.823 35.5437C136.521 36.2356 137.464 36.6313 138.453 36.6465H166.804C167.796 36.6418 168.746 36.2496 169.447 35.5555C170.147 34.8615 170.54 33.922 170.541 32.9425V25.4786C170.54 24.9962 170.442 24.5187 170.254 24.0735C170.065 23.6284 169.789 23.2245 169.442 22.885C169.095 22.5455 168.683 22.2771 168.23 22.0952C167.777 21.9134 167.292 21.8216 166.804 21.8253H138.453C137.469 21.8286 136.526 22.2136 135.828 22.8971C135.13 23.5807 134.732 24.508 134.72 25.4786Z" fill="url(#paint1_linear_687_6383)"/>
<path d="M190.203 14.4147H208.184V21.6884H190.203V33.1681C190.202 34.1344 190.59 35.0614 191.281 35.7459C191.972 36.4303 192.91 36.8162 193.889 36.8189H208.186V44.0419H193.889C192.437 44.0502 190.997 43.7758 189.652 43.2342C188.307 42.6926 187.084 41.8945 186.052 40.8857C185.02 39.8768 184.2 38.677 183.638 37.3549C183.076 36.0328 182.785 34.6144 182.779 33.1808V7.57458H190.203V14.4147Z" fill="black"/>
<path d="M218.941 14.4147H212.854V21.6884H218.941C219.91 21.6883 220.84 22.0647 221.53 22.736C222.22 23.4074 222.614 24.3198 222.627 25.2758V44.0368H230V25.2758C229.989 22.3894 228.819 19.625 226.745 17.5889C224.672 15.5529 221.866 14.4114 218.941 14.4147Z" fill="black"/>
<defs>
<linearGradient id="paint0_linear_687_6383" x1="82.1667" y1="29.2106" x2="178.034" y2="29.2106" gradientUnits="userSpaceOnUse">
<stop stop-color="#00FF5B"/>
<stop offset="1" stop-color="#0014FF"/>
</linearGradient>
<linearGradient id="paint1_linear_687_6383" x1="82.1645" y1="29.2106" x2="178.031" y2="29.2106" gradientUnits="userSpaceOnUse">
<stop stop-color="#00FF5B"/>
<stop offset="1" stop-color="#0014FF"/>
</linearGradient>
</defs>
</svg>
