<svg width="230" height="47" viewBox="0 0 230 47" fill="none" xmlns="http://www.w3.org/2000/svg">
<g style="mix-blend-mode:luminosity" clipPath="url(#clip0_659_11133)">
<path d="M101.998 0.427368V36.7136H109.795V45.2931H91.4986V38.2938C90.2412 40.632 88.4261 42.646 86.204 44.1686C83.9921 45.6615 81.0996 46.311 77.5365 46.311C75.5301 46.3153 73.5395 45.9672 71.6614 45.2834C69.9315 44.6294 68.3579 43.6397 67.0374 42.3751C65.6791 41.1606 64.6247 39.662 63.9547 37.9932C63.1972 36.2222 62.8356 34.3158 62.8938 32.3995C62.8828 30.6503 63.2312 28.9163 63.9185 27.2986C64.6058 25.6809 65.6183 24.2117 66.8972 22.9766C69.3994 20.456 73.0626 18.8758 77.6866 18.4008H78.167L90.9782 17.3732C91.1684 17.189 91.3585 17.0921 91.5587 16.9079V8.90029H66.7571V0.407979H102.008L101.998 0.427368ZM222.192 0.311035V36.6166H229.989V45.1962H211.603V38.1968C210.346 40.535 208.531 42.549 206.308 44.0716C204.097 45.5646 201.204 46.2141 197.641 46.2141C195.635 46.2184 193.644 45.8702 191.766 45.1865C190.036 44.5325 188.462 43.5428 187.142 42.2782C185.783 41.0637 184.729 39.565 184.059 37.8963C183.35 36.1117 182.99 34.2148 182.998 32.3026C182.981 30.5567 183.321 28.8248 184 27.2073C184.678 25.5898 185.682 24.1188 186.952 22.8796C189.454 20.3591 193.117 18.7789 197.741 18.3039H198.221L211.033 17.2763C211.223 17.0921 211.413 16.9951 211.613 16.8109V8.80334H186.862V0.311035H222.192ZM32.5574 0.427368V45.3028H21.1875V0.427368H32.5574ZM61.7428 0.427368L45.1784 20.6693L63.194 45.3028H50.5731L32.7576 20.6693L48.261 0.427368H61.7428ZM139.761 0.427368V9.03601H125.218V45.2931H113.848V0.427368H139.761ZM179.345 0.427368V8.91968L155.324 36.7233H179.986V45.3028H141.752V36.7233L165.583 8.91968H143.434V0.427368H179.345ZM90.8281 25.7977L77.1562 26.9125C76.8017 26.9238 76.453 27.0027 76.1301 27.1449C75.8072 27.2871 75.5165 27.4897 75.2747 27.741C75.0329 27.9924 74.8447 28.2875 74.721 28.6095C74.5973 28.9315 74.5405 29.2739 74.5539 29.6173V33.6307C74.5455 34.2544 74.7221 34.8673 75.0627 35.3966C75.4034 35.9259 75.8937 36.3494 76.4756 36.6166C78.0018 37.3444 79.6895 37.6973 81.3899 37.6442C82.6905 37.6952 83.9854 37.4518 85.172 36.9335C86.3586 36.4152 87.4042 35.6362 88.2258 34.6583C89.862 32.7088 90.7467 30.2684 90.728 27.7559V25.817L90.8281 25.7977ZM211.033 25.7007L197.361 26.8156C197.006 26.8268 196.657 26.9058 196.335 27.048C196.012 27.1902 195.721 27.3927 195.479 27.6441C195.237 27.8954 195.049 28.1906 194.926 28.5125C194.802 28.8345 194.745 29.177 194.758 29.5203V33.5338C194.75 34.1575 194.927 34.7704 195.267 35.2997C195.608 35.829 196.098 36.2524 196.68 36.5197C198.206 37.2475 199.894 37.6004 201.594 37.5473C202.895 37.5982 204.19 37.3549 205.377 36.8366C206.563 36.3183 207.609 35.5393 208.43 34.5614C210.067 32.6118 210.951 30.1714 210.932 27.659V25.7201L211.033 25.7007Z" fill="#212122"/>
<path d="M13.1014 13.0204V0.427368H0V13.1174H13.1014V13.0204ZM13.1014 45.3028V32.6128H0V45.3028H13.1014Z" fill="#2C56A1"/>
</g>
<defs>
<clipPath id="clip0_659_11133">
<rect width="230" height="46" fill="white" transform="translate(0 0.311035)"/>
</clipPath>
</defs>
</svg>
