<svg width="230" height="47" viewBox="0 0 230 47" fill="none" xmlns="http://www.w3.org/2000/svg">
<g style="mix-blend-mode:luminosity">
<path d="M19.6524 13.6731C18.6467 14.8668 14.1871 20.3234 13.1814 21.5169C11.9135 23.0516 11.9135 25.5242 13.1814 27.0589C14.4494 28.5936 16.4607 28.5936 17.7286 27.0589C18.7343 25.8652 23.1939 20.4086 24.1996 19.2149C25.4676 17.6802 25.4676 15.2077 24.1996 13.6731C22.9317 12.1384 20.9203 12.1384 19.6524 13.6731Z" fill="#4B74B2"/>
<path fill-rule="evenodd" clip-rule="evenodd" d="M41.6856 24.6942L41.6938 24.7044C41.9554 25.0231 42.1177 25.3905 42.1177 25.8354C42.1177 26.2534 42.0186 26.7094 41.6668 27.0524C41.3151 27.3954 40.8474 27.4921 40.4187 27.4921C39.8795 27.4921 39.4381 27.2601 39.1105 26.9406L39.0917 26.9223L30.412 17.1449H30.4577L21.8892 7.46402L10.9481 20.2412L8.80443 22.7579L5.2673 26.8878C4.97706 27.2384 4.56024 27.4921 3.99746 27.4921C3.53406 27.4921 3.05109 27.3786 2.68919 27.0258C2.32729 26.6729 2.21094 26.202 2.21094 25.7502C2.21094 25.3514 2.37045 24.9906 2.57699 24.7221L2.5884 24.7073L20.4903 3.77831C21.1904 2.95997 22.4764 2.94999 23.1896 3.75738L41.6856 24.6942Z" fill="#4B74B2"/>
<path d="M23.3272 11.4681C23.2836 11.4255 23.1961 11.3829 23.1523 11.3829C23.1961 11.3829 23.2398 11.4255 23.3272 11.4681Z" fill="#D02630"/>
<path d="M28.3928 28.2106C27.562 28.2106 26.7314 27.8269 26.1192 27.0596C25.5071 26.2923 23.5833 23.9477 21.9219 21.9867C22.9274 20.7504 23.802 19.6847 24.1955 19.2157C24.8075 18.4484 25.1574 17.4679 25.1574 16.4448C25.1574 15.4643 24.8513 14.4412 24.1955 13.6739C25.201 14.8676 29.6608 20.3242 30.6664 21.5178C31.9344 23.0524 31.9344 25.5249 30.6664 27.0596C30.0543 27.8269 29.2235 28.2106 28.3928 28.2106Z" fill="#D02630"/>
<path d="M25.1574 15.0073C25.1574 14.0268 24.8513 13.0037 24.1955 12.2364C24.8075 13.0037 25.1574 13.9842 25.1574 15.0073Z" fill="#60333C"/>
<path d="M19.6502 19.2159C20.0437 19.6848 20.9181 20.7506 21.9238 21.9868C22.9294 20.7506 23.8039 19.6848 24.1974 19.2159C25.4653 17.6812 25.4653 15.2087 24.1974 13.674C23.8913 13.2903 23.5415 12.9919 23.148 12.8214C21.9674 12.2672 20.6121 12.523 19.6502 13.674C18.3822 15.2087 18.3822 17.6812 19.6502 19.2159Z" fill="#62343C"/>
<path fill-rule="evenodd" clip-rule="evenodd" d="M47.1904 21.9707L47.1949 21.974C49.7599 23.8295 52.9225 24.774 56.637 24.774C58.8691 24.774 60.9603 24.4048 62.9193 23.6328L62.9318 23.6277C64.7855 22.9356 66.2874 21.9582 67.4865 20.7337V20.5417H56.637C56.2077 20.5417 55.7425 20.445 55.3847 20.1186C55.0177 19.784 54.8943 19.3279 54.8943 18.8851C54.8943 18.4428 55.0169 17.9883 55.367 17.6469C55.7173 17.3053 56.1835 17.1859 56.637 17.1859H69.1154C70.0925 17.1859 70.8846 17.9582 70.8846 18.9109V25.9617C70.8846 26.3797 70.7854 26.8356 70.4338 27.1786C70.082 27.5216 69.6143 27.6182 69.1856 27.6182C68.7563 27.6182 68.2909 27.5216 67.9333 27.1953C67.5662 26.8605 67.4428 26.4045 67.4428 25.9617V25.1817C64.3852 27.2213 60.7676 28.2151 56.5934 28.2151C52.0818 28.2151 48.1601 27.0248 44.9116 24.6164C41.5632 22.1562 39.8535 19.0565 39.8535 15.4321C39.8535 11.8077 41.5632 8.70798 44.9116 6.24782C48.1601 3.83937 52.0818 2.64908 56.5934 2.64908C59.3513 2.64908 61.9401 3.13444 64.3526 4.11079C66.7569 5.08387 68.7725 6.46172 70.3388 8.20805C70.6476 8.51911 70.7972 8.91146 70.7972 9.33601C70.7972 9.7783 70.6747 10.2328 70.3244 10.5743C69.9742 10.9158 69.508 11.0353 69.0544 11.0353C68.5336 11.0353 68.0645 10.8158 67.7484 10.44C66.5177 9.08357 64.9557 7.99964 63.0067 7.23144C61.0415 6.4569 58.9058 6.04756 56.637 6.04756C52.9225 6.04756 49.7599 6.99202 47.1949 8.84749C44.629 10.7037 43.383 12.8933 43.383 15.4321C43.383 17.9315 44.5881 20.1182 47.1904 21.9707Z" fill="#4B74B2"/>
<path fill-rule="evenodd" clip-rule="evenodd" d="M77.5472 4.15869C77.8975 4.50018 78.02 4.95467 78.02 5.39695V26.4134C78.02 26.8563 77.8966 27.3123 77.5295 27.6471C77.1718 27.9734 76.7065 28.07 76.2772 28.07C75.8484 28.07 75.3808 27.9734 75.029 27.6304C74.6774 27.2874 74.5781 26.8315 74.5781 26.4134V5.39695C74.5781 4.94513 74.6945 4.4849 75.0454 4.1427C75.3964 3.8005 75.8574 3.69772 76.2772 3.69772C76.7308 3.69772 77.1969 3.81719 77.5472 4.15869Z" fill="#4B74B2"/>
<path fill-rule="evenodd" clip-rule="evenodd" d="M83.5095 27.6609C82.5324 27.6609 81.7402 26.8885 81.7402 25.9359V4.98775C81.7402 4.54546 81.8628 4.09097 82.2131 3.74948C82.5632 3.40798 83.0294 3.28851 83.4831 3.28851C83.9367 3.28851 84.4028 3.40798 84.7531 3.74948C85.1034 4.09097 85.2259 4.54546 85.2259 4.98775V24.3051H105.519C105.983 24.3051 106.461 24.4186 106.814 24.7744C107.163 25.1257 107.262 25.5859 107.262 26.0043C107.262 26.4471 107.139 26.9031 106.772 27.2379C106.414 27.5642 105.949 27.6609 105.519 27.6609H83.5095Z" fill="#4B74B2"/>
<path fill-rule="evenodd" clip-rule="evenodd" d="M113.352 3.74948C113.702 4.09097 113.825 4.54546 113.825 4.98775V26.0043C113.825 26.4471 113.701 26.9031 113.334 27.2379C112.977 27.5642 112.511 27.6609 112.082 27.6609C111.653 27.6609 111.185 27.5642 110.834 27.2212C110.482 26.8783 110.383 26.4224 110.383 26.0043V4.98775C110.383 4.55961 110.476 4.09361 110.825 3.74217C111.179 3.38534 111.653 3.28851 112.082 3.28851C112.536 3.28851 113.002 3.40798 113.352 3.74948Z" fill="#4B74B2"/>
<path d="M124.275 23.1263L124.271 23.1242C121.652 21.8685 120.498 20.3857 120.498 18.8C120.498 18.4189 120.393 18.0692 120.133 17.8158C119.873 17.5625 119.514 17.4601 119.124 17.4601C118.741 17.4601 118.387 17.5475 118.116 17.788C117.847 18.0268 117.715 18.3668 117.665 18.7555L117.662 18.7776V18.8C117.662 21.4074 119.27 23.5098 122.307 25.2078C125.35 26.9092 129.046 27.7279 133.421 27.7279C137.729 27.7279 141.27 27.257 144.032 26.3452C147.363 25.2623 149.18 23.5543 149.18 21.1873C149.18 20.0015 148.816 18.9591 148.067 18.0849C147.324 17.2166 146.222 16.5364 144.783 16.0321C143.167 15.4633 140.071 14.8627 135.481 14.2661C135.481 14.2661 135.482 14.2661 135.481 14.2661L131.942 13.7975C131.942 13.7974 131.943 13.7975 131.942 13.7975C127.613 13.2005 124.76 12.6501 123.399 12.1941C121.341 11.4831 120.498 10.5457 120.498 9.46404C120.498 8.98272 120.739 8.51078 121.311 8.04539C121.889 7.57486 122.78 7.13405 124.006 6.73562C126.446 5.9427 129.594 5.56042 133.509 5.56042C137.093 5.56042 140.137 6.19179 142.742 7.4824L142.746 7.48452C145.365 8.74017 146.519 10.223 146.519 11.8087C146.519 12.1897 146.624 12.5395 146.884 12.7928C147.144 13.0462 147.502 13.1485 147.893 13.1485C148.284 13.1485 148.643 13.0462 148.903 12.7928C149.162 12.5395 149.267 12.1897 149.267 11.8087C149.267 9.20125 147.66 7.09883 144.623 5.40087C141.58 3.69943 137.884 2.88071 133.509 2.88071C129.2 2.88071 125.659 3.35175 122.898 4.26358C119.566 5.34649 117.75 7.05443 117.75 9.4214C117.75 10.6137 118.141 11.6476 118.924 12.515C119.7 13.3748 120.843 14.0524 122.321 14.5763L122.323 14.5773C123.719 15.0599 126.86 15.6608 131.573 16.3417C131.573 16.3417 131.574 16.3417 131.573 16.3417L133.278 16.5973L133.282 16.5979L135.118 16.8538L135.119 16.8539C139.545 17.4521 142.39 17.9597 143.789 18.4556C145.662 19.1199 146.476 20.0108 146.476 21.1446C146.476 21.6302 146.241 22.1022 145.682 22.5653C145.115 23.0345 144.236 23.4748 143.011 23.8731C140.571 24.666 137.424 25.0483 133.509 25.0483C129.924 25.0483 126.88 24.4169 124.275 23.1263Z" fill="#4B74B2"/>
<path d="M135.481 14.2661C140.071 14.8627 143.167 15.4633 144.783 16.0321C146.222 16.5364 147.324 17.2166 148.067 18.0849C148.816 18.9591 149.18 20.0015 149.18 21.1873C149.18 23.5543 147.363 25.2623 144.032 26.3452C141.27 27.257 137.729 27.7279 133.421 27.7279C129.046 27.7279 125.35 26.9092 122.307 25.2078C119.27 23.5098 117.662 21.4074 117.662 18.8V18.7776L117.665 18.7555C117.715 18.3668 117.847 18.0268 118.116 17.788C118.387 17.5475 118.741 17.4601 119.124 17.4601C119.514 17.4601 119.873 17.5625 120.133 17.8158C120.393 18.0692 120.498 18.4189 120.498 18.8C120.498 20.3857 121.652 21.8685 124.271 23.1242L124.275 23.1263C126.88 24.4169 129.924 25.0483 133.509 25.0483C137.424 25.0483 140.571 24.666 143.011 23.8731C144.236 23.4748 145.115 23.0345 145.682 22.5653C146.241 22.1022 146.476 21.6302 146.476 21.1446C146.476 20.0108 145.662 19.1199 143.789 18.4556C142.39 17.9597 139.545 17.4521 135.119 16.8539L135.118 16.8538L133.282 16.5979L133.278 16.5973L131.573 16.3417M135.481 14.2661C135.481 14.2661 135.482 14.2661 135.481 14.2661ZM135.481 14.2661L131.942 13.7975M131.942 13.7975C131.942 13.7974 131.943 13.7975 131.942 13.7975ZM131.942 13.7975C127.613 13.2005 124.76 12.6501 123.399 12.1941C121.341 11.4831 120.498 10.5457 120.498 9.46404C120.498 8.98272 120.739 8.51078 121.311 8.04539C121.889 7.57486 122.78 7.13405 124.006 6.73562C126.446 5.9427 129.594 5.56042 133.509 5.56042C137.093 5.56042 140.137 6.19179 142.742 7.4824L142.746 7.48452C145.365 8.74017 146.519 10.223 146.519 11.8087C146.519 12.1897 146.624 12.5395 146.884 12.7928C147.144 13.0462 147.502 13.1485 147.893 13.1485C148.284 13.1485 148.643 13.0462 148.903 12.7928C149.162 12.5395 149.267 12.1897 149.267 11.8087C149.267 9.20125 147.66 7.09883 144.623 5.40087C141.58 3.69943 137.884 2.88071 133.509 2.88071C129.2 2.88071 125.659 3.35175 122.898 4.26358C119.566 5.34649 117.75 7.05443 117.75 9.4214C117.75 10.6137 118.141 11.6476 118.924 12.515C119.7 13.3748 120.843 14.0524 122.321 14.5763L122.323 14.5773C123.719 15.0599 126.86 15.6608 131.573 16.3417M131.573 16.3417C131.574 16.3417 131.573 16.3417 131.573 16.3417Z" stroke="#4B74B2" stroke-width="0.5"/>
<path fill-rule="evenodd" clip-rule="evenodd" d="M156.025 3.74948C156.375 4.09097 156.498 4.54546 156.498 4.98775V26.0043C156.498 26.4471 156.374 26.9031 156.007 27.2379C155.65 27.5642 155.184 27.6609 154.755 27.6609C154.326 27.6609 153.859 27.5642 153.506 27.2212C153.155 26.8783 153.057 26.4224 153.057 26.0043V4.98775C153.057 4.53592 153.172 4.07569 153.523 3.73349C153.875 3.39129 154.335 3.28851 154.755 3.28851C155.209 3.28851 155.675 3.40798 156.025 3.74948Z" fill="#4B74B2"/>
<path fill-rule="evenodd" clip-rule="evenodd" d="M168.64 23.7904L168.644 23.7919C170.768 24.5221 173.386 24.8592 176.575 24.8592C179.752 24.8592 182.381 24.4823 184.516 23.7886C186.161 23.2399 187.32 22.5208 188.066 21.6691C188.8 20.8296 189.173 19.816 189.173 18.5867V4.98775C189.173 4.54546 189.296 4.09097 189.647 3.74948C189.996 3.40798 190.464 3.28851 190.916 3.28851C191.37 3.28851 191.836 3.40798 192.187 3.74948C192.536 4.09097 192.659 4.54546 192.659 4.98775V18.5867C192.659 20.3594 192.184 21.9256 191.218 23.2591C190.256 24.5867 188.839 25.6392 187.025 26.4452L187.022 26.4465C184.273 27.6527 180.75 28.2578 176.532 28.2578C172.357 28.2578 168.835 27.6526 166.085 26.4465C164.246 25.6399 162.819 24.5762 161.851 23.2436C160.881 21.9056 160.404 20.3396 160.404 18.5867V4.943L160.41 4.8986C160.466 4.46248 160.621 4.02755 160.979 3.70989C161.342 3.38858 161.798 3.28851 162.234 3.28851C162.688 3.28851 163.154 3.40798 163.505 3.74948C163.854 4.09097 163.977 4.54546 163.977 4.98775V18.5867C163.977 19.8116 164.359 20.8256 165.1 21.6674C165.852 22.522 167.015 23.2417 168.64 23.7904Z" fill="#4B74B2"/>
<path fill-rule="evenodd" clip-rule="evenodd" d="M224.696 4.11813C225.666 2.69732 227.938 3.36723 227.938 5.07435V26.0048C227.938 26.4228 227.838 26.8788 227.487 27.2216C227.135 27.5646 226.667 27.6613 226.238 27.6613C225.809 27.6613 225.345 27.5646 224.987 27.2383C224.62 26.9035 224.496 26.4475 224.496 26.0048V10.521L213.326 26.8933C212.626 27.9184 211.082 27.9195 210.382 26.8954L199.168 10.5145V25.9621C199.168 26.3801 199.069 26.8361 198.718 27.1791C198.366 27.522 197.898 27.6186 197.469 27.6186C197.04 27.6186 196.574 27.522 196.218 27.1957C195.85 26.8609 195.727 26.405 195.727 25.9621V5.0665C195.727 3.36055 197.996 2.68978 198.967 4.10838L211.853 22.9189L224.696 4.11813Z" fill="#4B74B2"/>
<path d="M35.8258 44.8629C36.5065 44.8629 37.0988 44.6859 37.5243 44.3576C37.9527 44.0268 38.2032 43.5484 38.2032 42.9713C38.2032 42.51 38.0368 42.0894 37.7128 41.7675C37.4884 41.5447 37.1928 41.3736 36.8341 41.2674C37.1033 41.1355 37.3195 40.9647 37.4827 40.7639C37.735 40.4535 37.8533 40.08 37.8533 39.6889C37.8533 39.0887 37.5905 38.6197 37.1542 38.305C36.7228 37.9939 36.1316 37.8398 35.4761 37.8398H33.3337C33.2234 37.8398 33.1137 37.8669 33.0326 37.9459C32.9515 38.025 32.9238 38.1319 32.9238 38.2395V44.4634C32.9238 44.5708 32.9515 44.6777 33.0326 44.7568C33.1137 44.836 33.2234 44.8629 33.3337 44.8629H35.8258ZM35.0388 40.9092H33.9621V38.8094H35.4323C35.8069 38.8094 36.1342 38.8911 36.3637 39.0495C36.5866 39.2035 36.7278 39.4366 36.7278 39.7741C36.7278 40.0539 36.614 40.332 36.3545 40.5429C36.0933 40.7551 35.6713 40.9092 35.0388 40.9092ZM35.3012 41.7935C35.9336 41.7935 36.3791 41.9476 36.6634 42.1674C36.9456 42.3857 37.0775 42.6749 37.0775 42.9713C37.0775 43.2657 36.9474 43.5027 36.7281 43.6747C36.5067 43.8483 36.1901 43.958 35.8217 43.9785H34.0057V41.7935H35.3012Z" fill="#606161" stroke="#606161" stroke-width="0.2"/>
<path d="M40.3594 38.2395V44.4634C40.3594 44.5876 40.4086 44.6914 40.4909 44.7627C40.5704 44.8316 40.6722 44.8629 40.7691 44.8629H41.0315C41.1417 44.8629 41.2514 44.836 41.3325 44.7568C41.4137 44.6777 41.4413 44.5708 41.4413 44.4634V38.2395C41.4413 38.1319 41.4137 38.025 41.3325 37.9459C41.2514 37.8669 41.1417 37.8398 41.0315 37.8398H40.7691C40.659 37.8398 40.5493 37.8669 40.4682 37.9459C40.3871 38.025 40.3594 38.1319 40.3594 38.2395Z" fill="#606161" stroke="#606161" stroke-width="0.2"/>
<path d="M43.6465 41.3515C43.6465 39.3111 45.3304 37.7122 47.3355 37.7122C48.2241 37.7122 49.0008 37.8419 49.6909 38.2905C49.7773 38.3467 49.8488 38.4259 49.877 38.5268C49.9062 38.631 49.8832 38.7374 49.8192 38.8309L49.7366 38.9517C49.6846 39.0499 49.605 39.1415 49.4894 39.1723C49.3683 39.2045 49.2572 39.1579 49.1712 39.0811C48.4228 38.6789 47.9282 38.6391 47.2918 38.6391C45.8896 38.6391 44.6847 39.8081 44.6847 41.2663C44.6847 41.9576 44.9348 42.6139 45.4039 43.0963C45.8716 43.5773 46.5642 43.8934 47.4667 43.8934C48.0368 43.8934 48.6316 43.7787 49.1119 43.4523V42.0921H47.5103C47.4002 42.0921 47.2905 42.0651 47.2094 41.986C47.1283 41.907 47.1006 41.8 47.1006 41.6926V41.5647C47.1006 41.4573 47.1283 41.3504 47.2094 41.2712C47.2905 41.1921 47.4002 41.1652 47.5103 41.1652H49.6965C49.8067 41.1652 49.9165 41.1921 49.9976 41.2712C50.0787 41.3504 50.1064 41.4573 50.1064 41.5647V43.611C50.1064 43.6916 50.0924 43.7787 50.047 43.867C50.0022 43.9545 49.9311 44.0346 49.8298 44.1088C49.8294 44.1091 49.8301 44.1085 49.8298 44.1088L49.7403 43.9946C48.9533 44.5913 48.0789 44.7193 47.4229 44.7193L43.6465 41.3515ZM43.6465 41.3515C43.6465 43.345 45.24 44.9938 47.4275 44.863L43.6465 41.3515Z" fill="#606161"/>
<path d="M43.6465 41.3515C43.6465 39.3111 45.3304 37.7122 47.3355 37.7122C48.2241 37.7122 49.0008 37.8419 49.6909 38.2905C49.7773 38.3467 49.8488 38.4259 49.877 38.5268C49.9062 38.631 49.8832 38.7374 49.8192 38.8309L49.7366 38.9517C49.6846 39.0499 49.605 39.1415 49.4894 39.1723C49.3683 39.2045 49.2572 39.1579 49.1712 39.0811C48.4228 38.6789 47.9282 38.6391 47.2918 38.6391C45.8896 38.6391 44.6847 39.8081 44.6847 41.2663C44.6847 41.9576 44.9348 42.6139 45.4039 43.0963C45.8716 43.5773 46.5642 43.8934 47.4667 43.8934C48.0368 43.8934 48.6316 43.7787 49.1119 43.4523V42.0921H47.5103C47.4002 42.0921 47.2905 42.0651 47.2094 41.986C47.1283 41.907 47.1006 41.8 47.1006 41.6926V41.5647C47.1006 41.4573 47.1283 41.3504 47.2094 41.2712C47.2905 41.1921 47.4002 41.1652 47.5103 41.1652H49.6965C49.8067 41.1652 49.9165 41.1921 49.9976 41.2712C50.0787 41.3504 50.1064 41.4573 50.1064 41.5647V43.611C50.1064 43.6916 50.0924 43.7787 50.047 43.867C50.0022 43.9545 49.9311 44.0346 49.8298 44.1088M43.6465 41.3515L47.4229 44.7193C48.0789 44.7193 48.9533 44.5913 49.7403 43.9946L49.8298 44.1088M43.6465 41.3515C43.6465 43.345 45.24 44.9938 47.4275 44.863L43.6465 41.3515ZM49.8298 44.1088C49.8294 44.1091 49.8301 44.1085 49.8298 44.1088Z" stroke="#606161" stroke-width="0.2"/>
<path d="M59.2682 43.9789L59.264 43.9787C57.8152 43.9787 56.6131 42.8494 56.6131 41.3515C56.6131 39.8948 57.8167 38.7244 59.264 38.7244C60.7129 38.7244 61.9148 39.8537 61.9148 41.3515C61.9148 42.8533 60.7099 44.019 59.2682 43.9789ZM59.264 37.7122C57.2151 37.7122 55.5312 39.3538 55.5312 41.3515C55.5312 43.3492 57.2151 44.991 59.264 44.991C61.3129 44.991 62.9967 43.3492 62.9967 41.3515C62.9967 39.3538 61.3129 37.7122 59.264 37.7122Z" fill="#606161" stroke="#606161" stroke-width="0.2"/>
<path d="M65.5584 44.8981L65.5812 44.9056H65.605H65.8675C65.9776 44.9056 66.0873 44.8786 66.1684 44.7995C66.2496 44.7204 66.2772 44.6135 66.2772 44.506V39.8275L69.9339 44.6602C70.0159 44.8589 70.2251 44.9056 70.3709 44.9056H70.5021C70.6123 44.9056 70.7219 44.8786 70.803 44.7995C70.8843 44.7204 70.9118 44.6135 70.9118 44.506V38.282C70.9118 38.1746 70.8843 38.0677 70.803 37.9886C70.7219 37.9094 70.6123 37.8825 70.5021 37.8825H70.2397C70.1296 37.8825 70.0199 37.9094 69.9388 37.9886C69.8577 38.0677 69.83 38.1746 69.83 38.282V42.918L66.1629 38.0714C66.1116 37.997 66.0527 37.936 65.9773 37.8953C65.9001 37.8535 65.8188 37.8398 65.7363 37.8398H65.605C65.4949 37.8398 65.3852 37.8669 65.3041 37.9459C65.223 38.025 65.1953 38.1319 65.1953 38.2395V44.4634C65.1953 44.7294 65.4081 44.8492 65.5584 44.8981Z" fill="#606161" stroke="#606161" stroke-width="0.2"/>
<path d="M82.2825 43.4823L82.2728 43.4871L82.2638 43.4931C81.8561 43.7714 81.2751 43.9361 80.6431 43.9361C79.7603 43.9361 79.0674 43.6397 78.5951 43.1694C78.1221 42.6982 77.8612 42.0428 77.8612 41.309C77.8612 40.5955 78.1118 39.9399 78.5799 39.4634C79.0467 38.9883 79.7392 38.6818 80.6431 38.6818C81.2631 38.6818 81.8049 38.8823 82.2726 39.1303C82.367 39.1897 82.4737 39.2108 82.5784 39.1829C82.6819 39.1554 82.7631 39.0857 82.8208 39.0013L82.9082 38.8735C82.9722 38.7801 82.9952 38.6737 82.9661 38.5694C82.938 38.469 82.8671 38.39 82.7811 38.3339C82.1881 37.9339 81.5469 37.7122 80.6431 37.7122C78.241 37.7122 76.7793 39.3998 76.7793 41.3515C76.7793 42.324 77.1421 43.2355 77.8116 43.8884C78.482 44.542 79.4516 44.928 80.6473 44.863C81.5882 44.8625 82.2273 44.6428 82.8184 44.2456C82.9922 44.1528 83.0319 43.9252 82.9082 43.7444L82.8305 43.6305C82.7922 43.5365 82.7173 43.4632 82.6113 43.4349C82.5042 43.4066 82.3894 43.4303 82.2825 43.4823Z" fill="#606161"/>
<path d="M82.9082 38.8735L82.8208 39.0013C82.7631 39.0857 82.6819 39.1554 82.5784 39.1829C82.4737 39.2108 82.367 39.1897 82.2726 39.1303C81.8049 38.8823 81.2631 38.6818 80.6431 38.6818C79.7392 38.6818 79.0467 38.9883 78.5799 39.4634C78.1118 39.9399 77.8612 40.5955 77.8612 41.309C77.8612 42.0428 78.1221 42.6982 78.5951 43.1694C79.0674 43.6397 79.7603 43.9361 80.6431 43.9361C81.2751 43.9361 81.8561 43.7714 82.2638 43.4931L82.2728 43.4871L82.2825 43.4823C82.3894 43.4303 82.5042 43.4066 82.6113 43.4349C82.7173 43.4632 82.7922 43.5365 82.8305 43.6305L82.9082 43.7444M82.9082 38.8735L82.7869 38.7946M82.9082 38.8735C82.9722 38.7801 82.9952 38.6737 82.9661 38.5694C82.938 38.469 82.8671 38.39 82.7811 38.3339C82.1881 37.9339 81.5469 37.7122 80.6431 37.7122C78.241 37.7122 76.7793 39.3998 76.7793 41.3515C76.7793 42.324 77.1421 43.2355 77.8116 43.8884C78.482 44.542 79.4516 44.928 80.6473 44.863C81.5882 44.8625 82.2273 44.6428 82.8184 44.2456C82.9922 44.1528 83.0319 43.9252 82.9082 43.7444M82.9082 43.7444L82.7889 43.8219" stroke="#606161" stroke-width="0.2"/>
<path d="M85.084 38.2395V44.4634C85.084 44.5876 85.1332 44.6914 85.2155 44.7627C85.295 44.8316 85.3967 44.8629 85.4937 44.8629H88.9916C89.1018 44.8629 89.2115 44.836 89.2925 44.7568C89.3738 44.6777 89.4014 44.5708 89.4014 44.4634V44.3355C89.4014 44.2281 89.3738 44.1211 89.2925 44.0419C89.2115 43.9629 89.1018 43.936 88.9916 43.936H86.1659V38.2395C86.1659 38.1319 86.1382 38.025 86.0571 37.9459C85.976 37.8669 85.8663 37.8398 85.7561 37.8398H85.4937C85.3836 37.8398 85.2739 37.8669 85.1928 37.9459C85.1116 38.025 85.084 38.1319 85.084 38.2395Z" fill="#606161" stroke="#606161" stroke-width="0.2"/>
<path d="M94.0691 43.9789L94.0648 43.9787C92.616 43.9787 91.4139 42.8494 91.4139 41.3515C91.4139 39.8948 92.6174 38.7244 94.0648 38.7244C95.5137 38.7244 96.7157 39.8537 96.7157 41.3515C96.7157 42.8533 95.5109 44.019 94.0691 43.9789ZM94.0648 37.7122C92.0159 37.7122 90.332 39.3538 90.332 41.3515C90.332 43.3492 92.0159 44.991 94.0648 44.991C96.1137 44.991 97.7976 43.3492 97.7976 41.3515C97.7976 39.3538 96.1137 37.7122 94.0648 37.7122Z" fill="#606161" stroke="#606161" stroke-width="0.2"/>
<path d="M99.9102 38.2395V42.2466C99.9102 43.1347 100.23 43.8256 100.757 44.2878C101.281 44.7479 101.997 44.9698 102.771 44.9481C103.541 44.9477 104.255 44.7266 104.779 44.2724C105.306 43.8157 105.627 43.1352 105.627 42.2466V38.2395C105.627 38.1319 105.599 38.025 105.518 37.9459C105.437 37.8669 105.327 37.8398 105.217 37.8398H104.955C104.844 37.8398 104.735 37.8669 104.654 37.9459C104.573 38.025 104.545 38.1319 104.545 38.2395V42.2466C104.545 42.8297 104.34 43.2585 104.024 43.5424C103.706 43.828 103.263 43.9785 102.769 43.9785C102.271 43.9785 101.829 43.8372 101.512 43.5575C101.198 43.2799 100.992 42.8523 100.992 42.2466V38.2395C100.992 38.1319 100.964 38.025 100.883 37.9459C100.802 37.8669 100.692 37.8398 100.582 37.8398H100.32C100.21 37.8398 100.1 37.8669 100.019 37.9459C99.9379 38.025 99.9102 38.1319 99.9102 38.2395Z" fill="#606161" stroke="#606161" stroke-width="0.2"/>
<path d="M110.511 43.936H110.363V43.9785H109.259V38.7669H110.511C112.038 38.7669 113.074 39.9295 113.074 41.3514C113.074 42.7732 112.038 43.936 110.511 43.936ZM108.221 38.2395V44.4634C108.221 44.5708 108.248 44.6777 108.329 44.7568C108.411 44.836 108.52 44.8629 108.63 44.8629H110.511C112.693 44.8629 114.156 43.3041 114.156 41.3514C114.156 40.3795 113.804 39.5004 113.168 38.8638C112.532 38.2264 111.618 37.8398 110.511 37.8398H108.63C108.52 37.8398 108.411 37.8669 108.329 37.9459C108.248 38.025 108.221 38.1319 108.221 38.2395Z" fill="#606161" stroke="#606161" stroke-width="0.2"/>
<path d="M116.41 43.5092C115.972 43.5092 115.65 43.8786 115.65 44.2498C115.65 44.6701 115.979 44.9903 116.41 44.9903C116.841 44.9903 117.17 44.6701 117.17 44.2498C117.17 43.8293 116.841 43.5092 116.41 43.5092Z" fill="#606161" stroke="#606161" stroke-width="0.2"/>
<path d="M126.035 44.8629C126.716 44.8629 127.308 44.6859 127.733 44.3576C128.162 44.0268 128.412 43.5484 128.412 42.9713C128.412 42.51 128.246 42.0894 127.922 41.7675C127.697 41.5447 127.402 41.3736 127.043 41.2674C127.312 41.1355 127.528 40.9647 127.692 40.7639C127.944 40.4535 128.062 40.08 128.062 39.6889C128.062 39.0887 127.799 38.6197 127.363 38.305C126.932 37.9939 126.341 37.8398 125.685 37.8398H123.543C123.432 37.8398 123.323 37.8669 123.242 37.9459C123.161 38.025 123.133 38.1319 123.133 38.2395V44.4634C123.133 44.5708 123.161 44.6777 123.242 44.7568C123.323 44.836 123.432 44.8629 123.543 44.8629H126.035ZM125.292 40.9092H124.215V38.8094H125.685C126.036 38.8094 126.353 38.8904 126.577 39.0486C126.795 39.2026 126.937 39.4363 126.937 39.7741C126.937 40.0576 126.831 40.3355 126.583 40.5446C126.334 40.7551 125.924 40.9092 125.292 40.9092ZM125.51 41.7935C126.143 41.7935 126.588 41.9476 126.872 42.1674C127.155 42.3857 127.287 42.6749 127.287 42.9713C127.287 43.2657 127.156 43.5027 126.937 43.6747C126.716 43.8483 126.399 43.958 126.031 43.9785H124.215V41.7935H125.51Z" fill="#606161" stroke="#606161" stroke-width="0.2"/>
<path d="M130.562 38.2395V44.4634C130.562 44.5876 130.612 44.6914 130.694 44.7627C130.773 44.8316 130.875 44.8629 130.972 44.8629H131.235C131.345 44.8629 131.454 44.836 131.536 44.7568C131.617 44.6777 131.644 44.5708 131.644 44.4634V38.2395C131.644 38.1319 131.617 38.025 131.536 37.9459C131.454 37.8669 131.345 37.8398 131.235 37.8398H130.972C130.862 37.8398 130.752 37.8669 130.671 37.9459C130.59 38.025 130.562 38.1319 130.562 38.2395Z" fill="#606161" stroke="#606161" stroke-width="0.2"/>
<path d="M133.838 41.3515C133.838 39.309 135.568 37.7122 137.571 37.7122C138.459 37.7122 139.236 37.8419 139.926 38.2905C140.012 38.3467 140.084 38.4259 140.112 38.5268C140.141 38.631 140.118 38.7374 140.054 38.8309L139.972 38.9517C139.919 39.0499 139.84 39.1415 139.724 39.1723C139.603 39.2045 139.492 39.1579 139.406 39.0811C138.657 38.6786 138.163 38.6391 137.571 38.6391C136.168 38.6391 134.963 39.8081 134.963 41.2663C134.963 41.9576 135.214 42.6139 135.683 43.0963C136.15 43.5773 136.843 43.8934 137.745 43.8934C138.316 43.8934 138.91 43.7787 139.391 43.4523V42.0921H137.789C137.679 42.0921 137.569 42.0651 137.488 41.986C137.407 41.907 137.379 41.8 137.379 41.6926V41.5647C137.379 41.4573 137.407 41.3504 137.488 41.2712C137.569 41.1921 137.679 41.1652 137.789 41.1652H139.975C140.085 41.1652 140.195 41.1921 140.276 41.2712C140.357 41.3504 140.385 41.4573 140.385 41.5647V43.611C140.385 43.6916 140.371 43.7787 140.326 43.867C140.281 43.9545 140.21 44.0346 140.108 44.1088C140.108 44.1091 140.109 44.1085 140.108 44.1088L140.019 43.9946C139.232 44.5913 138.358 44.7193 137.702 44.7193L133.838 41.3515ZM133.838 41.3515C133.838 43.3478 135.434 44.9937 137.706 44.863L133.838 41.3515Z" fill="#606161"/>
<path d="M133.838 41.3515C133.838 39.309 135.568 37.7122 137.571 37.7122C138.459 37.7122 139.236 37.8419 139.926 38.2905C140.012 38.3467 140.084 38.4259 140.112 38.5268C140.141 38.631 140.118 38.7374 140.054 38.8309L139.972 38.9517C139.919 39.0499 139.84 39.1415 139.724 39.1723C139.603 39.2045 139.492 39.1579 139.406 39.0811C138.657 38.6786 138.163 38.6391 137.571 38.6391C136.168 38.6391 134.963 39.8081 134.963 41.2663C134.963 41.9576 135.214 42.6139 135.683 43.0963C136.15 43.5773 136.843 43.8934 137.745 43.8934C138.316 43.8934 138.91 43.7787 139.391 43.4523V42.0921H137.789C137.679 42.0921 137.569 42.0651 137.488 41.986C137.407 41.907 137.379 41.8 137.379 41.6926V41.5647C137.379 41.4573 137.407 41.3504 137.488 41.2712C137.569 41.1921 137.679 41.1652 137.789 41.1652H139.975C140.085 41.1652 140.195 41.1921 140.276 41.2712C140.357 41.3504 140.385 41.4573 140.385 41.5647V43.611C140.385 43.6916 140.371 43.7787 140.326 43.867C140.281 43.9545 140.21 44.0346 140.108 44.1088M133.838 41.3515L137.702 44.7193C138.358 44.7193 139.232 44.5913 140.019 43.9946L140.108 44.1088M133.838 41.3515C133.838 43.3478 135.434 44.9937 137.706 44.863L133.838 41.3515ZM140.108 44.1088C140.108 44.1091 140.109 44.1085 140.108 44.1088Z" stroke="#606161" stroke-width="0.2"/>
<path d="M149.51 37.7122C147.462 37.7122 145.777 39.3538 145.777 41.3515C145.777 43.3492 147.462 44.991 149.51 44.991C151.559 44.991 153.243 43.3492 153.243 41.3515C153.243 39.3538 151.559 37.7122 149.51 37.7122ZM149.467 38.7243C150.915 38.7243 152.118 39.8536 152.118 41.3515C152.118 42.8494 150.915 43.9787 149.467 43.9787C148.017 43.9787 146.815 42.8494 146.815 41.3515C146.815 39.8947 148.019 38.7243 149.467 38.7243Z" fill="#606161" stroke="#606161" stroke-width="0.2"/>
<path d="M156.408 38.0688L156.401 38.0601L156.394 38.0524C156.323 37.984 156.255 37.9291 156.18 37.8923C156.102 37.8539 156.024 37.8398 155.94 37.8398H155.808C155.698 37.8398 155.589 37.8669 155.508 37.9459C155.426 38.025 155.398 38.1319 155.398 38.2395V44.4634C155.398 44.5901 155.45 44.6926 155.534 44.7674C155.615 44.8376 155.717 44.8771 155.816 44.9013L155.833 44.9056H155.853H156.114C156.224 44.9056 156.335 44.8786 156.416 44.7995C156.497 44.7204 156.523 44.6135 156.523 44.506V39.8275L160.181 44.6602C160.262 44.8589 160.472 44.9056 160.618 44.9056H160.749C160.859 44.9056 160.969 44.8786 161.05 44.7995C161.131 44.7204 161.159 44.6135 161.159 44.506V38.282C161.159 38.1746 161.131 38.0677 161.05 37.9886C160.969 37.9094 160.859 37.8825 160.749 37.8825H160.486C160.376 37.8825 160.267 37.9094 160.186 37.9886C160.105 38.0677 160.077 38.1746 160.077 38.282V42.918L156.408 38.0688Z" fill="#606161" stroke="#606161" stroke-width="0.2"/>
<path d="M169.838 43.936H169.69V43.9785H168.586V38.7669H169.838C171.365 38.7669 172.4 39.9295 172.4 41.3514C172.4 42.7732 171.365 43.936 169.838 43.936ZM167.504 38.2395V44.4634C167.504 44.5876 167.553 44.6914 167.635 44.7627C167.715 44.8316 167.816 44.8629 167.914 44.8629H169.794C171.976 44.8629 173.438 43.3041 173.438 41.3514C173.438 40.3795 173.087 39.5004 172.452 38.8638C171.815 38.2264 170.901 37.8398 169.794 37.8398H167.914C167.803 37.8398 167.694 37.8669 167.613 37.9459C167.532 38.025 167.504 38.1319 167.504 38.2395Z" fill="#606161" stroke="#606161" stroke-width="0.2"/>
<path d="M174.728 44.3685L174.727 44.3681L174.722 44.3859C174.693 44.4996 174.702 44.6248 174.783 44.7237C174.864 44.8224 174.991 44.8629 175.128 44.8629H175.39C175.504 44.8629 175.603 44.8349 175.682 44.7741C175.76 44.7148 175.808 44.6349 175.836 44.5544L176.279 43.4135H179.66L180.105 44.5544C180.133 44.6349 180.179 44.7148 180.257 44.7741C180.337 44.8349 180.437 44.8629 180.549 44.8629H180.769C180.902 44.8629 181.036 44.8239 181.112 44.7163C181.192 44.6063 181.177 44.4739 181.121 44.3624L178.59 38.1472C178.523 37.9599 178.335 37.8398 178.144 37.8398H177.664C177.474 37.8398 177.285 37.96 177.219 38.1476L174.728 44.3685ZM176.568 42.5291L177.926 39.1455L179.284 42.5291H176.568Z" fill="#606161" stroke="#606161" stroke-width="0.2"/>
<path d="M187.388 38.3673V38.2395C187.388 38.1319 187.36 38.025 187.279 37.9459C187.197 37.8669 187.088 37.8398 186.978 37.8398H181.906C181.795 37.8398 181.686 37.8669 181.605 37.9459C181.524 38.025 181.496 38.1319 181.496 38.2395V38.3673C181.496 38.4748 181.524 38.5817 181.605 38.6608C181.686 38.7399 181.795 38.7669 181.906 38.7669H183.901V44.4634C183.901 44.5708 183.929 44.6777 184.01 44.7568C184.091 44.836 184.2 44.8629 184.311 44.8629H184.573C184.684 44.8629 184.793 44.836 184.874 44.7568C184.955 44.6777 184.983 44.5708 184.983 44.4634V38.7669H186.978C187.088 38.7669 187.197 38.7399 187.279 38.6608C187.36 38.5817 187.388 38.4748 187.388 38.3673Z" fill="#606161" stroke="#606161" stroke-width="0.2"/>
<path d="M190.29 38.1476L187.801 44.3628C187.746 44.4739 187.729 44.6116 187.82 44.7237C187.907 44.8281 188.05 44.8629 188.198 44.8629H188.46C188.574 44.8629 188.672 44.8349 188.753 44.7741C188.832 44.7148 188.877 44.6349 188.905 44.5544L189.349 43.4135H192.731L193.175 44.5544C193.203 44.6349 193.249 44.7148 193.327 44.7741C193.408 44.8349 193.507 44.8629 193.62 44.8629H193.839C193.971 44.8629 194.107 44.8239 194.184 44.7163C194.262 44.6063 194.247 44.4739 194.192 44.3624L191.659 38.1472C191.593 37.9599 191.404 37.8398 191.216 37.8398H190.734C190.545 37.8398 190.356 37.96 190.29 38.1476ZM189.638 42.5291L190.996 39.1455L192.354 42.5291H189.638Z" fill="#606161" stroke="#606161" stroke-width="0.2"/>
<path d="M196.467 43.5092C196.263 43.5092 196.083 43.6078 195.958 43.743C195.833 43.8781 195.75 44.0608 195.75 44.2498C195.75 44.6631 196.071 44.9903 196.467 44.9903C196.897 44.9903 197.226 44.6701 197.226 44.2498C197.226 43.8293 196.897 43.5092 196.467 43.5092Z" fill="#606161" stroke="#606161" stroke-width="0.2"/>
</g>
</svg>
