<svg width="230" height="61" viewBox="0 0 230 61" fill="none" xmlns="http://www.w3.org/2000/svg">
<g style="mix-blend-mode:luminosity">
<path fill-rule="evenodd" clip-rule="evenodd" d="M35.0849 60.311C15.753 60.311 0 46.8364 0 30.3039C0 13.7857 15.753 0.311035 35.0849 0.311035C54.4025 0.311035 70.1555 13.7857 70.1555 30.3039C70.1555 46.8364 54.4025 60.311 35.0849 60.311Z" fill="#004A8F"/>
<path fill-rule="evenodd" clip-rule="evenodd" d="M57.5919 33.3475L61.5014 33.5189C59.1729 49.6799 43.7505 50.8659 35.9746 35.2051L36.9951 33.5189C45.0441 38.5916 54.4585 40.5063 57.5919 33.3475Z" fill="white"/>
<path fill-rule="evenodd" clip-rule="evenodd" d="M31.0461 9.82746L38.8651 7.284L39.2101 51.2802L30.7012 54.1523L31.0461 9.82746Z" fill="#ED1C24"/>
<path fill-rule="evenodd" clip-rule="evenodd" d="M57.7651 27.4175H61.3297C59.9499 20.03 56.1841 15.3718 48.9113 14.7287C42.8458 14.8431 37.6714 18.3439 33.417 25.217C30.6142 29.4608 26.1154 36.1196 20.6536 36.9055C14.0706 37.8485 10.2474 32.09 13.0933 27.1317C14.8181 24.1024 19.4893 22.845 22.7521 23.145C22.7664 23.145 22.7952 23.1593 22.8095 23.1593C25.7992 23.4594 28.5588 24.2167 30.916 25.6456L30.9591 19.4156C29.4787 18.1581 28.2714 16.9007 26.5322 16.0433C24.175 14.8716 21.8753 14.5001 19.6331 14.9002C9.71557 17.0722 7.89018 25.1312 9.77306 35.8766C13.6251 48.351 25.6554 49.3084 32.5689 41.2922C37.3121 35.6623 49.0837 16.6149 57.7651 27.4175Z" fill="white"/>
<path fill-rule="evenodd" clip-rule="evenodd" d="M110.759 38.0767C116.911 38.0767 121.769 34.533 121.769 28.4172C121.769 22.3015 116.911 18.4291 110.759 18.4291C104.593 18.4291 99.7346 22.3015 99.7346 28.4172C99.7346 34.533 104.593 38.0767 110.759 38.0767ZM110.759 33.5756C107.841 33.5756 106.547 30.9893 106.547 28.4172C106.547 25.5165 107.841 22.9302 110.759 22.9302C113.677 22.9302 114.97 25.5165 114.97 28.4172C114.97 30.9893 113.677 33.5756 110.759 33.5756ZM121.122 23.5875H124.686V30.9893C124.686 35.5046 126.311 38.0767 132.146 38.0767C133.756 38.0767 134.733 37.748 136.027 37.748L135.711 33.5756C135.064 33.5756 134.403 33.8899 133.756 33.8899C131.816 33.8899 131.169 32.6039 131.169 30.3462V23.5875H135.711V19.0721H131.169V12.6277L125.017 14.8854V19.0721H121.122V23.5875ZM158.377 37.748H164.859V28.4172H165.19L170.379 37.748H178.155L171.026 27.4456L177.508 19.0721H170.379L165.19 26.8025H164.859V12.6277L158.377 14.8854V37.748ZM82.5586 37.748H89.0409V28.4172L94.2296 37.748H102.006L95.207 27.4456L101.689 19.0721H94.5602L89.0409 26.8025V12.6277L82.5586 14.5711V37.748ZM156.121 37.748C155.79 36.1476 155.79 34.8616 155.79 33.2469V26.1595C155.79 20.3582 151.579 18.4291 146.72 18.4291C144.133 18.4291 141.546 18.7435 139.261 19.7151V24.2305C141.216 23.2588 143.156 22.9302 145.427 22.9302C147.698 22.9302 149.638 23.5875 149.638 26.1595C148.991 25.8309 147.698 25.8309 146.72 25.8309C143.156 25.8309 136.674 26.4882 136.674 32.2753C136.674 36.4763 140.238 38.0767 143.803 38.0767C146.72 38.0767 148.345 37.105 149.969 34.8616C149.969 35.819 150.285 36.7906 150.285 37.748H156.121ZM142.84 31.6466C142.84 30.0319 144.78 29.3889 147.051 29.3889C148.014 29.3889 148.991 29.3889 149.638 29.3889C149.638 31.6466 148.014 33.8899 145.757 33.8899C144.133 33.8899 142.84 32.9326 142.84 31.6466Z" fill="#ED1C24"/>
<path fill-rule="evenodd" clip-rule="evenodd" d="M180.282 13.6C180.785 13.6 181.288 13.7286 181.777 13.9858C182.266 14.243 182.639 14.6145 182.912 15.1003C183.186 15.5862 183.315 16.1006 183.315 16.6293C183.315 17.1437 183.186 17.6438 182.912 18.1296C182.654 18.6155 182.28 18.987 181.791 19.2442C181.317 19.5157 180.8 19.6443 180.282 19.6443C179.75 19.6443 179.247 19.5157 178.759 19.2442C178.284 18.987 177.896 18.6155 177.638 18.1296C177.364 17.6438 177.221 17.1437 177.221 16.6293C177.221 16.1006 177.364 15.5862 177.638 15.1003C177.911 14.6145 178.299 14.243 178.773 13.9858C179.262 13.7286 179.765 13.6 180.282 13.6ZM180.282 14.1001C179.851 14.1001 179.434 14.2001 179.032 14.4287C178.615 14.6431 178.299 14.9574 178.083 15.3575C177.853 15.7576 177.738 16.1863 177.738 16.6293C177.738 17.0579 177.853 17.4723 178.069 17.8724C178.299 18.2725 178.615 18.5869 179.017 18.8155C179.42 19.0298 179.837 19.1442 180.282 19.1442C180.713 19.1442 181.13 19.0298 181.547 18.8155C181.949 18.5869 182.251 18.2725 182.481 17.8724C182.711 17.4723 182.812 17.0579 182.812 16.6293C182.812 16.1863 182.697 15.7576 182.481 15.3575C182.251 14.9574 181.935 14.6431 181.518 14.4287C181.116 14.2001 180.699 14.1001 180.282 14.1001ZM178.945 18.2868V15.0432H180.067C180.455 15.0432 180.728 15.0718 180.9 15.1289C181.073 15.1861 181.216 15.3004 181.317 15.4433C181.418 15.6005 181.475 15.7576 181.475 15.9291C181.475 16.1577 181.389 16.3721 181.216 16.5435C181.044 16.715 180.814 16.815 180.527 16.8436C180.642 16.8865 180.742 16.9436 180.814 17.0151C180.943 17.1437 181.101 17.358 181.288 17.6581L181.691 18.2868H181.058L180.757 17.7867C180.527 17.3723 180.34 17.1294 180.196 17.0294C180.11 16.9436 179.966 16.9151 179.779 16.9151H179.463V18.2868H178.945ZM179.463 16.4578H180.11C180.426 16.4578 180.627 16.4149 180.742 16.3292C180.857 16.2292 180.9 16.1149 180.9 15.972C180.9 15.8719 180.886 15.7862 180.828 15.7148C180.771 15.629 180.699 15.5719 180.598 15.5433C180.498 15.5004 180.325 15.4861 180.067 15.4861H179.463V16.4578Z" fill="#004A8F"/>
<path d="M90.7099 55.2237H88.9564L84.5725 50.1224C84.4144 49.951 84.3282 49.8224 84.2707 49.7509H84.242V55.2237H83.0059V44.0924H84.242V49.3223H84.2707C84.3426 49.2222 84.4432 49.0936 84.5725 48.9507L88.827 44.0924H90.3649L85.5068 49.4366L90.7099 55.2237ZM91.2848 51.3513C91.2848 50.0367 91.6585 48.9936 92.3772 48.222C93.0958 47.4647 94.0876 47.0932 95.3381 47.0932C96.5167 47.0932 97.4365 47.4504 98.0977 48.1934C98.7732 48.9222 99.1038 49.9367 99.1038 51.237C99.1038 52.4944 98.7445 53.4947 98.0258 54.2663C97.2928 55.0379 96.3442 55.4094 95.1512 55.4094C94.0013 55.4094 93.0671 55.0522 92.3484 54.3092C91.6441 53.5661 91.2848 52.5802 91.2848 51.3513ZM92.5209 51.3084C92.5209 52.2372 92.7653 52.9946 93.2539 53.5518C93.757 54.1091 94.4182 54.3949 95.2374 54.3949C96.0711 54.3949 96.7179 54.1234 97.1922 53.5804C97.6378 53.0231 97.8821 52.2658 97.8821 51.2799C97.8821 50.2653 97.6521 49.4794 97.1922 48.9364C96.7323 48.3792 96.0855 48.1077 95.2374 48.1077C94.4038 48.1077 93.7426 48.3935 93.2539 48.965C92.7653 49.5366 92.5209 50.3082 92.5209 51.3084ZM104.81 55.1522C104.523 55.3094 104.134 55.3951 103.646 55.3951C102.28 55.3951 101.59 54.6378 101.59 53.0946V48.3077H100.196V47.2789H101.59V45.3213L102.783 44.9355V47.2789H104.81V48.3077H102.783V52.8802C102.783 53.4232 102.884 53.809 103.056 54.0377C103.243 54.2663 103.56 54.3806 103.976 54.3806C104.307 54.3806 104.594 54.2949 104.81 54.1091V55.1522ZM106.736 47.8362C107.527 47.3361 108.418 47.0932 109.438 47.0932C111.292 47.0932 112.212 48.0648 112.212 50.0367V55.2237H111.005V53.9805H110.962C110.416 54.9379 109.596 55.4094 108.504 55.4094C107.713 55.4094 107.095 55.2094 106.635 54.7807C106.175 54.3663 105.96 53.809 105.96 53.1232C105.96 51.6514 106.837 50.794 108.59 50.5368L111.005 50.1939C111.005 48.8221 110.444 48.122 109.338 48.122C108.375 48.122 107.498 48.4506 106.736 49.1079V47.8362ZM109.05 51.4513C108.36 51.5514 107.886 51.7085 107.613 51.9515C107.34 52.1801 107.21 52.5516 107.21 53.0374C107.21 53.4375 107.354 53.7662 107.641 54.0091C107.929 54.2663 108.303 54.3806 108.763 54.3806C109.409 54.3806 109.941 54.152 110.372 53.709C110.789 53.2518 111.005 52.6802 111.005 51.9943V51.1941L109.05 51.4513ZM121.21 55.2237H119.499L115.892 51.4228H115.863V55.2237H114.656V43.4637H115.863V50.9226H115.892L119.313 47.2789H120.908L117.157 51.1227L121.21 55.2237ZM136.517 55.2237V47.7076C136.517 47.136 136.56 46.4216 136.632 45.5499H136.603C136.46 46.0786 136.345 46.4359 136.259 46.6073L132.363 55.2237H131.817L127.908 46.6645C127.807 46.4359 127.706 46.0786 127.591 45.5499H127.548C127.591 45.95 127.62 46.6645 127.62 47.6933V55.2237H126.413V44.0924H128.023L131.53 51.9372C131.803 52.5516 131.975 52.9946 132.047 53.2518H132.105C132.248 52.866 132.421 52.4087 132.636 51.8943L136.23 44.0924H137.739V55.2237H136.517ZM140.729 47.8362C141.519 47.3361 142.41 47.0932 143.431 47.0932C145.285 47.0932 146.205 48.0648 146.205 50.0367V55.2237H144.997V53.9805H144.954C144.408 54.9379 143.589 55.4094 142.496 55.4094C141.706 55.4094 141.088 55.2094 140.628 54.7807C140.168 54.3663 139.952 53.809 139.952 53.1232C139.952 51.6514 140.829 50.794 142.583 50.5368L144.997 50.1939C144.997 48.8221 144.437 48.122 143.33 48.122C142.367 48.122 141.49 48.4506 140.729 49.1079V47.8362ZM143.028 51.4513C142.353 51.5514 141.878 51.7085 141.605 51.9515C141.332 52.1801 141.203 52.5516 141.203 53.0374C141.203 53.4375 141.347 53.7662 141.634 54.0091C141.922 54.2663 142.295 54.3806 142.755 54.3806C143.402 54.3806 143.934 54.152 144.351 53.709C144.782 53.2518 144.997 52.6802 144.997 51.9943V51.1941L143.028 51.4513ZM155.217 55.2237H154.024V50.6369C154.024 48.9507 153.391 48.1077 152.127 48.1077C151.48 48.1077 150.934 48.3506 150.502 48.8507C150.071 49.3365 149.856 49.9653 149.856 50.7226V55.2237H148.648V43.4637H149.856V48.6078H149.884C150.502 47.5933 151.379 47.0932 152.529 47.0932C154.326 47.0932 155.217 48.1648 155.217 50.3368V55.2237ZM157.502 44.4211C157.502 44.1925 157.588 43.9924 157.732 43.8495C157.89 43.6923 158.077 43.6066 158.293 43.6066C158.508 43.6066 158.709 43.6923 158.868 43.8495C159.026 44.0067 159.098 44.1925 159.098 44.4211C159.098 44.6211 159.026 44.8069 158.868 44.9641C158.709 45.1213 158.508 45.207 158.293 45.207C158.063 45.207 157.876 45.1355 157.732 44.9784C157.588 44.8212 157.502 44.6354 157.502 44.4211ZM157.675 55.2237V47.2789H158.868V55.2237H157.675ZM168.081 55.2237H166.873V50.6797C166.873 48.965 166.241 48.1077 164.976 48.1077C164.315 48.1077 163.769 48.3506 163.352 48.8507C162.921 49.3365 162.72 49.951 162.72 50.694V55.2237H161.512V47.2789H162.72V48.6078H162.748C163.352 47.5933 164.229 47.0932 165.379 47.0932C166.255 47.0932 166.917 47.3646 167.391 47.9362C167.851 48.4935 168.081 49.308 168.081 50.3654V55.2237ZM177.28 55.2237H176.072V53.8662H176.043C175.454 54.895 174.534 55.4094 173.284 55.4094C172.278 55.4094 171.473 55.0522 170.869 54.3377C170.28 53.6233 169.978 52.6516 169.978 51.437C169.978 50.1367 170.309 49.0793 170.984 48.2791C171.645 47.4932 172.536 47.0932 173.629 47.0932C174.736 47.0932 175.54 47.5218 176.043 48.3935H176.072V43.4637H177.28V55.2237ZM176.072 50.4368C176.072 49.7938 175.857 49.2365 175.411 48.7936C174.965 48.3363 174.419 48.1077 173.773 48.1077C172.968 48.1077 172.35 48.4078 171.89 48.9936C171.43 49.5795 171.2 50.3654 171.2 51.3799C171.2 52.2944 171.43 53.0231 171.861 53.5661C172.292 54.1234 172.881 54.3949 173.614 54.3949C174.333 54.3949 174.908 54.1377 175.382 53.6233C175.842 53.1089 176.072 52.4516 176.072 51.6514V50.4368ZM184.006 48.5078C183.791 48.3363 183.474 48.2506 183.058 48.2506C182.483 48.2506 182.023 48.5221 181.663 49.0508C181.29 49.5937 181.117 50.2939 181.117 51.1655V55.2237H179.91V47.2789H181.117V48.9222H181.146C181.333 48.3506 181.606 47.9219 181.994 47.6076C182.368 47.2932 182.77 47.136 183.23 47.136C183.575 47.136 183.834 47.1789 184.006 47.2503V48.5078ZM185.602 47.8362C186.392 47.3361 187.283 47.0932 188.304 47.0932C190.158 47.0932 191.078 48.0648 191.078 50.0367V55.2237H189.87V53.9805H189.827C189.281 54.9379 188.462 55.4094 187.37 55.4094C186.579 55.4094 185.961 55.2094 185.501 54.7807C185.041 54.3663 184.826 53.809 184.826 53.1232C184.826 51.6514 185.702 50.794 187.456 50.5368L189.87 50.1939C189.87 48.8221 189.31 48.122 188.203 48.122C187.24 48.122 186.378 48.4506 185.602 49.1079V47.8362ZM187.916 51.4513C187.226 51.5514 186.752 51.7085 186.478 51.9515C186.22 52.1801 186.076 52.5516 186.076 53.0374C186.076 53.4375 186.22 53.7662 186.507 54.0091C186.795 54.2663 187.168 54.3806 187.643 54.3806C188.275 54.3806 188.807 54.152 189.238 53.709C189.655 53.2518 189.87 52.6802 189.87 51.9943V51.1941L187.916 51.4513ZM197.402 55.2237V44.0924H200.535C201.455 44.0924 202.217 44.3211 202.778 44.7926C203.353 45.2499 203.64 45.8643 203.64 46.6359C203.64 47.2646 203.468 47.8076 203.137 48.2791C202.792 48.7364 202.318 49.0793 201.714 49.2937V49.3223C202.461 49.3937 203.051 49.6652 203.511 50.151C203.971 50.6369 204.201 51.2656 204.201 52.0372C204.201 52.9803 203.856 53.7519 203.18 54.3377C202.49 54.9236 201.628 55.2237 200.593 55.2237H197.402ZM198.624 45.2213V48.8936H199.989C200.722 48.8936 201.312 48.7078 201.728 48.3649C202.145 48.0077 202.346 47.5075 202.346 46.8788C202.346 45.7786 201.628 45.2213 200.176 45.2213H198.624ZM198.624 50.0224V54.0948H200.449C201.211 54.0948 201.815 53.9091 202.26 53.5375C202.691 53.1803 202.907 52.6659 202.907 52.0229C202.907 50.6797 201.987 50.0224 200.147 50.0224H198.624ZM206.515 47.8362C207.305 47.3361 208.196 47.0932 209.202 47.0932C211.071 47.0932 211.991 48.0648 211.991 50.0367V55.2237H210.783V53.9805H210.74C210.194 54.9379 209.375 55.4094 208.283 55.4094C207.492 55.4094 206.874 55.2094 206.414 54.7807C205.954 54.3663 205.724 53.809 205.724 53.1232C205.724 51.6514 206.615 50.794 208.369 50.5368L210.783 50.1939C210.783 48.8221 210.223 48.122 209.116 48.122C208.153 48.122 207.276 48.4506 206.515 49.1079V47.8362ZM208.814 51.4513C208.139 51.5514 207.664 51.7085 207.391 51.9515C207.118 52.1801 206.989 52.5516 206.989 53.0374C206.989 53.4375 207.133 53.7662 207.42 54.0091C207.708 54.2663 208.081 54.3806 208.541 54.3806C209.188 54.3806 209.72 54.152 210.137 53.709C210.568 53.2518 210.783 52.6802 210.783 51.9943V51.1941L208.814 51.4513ZM221.003 55.2237H219.795V50.6797C219.795 48.965 219.163 48.1077 217.913 48.1077C217.237 48.1077 216.705 48.3506 216.274 48.8507C215.857 49.3365 215.642 49.951 215.642 50.694V55.2237H214.434V47.2789H215.642V48.6078H215.67C216.274 47.5933 217.151 47.0932 218.301 47.0932C219.177 47.0932 219.853 47.3646 220.313 47.9362C220.773 48.4935 221.003 49.308 221.003 50.3654V55.2237ZM230 55.2237H228.276L224.682 51.4228H224.654V55.2237H223.446V43.4637H224.654V50.9226H224.682L228.103 47.2789H229.699L225.933 51.1227L230 55.2237Z" fill="#003974"/>
</g>
</svg>
