<svg width="200" height="91" viewBox="0 0 200 91" fill="none" xmlns="http://www.w3.org/2000/svg">
<path d="M45.1479 90.311C70.0824 90.311 90.2958 70.1638 90.2958 45.311C90.2958 20.4582 70.0824 0.311035 45.1479 0.311035C20.2134 0.311035 0 20.4582 0 45.311C0 70.1638 20.2134 90.311 45.1479 90.311Z" fill="#174E9E"/>
<path d="M20.125 33.6291H25.3634V56.1667H20.125V33.6291Z" fill="white"/>
<path d="M49.4449 33.6291V56.1666H45.1487L33.956 42.4938V56.1666H28.793V33.6291H33.0892L44.2819 47.3018V33.6291H49.4449Z" fill="white"/>
<path d="M59.7317 38.099H53.4004V33.9296H70.6606V38.1366H64.3294V56.1666H59.7317V38.099Z" fill="white"/>
<path d="M69.4186 56.3169C70.709 56.3169 71.7551 55.2742 71.7551 53.988C71.7551 52.7018 70.709 51.6591 69.4186 51.6591C68.1281 51.6591 67.082 52.7018 67.082 53.988C67.082 55.2742 68.1281 56.3169 69.4186 56.3169Z" fill="white"/>
<path d="M117.581 34.1549L114.83 42.4187H113.586L111.325 35.8453L109.064 42.4187H107.782L105.031 34.1549H106.237L108.461 40.8411L110.797 34.1549H111.89L114.151 40.9162L116.412 34.1549H117.581Z" fill="#010101"/>
<path d="M124.063 39.6015H118.976C119.035 40.1155 119.292 40.5866 119.692 40.9162C120.133 41.2549 120.68 41.4278 121.237 41.4045C121.574 41.4122 121.91 41.3493 122.221 41.2199C122.533 41.0905 122.814 40.8975 123.046 40.6533L123.649 41.4045C123.361 41.7335 122.999 41.9907 122.594 42.1558C122.14 42.3435 121.652 42.4331 121.161 42.4187C120.546 42.4245 119.939 42.2828 119.39 42.0055C118.893 41.7291 118.477 41.3276 118.184 40.8411C117.911 40.3464 117.768 39.7906 117.77 39.2259C117.763 38.6606 117.906 38.1035 118.184 37.6107C118.457 37.1461 118.83 36.7482 119.277 36.4462C119.762 36.1785 120.306 36.0364 120.86 36.0331C121.416 36.0227 121.964 36.1657 122.443 36.4462C122.916 36.7168 123.296 37.1224 123.536 37.6107C123.814 38.1306 123.956 38.7118 123.95 39.301C123.995 39.3362 124.029 39.3827 124.049 39.4356C124.068 39.4886 124.074 39.5459 124.063 39.6015ZM119.616 37.5356C119.261 37.8791 119.023 38.3262 118.938 38.8127H122.97C122.96 38.5628 122.894 38.3183 122.777 38.0973C122.659 37.8763 122.494 37.6843 122.292 37.5356C122.109 37.3693 121.895 37.2407 121.662 37.1569C121.43 37.0731 121.183 37.0358 120.935 37.0472C120.693 37.0303 120.45 37.0651 120.223 37.1493C119.995 37.2335 119.789 37.3652 119.616 37.5356Z" fill="#010101"/>
<path d="M128.961 34.1549H132.466C133.275 34.1508 134.074 34.3307 134.802 34.6808C135.463 35.0029 136.014 35.5126 136.385 36.1458C136.762 36.81 136.957 37.5614 136.95 38.3244C136.96 39.0878 136.765 39.84 136.385 40.503C136.012 41.1348 135.462 41.644 134.802 41.968C134.068 42.2936 133.269 42.4478 132.466 42.4187H128.961V34.1549ZM132.353 41.3294C132.968 41.3352 133.575 41.1935 134.124 40.9162C134.63 40.6736 135.054 40.2878 135.342 39.8069C135.63 39.326 135.77 38.7712 135.744 38.2117C135.751 37.6464 135.608 37.0894 135.33 36.5965C135.053 36.1158 134.631 35.7345 134.124 35.5072C133.577 35.2258 132.968 35.0838 132.353 35.094H130.129V41.2543H132.353V41.3294Z" fill="#010101"/>
<path d="M144.188 39.6015H139.101C139.16 40.1155 139.417 40.5866 139.817 40.9162C140.258 41.2549 140.805 41.4278 141.362 41.4045C141.699 41.4122 142.035 41.3493 142.346 41.2199C142.658 41.0905 142.939 40.8975 143.171 40.6533L143.774 41.4045C143.486 41.7335 143.124 41.9907 142.719 42.1558C142.265 42.3435 141.777 42.4331 141.286 42.4187C140.671 42.4245 140.064 42.2828 139.515 42.0055C139.018 41.7291 138.602 41.3276 138.309 40.8411C138.036 40.3464 137.893 39.7906 137.895 39.2259C137.888 38.6606 138.031 38.1035 138.309 37.6107C138.582 37.1461 138.955 36.7482 139.402 36.4462C139.887 36.1785 140.431 36.0364 140.985 36.0331C141.541 36.0227 142.088 36.1657 142.568 36.4462C143.041 36.7168 143.421 37.1224 143.661 37.6107C143.939 38.1306 144.081 38.7118 144.075 39.301C144.226 39.3761 144.188 39.4888 144.188 39.6015ZM139.741 37.5356C139.386 37.8791 139.148 38.3262 139.063 38.8127H143.095C143.085 38.5628 143.019 38.3183 142.902 38.0973C142.784 37.8763 142.619 37.6843 142.417 37.5356C142.234 37.3693 142.02 37.2407 141.787 37.1569C141.555 37.0731 141.308 37.0358 141.06 37.0472C140.819 37.0334 140.577 37.0696 140.35 37.1537C140.123 37.2377 139.915 37.3677 139.741 37.5356Z" fill="#010101"/>
<path d="M145.77 33.6666H146.938V42.3436H145.77V33.6666Z" fill="#010101"/>
<path d="M149.087 34.7184C149.013 34.6522 148.955 34.5709 148.916 34.4801C148.877 34.3894 148.858 34.2912 148.861 34.1925C148.854 34.0933 148.871 33.9939 148.911 33.9025C148.95 33.8112 149.01 33.7303 149.087 33.6666C149.153 33.5933 149.235 33.5352 149.326 33.4963C149.417 33.4574 149.515 33.4386 149.614 33.4412C149.714 33.4347 149.814 33.4517 149.905 33.4909C149.997 33.5301 150.078 33.5903 150.142 33.6666C150.216 33.7328 150.274 33.8141 150.313 33.9048C150.352 33.9956 150.371 34.0938 150.368 34.1925C150.375 34.2917 150.358 34.391 150.318 34.4824C150.279 34.5738 150.219 34.6547 150.142 34.7184C150.076 34.7917 149.994 34.8498 149.903 34.8887C149.812 34.9276 149.714 34.9464 149.614 34.9437C149.418 34.932 149.231 34.8523 149.087 34.7184ZM149.049 36.1457H150.217V42.3811H149.049V36.1457Z" fill="#010101"/>
<path d="M157.905 36.1458L155.154 42.3811H153.985L151.234 36.1458H152.44L154.626 41.1416L156.85 36.1458H157.905Z" fill="#010101"/>
<path d="M164.425 39.6015H159.337C159.396 40.1155 159.653 40.5866 160.053 40.9162C160.495 41.2549 161.042 41.4278 161.598 41.4045C161.936 41.4122 162.271 41.3493 162.583 41.2199C162.894 41.0905 163.175 40.8975 163.407 40.6533L164.01 41.4045C163.722 41.7335 163.361 41.9907 162.955 42.1558C162.502 42.3435 162.013 42.4331 161.523 42.4187C160.908 42.4245 160.3 42.2828 159.752 42.0055C159.254 41.7291 158.839 41.3276 158.546 40.8411C158.272 40.3464 158.13 39.7906 158.131 39.2259C158.125 38.6606 158.268 38.1035 158.546 37.6107C158.818 37.1461 159.192 36.7482 159.639 36.4462C160.123 36.1785 160.667 36.0364 161.221 36.0331C161.777 36.0227 162.325 36.1657 162.804 36.4462C163.277 36.7168 163.658 37.1224 163.897 37.6107C164.175 38.1306 164.318 38.7118 164.312 39.301C164.462 39.3761 164.425 39.4888 164.425 39.6015ZM159.978 37.5356C159.622 37.8791 159.384 38.3262 159.299 38.8127H163.332C163.322 38.5628 163.256 38.3183 163.138 38.0973C163.021 37.8763 162.855 37.6843 162.653 37.5356C162.471 37.3693 162.257 37.2407 162.024 37.1569C161.791 37.0731 161.544 37.0358 161.297 37.0472C161.055 37.0303 160.812 37.0651 160.584 37.1493C160.357 37.2335 160.15 37.3652 159.978 37.5356Z" fill="#010101"/>
<path d="M167.929 36.3336C168.38 36.1389 168.87 36.049 169.361 36.0706V37.1599H169.097C168.558 37.143 168.033 37.331 167.628 37.6858C167.435 37.8903 167.288 38.1335 167.197 38.3991C167.106 38.6647 167.073 38.9465 167.1 39.2259V42.306H165.932V36.1458H167.025V37.1975C167.257 36.8453 167.566 36.55 167.929 36.3336Z" fill="#010101"/>
<path d="M110.948 51.2084L110.684 53.4997H112.305V54.3261H110.571L110.307 56.4296H109.441L109.704 54.3261H107.481L107.217 56.4296H106.388L106.652 54.3261H105.031V53.4997H106.765L107.066 51.2084H105.446V50.382H107.217L107.481 48.2785H108.31L108.046 50.382H110.27L110.533 48.2785H111.363L111.099 50.382H112.719V51.2084H110.948ZM110.119 51.2084H107.895L107.594 53.4997H109.817L110.119 51.2084Z" fill="#010101"/>
<path d="M114.227 48.2409H117.731C118.54 48.2368 119.339 48.4167 120.068 48.7668C120.736 49.0781 121.29 49.5905 121.651 50.2317C122.027 50.896 122.222 51.6473 122.216 52.4104C122.236 53.175 122.04 53.9297 121.651 54.589C121.278 55.2208 120.728 55.73 120.068 56.0539C119.341 56.408 118.541 56.5881 117.731 56.5798H114.227V48.2409ZM117.618 55.4529C118.233 55.4587 118.841 55.317 119.39 55.0397C119.883 54.792 120.3 54.4155 120.596 53.9504C120.886 53.4627 121.03 52.9021 121.01 52.3352C121.016 51.7699 120.873 51.2129 120.596 50.72C120.309 50.2477 119.889 49.8691 119.39 49.6307C118.841 49.3535 118.233 49.2117 117.618 49.2175H115.395V55.3778H117.618V55.4529Z" fill="#010101"/>
<path d="M123.837 48.8419C123.763 48.7757 123.705 48.6945 123.666 48.6037C123.627 48.5129 123.608 48.4148 123.611 48.316C123.604 48.2168 123.621 48.1175 123.661 48.0261C123.7 47.9347 123.76 47.8539 123.837 47.7901C123.903 47.7168 123.985 47.6587 124.076 47.6198C124.167 47.5809 124.265 47.5621 124.364 47.5648C124.464 47.5583 124.564 47.5753 124.655 47.6144C124.747 47.6536 124.828 47.7138 124.892 47.7901C125.026 47.9339 125.106 48.1199 125.118 48.316C125.125 48.4152 125.108 48.5146 125.068 48.606C125.029 48.6974 124.969 48.7782 124.892 48.8419C124.826 48.9152 124.744 48.9733 124.653 49.0122C124.562 49.0512 124.464 49.0699 124.364 49.0673C124.166 49.0645 123.976 48.9834 123.837 48.8419ZM123.837 50.2317H125.005V56.4671H123.837V50.2317Z" fill="#010101"/>
<path d="M133.069 50.2317V55.6032C133.069 56.6925 132.805 57.4813 132.278 58.0448C131.75 58.6082 130.921 58.8336 129.828 58.8336C129.255 58.8351 128.685 58.7593 128.132 58.6082C127.659 58.4645 127.222 58.2211 126.851 57.8945L127.378 57.0306C127.686 57.2903 128.046 57.4823 128.434 57.594C128.858 57.7416 129.303 57.8178 129.753 57.8194C130.044 57.8435 130.338 57.8094 130.616 57.7191C130.894 57.6288 131.152 57.4841 131.373 57.2935C131.562 57.0784 131.705 56.8282 131.796 56.5574C131.886 56.2866 131.922 56.0006 131.901 55.7159V55.2276C131.642 55.5462 131.304 55.7921 130.921 55.9412C130.517 56.113 130.078 56.1901 129.64 56.1666C129.072 56.1729 128.514 56.0304 128.019 55.7534C127.547 55.5069 127.145 55.145 126.851 54.7017C126.556 54.2295 126.412 53.6796 126.436 53.1241C126.44 52.5719 126.582 52.0294 126.851 51.5464C127.135 51.0947 127.539 50.7306 128.019 50.4947C128.515 50.2221 129.073 50.0799 129.64 50.0815C130.094 50.0666 130.545 50.1566 130.959 50.3444C131.348 50.5196 131.695 50.7758 131.976 51.0957V50.119H132.994V50.2317H133.069ZM130.959 54.9646C131.262 54.7876 131.519 54.5434 131.712 54.2509C131.933 53.8503 132.018 53.3899 131.957 52.9371C131.896 52.4842 131.692 52.0628 131.373 51.7342C130.94 51.3726 130.393 51.1732 129.828 51.1708C129.259 51.1488 128.704 51.3513 128.283 51.7342C128.078 51.9175 127.918 52.1443 127.813 52.398C127.709 52.6516 127.663 52.9255 127.68 53.1992C127.664 53.5678 127.755 53.9332 127.944 54.2509C128.137 54.5434 128.395 54.7876 128.697 54.9646C129.032 55.1481 129.409 55.2389 129.79 55.2276C130.196 55.2387 130.597 55.1483 130.959 54.9646Z" fill="#010101"/>
<path d="M135.294 48.8419C135.22 48.7757 135.162 48.6945 135.123 48.6037C135.084 48.5129 135.065 48.4148 135.068 48.316C135.061 48.2168 135.078 48.1175 135.118 48.0261C135.157 47.9347 135.217 47.8539 135.294 47.7901C135.36 47.7168 135.442 47.6587 135.533 47.6198C135.624 47.5809 135.722 47.5621 135.821 47.5648C135.921 47.5583 136.021 47.5753 136.112 47.6144C136.204 47.6536 136.285 47.7138 136.349 47.7901C136.423 47.8563 136.481 47.9376 136.52 48.0284C136.559 48.1192 136.578 48.2173 136.575 48.316C136.582 48.4152 136.565 48.5146 136.525 48.606C136.486 48.6974 136.426 48.7782 136.349 48.8419C136.283 48.9152 136.201 48.9733 136.11 49.0122C136.019 49.0512 135.921 49.0699 135.821 49.0673C135.623 49.0645 135.433 48.9834 135.294 48.8419ZM135.256 50.2317H136.424V56.4671H135.256V50.2317Z" fill="#010101"/>
<path d="M142.077 56.0915C141.912 56.2505 141.701 56.3553 141.474 56.392C141.232 56.4779 140.978 56.5285 140.721 56.5423C140.189 56.5539 139.669 56.3813 139.251 56.0539C139.066 55.8596 138.923 55.629 138.832 55.3768C138.741 55.1246 138.704 54.8563 138.723 54.589V51.1332H137.668V50.1942H138.723V48.8419H139.891V50.1942H141.7V51.1332H139.891V54.5139C139.88 54.6563 139.897 54.7996 139.942 54.9352C139.988 55.0707 140.06 55.1957 140.155 55.3027C140.249 55.3941 140.362 55.4647 140.485 55.51C140.609 55.5553 140.74 55.5742 140.871 55.5656C141.188 55.5816 141.499 55.4738 141.738 55.2651L142.077 56.0915Z" fill="#010101"/>
<path d="M147.691 50.8327C147.933 51.08 148.122 51.3744 148.245 51.6975C148.368 52.0206 148.423 52.3656 148.407 52.7109V56.4671H147.352V55.6408C147.163 55.9412 146.887 56.1771 146.56 56.3169C146.166 56.4776 145.742 56.5543 145.317 56.5423C144.714 56.558 144.122 56.3874 143.621 56.0539C143.417 55.903 143.256 55.7034 143.15 55.4736C143.045 55.2438 142.999 54.9912 143.018 54.7393C143.018 54.4898 143.072 54.2433 143.176 54.0165C143.28 53.7897 143.431 53.5878 143.621 53.4246C144.035 53.0865 144.638 52.9363 145.505 52.9363H147.314V52.7109C147.327 52.5069 147.293 52.3027 147.215 52.1139C147.136 51.925 147.016 51.7566 146.862 51.6216C146.516 51.3297 146.07 51.1817 145.618 51.2084C145.245 51.1973 144.873 51.2612 144.525 51.3962C144.205 51.4962 143.909 51.6626 143.658 51.8845L143.168 51.0581C143.509 50.7824 143.909 50.5895 144.337 50.4947C144.799 50.3439 145.282 50.2678 145.769 50.2693C146.111 50.2236 146.459 50.2502 146.79 50.3473C147.121 50.4443 147.428 50.6097 147.691 50.8327ZM146.56 55.4154C146.863 55.2129 147.1 54.9253 147.239 54.589V53.7251H145.505C144.525 53.7251 144.035 54.0256 144.035 54.7017C144.044 54.9869 144.166 55.2569 144.374 55.4529C144.675 55.6501 145.033 55.7425 145.392 55.7159C145.797 55.6879 146.193 55.5861 146.56 55.4154Z" fill="#010101"/>
<path d="M150.48 47.7902H151.649V56.4671H150.48V47.7902Z" fill="#010101"/>
<path d="M154.552 56.2793C154.054 56.1228 153.592 55.8672 153.195 55.5281L153.648 54.589C154.005 54.8944 154.413 55.1359 154.853 55.3027C155.336 55.4808 155.847 55.5699 156.361 55.5656C156.896 55.582 157.427 55.4659 157.906 55.2276C158.065 55.1293 158.194 54.9903 158.28 54.8251C158.367 54.6598 158.406 54.4745 158.396 54.2885C158.401 54.1581 158.381 54.0279 158.335 53.9055C158.29 53.783 158.221 53.6706 158.132 53.5748C157.935 53.3943 157.705 53.2539 157.454 53.1616C157.072 53.0338 156.682 52.9334 156.286 52.8611C155.776 52.737 155.272 52.5866 154.778 52.4104C154.395 52.2613 154.057 52.0153 153.798 51.6967C153.511 51.3486 153.364 50.9071 153.384 50.4571C153.398 50.0351 153.515 49.6228 153.723 49.2551C153.989 48.8859 154.355 48.5993 154.778 48.4287C155.339 48.2007 155.944 48.0981 156.549 48.1282C157.046 48.1166 157.542 48.1799 158.019 48.3161C158.445 48.4311 158.851 48.6083 159.225 48.8419L158.811 49.781C158.481 49.5501 158.11 49.3844 157.718 49.2927C157.343 49.1602 156.947 49.0966 156.549 49.1049C156.026 49.0877 155.507 49.204 155.042 49.4429C154.889 49.5475 154.765 49.6878 154.679 49.8516C154.594 50.0153 154.55 50.1974 154.552 50.382C154.547 50.5124 154.567 50.6426 154.613 50.7651C154.658 50.8875 154.727 50.9999 154.816 51.0957C155.027 51.2766 155.269 51.4168 155.532 51.5089C155.908 51.6543 156.3 51.7552 156.7 51.8094C157.21 51.9335 157.713 52.0839 158.208 52.2601C158.581 52.4093 158.916 52.6404 159.187 52.9363C159.474 53.2843 159.622 53.7258 159.602 54.1758C159.587 54.5978 159.471 55.0101 159.263 55.3778C159.018 55.7672 158.645 56.0594 158.208 56.2042C157.641 56.414 157.04 56.516 156.436 56.5047C155.799 56.5693 155.156 56.4923 154.552 56.2793Z" fill="#010101"/>
<path d="M166.911 50.2318V56.4671H165.856V55.5281C165.623 55.8357 165.328 56.0916 164.989 56.2793C164.603 56.4667 164.176 56.557 163.746 56.5423C163.377 56.5774 163.006 56.5303 162.658 56.4043C162.31 56.2784 161.995 56.0768 161.735 55.8142C161.475 55.5516 161.277 55.2346 161.156 54.8862C161.034 54.5378 160.992 54.1668 161.032 53.8002V50.2318H162.201V53.6875C162.182 53.9316 162.212 54.1769 162.29 54.4091C162.367 54.6414 162.491 54.8558 162.653 55.0398C162.816 55.2005 163.011 55.3267 163.225 55.4106C163.438 55.4945 163.667 55.5345 163.897 55.5281C164.424 55.5454 164.938 55.3567 165.329 55.0022C165.514 54.7928 165.656 54.549 165.747 54.2847C165.837 54.0204 165.874 53.7408 165.856 53.4621V50.2318H166.911Z" fill="#010101"/>
<path d="M170.116 56.1666C169.627 55.8797 169.213 55.4805 168.91 55.0022C168.625 54.5106 168.469 53.9548 168.458 53.387C168.446 52.816 168.603 52.2541 168.91 51.7718C169.203 51.2857 169.619 50.8843 170.116 50.6074C170.649 50.3259 171.246 50.1837 171.849 50.1942C172.37 50.2041 172.882 50.3191 173.357 50.5322C173.789 50.7449 174.145 51.0862 174.374 51.5089L173.545 52.0723C173.362 51.7818 173.101 51.5477 172.792 51.3962C172.488 51.2426 172.152 51.1652 171.812 51.1708C171.43 51.155 171.051 51.2461 170.719 51.4337C170.414 51.6246 170.157 51.8814 169.965 52.185C169.791 52.5487 169.701 52.9465 169.701 53.3494C169.701 53.7523 169.791 54.1501 169.965 54.5139C170.146 54.8257 170.406 55.0848 170.719 55.2651C171.053 55.4486 171.43 55.5394 171.812 55.5281C172.151 55.5294 172.487 55.4523 172.792 55.3027C173.102 55.1525 173.363 54.9181 173.545 54.6266L174.374 55.1524C174.136 55.578 173.784 55.9291 173.357 56.1666C172.888 56.3971 172.372 56.513 171.849 56.5047C171.251 56.5572 170.65 56.44 170.116 56.1666Z" fill="#010101"/>
<path d="M176.747 56.1666C176.257 55.8797 175.844 55.4805 175.541 55.0022C175.255 54.5106 175.1 53.9548 175.089 53.387C175.076 52.816 175.234 52.2541 175.541 51.7718C175.834 51.2857 176.25 50.8843 176.747 50.6074C177.28 50.3259 177.877 50.1837 178.48 50.1942C179.001 50.2041 179.513 50.3191 179.988 50.5322C180.42 50.7449 180.776 51.0862 181.005 51.5089L180.176 52.0723C179.993 51.7818 179.732 51.5477 179.422 51.3962C179.119 51.2426 178.783 51.1652 178.443 51.1708C178.061 51.155 177.682 51.2461 177.35 51.4337C177.045 51.6246 176.787 51.8814 176.596 52.185C176.422 52.5487 176.332 52.9465 176.332 53.3494C176.332 53.7523 176.422 54.1501 176.596 54.5139C176.777 54.8257 177.037 55.0848 177.35 55.2651C177.684 55.4486 178.061 55.5394 178.443 55.5281C178.782 55.5294 179.118 55.4523 179.422 55.3027C179.733 55.1525 179.994 54.9181 180.176 54.6266L181.005 55.1524C180.767 55.578 180.415 55.9291 179.988 56.1666C179.519 56.3971 179.003 56.513 178.48 56.5047C177.882 56.5572 177.281 56.44 176.747 56.1666Z" fill="#010101"/>
<path d="M188.054 53.7251H182.966C183.025 54.2391 183.282 54.7102 183.682 55.0398C184.123 55.3784 184.67 55.5513 185.227 55.5281C185.565 55.5358 185.9 55.4729 186.211 55.3435C186.523 55.2141 186.804 55.0211 187.036 54.7768L187.639 55.5281C187.351 55.857 186.989 56.1143 186.584 56.2793C186.13 56.467 185.642 56.5566 185.152 56.5423C184.537 56.5481 183.929 56.4064 183.38 56.1291C182.883 55.8527 182.467 55.4512 182.175 54.9646C181.901 54.47 181.758 53.9142 181.76 53.3494C181.754 52.7841 181.897 52.2271 182.175 51.7342C182.447 51.2697 182.82 50.8718 183.267 50.5698C183.752 50.302 184.296 50.1599 184.85 50.1566C185.406 50.1463 185.954 50.2893 186.433 50.5698C186.906 50.8404 187.287 51.246 187.526 51.7342C187.804 52.2542 187.947 52.8354 187.94 53.4246C187.985 53.4597 188.019 53.5063 188.039 53.5592C188.059 53.6121 188.064 53.6695 188.054 53.7251ZM183.569 51.6591C183.213 52.0027 182.976 52.4498 182.891 52.9363H186.923C186.913 52.6864 186.847 52.4419 186.729 52.2208C186.612 51.9998 186.446 51.8079 186.245 51.6591C186.062 51.4929 185.848 51.3642 185.615 51.2805C185.382 51.1967 185.135 51.1594 184.888 51.1708C184.646 51.1513 184.402 51.185 184.174 51.2693C183.946 51.3537 183.74 51.4867 183.569 51.6591Z" fill="#010101"/>
<path d="M189.939 56.3169C189.542 56.2188 189.17 56.0398 188.846 55.791L189.336 54.927C189.652 55.134 189.994 55.2982 190.353 55.4154C190.74 55.5508 191.149 55.6144 191.559 55.6032C192.539 55.6032 193.067 55.3402 193.067 54.7768C193.069 54.689 193.049 54.6019 193.01 54.5233C192.97 54.4448 192.912 54.377 192.84 54.326C192.688 54.2286 192.524 54.1528 192.351 54.1007C192.069 54.062 191.792 53.9992 191.521 53.9129C191.031 53.8377 190.579 53.725 190.278 53.6499C189.958 53.5535 189.672 53.3716 189.449 53.124C189.209 52.8419 189.088 52.4788 189.109 52.1098C189.102 51.842 189.163 51.5767 189.289 51.3397C189.414 51.1027 189.599 50.9022 189.826 50.7576C190.383 50.3898 191.042 50.2058 191.71 50.2317C192.129 50.226 192.548 50.2766 192.953 50.382C193.314 50.4598 193.658 50.5996 193.971 50.7952L193.481 51.6591C192.934 51.3353 192.308 51.1665 191.672 51.1708C191.294 51.1486 190.917 51.2264 190.579 51.3962C190.46 51.4471 190.358 51.5306 190.285 51.637C190.212 51.7433 190.17 51.8682 190.165 51.9972C190.162 52.0904 190.181 52.183 190.22 52.2677C190.26 52.3525 190.318 52.427 190.391 52.4855C190.531 52.6306 190.718 52.7234 190.918 52.7484C191.204 52.8268 191.493 52.8895 191.785 52.9362C192.275 53.0114 192.727 53.124 193.029 53.1992C193.332 53.2879 193.605 53.4566 193.82 53.6875C193.933 53.8224 194.017 53.9782 194.069 54.1458C194.121 54.3134 194.139 54.4895 194.122 54.6641C194.13 54.9319 194.068 55.1973 193.942 55.4343C193.817 55.6712 193.632 55.8718 193.406 56.0164C192.804 56.3756 192.108 56.5458 191.408 56.5047C190.911 56.5396 190.411 56.4758 189.939 56.3169Z" fill="#010101"/>
<path d="M195.816 56.3169C195.419 56.2188 195.047 56.0398 194.723 55.791L195.213 54.927C195.529 55.134 195.871 55.2982 196.23 55.4154C196.617 55.5508 197.026 55.6144 197.436 55.6032C198.416 55.6032 198.944 55.3402 198.944 54.7768C198.946 54.689 198.926 54.6019 198.887 54.5233C198.847 54.4448 198.789 54.377 198.717 54.326C198.565 54.2286 198.4 54.1528 198.227 54.1007C197.946 54.062 197.669 53.9992 197.398 53.9129C196.908 53.8377 196.456 53.725 196.155 53.6499C195.835 53.5535 195.549 53.3716 195.326 53.124C195.086 52.8419 194.965 52.4788 194.986 52.1098C194.978 51.842 195.04 51.5767 195.166 51.3397C195.291 51.1027 195.476 50.9022 195.702 50.7576C196.26 50.3898 196.919 50.2058 197.587 50.2317C198.006 50.226 198.425 50.2766 198.83 50.382C199.196 50.4431 199.544 50.5842 199.848 50.7952L199.358 51.6591C198.811 51.3353 198.185 51.1665 197.549 51.1708C197.171 51.1486 196.794 51.2264 196.456 51.3962C196.337 51.4471 196.235 51.5306 196.162 51.637C196.088 51.7433 196.047 51.8682 196.042 51.9972C196.039 52.0904 196.058 52.183 196.097 52.2677C196.136 52.3525 196.195 52.427 196.268 52.4855C196.408 52.6306 196.595 52.7234 196.795 52.7484C197.081 52.8268 197.37 52.8895 197.662 52.9362C198.152 53.0114 198.604 53.124 198.906 53.1992C199.209 53.2879 199.482 53.4566 199.697 53.6875C199.81 53.8224 199.894 53.9782 199.946 54.1458C199.998 54.3134 200.016 54.4895 199.999 54.6641C200.007 54.9319 199.945 55.1973 199.819 55.4343C199.694 55.6712 199.509 55.8718 199.283 56.0164C198.681 56.3756 197.985 56.5458 197.285 56.5047C196.788 56.5351 196.289 56.4713 195.816 56.3169Z" fill="#010101"/>
</svg>
