<svg width="230" height="71" viewBox="0 0 230 71" fill="none" xmlns="http://www.w3.org/2000/svg">
<g style="mix-blend-mode:luminosity" clipPath="url(#clip0_659_10947)">
<path d="M38.7754 13.5772V19.7163C38.7754 20.9865 40.0398 22.1861 41.3781 22.1861H47.8483C49.4844 22.1861 50.5255 20.8454 50.5255 19.0813V14.2828C50.5255 12.5187 49.4098 11.2486 47.7737 11.2486H41.6759C40.486 11.2486 39.6678 11.7426 39.0729 12.5893C38.9987 12.7304 38.7754 13.2244 38.7754 13.5772Z" fill="url(#paint0_linear_659_10947)"/>
<path d="M25.8496 11.2649V16.6276C25.8496 17.8764 27.016 18.9049 28.5711 18.9049H33.7031C35.1805 18.9049 36.4246 17.8764 36.4246 16.7745V11.1915C36.4246 10.163 35.336 9.0611 34.1696 9.0611H28.2601C27.5603 9.0611 26.9383 9.35496 26.5495 9.72224C26.2384 10.0896 25.8496 10.6773 25.8496 11.2649Z" fill="url(#paint1_linear_659_10947)"/>
<path d="M36.4374 1.98444C36.4374 2.95839 36.3647 6.15854 36.5828 6.78465C36.8735 7.48032 37.6004 7.96728 38.5454 7.96728H42.6884C43.7057 7.96728 44.6507 7.20205 44.6507 6.29766V1.8453C44.6507 1.21919 43.7784 0.314811 42.9065 0.314811H38.2546C37.3824 0.245243 36.4374 1.14962 36.4374 1.98444Z" fill="url(#paint2_linear_659_10947)"/>
<path d="M27.026 2.77331C27.026 6.09685 26.8908 5.77103 30.5427 5.77103C32.0305 5.77103 31.6923 4.0115 31.6923 2.51263C31.6923 1.92612 31.2866 1.40479 30.7455 1.40479H28.0405C27.2966 1.46995 27.026 2.12163 27.026 2.77331Z" fill="url(#paint3_linear_659_10947)"/>
<path fill-rule="evenodd" clip-rule="evenodd" d="M87.408 35.7977H61.7363V62.1816H87.408V35.7977Z" fill="#6E0092"/>
<path d="M0 55.9509V7.56448H10.1335V24.1639C11.4846 22.5575 13.1475 21.3405 15.0703 20.513C16.941 19.6854 19.0717 19.2473 21.4621 19.2473C23.6967 19.2473 25.7234 19.6368 27.5422 20.3669C29.361 21.0971 30.816 22.1194 31.9593 23.4337C32.7388 24.3586 33.2585 25.3809 33.5703 26.5491C33.8821 27.6688 34.0379 29.5672 34.0379 32.0985V32.78V55.9509H23.9045V37.2585C23.9045 32.8287 23.4888 30.054 22.6053 28.8857C21.7739 27.7661 20.2149 27.2306 17.9804 27.2306C15.5379 27.2306 13.6152 27.8635 12.2121 29.2265C10.809 30.5895 10.1335 32.4393 10.1335 34.727V55.9509H0Z" fill="#800750"/>
<path d="M118.535 38.2805C118.535 34.6783 117.808 31.9523 116.404 30.0538C114.949 28.1553 112.819 27.2305 110.064 27.2305C107.362 27.2305 105.284 28.1553 103.88 30.0538C102.425 31.9036 101.75 34.6783 101.75 38.2805C101.75 41.6881 102.477 44.268 103.984 46.1177C105.439 47.9675 107.57 48.8924 110.272 48.8924C112.871 48.8924 114.845 47.9675 116.352 46.0691C117.808 44.1706 118.535 41.5907 118.535 38.2805ZM91.8242 70.311V20.2207H101.542V25.0399C102.997 22.9467 104.66 21.389 106.479 20.4641C108.246 19.4906 110.428 19.0038 112.871 19.0038C117.548 19.0038 121.393 20.7562 124.303 24.2124C127.213 27.6686 128.72 32.2444 128.72 37.8912C128.72 43.6353 127.213 48.2597 124.303 51.8131C121.393 55.3665 117.599 57.1679 113.026 57.1679C110.584 57.1679 108.401 56.681 106.479 55.7074C104.608 54.7825 102.997 53.371 101.75 51.5209V70.311H91.8242Z" fill="#800750"/>
<path d="M171.543 55.9506V20.2205H181.001V26.3053C182.352 23.8714 183.911 22.0703 185.678 20.9506C187.496 19.7824 189.575 19.1982 192.07 19.1982C192.485 19.1982 192.797 19.1982 193.005 19.1982C193.213 19.1982 193.421 19.2469 193.525 19.2469L193.577 28.9826H190.147C187.392 28.9826 185.262 29.6641 183.859 31.0271C182.456 32.3414 181.728 34.3858 181.728 37.0634V55.9506H171.543Z" fill="#800750"/>
<path d="M195.912 55.9509V48.6489L216.803 27.8145H197.107V20.2206H229.066V28.0092L208.384 48.0162H229.742V55.9509H195.912Z" fill="#800750"/>
<path fill-rule="evenodd" clip-rule="evenodd" d="M72.5464 45.9714V37.6961C72.5464 36.2843 72.2348 34.9702 71.7151 33.7531C71.1437 32.5361 70.3638 31.4165 69.3767 30.4916C68.3893 29.6154 67.246 28.8853 65.9469 28.3498C64.6478 27.8143 63.2965 27.5709 61.7897 27.5709C60.3344 27.5709 58.9313 27.8143 57.5804 28.3498C56.2813 28.8853 55.138 29.5667 54.1505 30.4916C53.163 31.4165 52.3836 32.5361 51.8121 33.7531C51.2403 34.9702 50.9805 36.2843 50.9805 37.6961C50.9805 39.0589 51.2403 40.3734 51.8121 41.5904C52.3836 42.8071 53.163 43.8781 54.1505 44.7543C55.138 45.6792 56.2813 46.4096 57.5804 46.9449C62.6728 49.0382 68.4933 46.4096 72.5464 43.4889V45.9714Z" fill="#800750"/>
<path fill-rule="evenodd" clip-rule="evenodd" d="M72.5441 59.9426C70.3093 60.9161 67.8669 61.5975 65.3209 61.9381H65.2687H65.2169H65.1129H65.0607L65.0089 61.9868C64.8531 61.9868 64.6973 61.9868 64.5411 62.0355C63.6058 62.1328 62.6705 62.1815 61.7352 62.1815C55.0313 62.1815 48.9514 59.7478 44.3782 55.8535L44.3264 55.8048C39.8051 51.9105 36.7393 46.4586 36.1156 40.3737L36.0637 40.1789C36.0637 39.7893 36.0117 39.3514 36.0117 38.8644C36.0117 38.5726 36.0117 38.3291 36.0117 38.037C36.0117 37.7935 36.0117 37.5503 36.0117 37.3069V37.1608C36.0117 37.0147 36.0117 36.9173 36.0117 36.8199C36.2715 32.5363 37.6747 28.5447 39.9613 25.1372C40.1689 25.1859 40.3251 25.1859 40.5327 25.1859H47.6523C46.0934 26.7436 44.7939 28.5447 43.8586 30.5892C42.8711 32.7797 42.3515 35.1649 42.3515 37.6477C42.3515 40.1789 42.8711 42.5156 43.8586 44.7059C44.8979 46.8965 46.301 48.8437 48.0161 50.4986C49.7827 52.154 51.8094 53.4681 54.2 54.3929C62.5665 57.8006 70.4133 53.2733 72.5441 52.5432V59.9426Z" fill="#6E0092"/>
<path fill-rule="evenodd" clip-rule="evenodd" d="M61.7369 13.8923H61.7887C63.5038 13.8923 64.0753 13.8923 66.0498 14.1844C67.1413 14.3791 67.5569 14.4278 68.3886 14.7199C73.0654 15.8881 77.2229 18.2734 80.4448 21.4375H80.5488C80.6524 21.7296 81.5881 22.4598 81.5881 22.6058V22.6545C82.1595 23.336 82.7314 24.0175 83.251 24.7963C83.4068 24.8937 83.5108 25.0884 83.6144 25.2831L84.3943 26.5488C84.4461 26.5974 84.4979 26.6948 84.4979 26.7435C85.7452 28.934 86.6287 31.3193 87.0965 33.8505C87.1483 33.9479 87.1483 34.0453 87.2001 34.3374C87.3563 35.2136 87.46 36.2359 87.5121 37.2095V37.3556C87.5121 37.5987 87.5121 37.7935 87.5121 38.037C87.5121 38.2804 87.5121 38.4749 87.5121 38.7184V38.7671C87.46 40.2276 87.3041 41.6878 86.9925 42.9048C86.8367 43.5375 86.7327 44.0732 86.5247 44.6572L86.4729 44.7546C86.3689 45.0955 86.2649 45.3873 86.1609 45.6795L85.901 46.4583C85.6412 47.1397 85.3296 47.7727 85.0176 48.4541C84.8099 48.795 84.6019 49.2329 84.3421 49.6712C83.4068 51.18 82.3675 52.5919 81.172 53.906V47.6753V45.9716V37.6474C81.172 35.1649 80.6524 32.7796 79.6131 30.5891C78.626 28.3499 77.2229 26.4514 75.456 24.7963C73.7408 23.1413 71.6623 21.8756 69.3239 20.902C66.9855 19.9772 64.4909 19.4904 61.7887 19.4904C59.0865 19.4904 56.5401 19.9772 54.2017 20.902L54.0977 20.9507C54.0977 20.8534 54.0977 20.7073 54.0977 20.61V15.0119L54.1498 14.9633C54.4615 14.8659 54.8771 14.7199 55.1891 14.6712C57.1119 14.1844 59.0865 13.8923 61.061 13.8923H61.581H61.6329H61.6847H61.7369Z" fill="#6E0092"/>
<path d="M54.2001 54.393C51.8095 53.4681 49.7828 52.154 48.0158 50.4987C46.3011 48.8437 44.898 46.8966 43.8587 44.7059C42.8712 42.5156 42.3516 40.1789 42.3516 37.6478C42.3516 35.165 42.8712 32.7798 43.8587 30.5892C44.898 28.35 46.3011 26.4515 48.0158 24.7964C49.7828 23.1414 51.8095 21.8757 54.2001 20.9022C56.5385 19.9773 59.0849 19.4905 61.7871 19.4905C64.4893 19.4905 66.9836 19.9773 69.3223 20.9022C71.6607 21.8757 73.7393 23.1414 75.454 24.7964C77.221 26.4515 78.6241 28.35 79.6116 30.5892C80.6508 32.7798 81.1705 35.165 81.1705 37.6478V45.9717V47.6754V59.9426H72.5442V52.5432C70.4134 53.2733 62.5666 57.8007 54.2001 54.393ZM72.5442 45.9717V37.6965C72.5442 36.2846 72.2322 34.9702 71.7125 33.7533C71.1411 32.5364 70.3616 31.4168 69.3741 30.4919C68.3867 29.6157 67.2434 28.8855 65.9443 28.35C64.6452 27.8145 63.2942 27.5711 61.7871 27.5711C60.3322 27.5711 58.9291 27.8145 57.5778 28.35C56.2787 28.8855 55.1354 29.567 54.1479 30.4919C53.1608 31.4168 52.381 32.5364 51.8095 33.7533C51.2381 34.9702 50.9782 36.2846 50.9782 37.6965C50.9782 39.0593 51.2381 40.3737 51.8095 41.5908C52.381 42.8075 53.1608 43.8784 54.1479 44.7546C55.1354 45.6795 56.2787 46.4099 57.5778 46.9453C62.6706 49.0385 68.4907 46.4099 72.5442 43.4892V45.9717Z" fill="#FEFEFE"/>
<path d="M141.711 54.1495C139.373 53.1759 137.294 51.8615 135.58 50.2065C133.813 48.5515 132.462 46.6531 131.422 44.4624C130.383 42.2231 129.863 39.8867 129.863 37.4039C129.863 34.8728 130.383 32.4875 131.422 30.2969C132.462 28.1064 133.813 26.1593 135.58 24.5042C137.294 22.8978 139.373 21.5835 141.711 20.6585C144.102 19.685 146.648 19.1982 149.351 19.1982C152.001 19.1982 154.547 19.685 156.886 20.6585C159.224 21.5835 161.251 22.8978 163.018 24.5042C164.785 26.1593 166.136 28.1064 167.175 30.2969C168.163 32.4875 168.682 34.8728 168.682 37.4039V45.6795V47.3832V55.9018H160.056V52.251C157.977 53.0298 150.13 57.5081 141.711 54.1495ZM160.056 37.4039C160.004 36.0411 159.796 34.7267 159.224 33.461C158.653 32.2441 157.873 31.1731 156.886 30.2482C155.898 29.3234 154.807 28.5932 153.508 28.0577C152.209 27.5222 150.806 27.2789 149.351 27.2789C147.844 27.2789 146.44 27.5222 145.141 28.0577C143.842 28.5932 142.647 29.3234 141.66 30.2482C140.672 31.1731 139.893 32.2441 139.373 33.461C138.802 34.7267 138.49 36.0411 138.49 37.4039C138.49 38.8158 138.802 40.0812 139.373 41.2982C139.893 42.5153 140.672 43.5862 141.66 44.5111C142.647 45.3873 143.79 46.2148 145.141 46.6531C154.443 49.8169 160.523 43.5862 160.056 37.4039Z" fill="#800750"/>
</g>
<defs>
<linearGradient id="paint0_linear_659_10947" x1="39.0684" y1="21.5582" x2="49.709" y2="11.229" gradientUnits="userSpaceOnUse">
<stop stop-color="#A5590B"/>
<stop offset="0.1294" stop-color="#F7D87D"/>
<stop offset="0.2196" stop-color="#F7D87D"/>
<stop offset="0.2902" stop-color="#F7D87D"/>
<stop offset="0.451" stop-color="#C9923D"/>
<stop offset="0.5608" stop-color="#C27B1A"/>
<stop offset="0.5686" stop-color="#C27B1A"/>
<stop offset="0.8314" stop-color="#F7D87D"/>
<stop offset="0.8784" stop-color="#F7D87D"/>
<stop offset="1" stop-color="#B47214"/>
</linearGradient>
<linearGradient id="paint1_linear_659_10947" x1="26.1006" y1="18.388" x2="35.5736" y2="9.1528" gradientUnits="userSpaceOnUse">
<stop stop-color="#A5590B"/>
<stop offset="0.1294" stop-color="#F7D87D"/>
<stop offset="0.2196" stop-color="#F7D87D"/>
<stop offset="0.2902" stop-color="#F7D87D"/>
<stop offset="0.451" stop-color="#C9923D"/>
<stop offset="0.5608" stop-color="#C27B1A"/>
<stop offset="0.5686" stop-color="#C27B1A"/>
<stop offset="0.8314" stop-color="#F7D87D"/>
<stop offset="0.8784" stop-color="#F7D87D"/>
<stop offset="1" stop-color="#B47214"/>
</linearGradient>
<linearGradient id="paint2_linear_659_10947" x1="36.6638" y1="7.5304" x2="44.1638" y2="0.313236" gradientUnits="userSpaceOnUse">
<stop stop-color="#A5590B"/>
<stop offset="0.1294" stop-color="#F7D87D"/>
<stop offset="0.2196" stop-color="#F7D87D"/>
<stop offset="0.2902" stop-color="#F7D87D"/>
<stop offset="0.451" stop-color="#C9923D"/>
<stop offset="0.5608" stop-color="#C27B1A"/>
<stop offset="0.5686" stop-color="#C27B1A"/>
<stop offset="0.8314" stop-color="#F7D87D"/>
<stop offset="0.8784" stop-color="#F7D87D"/>
<stop offset="1" stop-color="#B47214"/>
</linearGradient>
<linearGradient id="paint3_linear_659_10947" x1="27.12" y1="5.58055" x2="31.3762" y2="1.51214" gradientUnits="userSpaceOnUse">
<stop stop-color="#A5590B"/>
<stop offset="0.1294" stop-color="#F7D87D"/>
<stop offset="0.2196" stop-color="#F7D87D"/>
<stop offset="0.2902" stop-color="#F7D87D"/>
<stop offset="0.451" stop-color="#C9923D"/>
<stop offset="0.5608" stop-color="#C27B1A"/>
<stop offset="0.5686" stop-color="#C27B1A"/>
<stop offset="0.8314" stop-color="#F7D87D"/>
<stop offset="0.8784" stop-color="#F7D87D"/>
<stop offset="1" stop-color="#B47214"/>
</linearGradient>
<clipPath id="clip0_659_10947">
<rect width="230" height="70" fill="white" transform="translate(0 0.311035)"/>
</clipPath>
</defs>
</svg>
