<svg width="230" height="69" viewBox="0 0 230 69" fill="none" xmlns="http://www.w3.org/2000/svg">
<g style="mix-blend-mode:luminosity">
<g clipPath="url(#clip0_659_11130)">
<path d="M29.0008 0.451306C29.3096 0.484456 29.6165 0.524406 29.9226 0.572856C31.4017 0.805756 32.8958 1.23501 34.2873 1.76286C34.4784 1.83766 34.6642 1.91501 34.8508 1.99321C35.4638 2.26011 36.0592 2.57376 36.6236 2.92821C41.5394 6.02221 43.7775 10.5986 44.3808 16.0301C45.1645 23.0877 42.2453 28.9051 37.6276 34.1258C36.9128 34.9316 36.1494 35.7 35.3524 36.4318C34.5562 37.1654 33.7238 37.8675 32.8737 38.5415C32.0209 39.2173 31.146 39.8701 30.265 40.5084C30.1314 40.6045 30.0005 40.7014 29.8678 40.794C29.8058 40.8374 29.7324 40.8824 29.651 40.8901C29.5431 40.9037 29.4555 40.8306 29.4458 40.726C29.437 40.6546 29.467 40.5866 29.5015 40.5271C29.5829 40.3792 29.7138 40.2645 29.8421 40.154C29.9739 40.0358 30.0925 39.9066 30.2075 39.7706C30.4764 39.4604 30.7409 39.1416 30.993 38.8127C31.591 38.0553 32.1492 37.2708 32.6552 36.4556C33.6468 34.8627 34.4518 33.1678 35.0401 31.4083C35.953 28.6841 36.3343 25.817 36.2662 22.9619C36.214 20.7451 35.677 18.6175 34.5058 16.6872C32.4473 13.2982 29.184 11.8277 25.2687 11.747C20.5289 11.6424 16.3738 13.1733 13.1662 16.6209C9.97719 20.0489 9.45261 23.9802 11.1298 28.2327C12.7009 32.2031 15.6316 35.19 18.8835 37.9108C20.7775 39.4961 22.7643 40.9785 24.7281 42.4881C25.481 43.0644 25.3792 43.3678 24.4937 43.6517C23.303 44.0317 22.1327 44.4839 20.9659 44.9267C20.451 45.1214 20.0096 45.1358 19.5284 44.8103C13.3953 40.6478 7.73115 36.0213 3.58761 29.8996C1.61315 26.9815 0.232265 23.8144 0.0261492 20.3014C-0.232158 15.9536 1.43623 12.2281 4.45542 9.07541C6.2105 7.24876 8.22211 5.66351 10.4407 4.38511C12.6231 3.12796 14.9868 2.17256 17.4283 1.49086C18.6685 1.14406 19.953 0.822756 21.2357 0.645106C21.9 0.553306 22.5449 0.423256 23.2155 0.387556C23.9417 0.345906 24.6698 0.322956 25.3978 0.316156C26.6018 0.300006 27.8075 0.322106 29.0008 0.451306Z" fill="#3F5E8F"/>
<path d="M26.6547 68.3127C24.1813 67.7296 21.6593 67.2919 19.3027 66.3093C16.9098 65.3131 14.6655 64.0882 12.7557 62.3483C8.70854 58.661 9.43746 54.3328 13.3846 51.1308C18.787 46.7397 25.2659 44.4235 31.8996 42.4795C37.3559 40.879 42.9812 39.9678 48.6135 39.1314C48.8639 39.0931 49.1434 38.9784 49.4353 39.2844C47.1822 40.2236 44.9459 41.1042 42.7503 42.0783C36.3979 44.8927 30.1383 47.8736 24.5573 51.9961C23.5232 52.7577 22.6059 53.646 21.7752 54.6005C20.1413 56.4867 20.489 58.3575 22.7032 59.4447C24.8997 60.5242 27.2669 60.854 29.6969 60.5488C31.7519 60.2913 32.8037 58.3643 32.1323 56.1926C31.6395 54.6039 30.708 53.249 29.459 52.1168C28.7362 51.4657 28.807 51.0042 29.6324 50.5511C33.1399 48.6106 32.28 48.4576 34.7038 51.0246C37.6054 54.0939 39.1128 57.7481 38.5652 62.0295C38.1609 65.1958 36.2723 67.0411 33.1947 67.9268C32.7462 68.0577 32.2942 68.1844 31.843 68.3136L26.6547 68.3127Z" fill="#67BD55"/>
<path d="M52.9834 36.1734C54.106 36.1487 55.1551 37.1313 55.1976 38.2457C55.2392 39.3974 54.3103 40.3656 53.1125 40.4055C51.8582 40.454 50.786 39.5326 50.7621 38.38C50.7382 37.2461 51.79 36.204 52.9834 36.1734Z" fill="#ED2C2C"/>
<path d="M81.3242 13.4526H88.0296V53.5934H81.3242V13.4526ZM109.201 53.5942V30.4292C109.201 30.0454 109.193 29.6073 109.173 29.1105C109.153 28.6154 109.095 28.1169 108.994 27.6183C108.897 27.1215 108.76 26.642 108.583 26.1849C108.406 25.7243 108.142 25.3224 107.788 24.9808C107.438 24.6367 106.955 24.3305 106.348 24.064C105.741 23.7975 105.025 23.6629 104.202 23.6629C103.653 23.6629 103.077 23.719 102.467 23.8345C101.86 23.9475 101.284 24.1597 100.735 24.4633C100.302 24.6919 99.8613 25.0093 99.4102 25.4095C98.959 25.8105 98.5574 26.3358 98.2045 26.987L98.0859 24.2356H92.2643V53.5942H98.6158V31.6324C98.6158 31.3262 98.6264 31.014 98.6468 30.6854C98.6644 30.3619 98.7733 30.0454 98.9705 29.7384C99.2041 29.3209 99.4889 29.0406 99.8233 28.9078C100.154 28.7767 100.478 28.7094 100.793 28.7094C101.657 28.7094 102.244 29.0716 102.558 29.7996C102.635 29.9109 102.705 30.1515 102.763 30.5137C102.819 30.8794 102.851 31.4625 102.851 32.262V53.5934L109.201 53.5942ZM121.318 53.5942V29.6254H125.259V24.2347H121.318V21.8249C121.318 20.5674 121.434 19.7972 121.673 19.5324C121.945 19.1865 122.335 18.9864 122.846 18.9286C123.354 18.8743 123.788 18.8433 124.139 18.8433H125.612V13.4544H121.376C121.181 13.4544 120.906 13.4621 120.552 13.4837C120.198 13.5018 119.796 13.5613 119.348 13.6545C118.895 13.7502 118.434 13.8942 117.965 14.0857C117.493 14.2737 117.062 14.5428 116.667 14.887C116.239 15.3087 115.847 15.8599 115.492 16.5507C115.143 17.2381 114.967 18.1558 114.967 19.3004V24.2347H111.669V29.6254H114.967V53.5934L121.318 53.5942ZM128.021 18.876H134.373V13.4535H128.021V18.876ZM128.021 53.5942H134.373V24.2347H128.021V53.5942ZM137.434 43.7894V46.6546C137.434 47.7646 137.57 48.7211 137.843 49.5233C138.117 50.3254 138.546 51.0542 139.136 51.7028C139.96 52.6576 140.939 53.3062 142.078 53.6538C142.549 53.8056 143.144 53.928 143.869 54.0264C144.595 54.1204 145.194 54.1678 145.662 54.1678C146.251 54.1678 146.971 54.1109 147.81 53.9944C148.655 53.8815 149.349 53.7116 149.899 53.4804C150.408 53.2881 150.927 52.9767 151.457 52.5334C151.986 52.0935 152.429 51.6674 152.781 51.2431C153.446 50.4021 153.857 49.5707 154.019 48.7479C154.173 47.9294 154.253 47.1134 154.253 46.3104C154.253 45.8542 154.232 45.3669 154.196 44.8502C154.155 44.3327 154.046 43.7894 153.87 43.2149C153.694 42.6422 153.438 42.0609 153.106 41.4649C152.771 40.875 152.292 40.2738 151.665 39.6588L145.195 33.2962C144.802 32.9124 144.519 32.5398 144.345 32.1775C144.167 31.8135 144.075 31.3642 144.075 30.8311C144.075 30.525 144.099 30.2377 144.137 29.9686C144.173 29.7004 144.351 29.433 144.664 29.1648C145.056 28.8595 145.487 28.7085 145.962 28.7085C146.156 28.7085 146.401 28.756 146.696 28.8517C146.99 28.9474 147.217 29.0708 147.369 29.226C147.566 29.4149 147.695 29.6711 147.754 29.998C147.811 30.3231 147.841 30.6009 147.841 30.832V33.1806H153.959V31.058C153.959 30.1817 153.833 29.1967 153.577 28.1065C153.321 27.0163 152.685 26.0693 151.666 25.2672C151.119 24.848 150.374 24.4745 149.429 24.1476C148.489 23.8251 147.388 23.6629 146.137 23.6629C145.002 23.6629 143.962 23.775 143.019 24.0062C142.079 24.2347 141.196 24.6358 140.374 25.2094C139.903 25.5164 139.531 25.8407 139.256 26.184C138.981 26.529 138.705 26.9697 138.431 27.5045C138.117 28.0772 137.92 28.5947 137.844 29.0527C137.764 29.5107 137.726 30.1222 137.726 30.8855C137.726 31.4228 137.764 31.9481 137.844 32.4639C137.92 32.9796 138.117 33.5808 138.431 34.2699C138.899 35.3412 139.612 36.3356 140.548 37.2516L146.665 43.1614C147.217 43.6936 147.558 44.2413 147.696 44.7959C147.834 45.347 147.903 45.987 147.903 46.7167C147.903 47.022 147.881 47.3282 147.841 47.6318C147.803 47.9397 147.685 48.2261 147.492 48.4943C147.291 48.8005 147.068 48.9799 146.812 49.0402C146.56 49.0954 146.292 49.1265 146.016 49.1265C145.741 49.1265 145.451 49.0963 145.137 49.0402C144.824 48.9799 144.549 48.816 144.312 48.5521C144.115 48.3597 143.979 48.101 143.897 47.7775C143.823 47.4558 143.785 47.1376 143.785 46.8305V43.7919H137.434V43.7894ZM169.84 53.5942V48.2036H166.897C166.662 48.2036 166.388 48.1579 166.075 48.0656C165.761 47.9682 165.603 47.5921 165.603 46.9418V29.6254H169.84V24.2347H165.603V13.4544H159.252V24.2347H155.782V29.6254H159.252V47.9199C159.252 48.3761 159.262 48.8936 159.281 49.4663C159.3 50.0373 159.447 50.5936 159.723 51.131C160.15 52.009 160.82 52.6584 161.722 53.0819C162.272 53.3079 162.87 53.4545 163.516 53.5097C164.163 53.5684 164.758 53.5942 165.309 53.5942H169.84ZM188.835 53.5942V31.2883C188.835 30.4456 188.766 29.5771 188.628 28.6792C188.49 27.7813 188.028 26.893 187.247 26.0124C186.306 24.9808 185.19 24.3305 183.892 24.064C182.603 23.7966 181.463 23.6629 180.483 23.6629C179.541 23.6629 178.454 23.7966 177.219 24.064C175.984 24.3305 174.877 24.9618 173.893 25.9554C173.15 26.7205 172.668 27.5045 172.454 28.3083C172.24 29.1105 172.133 29.8177 172.133 30.4292V33.8119H178.249V31.8058V30.7751C178.249 30.4301 178.385 30.1066 178.66 29.7996C179.05 29.3028 179.619 29.0535 180.366 29.0535C181.188 29.0535 181.756 29.3028 182.073 29.7996C182.265 30.1058 182.387 30.4379 182.425 30.8018C182.463 31.1658 182.484 31.4979 182.484 31.8058V34.2147C180.835 35.0186 179.413 35.8475 178.218 36.7082C177.02 37.569 176.051 38.3237 175.308 38.9723C174.835 39.3949 174.386 39.8348 173.956 40.291C173.522 40.7525 173.14 41.2881 172.808 41.8979C172.477 42.5077 172.209 43.1968 172.012 43.9619C171.819 44.7286 171.719 45.6247 171.719 46.6554C171.719 47.7267 171.838 48.7496 172.071 49.7233C172.308 50.6988 172.698 51.5717 173.247 52.3359C173.795 53.0604 174.405 53.5503 175.072 53.7943C175.737 54.0453 176.52 54.1687 177.424 54.1687C178.011 54.1687 178.629 54.1212 179.278 54.0272C179.925 53.9298 180.563 53.6917 181.188 53.3079C181.74 53.006 182.168 52.6791 182.484 52.3359C182.798 51.9909 182.992 51.7416 183.07 51.5898L183.128 53.5942H188.835ZM182.484 46.5976C182.484 46.9038 182.471 47.229 182.454 47.5731C182.434 47.9199 182.326 48.2398 182.128 48.5503C181.932 48.8565 181.706 49.1067 181.454 49.2964C181.196 49.4853 180.854 49.581 180.424 49.581C180.11 49.581 179.777 49.5241 179.424 49.4111C179.072 49.2964 178.758 49.0308 178.483 48.6055C178.208 48.1105 178.074 47.3437 178.074 46.3113C178.074 45.7015 178.117 45.0779 178.217 44.45C178.315 43.8213 178.581 43.1813 179.011 42.5275C179.403 41.9531 179.934 41.3804 180.599 40.806C181.265 40.235 181.893 39.7563 182.483 39.3742V46.5976H182.484ZM209.009 42.3559H202.655V45.7972C202.655 46.5606 202.616 47.1065 202.538 47.43C202.458 47.7586 202.38 47.957 202.304 48.0311C202.105 48.3761 201.84 48.5874 201.51 48.6659C201.175 48.7384 200.912 48.7772 200.714 48.7772C200.401 48.7772 200.094 48.7297 199.803 48.634C199.508 48.54 199.245 48.3192 199.012 47.9751C198.813 47.6697 198.685 47.3265 198.628 46.9409C198.568 46.5606 198.538 46.1595 198.538 45.7377V31.6893C198.538 31.497 198.567 31.2029 198.628 30.8018C198.684 30.4025 198.833 30.0454 199.068 29.7392C199.262 29.5115 199.507 29.3399 199.803 29.2269C200.093 29.1105 200.401 29.0535 200.713 29.0535C201.146 29.0535 201.487 29.1381 201.744 29.3097C201.998 29.4813 202.185 29.684 202.304 29.9109C202.42 30.1066 202.509 30.3421 202.567 30.6285C202.625 30.9148 202.655 31.2891 202.655 31.7488V35.5309H208.889V31.4625C208.889 30.8122 208.841 30.0678 208.742 29.2269C208.644 28.3842 208.244 27.4846 207.538 26.5299C206.636 25.3439 205.557 24.5711 204.304 24.208C203.046 23.8432 201.853 23.6638 200.714 23.6638C199.224 23.6638 197.823 23.9104 196.51 24.409C195.195 24.9049 194.206 25.5923 193.54 26.4721C192.913 27.2759 192.529 28.1652 192.391 29.1389C192.255 30.1144 192.186 30.9277 192.186 31.5763V45.912C192.186 46.6416 192.246 47.4041 192.362 48.2045C192.483 49.0083 192.795 49.832 193.307 50.6721C194.128 52.0469 195.209 52.9784 196.541 53.4554C197.873 53.9306 199.262 54.1695 200.714 54.1695C202.753 54.1695 204.392 53.8547 205.626 53.2242C206.863 52.5929 207.754 51.6691 208.302 50.4427C208.616 49.7923 208.81 49.1118 208.889 48.4063C208.969 47.6991 209.009 47.0418 209.009 46.4269V42.3559ZM229.769 53.5942L224.3 38.6281L229.651 24.2347H223.3L218.891 36.2192H218.713V13.4544H212.361V53.5934H218.713V39.3156H218.829L223.419 53.5942H229.769ZM124.784 29.6478H128.656V24.2468H124.784V29.6478Z" fill="#3F5D8D"/>
</g>
</g>
<defs>
<clipPath id="clip0_659_11130">
<rect width="230" height="68" fill="white" transform="translate(0 0.311035)"/>
</clipPath>
</defs>
</svg>
