<svg width="230" height="65" viewBox="0 0 230 65" fill="none" xmlns="http://www.w3.org/2000/svg">
<g style="mix-blend-mode:luminosity" clipPath="url(#clip0_659_10798)">
<path fill-rule="evenodd" clip-rule="evenodd" d="M161.854 0.310974C166.043 0.273224 170.221 0.764726 174.282 1.77324V11.8962C172.721 10.1961 170.814 8.8369 168.682 7.90677C166.551 6.97663 164.244 6.49636 161.911 6.49724C157.831 6.49724 153.919 8.08617 151.034 10.9145C148.149 13.7428 146.529 17.5789 146.529 21.5788C146.529 25.5786 148.149 29.4146 151.034 32.2429C153.919 35.0712 157.831 36.6602 161.911 36.6602C164.245 36.6575 166.553 36.1738 168.684 35.2404C170.815 34.3071 172.722 32.945 174.282 31.2424V41.3843C170.221 42.3977 166.045 42.9016 161.854 42.884C145.582 42.884 133.804 34.9168 133.804 21.5694C133.804 8.22198 145.582 0.310974 161.854 0.310974ZM115.64 16.864C123.747 17.9701 130.477 20.7633 130.477 29.4429C130.477 39.6221 120.668 42.8839 110.076 42.8277C103.869 43.0433 97.6729 42.1736 91.7773 40.2594V31.1487C97.2055 34.6946 103.554 36.6458 110.076 36.7726C115.219 36.7726 119.961 35.5541 119.961 31.7111C119.961 27.8681 115.582 26.9309 106.577 25.5811C98.8327 24.4188 91.7774 21.1569 91.72 13.6396C91.72 3.51657 101.433 0.423448 110.84 0.423448C116.673 0.345491 122.481 1.17436 128.049 2.87921V12.721C123.048 8.69395 116.757 6.52935 110.286 6.60972C105.85 6.60972 101.644 7.99702 101.644 11.2589C101.644 15.3456 107.858 15.9267 115.621 16.8828L115.64 16.864ZM71.0125 35.779C75.8117 35.779 83.785 34.673 86.9207 31.936V41.9654H52.9054C54.5498 40.0908 54.8175 38.7597 54.8175 34.8605V8.29693C54.8175 4.39769 54.5116 3.10424 52.9054 1.19211H85.1617V11.2026C82.0259 8.46563 74.0336 7.35962 69.2343 7.35962H65.4102V18.1951H68.1827C71.4591 18.3157 74.7349 17.9426 77.8958 17.089V25.1311C74.7349 24.2774 71.4591 23.9045 68.1827 24.0251H65.5249V35.779H71.0125ZM1.89206 1.15458H48.5842V11.1652C45.2573 8.42821 38.2209 7.32209 30.7066 7.32209V34.6355C30.7066 38.7222 31.0699 39.8283 32.6187 41.9279H17.7238C19.3299 39.8283 19.6358 38.7222 19.6358 34.6355V7.35962C12.1215 7.35962 5.08518 8.46563 1.77734 11.2026L1.89206 1.15458ZM203.594 36.6226C195.143 36.6226 189.636 29.7427 189.636 21.5318C189.636 13.3209 195.143 6.53477 203.594 6.53477C212.045 6.53477 217.571 13.3397 217.571 21.5318C217.571 29.724 212.064 36.6226 203.594 36.6226ZM203.594 0.27356C186.787 0.27356 177.207 9.89037 177.207 21.5318C177.207 33.1733 186.768 42.7902 203.594 42.7902C220.42 42.7902 229.961 33.1546 229.961 21.5694C229.961 9.98414 220.401 0.310974 203.556 0.310974" fill="#ED2030"/>
<path fill-rule="evenodd" clip-rule="evenodd" d="M201.28 53.0257H229.579C229.595 53.0415 229.609 53.0604 229.618 53.0813C229.627 53.1023 229.632 53.1248 229.632 53.1476C229.632 53.1703 229.627 53.1929 229.618 53.2138C229.609 53.2348 229.595 53.2537 229.579 53.2694C226.752 54.8813 224.177 56.8826 221.93 59.212C218.642 62.2676 216.194 64.2173 210.955 64.2173H183.919C183.9 64.2175 183.88 64.2136 183.863 64.2059C183.845 64.1982 183.829 64.1867 183.817 64.1725C183.804 64.1582 183.795 64.1414 183.789 64.1233C183.784 64.1051 183.782 64.0861 183.785 64.0673C183.776 64.0466 183.771 64.0243 183.771 64.0018C183.771 63.9792 183.776 63.9569 183.785 63.9361C186.455 62.1639 188.923 60.115 191.146 57.8248C192.37 56.3697 193.893 55.1849 195.617 54.3481C197.34 53.5113 199.225 53.0415 201.146 52.9695" fill="#84179F"/>
<path fill-rule="evenodd" clip-rule="evenodd" d="M155.392 53.0257H183.691C183.707 53.0415 183.721 53.0604 183.73 53.0813C183.739 53.1023 183.744 53.1248 183.744 53.1476C183.744 53.1703 183.739 53.1929 183.73 53.2138C183.721 53.2348 183.707 53.2537 183.691 53.2694C180.864 54.8813 178.289 56.8826 176.042 59.212C172.754 62.2676 170.306 64.2173 165.067 64.2173H137.974C137.936 64.2128 137.902 64.1949 137.878 64.1672C137.853 64.1396 137.839 64.1041 137.84 64.0673C137.831 64.0466 137.826 64.0243 137.826 64.0018C137.826 63.9792 137.831 63.9569 137.84 63.9361C140.501 62.1601 142.962 60.1114 145.182 57.8248C146.405 56.3697 147.929 55.1849 149.652 54.3481C151.376 53.5113 153.26 53.0415 155.182 52.9695" fill="#1F22A5"/>
<path fill-rule="evenodd" clip-rule="evenodd" d="M109.388 53.0257H137.686C137.703 53.0415 137.716 53.0604 137.725 53.0813C137.734 53.1023 137.739 53.1248 137.739 53.1476C137.739 53.1703 137.734 53.1929 137.725 53.2138C137.716 53.2348 137.703 53.2537 137.686 53.2694C134.863 54.8866 132.288 56.8873 130.038 59.212C126.768 62.2676 124.302 64.2173 119.063 64.2173H92.0263C92.007 64.2175 91.9879 64.2136 91.9703 64.2059C91.9527 64.1982 91.9369 64.1867 91.9242 64.1725C91.9115 64.1582 91.9021 64.1414 91.8966 64.1233C91.8912 64.1051 91.8897 64.0861 91.8924 64.0673C91.8835 64.0466 91.8789 64.0243 91.8789 64.0018C91.8789 63.9792 91.8835 63.9569 91.8924 63.9361C94.554 62.1601 97.0153 60.1114 99.2348 57.8248C100.458 56.3697 101.981 55.1849 103.705 54.3481C105.428 53.5113 107.313 53.0415 109.235 52.9695" fill="#379042"/>
<path fill-rule="evenodd" clip-rule="evenodd" d="M63.4423 53.0257H91.7407C91.7574 53.0415 91.7707 53.0604 91.7799 53.0813C91.789 53.1023 91.7936 53.1248 91.7936 53.1476C91.7936 53.1703 91.789 53.1929 91.7799 53.2138C91.7707 53.2348 91.7574 53.2537 91.7407 53.2694C88.9181 54.8866 86.3431 56.8873 84.0925 59.212C80.8229 62.2676 78.3562 64.2173 73.1172 64.2173H46.0809C46.0438 64.2128 46.0096 64.1949 45.9849 64.1672C45.9603 64.1396 45.9468 64.1041 45.9471 64.0673C45.9382 64.0466 45.9336 64.0243 45.9336 64.0018C45.9336 63.9792 45.9382 63.9569 45.9471 63.9361C48.6087 62.1601 51.0699 60.1114 53.2894 57.8248C54.5126 56.3697 56.036 55.1849 57.7595 54.3481C59.483 53.5113 61.3676 53.0415 63.2894 52.9695" fill="#EEE706"/>
<path fill-rule="evenodd" clip-rule="evenodd" d="M17.4951 53.0257H45.8125C45.8422 53.0597 45.8585 53.1029 45.8585 53.1476C45.8585 53.1923 45.8422 53.2355 45.8125 53.2694C42.9899 54.8866 40.415 56.8873 38.1643 59.212C34.8947 62.2676 32.4282 64.2173 27.1892 64.2173H0.133723C0.114415 64.2175 0.0953297 64.2136 0.0777058 64.2059C0.0600819 64.1982 0.0443818 64.1867 0.0316669 64.1725C0.0189519 64.1582 0.00948757 64.1414 0.00400848 64.1233C-0.00147061 64.1051 -0.0028355 64.0861 -7.60891e-05 64.0673C-0.00901588 64.0466 -0.0136719 64.0243 -0.0136719 64.0018C-0.0136719 63.9792 -0.00901588 63.9569 -7.60891e-05 63.9361H0.0955029C2.75705 62.1601 5.21831 60.1114 7.43775 57.8248C8.66097 56.3697 10.1844 55.1849 11.9078 54.3481C13.6313 53.5113 15.5159 53.0415 17.4378 52.9695" fill="#FB8916"/>
</g>
<defs>
<clipPath id="clip0_659_10798">
<rect width="230" height="64" fill="white" transform="translate(0 0.311035)"/>
</clipPath>
</defs>
</svg>
