<svg width="230" height="71" viewBox="0 0 230 71" fill="none" xmlns="http://www.w3.org/2000/svg">
<g style="mix-blend-mode:luminosity">
<path d="M55.6452 35.1743L34.5427 13.7095L21.2361 0.311035L0.134419 21.7759L7.93022 29.5689L21.2361 16.0337L34.6772 29.7056V29.5689L40.0536 35.1743L34.5427 40.9165L21.1017 54.4517L7.7958 40.9165L0 48.8462L21.1017 70.311L34.5427 56.6392L55.6452 35.1743Z" fill="#213266"/>
<path d="M29.0264 35.3102L21.0962 27.3805L15.3169 33.2594L14.6449 33.943L13.3008 35.3102L21.0962 43.3766L29.0264 35.3102Z" fill="#EC1F27"/>
<path d="M73.7104 43.6478H66.7734V20.8866H74.0177C76.1983 20.8866 78.0642 21.3428 79.6155 22.2534C81.1668 23.1563 82.3559 24.4568 83.1828 26.1548C84.0097 27.8433 84.423 29.8669 84.423 32.2218C84.423 34.5937 84.0059 36.6343 83.1717 38.3456C82.3375 40.0492 81.1229 41.3611 79.5276 42.2811C77.9325 43.1916 75.9934 43.6478 73.7104 43.6478ZM69.4955 41.2021H73.5348C75.3933 41.2021 76.9336 40.8386 78.1557 40.1136C79.3777 39.3867 80.2887 38.3532 80.8887 37.0129C81.4888 35.6708 81.7888 34.075 81.7888 32.2218C81.7888 30.3856 81.4923 28.8031 80.8997 27.4761C80.307 26.1434 79.4216 25.1212 78.2434 24.4095C77.0654 23.6901 75.5982 23.3305 73.842 23.3305H69.4955V41.2021ZM95.7064 44.0037C94.082 44.0037 92.6808 43.6402 91.5026 42.9133C90.3319 42.1807 89.4281 41.1585 88.7916 39.8467C88.1623 38.5273 87.8476 36.994 87.8476 35.2449C87.8476 33.4958 88.1623 31.9549 88.7916 30.6222C89.4281 29.2801 90.3136 28.2371 91.4478 27.4874C92.5892 26.7321 93.921 26.3535 95.443 26.3535C96.3211 26.3535 97.1882 26.5031 98.0443 26.7984C98.9005 27.0956 99.6798 27.5764 100.382 28.2427C101.085 28.9034 101.644 29.778 102.062 30.8664C102.479 31.9549 102.687 33.297 102.687 34.889V36.0002H89.6916V33.7343H100.053C100.053 32.7708 99.8628 31.9113 99.4822 31.156C99.109 30.3988 98.5749 29.8026 97.8798 29.3653C97.1918 28.9299 96.3797 28.7103 95.443 28.7103C94.4112 28.7103 93.5185 28.9696 92.7649 29.4883C92.0184 29.9994 91.4441 30.6658 91.0416 31.4892C90.6392 32.3108 90.4379 33.1929 90.4379 34.1337V35.6462C90.4379 36.9353 90.6574 38.0275 91.0965 38.9229C91.5428 39.8126 92.1612 40.4903 92.9515 40.9579C93.7417 41.4179 94.6601 41.6469 95.7064 41.6469C96.3869 41.6469 97.0016 41.5504 97.5504 41.3573C98.1065 41.1585 98.5859 40.8613 98.9882 40.4695C99.3907 40.0682 99.7018 39.5722 99.9213 38.9797L102.424 39.6915C102.16 40.5509 101.718 41.3062 101.096 41.9574C100.474 42.6029 99.7054 43.1064 98.7908 43.4699C97.876 43.8257 96.848 44.0037 95.7064 44.0037ZM113.696 44.0037C112.072 44.0037 110.671 43.6402 109.492 42.9133C108.322 42.1807 107.418 41.1585 106.781 39.8467C106.152 38.5273 105.837 36.994 105.837 35.2449C105.837 33.4958 106.152 31.9549 106.781 30.6222C107.418 29.2801 108.303 28.2371 109.437 27.4874C110.579 26.7321 111.911 26.3535 113.433 26.3535C114.311 26.3535 115.178 26.5031 116.034 26.7984C116.89 27.0956 117.67 27.5764 118.372 28.2427C119.075 28.9034 119.634 29.778 120.051 30.8664C120.468 31.9549 120.677 33.297 120.677 34.889V36.0002H107.681V33.7343H118.043C118.043 32.7708 117.853 31.9113 117.472 31.156C117.099 30.3988 116.565 29.8026 115.87 29.3653C115.182 28.9299 114.369 28.7103 113.433 28.7103C112.401 28.7103 111.508 28.9696 110.755 29.4883C110.008 29.9994 109.434 30.6658 109.031 31.4892C108.629 32.3108 108.428 33.1929 108.428 34.1337V35.6462C108.428 36.9353 108.647 38.0275 109.086 38.9229C109.533 39.8126 110.151 40.4903 110.941 40.9579C111.732 41.4179 112.65 41.6469 113.696 41.6469C114.377 41.6469 114.991 41.5504 115.54 41.3573C116.096 41.1585 116.576 40.8613 116.978 40.4695C117.381 40.0682 117.691 39.5722 117.911 38.9797L120.414 39.6915C120.15 40.5509 119.708 41.3062 119.086 41.9574C118.464 42.6029 117.695 43.1064 116.781 43.4699C115.866 43.8257 114.838 44.0037 113.696 44.0037ZM124.618 50.048V26.5769H127.12V29.2877H127.427C127.618 28.9924 127.881 28.6138 128.218 28.1538C128.562 27.6881 129.052 27.2735 129.689 26.9101C130.332 26.5391 131.203 26.3535 132.301 26.3535C133.72 26.3535 134.972 26.7132 136.054 27.4325C137.137 28.1519 137.983 29.1703 138.59 30.4878C139.198 31.8072 139.5 33.3633 139.5 35.1559C139.5 36.9637 139.198 38.5311 138.59 39.8581C137.983 41.1756 137.141 42.1978 136.065 42.9247C134.99 43.644 133.75 44.0037 132.345 44.0037C131.262 44.0037 130.395 43.822 129.743 43.4585C129.092 43.0875 128.591 42.6691 128.24 42.2016C127.888 41.7283 127.618 41.3365 127.427 41.0241H127.208V50.048H124.618ZM127.164 35.1124C127.164 36.4015 127.35 37.5392 127.724 38.5235C128.097 39.5022 128.642 40.2688 129.359 40.8235C130.076 41.3725 130.954 41.6469 131.993 41.6469C133.076 41.6469 133.98 41.3573 134.704 40.7799C135.436 40.195 135.985 39.4094 136.351 38.4232C136.724 37.4313 136.911 36.3277 136.911 35.1124C136.911 33.9122 136.728 32.8294 136.362 31.8659C136.003 30.8967 135.458 30.13 134.727 29.5659C134.002 28.9961 133.091 28.7103 131.993 28.7103C130.94 28.7103 130.054 28.981 129.337 29.5224C128.62 30.0543 128.079 30.8039 127.713 31.7675C127.347 32.7215 127.164 33.8384 127.164 35.1124ZM161.892 27.9986H159.17C159.009 27.2054 158.727 26.5107 158.325 25.9106C157.93 25.3105 157.446 24.8051 156.876 24.3981C156.313 23.9835 155.687 23.6731 154.999 23.4649C154.311 23.2566 153.595 23.1544 152.849 23.1544C151.486 23.1544 150.254 23.5008 149.149 24.1974C148.052 24.8941 147.177 25.9201 146.526 27.2773C145.881 28.6327 145.56 30.2966 145.56 32.2672C145.56 34.2378 145.881 35.9017 146.526 37.2571C147.177 38.6125 148.052 39.6385 149.149 40.3351C150.254 41.0317 151.486 41.38 152.849 41.38C153.595 41.38 154.311 41.2759 154.999 41.0696C155.687 40.8613 156.313 40.5547 156.876 40.1458C157.446 39.7312 157.93 39.2239 158.325 38.6238C158.727 38.0162 159.009 37.3196 159.17 36.534H161.892C161.688 37.6982 161.314 38.7393 160.772 39.6574C160.232 40.5755 159.559 41.3573 158.753 42.0028C157.949 42.6388 157.044 43.1253 156.042 43.4585C155.048 43.7917 153.982 43.9583 152.849 43.9583C150.931 43.9583 149.226 43.485 147.734 42.5366C146.24 41.5883 145.066 40.2386 144.21 38.4913C143.354 36.7422 142.925 34.6675 142.925 32.2672C142.925 29.8669 143.354 27.7922 144.21 26.0431C145.066 24.294 146.24 22.9462 147.734 21.9978C149.226 21.0494 150.931 20.5743 152.849 20.5743C153.982 20.5743 155.048 20.7428 156.042 21.0759C157.044 21.4091 157.949 21.8975 158.753 22.543C159.559 23.179 160.232 23.957 160.772 24.877C161.314 25.7875 161.688 26.8287 161.892 27.9986ZM172.789 44.0037C171.268 44.0037 169.931 43.6365 168.783 42.902C167.641 42.1694 166.749 41.1434 166.104 39.824C165.468 38.5046 165.149 36.9637 165.149 35.2013C165.149 33.4219 165.468 31.8697 166.104 30.5446C166.749 29.2176 167.641 28.1878 168.783 27.4553C169.931 26.7208 171.268 26.3535 172.789 26.3535C174.311 26.3535 175.642 26.7208 176.785 27.4553C177.933 28.1878 178.826 29.2176 179.462 30.5446C180.107 31.8697 180.428 33.4219 180.428 35.2013C180.428 36.9637 180.107 38.5046 179.462 39.824C178.826 41.1434 177.933 42.1694 176.785 42.902C175.642 43.6365 174.311 44.0037 172.789 44.0037ZM172.789 41.6469C173.945 41.6469 174.896 41.346 175.642 40.7459C176.388 40.1458 176.942 39.3564 177.301 38.3797C177.658 37.401 177.837 36.3409 177.837 35.2013C177.837 34.0599 177.658 32.996 177.301 32.0117C176.942 31.0254 176.388 30.2285 175.642 29.6208C174.896 29.0151 173.945 28.7103 172.789 28.7103C171.632 28.7103 170.681 29.0151 169.935 29.6208C169.189 30.2285 168.635 31.0254 168.278 32.0117C167.919 32.996 167.74 34.0599 167.74 35.2013C167.74 36.3409 167.919 37.401 168.278 38.3797C168.635 39.3564 169.189 40.1458 169.935 40.7459C170.681 41.346 171.632 41.6469 172.789 41.6469ZM190.748 44.0037C189.344 44.0037 188.103 43.644 187.028 42.9247C185.951 42.1978 185.11 41.1756 184.504 39.8581C183.896 38.5311 183.592 36.9637 183.592 35.1559C183.592 33.3633 183.896 31.8072 184.504 30.4878C185.11 29.1703 185.955 28.1519 187.039 27.4325C188.122 26.7132 189.372 26.3535 190.793 26.3535C191.891 26.3535 192.758 26.5391 193.394 26.9101C194.037 27.2735 194.528 27.6881 194.865 28.1538C195.209 28.6138 195.476 28.9924 195.665 29.2877H195.886V20.8866H198.475V43.6478H195.974V41.0241H195.665C195.476 41.3365 195.205 41.7283 194.854 42.2016C194.502 42.6691 194.001 43.0875 193.351 43.4585C192.698 43.822 191.831 44.0037 190.748 44.0037ZM191.1 41.6469C192.139 41.6469 193.016 41.3725 193.734 40.8235C194.452 40.2688 194.996 39.5022 195.37 38.5235C195.742 37.5392 195.929 36.4015 195.929 35.1124C195.929 33.8384 195.745 32.7215 195.381 31.7675C195.015 30.8039 194.472 30.0543 193.756 29.5224C193.038 28.981 192.154 28.7103 191.1 28.7103C190.002 28.7103 189.088 28.9961 188.355 29.5659C187.632 30.13 187.086 30.8967 186.719 31.8659C186.362 32.8294 186.183 33.9122 186.183 35.1124C186.183 36.3277 186.366 37.4313 186.731 38.4232C187.104 39.4094 187.652 40.195 188.378 40.7799C189.109 41.3573 190.017 41.6469 191.1 41.6469ZM210.648 44.0037C209.023 44.0037 207.623 43.6402 206.445 42.9133C205.273 42.1807 204.37 41.1585 203.734 39.8467C203.104 38.5273 202.79 36.994 202.79 35.2449C202.79 33.4958 203.104 31.9549 203.734 30.6222C204.37 29.2801 205.256 28.2371 206.389 27.4874C207.531 26.7321 208.862 26.3535 210.384 26.3535C211.263 26.3535 212.13 26.5031 212.986 26.7984C213.843 27.0956 214.622 27.5764 215.323 28.2427C216.026 28.9034 216.585 29.778 217.004 30.8664C217.421 31.9549 217.628 33.297 217.628 34.889V36.0002H204.633V33.7343H214.994C214.994 32.7708 214.804 31.9113 214.424 31.156C214.05 30.3988 213.517 29.8026 212.822 29.3653C212.134 28.9299 211.321 28.7103 210.384 28.7103C209.352 28.7103 208.46 28.9696 207.707 29.4883C206.961 29.9994 206.385 30.6658 205.983 31.4892C205.581 32.3108 205.379 33.1929 205.379 34.1337V35.6462C205.379 36.9353 205.6 38.0275 206.037 38.9229C206.484 39.8126 207.103 40.4903 207.894 40.9579C208.683 41.4179 209.603 41.6469 210.648 41.6469C211.328 41.6469 211.943 41.5504 212.493 41.3573C213.048 41.1585 213.527 40.8613 213.931 40.4695C214.332 40.0682 214.643 39.5722 214.863 38.9797L217.365 39.6915C217.101 40.5509 216.66 41.3062 216.038 41.9574C215.415 42.6029 214.647 43.1064 213.732 43.4699C212.818 43.8257 211.79 44.0037 210.648 44.0037ZM221.569 43.6478V26.5769H224.073V29.1552H224.247C224.555 28.3109 225.11 27.6256 225.916 27.0994C226.72 26.5731 227.629 26.31 228.638 26.31C228.829 26.31 229.066 26.3138 229.351 26.3214C229.637 26.3289 229.853 26.3403 229.999 26.3535V29.0208C229.911 28.9999 229.709 28.9659 229.395 28.9223C229.089 28.8693 228.762 28.8428 228.418 28.8428C227.599 28.8428 226.868 29.017 226.223 29.3653C225.587 29.706 225.082 30.1812 224.708 30.7888C224.342 31.3889 224.159 32.0741 224.159 32.8446V43.6478H221.569Z" fill="#213266"/>
</g>
</svg>
