<svg width="41" height="41" viewBox="0 0 41 41" fill="none" xmlns="http://www.w3.org/2000/svg">
<g id="Frame">
<path id="Vector" d="M32.9442 14.668C32.546 14.5313 32.1442 14.4047 31.7396 14.2883C31.8075 14.0105 31.8701 13.7361 31.9257 13.4665C32.8377 9.03945 32.2414 5.47293 30.2051 4.29866C28.2526 3.17293 25.0594 4.34675 21.8346 7.15334C21.5167 7.43043 21.206 7.71551 20.9026 8.00831C20.6994 7.81361 20.4927 7.62269 20.2826 7.43565C16.9027 4.43477 13.515 3.17001 11.4808 4.34763C9.53004 5.47688 8.95243 8.82965 9.77352 13.0253C9.85517 13.4408 9.94743 13.8542 10.0501 14.265C9.57056 14.4013 9.10784 14.5463 8.66501 14.7007C4.70243 16.0823 2.17188 18.2473 2.17188 20.4931C2.17188 22.8125 4.88854 25.139 9.01574 26.5496C9.3503 26.6636 9.68769 26.7691 10.0276 26.8662C9.91717 27.3087 9.81917 27.7542 9.73369 28.2022C8.95097 32.325 9.56221 35.5985 11.5077 36.7206C13.5171 37.8794 16.8896 36.6884 20.1733 33.8178C20.4396 33.5844 20.7 33.3444 20.9543 33.0981C21.2829 33.4151 21.6203 33.723 21.966 34.0212C25.147 36.7583 28.2886 37.8636 30.2321 36.7384C32.2396 35.5763 32.892 32.0596 32.045 27.7811C31.9782 27.4459 31.9034 27.1124 31.8206 26.7808C32.0574 26.7106 32.2899 26.6384 32.5165 26.5633C36.8071 25.1418 39.5987 22.8436 39.5987 20.4931C39.5987 18.2391 36.9865 16.0595 32.9442 14.668ZM32.0137 25.0457C31.809 25.1134 31.5991 25.1788 31.385 25.2423C30.9113 23.7428 30.2721 22.1483 29.4899 20.5009C30.2364 18.8927 30.851 17.3185 31.3113 15.8288C31.6942 15.9396 32.0657 16.0564 32.424 16.1797C35.8873 17.3721 38 19.1348 38 20.4931C38 21.9399 35.7184 23.8181 32.0137 25.0457ZM30.4766 28.0916C30.8511 29.9835 30.9045 31.694 30.6564 33.0313C30.4336 34.2329 29.9853 35.0339 29.4309 35.3548C28.2515 36.0376 25.7292 35.1501 23.0088 32.8092C22.6873 32.5319 22.3734 32.2457 22.0678 31.951C23.1225 30.7977 24.1764 29.4569 25.2051 27.9677C27.0144 27.8071 28.7238 27.5446 30.274 27.1863C30.3486 27.4864 30.4161 27.7883 30.4766 28.0916ZM14.9315 35.2368C13.7792 35.6436 12.8613 35.6554 12.3066 35.3355C11.126 34.6547 10.6352 32.0262 11.3046 28.5004C11.3842 28.0838 11.4753 27.6695 11.5779 27.2579C13.1109 27.597 14.8079 27.8409 16.6214 27.988C17.6571 29.4451 18.7414 30.7845 19.8343 31.9573C19.602 32.182 19.3643 32.401 19.1213 32.614C17.6691 33.8833 16.214 34.7839 14.9315 35.2368ZM9.533 25.0368C7.70799 24.413 6.20082 23.6023 5.16778 22.7177C4.23942 21.9228 3.77085 21.1335 3.77085 20.4931C3.77085 19.1303 5.80258 17.3919 9.19132 16.2105C9.60256 16.0672 10.033 15.932 10.4796 15.8051C10.948 17.3285 11.5624 18.9213 12.3038 20.532C11.5527 22.1665 10.9296 23.7848 10.4566 25.3262C10.1465 25.2373 9.83848 25.1408 9.533 25.0368ZM11.3426 12.7181C10.6393 9.12351 11.1064 6.41196 12.282 5.73141C13.534 5.00655 16.3027 6.04003 19.221 8.63126C19.4113 8.80062 19.5985 8.9734 19.7826 9.14954C18.6951 10.3172 17.6207 11.6466 16.5942 13.0951C14.834 13.2583 13.1491 13.5203 11.6 13.8713C11.5045 13.4892 11.4187 13.1045 11.3426 12.7181ZM27.4869 16.7047C27.121 16.0726 26.7415 15.4485 26.3487 14.8329C27.5429 14.9839 28.6871 15.1843 29.7615 15.4294C29.439 16.4633 29.0369 17.5441 28.5637 18.6523C28.2178 17.996 27.8588 17.3466 27.4869 16.7047ZM20.9033 10.2923C21.6407 11.0912 22.3793 11.9831 23.1058 12.951C21.6321 12.8814 20.156 12.8811 18.6822 12.9501C19.4094 11.9912 20.1543 11.1004 20.9033 10.2923ZM14.2774 16.7157C13.9102 17.3524 13.558 17.9977 13.2208 18.651C12.7553 17.5468 12.357 16.461 12.0317 15.4124C13.0995 15.1735 14.2382 14.9782 15.4248 14.8299C15.0276 15.4494 14.6451 16.0783 14.2774 16.7157ZM15.4588 26.27C14.233 26.1331 13.0772 25.9479 12.0096 25.7155C12.34 24.6483 12.7472 23.5393 13.2227 22.4114C13.5612 23.0651 13.9149 23.7108 14.2837 24.3479C14.663 25.0029 15.0556 25.6444 15.4588 26.27ZM20.9474 30.8065C20.1896 29.989 19.4337 29.0845 18.6955 28.1117C19.4122 28.1397 20.1428 28.1541 20.8853 28.1541C21.6482 28.1541 22.4023 28.137 23.1446 28.1039C22.4157 29.0943 21.68 30.0001 20.9474 30.8065ZM28.5787 22.3537C29.079 23.4941 29.5007 24.5972 29.8354 25.6462C28.7504 25.8938 27.5787 26.0932 26.3442 26.2414C26.7399 25.6143 27.1229 24.9793 27.4933 24.337C27.8697 23.684 28.2317 23.0228 28.5787 22.3537ZM26.1083 23.5382C25.5413 24.523 24.9426 25.4891 24.3128 26.435C23.1721 26.5158 22.0289 26.556 20.8853 26.5554C19.7206 26.5554 18.5877 26.5191 17.4967 26.4483C16.8506 25.5046 16.2403 24.5368 15.6673 23.5469C15.097 22.5623 14.5645 21.5563 14.0706 20.5313C14.5633 19.5059 15.0943 18.4996 15.6626 17.5142C16.2307 16.5286 16.836 15.565 17.4773 14.6253C18.5903 14.541 19.7317 14.4972 20.8852 14.4972C22.044 14.4972 23.1869 14.5415 24.2997 14.6263C24.9345 15.5646 25.536 16.525 26.103 17.5056C26.6733 18.4889 27.2113 19.4904 27.7165 20.5086C27.2166 21.5372 26.6801 22.5477 26.1083 23.5382ZM29.4066 5.68375C30.6598 6.40655 31.1472 9.3213 30.3598 13.1437C30.3094 13.3876 30.253 13.6359 30.1916 13.8878C28.6387 13.5294 26.9526 13.2629 25.1873 13.0972C24.1588 11.6327 23.0933 10.3013 22.0235 9.14866C22.3039 8.87841 22.5909 8.61517 22.8843 8.35919C25.6474 5.95465 28.23 5.00524 29.4066 5.68375ZM20.8853 17.151C22.7311 17.151 24.2274 18.6473 24.2274 20.4931C24.2274 22.3389 22.7311 23.8352 20.8853 23.8352C19.0396 23.8352 17.5433 22.3389 17.5433 20.4931C17.5433 18.6473 19.0396 17.151 20.8853 17.151Z" fill="#00D8FF"/>
</g>
</svg>
