<svg width="61" height="61" viewBox="0 0 61 61" fill="none" xmlns="http://www.w3.org/2000/svg">
<g clipPath="url(#clip0_1175_18834)">
<path d="M14.6344 46.745L14.093 47.1061C12.8299 47.8285 12.8299 49.6344 14.093 50.5373L27.9878 59.7472C29.7923 61.0113 32.3186 61.0113 34.1231 59.7472L47.8374 50.7179C49.1006 49.9955 49.1006 48.1897 47.8374 47.2867L47.1156 46.9256L42.4239 50.1761L33.0404 56.4967C31.7773 57.3996 30.1532 57.3996 28.89 56.4967L19.5066 50.1761L14.6344 46.745ZM7.95771 31.9368L7.2359 32.4786C5.61184 33.5621 5.61184 36.0903 7.2359 37.1739L26.7246 50.3567C29.2509 52.1626 32.6795 52.1626 35.3863 50.3567L54.6945 37.535C56.3186 36.4515 56.3186 33.9233 54.6945 32.8398L53.7923 32.298L47.1156 36.6321L33.9427 45.4809C32.1382 46.745 29.7923 46.5644 27.9878 45.4809L7.95771 31.9368ZM59.3863 18.2122L35.9276 2.32059C32.86 0.153552 28.7096 0.153552 25.4615 2.32059L2.36372 17.8511C0.378759 19.2958 0.378759 22.1852 2.36372 23.6298L25.8224 39.3409C28.89 41.508 33.0404 41.508 36.1081 39.3409L59.3863 23.8104C61.3712 22.5463 61.3712 19.4764 59.3863 18.2122ZM50.3637 22.9075L34.484 33.5621C32.3186 35.0068 29.6118 35.0068 27.4464 33.5621L11.3863 22.7269C9.94267 21.824 9.94267 19.8375 11.3863 18.754L27.266 8.09938C29.4314 6.65468 32.1382 6.65468 34.3036 8.09938L50.3637 18.9346C51.8073 20.0181 51.8073 22.0046 50.3637 22.9075Z" fill="white"/>
</g>
<defs>
<clipPath id="clip0_1175_18834">
<rect width="60" height="60" fill="white" transform="translate(0.875 0.695312)"/>
</clipPath>
</defs>
</svg>
