<svg width="61" height="61" viewBox="0 0 61 61" fill="none" xmlns="http://www.w3.org/2000/svg">
<g id="Icon Set - Travel" clipPath="url(#clip0_1175_18845)">
<g id="Styleguide">
<g id="ios-development-stack-icon">
<g id="Logo_Fastlane">
<g id="fastlane-seeklogo.com">
<path id="Path" d="M51.6004 16.4848C49.0923 16.4848 46.8187 17.5032 45.1495 19.1551L34.5646 11.4144C34.6307 11.1317 34.6694 10.8382 34.6694 10.5347C34.6694 8.44245 33.0086 6.74609 30.9597 6.74609C28.911 6.74609 27.25 8.44245 27.25 10.5347C27.25 12.6272 28.911 14.3233 30.9597 14.3233C31.6771 14.3233 32.3446 14.1117 32.9123 13.7517L45.8695 23.3817C46.8796 21.2299 49.1076 19.5543 51.6004 19.5543C55.0623 19.5543 57.869 22.4205 57.869 25.9561C57.869 28.7815 56.0767 31.1794 53.59 32.0287L54.4405 34.975C58.1732 33.7499 60.8744 30.1753 60.8744 25.9561C60.8744 20.7253 56.7224 16.4848 51.6004 16.4848Z" fill="white"/>
<path id="Path_2" d="M21.8673 7.28488C21.1101 9.71967 21.3714 12.2349 22.4047 14.3544L12.0032 22.2931C11.7599 22.1437 11.4983 22.0176 11.2159 21.9259C9.26826 21.294 7.18771 22.3944 6.5692 24.3834C5.95045 26.3725 7.02787 28.4974 8.97529 29.129C10.9229 29.7609 13.0035 28.6608 13.6222 26.6717C13.8388 25.9752 13.8435 25.2633 13.6797 24.6037L26.5567 14.9318C24.8587 13.3012 23.9718 10.6321 24.7244 8.21193C25.7699 4.85081 29.2855 2.99145 32.5766 4.05925C35.2065 4.91233 36.8973 7.37656 36.9372 10.0474L39.9365 10.1113C39.9233 6.11752 37.4115 2.41531 33.4841 1.14119C28.6152 -0.43836 23.414 2.31214 21.8673 7.28488Z" fill="white"/>
<path id="Path_3" d="M4.68691 32.8863C6.70488 34.3902 9.1152 34.9408 11.4004 34.6236L15.5038 47.148C15.2896 47.334 15.0913 47.5451 14.9181 47.7871C13.7251 49.4569 14.0945 51.8064 15.7431 53.0348C17.3917 54.2635 19.6951 53.9056 20.8881 52.2358C22.0813 50.5661 21.7119 48.2167 20.0633 46.9881C19.4861 46.5579 18.8284 46.3265 18.1665 46.2736L13.2308 30.8187C11.1911 31.9303 8.44301 31.9315 6.43699 30.4367C3.65145 28.3607 3.02731 24.3907 5.04316 21.5691C6.65426 19.3143 9.46348 18.4753 11.9486 19.2884L12.9442 16.4273C9.24223 15.1666 5.03027 16.3998 2.62465 19.7667C-0.357773 23.9411 0.56543 29.8151 4.68691 32.8863Z" fill="white"/>
<path id="Path_4" d="M52.1679 47.6059C51.4038 45.1907 49.7658 43.3127 47.7244 42.2109L51.6844 29.6468C51.9668 29.6238 52.2511 29.5712 52.5326 29.4783C54.4746 28.8375 55.5429 26.7185 54.919 24.7457C54.2948 22.7724 52.2145 21.6924 50.2725 22.3331C48.3305 22.9737 47.262 25.0927 47.8861 27.0658C48.1048 27.7566 48.5044 28.3346 49.0113 28.771L44.0205 44.1988C46.3256 44.5126 48.5595 46.1451 49.3188 48.5459C50.3735 51.8799 48.5681 55.4605 45.2866 56.5432C42.6642 57.4085 39.8925 56.4168 38.3468 54.2819L35.8711 56.0034C38.1452 59.2228 42.2862 60.7299 46.2021 59.4378C51.0572 57.836 53.7281 52.5387 52.1679 47.6059Z" fill="white"/>
<path id="Path_5" d="M23.4401 57.7408C25.452 56.2373 26.6909 54.0575 27.0806 51.7316L40.021 51.5968C40.1306 51.863 40.2682 52.1217 40.4426 52.3652C41.6452 54.0438 43.9524 54.4088 45.596 53.1809C47.2397 51.9528 47.5971 49.5965 46.3948 47.9178C45.1922 46.2392 42.885 45.8739 41.2413 47.1021C40.666 47.5322 40.2518 48.1017 40.0034 48.7309L24.0738 48.7724C24.5002 51.1042 23.6759 53.7839 21.676 55.2782C18.8986 57.3535 14.9998 56.7364 12.9678 53.9C11.344 51.6332 11.4038 48.6352 12.9103 46.4632L10.5347 44.6094C8.24439 47.8295 8.13189 52.3166 10.5565 55.7014C13.5628 59.8981 19.331 60.811 23.4401 57.7408Z" fill="white"/>
</g>
</g>
</g>
</g>
</g>
<defs>
<clipPath id="clip0_1175_18845">
<rect width="60" height="60" fill="white" transform="translate(0.875 0.695312)"/>
</clipPath>
</defs>
</svg>
